<svg width="960.0px" height="284.0px" xmlns="http://www.w3.org/2000/svg" version="1.1">

<path d="M 0.0 0.0 L 960.0 0.0 L 960.0 284.0 L 0.0 284.0 L 0.0 0.0 Z" fill="#ffffff" stroke="none" stroke-width="1.0" /><g transform="translate(20.0,20.0)">
<path d="M 0.0 0.0 L 195.0 0.0 L 195.0 253.0 L 0.0 253.0 L 0.0 0.0 Z" fill="#ffffff" stroke="none" stroke-width="1.0" />
<path d="M 0.0 69.0 L 195.0 69.0 M 0.0 77.0 L 195.0 77.0 M 0.0 85.0 L 195.0 85.0 M 0.0 93.0 L 195.0 93.0 M 0.0 101.0 L 195.0 101.0 Z" fill="none" stroke="#d6d6d6" stroke-width="0.75" />
<path d="M 0.0 182.0 L 195.0 182.0 M 0.0 192.0 L 195.0 192.0 M 0.0 202.0 L 195.0 202.0 M 0.0 212.0 L 195.0 212.0 M 0.0 222.0 L 195.0 222.0 M 0.0 232.0 L 195.0 232.0 Z" fill="none" stroke="#d6d6d6" stroke-width="0.75" />
<path d="M 67.77043 69.40856 C 68.324905 69.40856 68.821014 69.3502 69.25876 69.20428 C 69.6965 69.058365 69.959145 69.0 70.04669 69.0 C 70.192604 69.0 70.28015 69.02918 70.36771 69.11673 C 70.42607 69.175095 70.45525 69.23346 70.484436 69.321014 C 70.484436 69.37938 70.45525 69.437744 70.42607 69.49611 L 61.933853 79.359924 L 66.924126 79.359924 L 66.924126 75.44942 C 66.924126 75.18677 67.01167 74.95331 67.1284 74.807396 C 67.3035 74.661476 67.4786 74.515564 67.71206 74.4572 C 67.97471 74.34047 68.26653 74.07782 68.64591 73.640076 C 68.937744 73.31907 69.317116 72.70622 69.75486 71.80156 C 69.81323 71.68482 69.90078 71.62646 70.01751 71.62646 C 70.28015 71.62646 70.39688 71.77237 70.42607 72.03502 L 70.42607 79.359924 L 72.55642 79.359924 C 72.84825 79.359924 72.99416 79.50584 73.023346 79.79767 C 73.023346 80.08949 72.877426 80.235405 72.55642 80.235405 L 70.42607 80.235405 L 70.42607 80.46887 C 70.42607 81.28599 70.63035 81.92802 71.00973 82.45331 C 71.44747 82.9786 71.97276 83.270424 72.5856 83.270424 C 72.81906 83.270424 72.9358 83.38716 72.9358 83.62062 C 72.9358 83.85408 72.81906 83.97082 72.5856 83.97082 C 72.14786 83.97082 71.50584 83.91245 70.601166 83.795715 C 69.696495 83.6498 69.054474 83.59144 68.64591 83.59144 C 68.23735 83.59144 67.56615 83.6498 66.69066 83.795715 C 65.81517 83.91245 65.17315 83.97082 64.735405 83.97082 C 64.501945 83.97082 64.385216 83.85408 64.385216 83.62062 C 64.385216 83.38716 64.501945 83.270424 64.735405 83.270424 C 65.34825 83.270424 65.87354 82.9786 66.31128 82.45331 C 66.71984 81.898834 66.924126 81.256805 66.924126 80.46887 L 66.924126 80.235405 L 61.933853 80.235405 C 61.61284 80.235405 61.379375 80.17704 61.233463 80.001945 C 61.087547 79.88521 61.0 79.71011 61.0 79.53502 C 61.0 79.476654 61.145912 79.27237 61.437744 78.92218 C 61.729572 78.57198 62.079765 78.10506 62.488327 77.49222 C 62.488327 77.49222 63.305447 76.20817 63.71401 75.44942 C 63.71401 75.44942 64.47276 73.78599 64.735405 72.70622 C 65.02724 71.65564 65.17315 70.575874 65.17315 69.49611 C 65.17315 69.175095 65.31907 69.02918 65.58171 69.02918 C 65.61089 69.02918 65.756805 69.058365 65.96109 69.11673 C 66.16537 69.175095 66.4572 69.23346 66.77821 69.321014 C 67.1284 69.37938 67.44942 69.40856 67.77043 69.40856 Z" fill="#000000" stroke="none" stroke-width="0.75" />
<path d="M 67.77043 86.40856 C 68.324905 86.40856 68.821014 86.3502 69.25876 86.20428 C 69.6965 86.058365 69.959145 86.0 70.04669 86.0 C 70.192604 86.0 70.28015 86.02918 70.36771 86.11673 C 70.42607 86.175095 70.45525 86.23346 70.484436 86.321014 C 70.484436 86.37938 70.45525 86.437744 70.42607 86.49611 L 61.933853 96.359924 L 66.924126 96.359924 L 66.924126 92.44942 C 66.924126 92.18677 67.01167 91.95331 67.1284 91.807396 C 67.3035 91.661476 67.4786 91.515564 67.71206 91.4572 C 67.97471 91.34047 68.26653 91.07782 68.64591 90.640076 C 68.937744 90.31907 69.317116 89.70622 69.75486 88.80156 C 69.81323 88.68482 69.90078 88.62646 70.01751 88.62646 C 70.28015 88.62646 70.39688 88.77237 70.42607 89.03502 L 70.42607 96.359924 L 72.55642 96.359924 C 72.84825 96.359924 72.99416 96.50584 73.023346 96.79767 C 73.023346 97.08949 72.877426 97.235405 72.55642 97.235405 L 70.42607 97.235405 L 70.42607 97.46887 C 70.42607 98.28599 70.63035 98.92802 71.00973 99.45331 C 71.44747 99.9786 71.97276 100.270424 72.5856 100.270424 C 72.81906 100.270424 72.9358 100.38716 72.9358 100.62062 C 72.9358 100.85408 72.81906 100.97082 72.5856 100.97082 C 72.14786 100.97082 71.50584 100.91245 70.601166 100.795715 C 69.696495 100.6498 69.054474 100.59144 68.64591 100.59144 C 68.23735 100.59144 67.56615 100.6498 66.69066 100.795715 C 65.81517 100.91245 65.17315 100.97082 64.735405 100.97082 C 64.501945 100.97082 64.385216 100.85408 64.385216 100.62062 C 64.385216 100.38716 64.501945 100.270424 64.735405 100.270424 C 65.34825 100.270424 65.87354 99.9786 66.31128 99.45331 C 66.71984 98.898834 66.924126 98.256805 66.924126 97.46887 L 66.924126 97.235405 L 61.933853 97.235405 C 61.61284 97.235405 61.379375 97.17704 61.233463 97.001945 C 61.087547 96.88521 61.0 96.71011 61.0 96.53502 C 61.0 96.476654 61.145912 96.27237 61.437744 95.92218 C 61.729572 95.57198 62.079765 95.10506 62.488327 94.49222 C 62.488327 94.49222 63.305447 93.20817 63.71401 92.44942 C 63.71401 92.44942 64.47276 90.78599 64.735405 89.70622 C 65.02724 88.65564 65.17315 87.575874 65.17315 86.49611 C 65.17315 86.175095 65.31907 86.02918 65.58171 86.02918 C 65.61089 86.02918 65.756805 86.058365 65.96109 86.11673 C 66.16537 86.175095 66.4572 86.23346 66.77821 86.321014 C 67.1284 86.37938 67.44942 86.40856 67.77043 86.40856 Z" fill="#000000" stroke="none" stroke-width="0.75" />
<path d="M 22.764973 61.115383 C 22.921913 61.03691 22.948072 61.03691 23.105015 61.03691 C 23.314268 61.063072 23.445057 61.14154 23.73278 61.455425 C 25.616081 63.39104 27.185501 66.84376 27.577856 69.77334 C 27.630169 70.24416 27.630169 71.34276 27.577856 71.83974 C 27.29013 74.533905 26.165377 76.99266 23.57584 80.52385 L 23.209644 81.02083 L 23.418898 81.62244 C 23.915882 83.06107 24.491331 84.81359 24.85753 86.09528 C 24.96216 86.409164 25.04063 86.67074 25.04063 86.6969 C 25.04063 86.6969 25.223728 86.6969 25.406826 86.72305 C 26.322319 86.80152 27.10703 87.01078 27.917896 87.40313 C 28.57182 87.74317 29.147274 88.13552 29.696568 88.65866 C 30.29818 89.26028 30.690535 89.80957 31.05673 90.56812 C 31.606026 91.66672 31.84144 92.81762 31.81528 93.96853 C 31.789125 94.70093 31.684496 95.25022 31.449085 95.930305 C 31.1352 96.92426 30.559748 97.83976 29.77504 98.624466 C 29.094955 99.30455 28.46719 99.72306 27.630169 100.0631 L 27.316284 100.193886 L 27.316284 101.13554 C 27.316284 102.46954 27.237814 104.038956 27.133184 104.980606 C 27.02856 105.94841 26.766989 106.86391 26.348476 107.700935 C 25.249886 109.92427 23.314268 111.10133 21.143244 110.89209 C 18.684484 110.65667 16.69656 108.98262 16.199577 106.73312 C 15.964161 105.713 16.068794 104.9283 16.487303 104.27437 C 17.036598 103.411194 18.082878 102.914215 19.102997 102.94037 C 20.30622 102.99268 21.274027 103.934326 21.457123 105.24218 C 21.58791 106.28845 21.143244 107.25626 20.30622 107.7794 C 19.835394 108.06713 19.181469 108.197914 18.684484 108.119446 C 18.606018 108.119446 18.527544 108.093285 18.527544 108.119446 L 18.84143 108.43333 C 19.416882 109.00878 20.070807 109.374985 20.907831 109.558075 C 21.090927 109.584236 21.247868 109.584236 21.666382 109.584236 C 22.137207 109.584236 22.189518 109.584236 22.451088 109.53192 C 22.81729 109.42729 23.131172 109.29651 23.418898 109.139565 C 24.726748 108.35486 25.616081 106.73312 25.851494 104.77136 C 25.929964 104.038956 26.008434 102.46954 26.008434 101.318634 C 26.008434 100.56009 26.008434 100.50777 25.956123 100.50777 C 25.851494 100.56009 25.302197 100.6124 24.909843 100.63855 C 24.41286 100.66471 23.57584 100.66471 23.183485 100.6124 C 21.640223 100.4293 20.227747 99.90616 18.998373 99.04298 C 17.167385 97.76129 15.859535 95.85182 15.31024 93.65465 C 14.604002 90.908165 15.100986 87.978584 16.827343 84.89206 C 17.55974 83.610374 18.265978 82.564095 20.018494 80.23612 L 21.012455 78.90212 L 20.829355 78.405136 C 19.573822 75.083206 19.15531 73.173744 19.024527 70.40111 C 18.972214 69.19789 19.024527 68.177765 19.181469 67.340744 C 19.573822 65.143555 20.593945 63.181786 22.189518 61.612366 C 22.503403 61.298485 22.63419 61.193855 22.764973 61.115383 M 24.831371 65.58823 C 24.569805 65.143555 24.622118 65.16971 24.386707 65.32666 C 23.65431 65.771324 22.89576 66.4514 22.34646 67.131485 C 21.221714 68.57012 20.593945 70.24416 20.515476 72.048996 C 20.489319 72.78139 20.56779 73.25221 20.907831 74.37696 C 21.169397 75.29246 21.901793 77.5158 21.95411 77.568115 C 21.95411 77.59427 22.111048 77.41118 22.26799 77.17576 C 24.072823 74.58622 25.04063 72.46751 25.406826 70.34879 C 25.485298 69.7995 25.53761 69.35483 25.563768 68.727066 C 25.589928 67.28843 25.432985 66.58219 24.831371 65.58823 M 22.581877 83.191864 C 22.424934 82.69488 22.26799 82.30252 22.26799 82.30252 C 22.241835 82.30252 21.143244 83.76731 20.672415 84.421234 C 19.129156 86.59227 18.187506 88.34478 17.638206 90.07114 C 17.27201 91.14357 17.115068 92.13754 17.062756 93.23613 C 17.062756 93.837746 17.088915 94.20394 17.193539 94.648605 C 17.795153 96.97658 20.280064 98.88603 23.209644 99.30455 C 23.65431 99.35686 24.909843 99.35686 25.459139 99.30455 C 26.008434 99.226074 25.956123 99.252235 25.929964 99.01682 C 25.773026 96.531906 25.563768 95.0148 25.14526 92.765305 C 24.988314 91.823654 24.543648 89.835724 24.517488 89.80957 C 24.491331 89.78342 23.99435 89.835724 23.706627 89.9142 C 23.340427 89.99267 23.105015 90.07114 22.79113 90.22808 C 21.090927 91.09126 20.593945 93.05304 21.666382 94.648605 C 21.849482 94.91018 22.320305 95.381004 22.608032 95.5641 C 22.71266 95.64258 22.948072 95.799515 23.105015 95.87799 C 23.340427 96.00877 23.392738 96.06108 23.445057 96.16571 C 23.65431 96.50575 23.523525 96.92426 23.131172 97.10736 C 22.921913 97.21199 22.764973 97.18584 22.34646 96.97658 C 21.326344 96.4796 20.56779 95.799515 20.018494 94.962494 C 18.998373 93.393074 18.867586 91.37899 19.70461 89.67879 C 20.437006 88.214 21.744852 87.22003 23.418898 86.853836 C 23.57584 86.80152 23.706627 86.77537 23.706627 86.77537 C 23.73278 86.74921 23.000385 84.36893 22.581877 83.191864 M 26.139221 89.94036 C 26.060753 89.94036 25.98228 89.9142 25.956123 89.9142 L 25.877651 89.88804 L 26.008434 90.43734 C 26.610046 93.07919 27.054714 95.95645 27.211655 98.38905 C 27.237814 98.65063 27.237814 98.85988 27.237814 98.85988 C 27.263973 98.85988 27.60401 98.70294 27.78711 98.57216 C 28.231777 98.31058 28.65029 97.91823 28.99033 97.47356 C 29.801197 96.40112 30.08892 95.06712 29.77504 93.706955 C 29.539627 92.60837 28.911861 91.58824 28.022522 90.882 C 27.473227 90.46349 26.740831 90.0973 26.139221 89.94036 Z" fill="#000000" stroke="none" stroke-width="0.75" />
<path d="M 92.0 109.0 L 108.0 109.0 Z" fill="none" stroke="#d6d6d6" stroke-width="0.75" />
<path d="M 92.0 117.0 L 108.0 117.0 Z" fill="none" stroke="#d6d6d6" stroke-width="0.75" />
<path d="M 92.0 125.0 L 108.0 125.0 Z" fill="none" stroke="#d6d6d6" stroke-width="0.75" />
<path d="M 95.52 74.232 C 95.52 75.456 96.715195 76.68 97.895996 76.68 C 101.495995 76.68 105.09599 74.232 105.09599 71.856 C 105.09599 70.6752 103.871994 69.48 102.71999 69.48 C 99.119995 69.48 95.52 71.856 95.52 74.232 Z" fill="#404040" stroke="none" stroke-width="1.0" />
<path d="M 94.0 178.25 L 102.0 178.25 L 102.0 185.75 L 94.0 185.75 L 94.0 178.25 Z" fill="#ffffff" stroke="none" stroke-width="1.0" />
<text x='94.0' y='185.75' font-family="Default" font-size="10.0" fill="#404040" >0</text>
<path d="M 95.52 82.232 C 95.52 83.456 96.715195 84.68 97.895996 84.68 C 101.495995 84.68 105.09599 82.232 105.09599 79.856 C 105.09599 78.6752 103.871994 77.48 102.71999 77.48 C 99.119995 77.48 95.52 79.856 95.52 82.232 Z" fill="#404040" stroke="none" stroke-width="1.0" />
<path d="M 94.0 188.25 L 102.0 188.25 L 102.0 195.75 L 94.0 195.75 L 94.0 188.25 Z" fill="#ffffff" stroke="none" stroke-width="1.0" />
<text x='94.0' y='195.75' font-family="Default" font-size="10.0" fill="#404040" >1/1</text>
<path d="M 95.52 94.232 C 95.52 95.456 96.715195 96.68 97.895996 96.68 C 101.495995 96.68 105.09599 94.232 105.09599 91.856 C 105.09599 90.6752 103.871994 89.48 102.71999 89.48 C 99.119995 89.48 95.52 91.856 95.52 94.232 Z" fill="#404040" stroke="none" stroke-width="1.0" />
<path d="M 94.0 198.25 L 102.0 198.25 L 102.0 205.75 L 94.0 205.75 L 94.0 198.25 Z" fill="#ffffff" stroke="none" stroke-width="1.0" />
<text x='94.0' y='205.75' font-family="Default" font-size="10.0" fill="#404040" >0</text>
<path d="M 95.52 102.232 C 95.52 103.456 96.715195 104.68 97.895996 104.68 C 101.495995 104.68 105.09599 102.232 105.09599 99.856 C 105.09599 98.6752 103.871994 97.48 102.71999 97.48 C 99.119995 97.48 95.52 99.856 95.52 102.232 Z" fill="#404040" stroke="none" stroke-width="1.0" />
<path d="M 94.0 208.25 L 102.0 208.25 L 102.0 215.75 L 94.0 215.75 L 94.0 208.25 Z" fill="#ffffff" stroke="none" stroke-width="1.0" />
<text x='94.0' y='215.75' font-family="Default" font-size="10.0" fill="#404040" >2/2</text>
<path d="M 95.52 110.232 C 95.52 111.456 96.715195 112.68 97.895996 112.68 C 101.495995 112.68 105.09599 110.232 105.09599 107.856 C 105.09599 106.6752 103.871994 105.48 102.71999 105.48 C 99.119995 105.48 95.52 107.856 95.52 110.232 Z" fill="#404040" stroke="none" stroke-width="1.0" />
<path d="M 94.0 218.25 L 102.0 218.25 L 102.0 225.75 L 94.0 225.75 L 94.0 218.25 Z" fill="#ffffff" stroke="none" stroke-width="1.0" />
<text x='94.0' y='225.75' font-family="Default" font-size="10.0" fill="#404040" >3/3</text>
<path d="M 95.52 130.23201 C 95.52 131.45601 96.715195 132.68001 97.895996 132.68001 C 101.495995 132.68001 105.09599 130.23201 105.09599 127.856 C 105.09599 126.6752 103.871994 125.48 102.71999 125.48 C 99.119995 125.48 95.52 127.856 95.52 130.23201 Z" fill="#404040" stroke="none" stroke-width="1.0" />
<path d="M 94.0 228.25 L 102.0 228.25 L 102.0 235.75 L 94.0 235.75 L 94.0 228.25 Z" fill="#ffffff" stroke="none" stroke-width="1.0" />
<text x='94.0' y='235.75' font-family="Default" font-size="10.0" fill="#404040" >0</text>
<path d="M 104.18 128.04 L 105.18 128.04 L 105.18 41.0 L 104.18 41.0 M 104.18 128.04 Z" fill="#404040" stroke="none" stroke-width="0.75" />
<path d="M 113.0 109.0 L 129.0 109.0 Z" fill="none" stroke="#d6d6d6" stroke-width="0.75" />
<path d="M 113.0 117.0 L 129.0 117.0 Z" fill="none" stroke="#d6d6d6" stroke-width="0.75" />
<path d="M 113.0 125.0 L 129.0 125.0 Z" fill="none" stroke="#d6d6d6" stroke-width="0.75" />
<path d="M 116.52 74.232 C 116.52 75.456 117.715195 76.68 118.895996 76.68 C 122.495995 76.68 126.09599 74.232 126.09599 71.856 C 126.09599 70.6752 124.871994 69.48 123.71999 69.48 C 120.119995 69.48 116.52 71.856 116.52 74.232 Z" fill="#404040" stroke="none" stroke-width="1.0" />
<path d="M 115.0 178.25 L 123.0 178.25 L 123.0 185.75 L 115.0 185.75 L 115.0 178.25 Z" fill="#ffffff" stroke="none" stroke-width="1.0" />
<text x='115.0' y='185.75' font-family="Default" font-size="10.0" fill="#404040" >0</text>
<path d="M 116.52 82.232 C 116.52 83.456 117.715195 84.68 118.895996 84.68 C 122.495995 84.68 126.09599 82.232 126.09599 79.856 C 126.09599 78.6752 124.871994 77.48 123.71999 77.48 C 120.119995 77.48 116.52 79.856 116.52 82.232 Z" fill="#404040" stroke="none" stroke-width="1.0" />
<path d="M 115.0 188.25 L 123.0 188.25 L 123.0 195.75 L 115.0 195.75 L 115.0 188.25 Z" fill="#ffffff" stroke="none" stroke-width="1.0" />
<text x='115.0' y='195.75' font-family="Default" font-size="10.0" fill="#404040" >1</text>
<path d="M 116.52 94.232 C 116.52 95.456 117.715195 96.68 118.895996 96.68 C 122.495995 96.68 126.09599 94.232 126.09599 91.856 C 126.09599 90.6752 124.871994 89.48 123.71999 89.48 C 120.119995 89.48 116.52 91.856 116.52 94.232 Z" fill="#404040" stroke="none" stroke-width="1.0" />
<path d="M 115.0 198.25 L 123.0 198.25 L 123.0 205.75 L 115.0 205.75 L 115.0 198.25 Z" fill="#ffffff" stroke="none" stroke-width="1.0" />
<text x='115.0' y='205.75' font-family="Default" font-size="10.0" fill="#404040" >0</text>
<path d="M 116.52 102.232 C 116.52 103.456 117.715195 104.68 118.895996 104.68 C 122.495995 104.68 126.09599 102.232 126.09599 99.856 C 126.09599 98.6752 124.871994 97.48 123.71999 97.48 C 120.119995 97.48 116.52 99.856 116.52 102.232 Z" fill="#404040" stroke="none" stroke-width="1.0" />
<path d="M 115.0 208.25 L 123.0 208.25 L 123.0 215.75 L 115.0 215.75 L 115.0 208.25 Z" fill="#ffffff" stroke="none" stroke-width="1.0" />
<text x='115.0' y='215.75' font-family="Default" font-size="10.0" fill="#404040" >2</text>
<path d="M 116.52 110.232 C 116.52 111.456 117.715195 112.68 118.895996 112.68 C 122.495995 112.68 126.09599 110.232 126.09599 107.856 C 126.09599 106.6752 124.871994 105.48 123.71999 105.48 C 120.119995 105.48 116.52 107.856 116.52 110.232 Z" fill="#404040" stroke="none" stroke-width="1.0" />
<path d="M 115.0 218.25 L 123.0 218.25 L 123.0 225.75 L 115.0 225.75 L 115.0 218.25 Z" fill="#ffffff" stroke="none" stroke-width="1.0" />
<text x='115.0' y='225.75' font-family="Default" font-size="10.0" fill="#404040" >3</text>
<path d="M 116.52 130.23201 C 116.52 131.45601 117.715195 132.68001 118.895996 132.68001 C 122.495995 132.68001 126.09599 130.23201 126.09599 127.856 C 126.09599 126.6752 124.871994 125.48 123.71999 125.48 C 120.119995 125.48 116.52 127.856 116.52 130.23201 Z" fill="#404040" stroke="none" stroke-width="1.0" />
<path d="M 115.0 228.25 L 123.0 228.25 L 123.0 235.75 L 115.0 235.75 L 115.0 228.25 Z" fill="#ffffff" stroke="none" stroke-width="1.0" />
<text x='115.0' y='235.75' font-family="Default" font-size="10.0" fill="#404040" >0</text>
<path d="M 125.18 128.04 L 126.18 128.04 L 126.18 41.0 L 125.18 41.0 M 125.18 128.04 Z" fill="#404040" stroke="none" stroke-width="0.75" />
<path d="M 134.0 109.0 L 150.0 109.0 Z" fill="none" stroke="#d6d6d6" stroke-width="0.75" />
<path d="M 134.0 117.0 L 150.0 117.0 Z" fill="none" stroke="#d6d6d6" stroke-width="0.75" />
<path d="M 137.52 66.232 C 137.52 67.456 138.71521 68.68 139.89601 68.68 C 143.496 68.68 147.09601 66.232 147.09601 63.856 C 147.09601 62.6752 145.87201 61.48 144.72 61.48 C 141.12001 61.48 137.52 63.856 137.52 66.232 Z" fill="#404040" stroke="none" stroke-width="1.0" />
<path d="M 136.0 178.25 L 144.0 178.25 L 144.0 185.75 L 136.0 185.75 L 136.0 178.25 Z" fill="#ffffff" stroke="none" stroke-width="1.0" />
<text x='136.0' y='185.75' font-family="Default" font-size="10.0" fill="#404040" >3/4</text>
<path d="M 137.52 86.232 C 137.52 87.456 138.71521 88.68 139.89601 88.68 C 143.496 88.68 147.09601 86.232 147.09601 83.856 C 147.09601 82.6752 145.87201 81.48 144.72 81.48 C 141.12001 81.48 137.52 83.856 137.52 86.232 Z" fill="#404040" stroke="none" stroke-width="1.0" />
<path d="M 136.0 188.25 L 144.0 188.25 L 144.0 195.75 L 136.0 195.75 L 136.0 188.25 Z" fill="#ffffff" stroke="none" stroke-width="1.0" />
<text x='136.0' y='195.75' font-family="Default" font-size="10.0" fill="#404040" >0</text>
<path d="M 137.52 94.232 C 137.52 95.456 138.71521 96.68 139.89601 96.68 C 143.496 96.68 147.09601 94.232 147.09601 91.856 C 147.09601 90.6752 145.87201 89.48 144.72 89.48 C 141.12001 89.48 137.52 91.856 137.52 94.232 Z" fill="#404040" stroke="none" stroke-width="1.0" />
<path d="M 136.0 198.25 L 144.0 198.25 L 144.0 205.75 L 136.0 205.75 L 136.0 198.25 Z" fill="#ffffff" stroke="none" stroke-width="1.0" />
<text x='136.0' y='205.75' font-family="Default" font-size="10.0" fill="#404040" >0</text>
<path d="M 137.52 106.232 C 137.52 107.456 138.71521 108.68 139.89601 108.68 C 143.496 108.68 147.09601 106.232 147.09601 103.856 C 147.09601 102.6752 145.87201 101.48 144.72 101.48 C 141.12001 101.48 137.52 103.856 137.52 106.232 Z" fill="#404040" stroke="none" stroke-width="1.0" />
<path d="M 136.0 208.25 L 144.0 208.25 L 144.0 215.75 L 136.0 215.75 L 136.0 208.25 Z" fill="#ffffff" stroke="none" stroke-width="1.0" />
<text x='136.0' y='215.75' font-family="Default" font-size="10.0" fill="#404040" >0</text>
<path d="M 137.52 114.232 C 137.52 115.456 138.71521 116.68 139.89601 116.68 C 143.496 116.68 147.09601 114.232 147.09601 111.856 C 147.09601 110.6752 145.87201 109.48 144.72 109.48 C 141.12001 109.48 137.52 111.856 137.52 114.232 Z" fill="#404040" stroke="none" stroke-width="1.0" />
<path d="M 136.0 218.25 L 144.0 218.25 L 144.0 225.75 L 136.0 225.75 L 136.0 218.25 Z" fill="#ffffff" stroke="none" stroke-width="1.0" />
<text x='136.0' y='225.75' font-family="Default" font-size="10.0" fill="#404040" >2/2</text>
<path d="M 137.52 122.232 C 137.52 123.456 138.71521 124.68 139.89601 124.68 C 143.496 124.68 147.09601 122.232 147.09601 119.856 C 147.09601 118.6752 145.87201 117.48 144.72 117.48 C 141.12001 117.48 137.52 119.856 137.52 122.232 Z" fill="#404040" stroke="none" stroke-width="1.0" />
<path d="M 136.0 228.25 L 144.0 228.25 L 144.0 235.75 L 136.0 235.75 L 136.0 228.25 Z" fill="#ffffff" stroke="none" stroke-width="1.0" />
<text x='136.0' y='235.75' font-family="Default" font-size="10.0" fill="#404040" >3/3</text>
<path d="M 137.5 65.96 L 138.5 65.96 L 138.5 152.0 L 137.5 152.0 M 137.5 65.96 Z" fill="#404040" stroke="none" stroke-width="0.75" />
<path d="M 155.0 109.0 L 171.0 109.0 Z" fill="none" stroke="#d6d6d6" stroke-width="0.75" />
<path d="M 155.0 117.0 L 171.0 117.0 Z" fill="none" stroke="#d6d6d6" stroke-width="0.75" />
<path d="M 158.52 66.232 C 158.52 67.456 159.71521 68.68 160.89601 68.68 C 164.496 68.68 168.09601 66.232 168.09601 63.856 C 168.09601 62.6752 166.87201 61.48 165.72 61.48 C 162.12001 61.48 158.52 63.856 158.52 66.232 Z" fill="#404040" stroke="none" stroke-width="1.0" />
<path d="M 157.0 178.25 L 165.0 178.25 L 165.0 185.75 L 157.0 185.75 L 157.0 178.25 Z" fill="#ffffff" stroke="none" stroke-width="1.0" />
<text x='157.0' y='185.75' font-family="Default" font-size="10.0" fill="#404040" >3</text>
<path d="M 158.52 86.232 C 158.52 87.456 159.71521 88.68 160.89601 88.68 C 164.496 88.68 168.09601 86.232 168.09601 83.856 C 168.09601 82.6752 166.87201 81.48 165.72 81.48 C 162.12001 81.48 158.52 83.856 158.52 86.232 Z" fill="#404040" stroke="none" stroke-width="1.0" />
<path d="M 157.0 188.25 L 165.0 188.25 L 165.0 195.75 L 157.0 195.75 L 157.0 188.25 Z" fill="#ffffff" stroke="none" stroke-width="1.0" />
<text x='157.0' y='195.75' font-family="Default" font-size="10.0" fill="#404040" >0</text>
<path d="M 158.52 94.232 C 158.52 95.456 159.71521 96.68 160.89601 96.68 C 164.496 96.68 168.09601 94.232 168.09601 91.856 C 168.09601 90.6752 166.87201 89.48 165.72 89.48 C 162.12001 89.48 158.52 91.856 158.52 94.232 Z" fill="#404040" stroke="none" stroke-width="1.0" />
<path d="M 157.0 198.25 L 165.0 198.25 L 165.0 205.75 L 157.0 205.75 L 157.0 198.25 Z" fill="#ffffff" stroke="none" stroke-width="1.0" />
<text x='157.0' y='205.75' font-family="Default" font-size="10.0" fill="#404040" >0</text>
<path d="M 158.52 106.232 C 158.52 107.456 159.71521 108.68 160.89601 108.68 C 164.496 108.68 168.09601 106.232 168.09601 103.856 C 168.09601 102.6752 166.87201 101.48 165.72 101.48 C 162.12001 101.48 158.52 103.856 158.52 106.232 Z" fill="#404040" stroke="none" stroke-width="1.0" />
<path d="M 157.0 208.25 L 165.0 208.25 L 165.0 215.75 L 157.0 215.75 L 157.0 208.25 Z" fill="#ffffff" stroke="none" stroke-width="1.0" />
<text x='157.0' y='215.75' font-family="Default" font-size="10.0" fill="#404040" >0</text>
<path d="M 158.52 114.232 C 158.52 115.456 159.71521 116.68 160.89601 116.68 C 164.496 116.68 168.09601 114.232 168.09601 111.856 C 168.09601 110.6752 166.87201 109.48 165.72 109.48 C 162.12001 109.48 158.52 111.856 158.52 114.232 Z" fill="#404040" stroke="none" stroke-width="1.0" />
<path d="M 157.0 218.25 L 165.0 218.25 L 165.0 225.75 L 157.0 225.75 L 157.0 218.25 Z" fill="#ffffff" stroke="none" stroke-width="1.0" />
<text x='157.0' y='225.75' font-family="Default" font-size="10.0" fill="#404040" >2</text>
<path d="M 158.52 122.232 C 158.52 123.456 159.71521 124.68 160.89601 124.68 C 164.496 124.68 168.09601 122.232 168.09601 119.856 C 168.09601 118.6752 166.87201 117.48 165.72 117.48 C 162.12001 117.48 158.52 119.856 158.52 122.232 Z" fill="#404040" stroke="none" stroke-width="1.0" />
<path d="M 157.0 228.25 L 165.0 228.25 L 165.0 235.75 L 157.0 235.75 L 157.0 228.25 Z" fill="#ffffff" stroke="none" stroke-width="1.0" />
<text x='157.0' y='235.75' font-family="Default" font-size="10.0" fill="#404040" >3</text>
<path d="M 158.5 65.96 L 159.5 65.96 L 159.5 152.0 L 158.5 152.0 M 158.5 65.96 Z" fill="#404040" stroke="none" stroke-width="0.75" /></g>
<text x='116.0' y='20.0' font-family="Default" font-size="10.0" fill="#000000" >C</text>
<text x='158.0' y='20.0' font-family="Default" font-size="10.0" fill="#000000" >G</text>
<path d="M 35.35 75.3 C 35.35 76.15 36.18 77.0 37.0 77.0 C 39.5 77.0 42.0 75.3 42.0 73.65 C 42.0 72.83 41.149998 72.0 40.35 72.0 C 37.85 72.0 35.35 73.65 35.35 75.3 Z" fill="#000000" stroke="none" stroke-width="1.0" />
<path d="M 42.0 59.0 L 42.0 73.7 Z" fill="none" stroke="#000000" stroke-width="1.0" />
<text x='43.0' y='75.25' font-family="Default" font-size="10.0" fill="#000000" > = 60</text>
<text x='21.0' y='87.0' font-family="Default" font-size="10.0" fill="#ff0000" >1</text>
<path d="M 20.0 89.0 L 23.0 89.0 L 23.0 202.0 L 20.0 202.0 L 20.0 89.0 Z" fill="#000000" stroke="#000000" stroke-width="0.75" />
<path d="M 25.0 89.0 L 26.0 89.0 L 26.0 202.0 L 25.0 202.0 L 25.0 89.0 Z" fill="#000000" stroke="#000000" stroke-width="0.75" />
<path d="M 215.0 89.0 L 215.0 121.0 Z" fill="#000000" stroke="#000000" stroke-width="0.75" />
<path d="M 20.0 202.0 L 23.0 202.0 L 23.0 252.0 L 20.0 252.0 L 20.0 202.0 Z" fill="#000000" stroke="#000000" stroke-width="0.75" />
<path d="M 25.0 202.0 L 26.0 202.0 L 26.0 252.0 L 25.0 252.0 L 25.0 202.0 Z" fill="#000000" stroke="#000000" stroke-width="0.75" />
<path d="M 215.0 202.0 L 215.0 252.0 Z" fill="#000000" stroke="#000000" stroke-width="0.75" /><g transform="translate(215.0,20.0)">
<path d="M 0.0 0.0 L 124.0 0.0 L 124.0 253.0 L 0.0 253.0 L 0.0 0.0 Z" fill="#ffffff" stroke="none" stroke-width="1.0" />
<path d="M 0.0 69.0 L 124.0 69.0 M 0.0 77.0 L 124.0 77.0 M 0.0 85.0 L 124.0 85.0 M 0.0 93.0 L 124.0 93.0 M 0.0 101.0 L 124.0 101.0 Z" fill="none" stroke="#d6d6d6" stroke-width="0.75" />
<path d="M 0.0 182.0 L 124.0 182.0 M 0.0 192.0 L 124.0 192.0 M 0.0 202.0 L 124.0 202.0 M 0.0 212.0 L 124.0 212.0 M 0.0 222.0 L 124.0 222.0 M 0.0 232.0 L 124.0 232.0 Z" fill="none" stroke="#d6d6d6" stroke-width="0.75" />
<path d="M 21.0 109.0 L 37.0 109.0 Z" fill="none" stroke="#d6d6d6" stroke-width="0.75" />
<path d="M 21.0 117.0 L 37.0 117.0 Z" fill="none" stroke="#d6d6d6" stroke-width="0.75" />
<path d="M 21.0 125.0 L 37.0 125.0 Z" fill="none" stroke="#d6d6d6" stroke-width="0.75" />
<path d="M 24.52 74.232 C 24.52 75.456 25.7152 76.68 26.896 76.68 C 30.496 76.68 34.096 74.232 34.096 71.856 C 34.096 70.6752 32.872 69.48 31.720001 69.48 C 28.12 69.48 24.52 71.856 24.52 74.232 Z" fill="#404040" stroke="none" stroke-width="1.0" />
<path d="M 23.0 178.25 L 31.0 178.25 L 31.0 185.75 L 23.0 185.75 L 23.0 178.25 Z" fill="#ffffff" stroke="none" stroke-width="1.0" />
<text x='23.0' y='185.75' font-family="Default" font-size="10.0" fill="#404040" >0</text>
<path d="M 24.52 82.232 C 24.52 83.456 25.7152 84.68 26.896 84.68 C 30.496 84.68 34.096 82.232 34.096 79.856 C 34.096 78.6752 32.872 77.48 31.720001 77.48 C 28.12 77.48 24.52 79.856 24.52 82.232 Z" fill="#404040" stroke="none" stroke-width="1.0" />
<path d="M 23.0 188.25 L 31.0 188.25 L 31.0 195.75 L 23.0 195.75 L 23.0 188.25 Z" fill="#ffffff" stroke="none" stroke-width="1.0" />
<text x='23.0' y='195.75' font-family="Default" font-size="10.0" fill="#404040" >1</text>
<path d="M 24.52 94.232 C 24.52 95.456 25.7152 96.68 26.896 96.68 C 30.496 96.68 34.096 94.232 34.096 91.856 C 34.096 90.6752 32.872 89.48 31.720001 89.48 C 28.12 89.48 24.52 91.856 24.52 94.232 Z" fill="#404040" stroke="none" stroke-width="1.0" />
<path d="M 23.0 198.25 L 31.0 198.25 L 31.0 205.75 L 23.0 205.75 L 23.0 198.25 Z" fill="#ffffff" stroke="none" stroke-width="1.0" />
<text x='23.0' y='205.75' font-family="Default" font-size="10.0" fill="#404040" >0</text>
<path d="M 24.52 102.232 C 24.52 103.456 25.7152 104.68 26.896 104.68 C 30.496 104.68 34.096 102.232 34.096 99.856 C 34.096 98.6752 32.872 97.48 31.720001 97.48 C 28.12 97.48 24.52 99.856 24.52 102.232 Z" fill="#404040" stroke="none" stroke-width="1.0" />
<path d="M 23.0 208.25 L 31.0 208.25 L 31.0 215.75 L 23.0 215.75 L 23.0 208.25 Z" fill="#ffffff" stroke="none" stroke-width="1.0" />
<text x='23.0' y='215.75' font-family="Default" font-size="10.0" fill="#404040" >2</text>
<path d="M 24.52 110.232 C 24.52 111.456 25.7152 112.68 26.896 112.68 C 30.496 112.68 34.096 110.232 34.096 107.856 C 34.096 106.6752 32.872 105.48 31.720001 105.48 C 28.12 105.48 24.52 107.856 24.52 110.232 Z" fill="#404040" stroke="none" stroke-width="1.0" />
<path d="M 23.0 218.25 L 31.0 218.25 L 31.0 225.75 L 23.0 225.75 L 23.0 218.25 Z" fill="#ffffff" stroke="none" stroke-width="1.0" />
<text x='23.0' y='225.75' font-family="Default" font-size="10.0" fill="#404040" >3</text>
<path d="M 24.52 130.23201 C 24.52 131.45601 25.7152 132.68001 26.896 132.68001 C 30.496 132.68001 34.096 130.23201 34.096 127.856 C 34.096 126.6752 32.872 125.48 31.720001 125.48 C 28.12 125.48 24.52 127.856 24.52 130.23201 Z" fill="#404040" stroke="none" stroke-width="1.0" />
<path d="M 23.0 228.25 L 31.0 228.25 L 31.0 235.75 L 23.0 235.75 L 23.0 228.25 Z" fill="#ffffff" stroke="none" stroke-width="1.0" />
<text x='23.0' y='235.75' font-family="Default" font-size="10.0" fill="#404040" >0</text>
<path d="M 33.18 128.04 L 34.18 128.04 L 34.18 41.0 L 33.18 41.0 M 33.18 128.04 Z" fill="#404040" stroke="none" stroke-width="0.75" />
<path d="M 42.0 109.0 L 58.0 109.0 Z" fill="none" stroke="#d6d6d6" stroke-width="0.75" />
<path d="M 42.0 117.0 L 58.0 117.0 Z" fill="none" stroke="#d6d6d6" stroke-width="0.75" />
<path d="M 42.0 125.0 L 58.0 125.0 Z" fill="none" stroke="#d6d6d6" stroke-width="0.75" />
<path d="M 45.52 74.232 C 45.52 75.456 46.715202 76.68 47.896 76.68 C 51.496002 76.68 55.096 74.232 55.096 71.856 C 55.096 70.6752 53.872 69.48 52.72 69.48 C 49.12 69.48 45.52 71.856 45.52 74.232 Z" fill="#404040" stroke="none" stroke-width="1.0" />
<path d="M 44.0 178.25 L 52.0 178.25 L 52.0 185.75 L 44.0 185.75 L 44.0 178.25 Z" fill="#ffffff" stroke="none" stroke-width="1.0" />
<text x='44.0' y='185.75' font-family="Default" font-size="10.0" fill="#404040" >0</text>
<path d="M 45.52 82.232 C 45.52 83.456 46.715202 84.68 47.896 84.68 C 51.496002 84.68 55.096 82.232 55.096 79.856 C 55.096 78.6752 53.872 77.48 52.72 77.48 C 49.12 77.48 45.52 79.856 45.52 82.232 Z" fill="#404040" stroke="none" stroke-width="1.0" />
<path d="M 44.0 188.25 L 52.0 188.25 L 52.0 195.75 L 44.0 195.75 L 44.0 188.25 Z" fill="#ffffff" stroke="none" stroke-width="1.0" />
<text x='44.0' y='195.75' font-family="Default" font-size="10.0" fill="#404040" >1</text>
<path d="M 45.52 94.232 C 45.52 95.456 46.715202 96.68 47.896 96.68 C 51.496002 96.68 55.096 94.232 55.096 91.856 C 55.096 90.6752 53.872 89.48 52.72 89.48 C 49.12 89.48 45.52 91.856 45.52 94.232 Z" fill="#404040" stroke="none" stroke-width="1.0" />
<path d="M 44.0 198.25 L 52.0 198.25 L 52.0 205.75 L 44.0 205.75 L 44.0 198.25 Z" fill="#ffffff" stroke="none" stroke-width="1.0" />
<text x='44.0' y='205.75' font-family="Default" font-size="10.0" fill="#404040" >0</text>
<path d="M 45.52 102.232 C 45.52 103.456 46.715202 104.68 47.896 104.68 C 51.496002 104.68 55.096 102.232 55.096 99.856 C 55.096 98.6752 53.872 97.48 52.72 97.48 C 49.12 97.48 45.52 99.856 45.52 102.232 Z" fill="#404040" stroke="none" stroke-width="1.0" />
<path d="M 44.0 208.25 L 52.0 208.25 L 52.0 215.75 L 44.0 215.75 L 44.0 208.25 Z" fill="#ffffff" stroke="none" stroke-width="1.0" />
<text x='44.0' y='215.75' font-family="Default" font-size="10.0" fill="#404040" >2</text>
<path d="M 45.52 110.232 C 45.52 111.456 46.715202 112.68 47.896 112.68 C 51.496002 112.68 55.096 110.232 55.096 107.856 C 55.096 106.6752 53.872 105.48 52.72 105.48 C 49.12 105.48 45.52 107.856 45.52 110.232 Z" fill="#404040" stroke="none" stroke-width="1.0" />
<path d="M 44.0 218.25 L 52.0 218.25 L 52.0 225.75 L 44.0 225.75 L 44.0 218.25 Z" fill="#ffffff" stroke="none" stroke-width="1.0" />
<text x='44.0' y='225.75' font-family="Default" font-size="10.0" fill="#404040" >3</text>
<path d="M 45.52 130.23201 C 45.52 131.45601 46.715202 132.68001 47.896 132.68001 C 51.496002 132.68001 55.096 130.23201 55.096 127.856 C 55.096 126.6752 53.872 125.48 52.72 125.48 C 49.12 125.48 45.52 127.856 45.52 130.23201 Z" fill="#404040" stroke="none" stroke-width="1.0" />
<path d="M 44.0 228.25 L 52.0 228.25 L 52.0 235.75 L 44.0 235.75 L 44.0 228.25 Z" fill="#ffffff" stroke="none" stroke-width="1.0" />
<text x='44.0' y='235.75' font-family="Default" font-size="10.0" fill="#404040" >0</text>
<path d="M 54.18 128.04 L 55.18 128.04 L 55.18 41.0 L 54.18 41.0 M 54.18 128.04 Z" fill="#404040" stroke="none" stroke-width="0.75" />
<path d="M 63.0 109.0 L 79.0 109.0 Z" fill="none" stroke="#d6d6d6" stroke-width="0.75" />
<path d="M 63.0 117.0 L 79.0 117.0 Z" fill="none" stroke="#d6d6d6" stroke-width="0.75" />
<path d="M 66.52 70.232 C 66.52 71.456 67.715195 72.68 68.895996 72.68 C 72.495995 72.68 76.09599 70.232 76.09599 67.856 C 76.09599 66.6752 74.871994 65.48 73.71999 65.48 C 70.119995 65.48 66.52 67.856 66.52 70.232 Z" fill="#404040" stroke="none" stroke-width="1.0" />
<path d="M 65.0 178.25 L 73.0 178.25 L 73.0 185.75 L 65.0 185.75 L 65.0 178.25 Z" fill="#ffffff" stroke="none" stroke-width="1.0" />
<text x='65.0' y='185.75' font-family="Default" font-size="10.0" fill="#404040" >1/1</text>
<path d="M 66.52 86.232 C 66.52 87.456 67.715195 88.68 68.895996 88.68 C 72.495995 88.68 76.09599 86.232 76.09599 83.856 C 76.09599 82.6752 74.871994 81.48 73.71999 81.48 C 70.119995 81.48 66.52 83.856 66.52 86.232 Z" fill="#404040" stroke="none" stroke-width="1.0" />
<path d="M 65.0 188.25 L 73.0 188.25 L 73.0 195.75 L 65.0 195.75 L 65.0 188.25 Z" fill="#ffffff" stroke="none" stroke-width="1.0" />
<text x='65.0' y='195.75' font-family="Default" font-size="10.0" fill="#404040" >0</text>
<path d="M 66.52 94.232 C 66.52 95.456 67.715195 96.68 68.895996 96.68 C 72.495995 96.68 76.09599 94.232 76.09599 91.856 C 76.09599 90.6752 74.871994 89.48 73.71999 89.48 C 70.119995 89.48 66.52 91.856 66.52 94.232 Z" fill="#404040" stroke="none" stroke-width="1.0" />
<path d="M 65.0 198.25 L 73.0 198.25 L 73.0 205.75 L 65.0 205.75 L 65.0 198.25 Z" fill="#ffffff" stroke="none" stroke-width="1.0" />
<text x='65.0' y='205.75' font-family="Default" font-size="10.0" fill="#404040" >0</text>
<path d="M 66.52 106.232 C 66.52 107.456 67.715195 108.68 68.895996 108.68 C 72.495995 108.68 76.09599 106.232 76.09599 103.856 C 76.09599 102.6752 74.871994 101.48 73.71999 101.48 C 70.119995 101.48 66.52 103.856 66.52 106.232 Z" fill="#404040" stroke="none" stroke-width="1.0" />
<path d="M 65.0 208.25 L 73.0 208.25 L 73.0 215.75 L 65.0 215.75 L 65.0 208.25 Z" fill="#ffffff" stroke="none" stroke-width="1.0" />
<text x='65.0' y='215.75' font-family="Default" font-size="10.0" fill="#404040" >0</text>
<path d="M 66.52 114.232 C 66.52 115.456 67.715195 116.68 68.895996 116.68 C 72.495995 116.68 76.09599 114.232 76.09599 111.856 C 76.09599 110.6752 74.871994 109.48 73.71999 109.48 C 70.119995 109.48 66.52 111.856 66.52 114.232 Z" fill="#404040" stroke="none" stroke-width="1.0" />
<path d="M 65.0 218.25 L 73.0 218.25 L 73.0 225.75 L 65.0 225.75 L 65.0 218.25 Z" fill="#ffffff" stroke="none" stroke-width="1.0" />
<text x='65.0' y='225.75' font-family="Default" font-size="10.0" fill="#404040" >2/2</text>
<path d="M 66.52 122.232 C 66.52 123.456 67.715195 124.68 68.895996 124.68 C 72.495995 124.68 76.09599 122.232 76.09599 119.856 C 76.09599 118.6752 74.871994 117.48 73.71999 117.48 C 70.119995 117.48 66.52 119.856 66.52 122.232 Z" fill="#404040" stroke="none" stroke-width="1.0" />
<path d="M 65.0 228.25 L 73.0 228.25 L 73.0 235.75 L 65.0 235.75 L 65.0 228.25 Z" fill="#ffffff" stroke="none" stroke-width="1.0" />
<text x='65.0' y='235.75' font-family="Default" font-size="10.0" fill="#404040" >3/3</text>
<path d="M 75.18 120.04 L 76.18 120.04 L 76.18 37.0 L 75.18 37.0 M 75.18 120.04 Z" fill="#404040" stroke="none" stroke-width="0.75" />
<path d="M 84.0 109.0 L 100.0 109.0 Z" fill="none" stroke="#d6d6d6" stroke-width="0.75" />
<path d="M 84.0 117.0 L 100.0 117.0 Z" fill="none" stroke="#d6d6d6" stroke-width="0.75" />
<path d="M 87.52 70.232 C 87.52 71.456 88.715195 72.68 89.895996 72.68 C 93.495995 72.68 97.09599 70.232 97.09599 67.856 C 97.09599 66.6752 95.871994 65.48 94.71999 65.48 C 91.119995 65.48 87.52 67.856 87.52 70.232 Z" fill="#404040" stroke="none" stroke-width="1.0" />
<path d="M 86.0 178.25 L 94.0 178.25 L 94.0 185.75 L 86.0 185.75 L 86.0 178.25 Z" fill="#ffffff" stroke="none" stroke-width="1.0" />
<text x='86.0' y='185.75' font-family="Default" font-size="10.0" fill="#404040" >1</text>
<path d="M 87.52 86.232 C 87.52 87.456 88.715195 88.68 89.895996 88.68 C 93.495995 88.68 97.09599 86.232 97.09599 83.856 C 97.09599 82.6752 95.871994 81.48 94.71999 81.48 C 91.119995 81.48 87.52 83.856 87.52 86.232 Z" fill="#404040" stroke="none" stroke-width="1.0" />
<path d="M 86.0 188.25 L 94.0 188.25 L 94.0 195.75 L 86.0 195.75 L 86.0 188.25 Z" fill="#ffffff" stroke="none" stroke-width="1.0" />
<text x='86.0' y='195.75' font-family="Default" font-size="10.0" fill="#404040" >0</text>
<path d="M 87.52 94.232 C 87.52 95.456 88.715195 96.68 89.895996 96.68 C 93.495995 96.68 97.09599 94.232 97.09599 91.856 C 97.09599 90.6752 95.871994 89.48 94.71999 89.48 C 91.119995 89.48 87.52 91.856 87.52 94.232 Z" fill="#404040" stroke="none" stroke-width="1.0" />
<path d="M 86.0 198.25 L 94.0 198.25 L 94.0 205.75 L 86.0 205.75 L 86.0 198.25 Z" fill="#ffffff" stroke="none" stroke-width="1.0" />
<text x='86.0' y='205.75' font-family="Default" font-size="10.0" fill="#404040" >0</text>
<path d="M 87.52 106.232 C 87.52 107.456 88.715195 108.68 89.895996 108.68 C 93.495995 108.68 97.09599 106.232 97.09599 103.856 C 97.09599 102.6752 95.871994 101.48 94.71999 101.48 C 91.119995 101.48 87.52 103.856 87.52 106.232 Z" fill="#404040" stroke="none" stroke-width="1.0" />
<path d="M 86.0 208.25 L 94.0 208.25 L 94.0 215.75 L 86.0 215.75 L 86.0 208.25 Z" fill="#ffffff" stroke="none" stroke-width="1.0" />
<text x='86.0' y='215.75' font-family="Default" font-size="10.0" fill="#404040" >0</text>
<path d="M 87.52 114.232 C 87.52 115.456 88.715195 116.68 89.895996 116.68 C 93.495995 116.68 97.09599 114.232 97.09599 111.856 C 97.09599 110.6752 95.871994 109.48 94.71999 109.48 C 91.119995 109.48 87.52 111.856 87.52 114.232 Z" fill="#404040" stroke="none" stroke-width="1.0" />
<path d="M 86.0 218.25 L 94.0 218.25 L 94.0 225.75 L 86.0 225.75 L 86.0 218.25 Z" fill="#ffffff" stroke="none" stroke-width="1.0" />
<text x='86.0' y='225.75' font-family="Default" font-size="10.0" fill="#404040" >2</text>
<path d="M 87.52 122.232 C 87.52 123.456 88.715195 124.68 89.895996 124.68 C 93.495995 124.68 97.09599 122.232 97.09599 119.856 C 97.09599 118.6752 95.871994 117.48 94.71999 117.48 C 91.119995 117.48 87.52 119.856 87.52 122.232 Z" fill="#404040" stroke="none" stroke-width="1.0" />
<path d="M 86.0 228.25 L 94.0 228.25 L 94.0 235.75 L 86.0 235.75 L 86.0 228.25 Z" fill="#ffffff" stroke="none" stroke-width="1.0" />
<text x='86.0' y='235.75' font-family="Default" font-size="10.0" fill="#404040" >3</text>
<path d="M 96.18 120.04 L 97.18 120.04 L 97.18 37.0 L 96.18 37.0 M 96.18 120.04 Z" fill="#404040" stroke="none" stroke-width="0.75" /></g>
<text x='240.0' y='20.0' font-family="Default" font-size="10.0" fill="#000000" >C</text>
<text x='282.0' y='20.0' font-family="Default" font-size="10.0" fill="#000000" >G7</text>
<text x='216.0' y='87.0' font-family="Default" font-size="10.0" fill="#ff0000" >2</text>
<path d="M 215.0 89.0 L 215.0 121.0 Z" fill="#000000" stroke="#000000" stroke-width="0.75" />
<path d="M 339.0 89.0 L 339.0 121.0 Z" fill="#000000" stroke="#000000" stroke-width="0.75" />
<path d="M 215.0 202.0 L 215.0 252.0 Z" fill="#000000" stroke="#000000" stroke-width="0.75" />
<path d="M 339.0 202.0 L 339.0 252.0 Z" fill="#000000" stroke="#000000" stroke-width="0.75" /><g transform="translate(339.0,20.0)">
<path d="M 0.0 0.0 L 124.0 0.0 L 124.0 253.0 L 0.0 253.0 L 0.0 0.0 Z" fill="#ffffff" stroke="none" stroke-width="1.0" />
<path d="M 0.0 69.0 L 124.0 69.0 M 0.0 77.0 L 124.0 77.0 M 0.0 85.0 L 124.0 85.0 M 0.0 93.0 L 124.0 93.0 M 0.0 101.0 L 124.0 101.0 Z" fill="none" stroke="#d6d6d6" stroke-width="0.75" />
<path d="M 0.0 182.0 L 124.0 182.0 M 0.0 192.0 L 124.0 192.0 M 0.0 202.0 L 124.0 202.0 M 0.0 212.0 L 124.0 212.0 M 0.0 222.0 L 124.0 222.0 M 0.0 232.0 L 124.0 232.0 Z" fill="none" stroke="#d6d6d6" stroke-width="0.75" />
<path d="M 21.0 109.0 L 37.0 109.0 Z" fill="none" stroke="#d6d6d6" stroke-width="0.75" />
<path d="M 21.0 117.0 L 37.0 117.0 Z" fill="none" stroke="#d6d6d6" stroke-width="0.75" />
<path d="M 21.0 125.0 L 37.0 125.0 Z" fill="none" stroke="#d6d6d6" stroke-width="0.75" />
<path d="M 24.52 74.232 C 24.52 75.456 25.7152 76.68 26.896 76.68 C 30.496 76.68 34.096 74.232 34.096 71.856 C 34.096 70.6752 32.872 69.48 31.720001 69.48 C 28.12 69.48 24.52 71.856 24.52 74.232 Z" fill="#404040" stroke="none" stroke-width="1.0" />
<path d="M 23.0 178.25 L 31.0 178.25 L 31.0 185.75 L 23.0 185.75 L 23.0 178.25 Z" fill="#ffffff" stroke="none" stroke-width="1.0" />
<text x='23.0' y='185.75' font-family="Default" font-size="10.0" fill="#404040" >0</text>
<path d="M 24.52 82.232 C 24.52 83.456 25.7152 84.68 26.896 84.68 C 30.496 84.68 34.096 82.232 34.096 79.856 C 34.096 78.6752 32.872 77.48 31.720001 77.48 C 28.12 77.48 24.52 79.856 24.52 82.232 Z" fill="#404040" stroke="none" stroke-width="1.0" />
<path d="M 23.0 188.25 L 31.0 188.25 L 31.0 195.75 L 23.0 195.75 L 23.0 188.25 Z" fill="#ffffff" stroke="none" stroke-width="1.0" />
<text x='23.0' y='195.75' font-family="Default" font-size="10.0" fill="#404040" >1</text>
<path d="M 24.52 94.232 C 24.52 95.456 25.7152 96.68 26.896 96.68 C 30.496 96.68 34.096 94.232 34.096 91.856 C 34.096 90.6752 32.872 89.48 31.720001 89.48 C 28.12 89.48 24.52 91.856 24.52 94.232 Z" fill="#404040" stroke="none" stroke-width="1.0" />
<path d="M 23.0 198.25 L 31.0 198.25 L 31.0 205.75 L 23.0 205.75 L 23.0 198.25 Z" fill="#ffffff" stroke="none" stroke-width="1.0" />
<text x='23.0' y='205.75' font-family="Default" font-size="10.0" fill="#404040" >0</text>
<path d="M 24.52 102.232 C 24.52 103.456 25.7152 104.68 26.896 104.68 C 30.496 104.68 34.096 102.232 34.096 99.856 C 34.096 98.6752 32.872 97.48 31.720001 97.48 C 28.12 97.48 24.52 99.856 24.52 102.232 Z" fill="#404040" stroke="none" stroke-width="1.0" />
<path d="M 23.0 208.25 L 31.0 208.25 L 31.0 215.75 L 23.0 215.75 L 23.0 208.25 Z" fill="#ffffff" stroke="none" stroke-width="1.0" />
<text x='23.0' y='215.75' font-family="Default" font-size="10.0" fill="#404040" >2</text>
<path d="M 24.52 110.232 C 24.52 111.456 25.7152 112.68 26.896 112.68 C 30.496 112.68 34.096 110.232 34.096 107.856 C 34.096 106.6752 32.872 105.48 31.720001 105.48 C 28.12 105.48 24.52 107.856 24.52 110.232 Z" fill="#404040" stroke="none" stroke-width="1.0" />
<path d="M 23.0 218.25 L 31.0 218.25 L 31.0 225.75 L 23.0 225.75 L 23.0 218.25 Z" fill="#ffffff" stroke="none" stroke-width="1.0" />
<text x='23.0' y='225.75' font-family="Default" font-size="10.0" fill="#404040" >3</text>
<path d="M 24.52 130.23201 C 24.52 131.45601 25.7152 132.68001 26.896 132.68001 C 30.496 132.68001 34.096 130.23201 34.096 127.856 C 34.096 126.6752 32.872 125.48 31.720001 125.48 C 28.12 125.48 24.52 127.856 24.52 130.23201 Z" fill="#404040" stroke="none" stroke-width="1.0" />
<path d="M 23.0 228.25 L 31.0 228.25 L 31.0 235.75 L 23.0 235.75 L 23.0 228.25 Z" fill="#ffffff" stroke="none" stroke-width="1.0" />
<text x='23.0' y='235.75' font-family="Default" font-size="10.0" fill="#404040" >0</text>
<path d="M 33.18 128.04 L 34.18 128.04 L 34.18 41.0 L 33.18 41.0 M 33.18 128.04 Z" fill="#404040" stroke="none" stroke-width="0.75" />
<path d="M 42.0 109.0 L 58.0 109.0 Z" fill="none" stroke="#d6d6d6" stroke-width="0.75" />
<path d="M 42.0 117.0 L 58.0 117.0 Z" fill="none" stroke="#d6d6d6" stroke-width="0.75" />
<path d="M 42.0 125.0 L 58.0 125.0 Z" fill="none" stroke="#d6d6d6" stroke-width="0.75" />
<path d="M 45.52 74.232 C 45.52 75.456 46.715202 76.68 47.896 76.68 C 51.496002 76.68 55.096 74.232 55.096 71.856 C 55.096 70.6752 53.872 69.48 52.72 69.48 C 49.12 69.48 45.52 71.856 45.52 74.232 Z" fill="#404040" stroke="none" stroke-width="1.0" />
<path d="M 44.0 178.25 L 52.0 178.25 L 52.0 185.75 L 44.0 185.75 L 44.0 178.25 Z" fill="#ffffff" stroke="none" stroke-width="1.0" />
<text x='44.0' y='185.75' font-family="Default" font-size="10.0" fill="#404040" >0</text>
<path d="M 45.52 82.232 C 45.52 83.456 46.715202 84.68 47.896 84.68 C 51.496002 84.68 55.096 82.232 55.096 79.856 C 55.096 78.6752 53.872 77.48 52.72 77.48 C 49.12 77.48 45.52 79.856 45.52 82.232 Z" fill="#404040" stroke="none" stroke-width="1.0" />
<path d="M 44.0 188.25 L 52.0 188.25 L 52.0 195.75 L 44.0 195.75 L 44.0 188.25 Z" fill="#ffffff" stroke="none" stroke-width="1.0" />
<text x='44.0' y='195.75' font-family="Default" font-size="10.0" fill="#404040" >1</text>
<path d="M 45.52 94.232 C 45.52 95.456 46.715202 96.68 47.896 96.68 C 51.496002 96.68 55.096 94.232 55.096 91.856 C 55.096 90.6752 53.872 89.48 52.72 89.48 C 49.12 89.48 45.52 91.856 45.52 94.232 Z" fill="#404040" stroke="none" stroke-width="1.0" />
<path d="M 44.0 198.25 L 52.0 198.25 L 52.0 205.75 L 44.0 205.75 L 44.0 198.25 Z" fill="#ffffff" stroke="none" stroke-width="1.0" />
<text x='44.0' y='205.75' font-family="Default" font-size="10.0" fill="#404040" >0</text>
<path d="M 45.52 102.232 C 45.52 103.456 46.715202 104.68 47.896 104.68 C 51.496002 104.68 55.096 102.232 55.096 99.856 C 55.096 98.6752 53.872 97.48 52.72 97.48 C 49.12 97.48 45.52 99.856 45.52 102.232 Z" fill="#404040" stroke="none" stroke-width="1.0" />
<path d="M 44.0 208.25 L 52.0 208.25 L 52.0 215.75 L 44.0 215.75 L 44.0 208.25 Z" fill="#ffffff" stroke="none" stroke-width="1.0" />
<text x='44.0' y='215.75' font-family="Default" font-size="10.0" fill="#404040" >2</text>
<path d="M 45.52 110.232 C 45.52 111.456 46.715202 112.68 47.896 112.68 C 51.496002 112.68 55.096 110.232 55.096 107.856 C 55.096 106.6752 53.872 105.48 52.72 105.48 C 49.12 105.48 45.52 107.856 45.52 110.232 Z" fill="#404040" stroke="none" stroke-width="1.0" />
<path d="M 44.0 218.25 L 52.0 218.25 L 52.0 225.75 L 44.0 225.75 L 44.0 218.25 Z" fill="#ffffff" stroke="none" stroke-width="1.0" />
<text x='44.0' y='225.75' font-family="Default" font-size="10.0" fill="#404040" >3</text>
<path d="M 45.52 130.23201 C 45.52 131.45601 46.715202 132.68001 47.896 132.68001 C 51.496002 132.68001 55.096 130.23201 55.096 127.856 C 55.096 126.6752 53.872 125.48 52.72 125.48 C 49.12 125.48 45.52 127.856 45.52 130.23201 Z" fill="#404040" stroke="none" stroke-width="1.0" />
<path d="M 44.0 228.25 L 52.0 228.25 L 52.0 235.75 L 44.0 235.75 L 44.0 228.25 Z" fill="#ffffff" stroke="none" stroke-width="1.0" />
<text x='44.0' y='235.75' font-family="Default" font-size="10.0" fill="#404040" >0</text>
<path d="M 54.18 128.04 L 55.18 128.04 L 55.18 41.0 L 54.18 41.0 M 54.18 128.04 Z" fill="#404040" stroke="none" stroke-width="0.75" />
<path d="M 63.0 109.0 L 79.0 109.0 Z" fill="none" stroke="#d6d6d6" stroke-width="0.75" />
<path d="M 63.0 117.0 L 79.0 117.0 Z" fill="none" stroke="#d6d6d6" stroke-width="0.75" />
<path d="M 66.52 70.232 C 66.52 71.456 67.715195 72.68 68.895996 72.68 C 72.495995 72.68 76.09599 70.232 76.09599 67.856 C 76.09599 66.6752 74.871994 65.48 73.71999 65.48 C 70.119995 65.48 66.52 67.856 66.52 70.232 Z" fill="#404040" stroke="none" stroke-width="1.0" />
<path d="M 65.0 178.25 L 73.0 178.25 L 73.0 185.75 L 65.0 185.75 L 65.0 178.25 Z" fill="#ffffff" stroke="none" stroke-width="1.0" />
<text x='65.0' y='185.75' font-family="Default" font-size="10.0" fill="#404040" >1</text>
<path d="M 66.52 86.232 C 66.52 87.456 67.715195 88.68 68.895996 88.68 C 72.495995 88.68 76.09599 86.232 76.09599 83.856 C 76.09599 82.6752 74.871994 81.48 73.71999 81.48 C 70.119995 81.48 66.52 83.856 66.52 86.232 Z" fill="#404040" stroke="none" stroke-width="1.0" />
<path d="M 65.0 188.25 L 73.0 188.25 L 73.0 195.75 L 65.0 195.75 L 65.0 188.25 Z" fill="#ffffff" stroke="none" stroke-width="1.0" />
<text x='65.0' y='195.75' font-family="Default" font-size="10.0" fill="#404040" >0</text>
<path d="M 66.52 94.232 C 66.52 95.456 67.715195 96.68 68.895996 96.68 C 72.495995 96.68 76.09599 94.232 76.09599 91.856 C 76.09599 90.6752 74.871994 89.48 73.71999 89.48 C 70.119995 89.48 66.52 91.856 66.52 94.232 Z" fill="#404040" stroke="none" stroke-width="1.0" />
<path d="M 65.0 198.25 L 73.0 198.25 L 73.0 205.75 L 65.0 205.75 L 65.0 198.25 Z" fill="#ffffff" stroke="none" stroke-width="1.0" />
<text x='65.0' y='205.75' font-family="Default" font-size="10.0" fill="#404040" >0</text>
<path d="M 66.52 106.232 C 66.52 107.456 67.715195 108.68 68.895996 108.68 C 72.495995 108.68 76.09599 106.232 76.09599 103.856 C 76.09599 102.6752 74.871994 101.48 73.71999 101.48 C 70.119995 101.48 66.52 103.856 66.52 106.232 Z" fill="#404040" stroke="none" stroke-width="1.0" />
<path d="M 65.0 208.25 L 73.0 208.25 L 73.0 215.75 L 65.0 215.75 L 65.0 208.25 Z" fill="#ffffff" stroke="none" stroke-width="1.0" />
<text x='65.0' y='215.75' font-family="Default" font-size="10.0" fill="#404040" >0</text>
<path d="M 66.52 114.232 C 66.52 115.456 67.715195 116.68 68.895996 116.68 C 72.495995 116.68 76.09599 114.232 76.09599 111.856 C 76.09599 110.6752 74.871994 109.48 73.71999 109.48 C 70.119995 109.48 66.52 111.856 66.52 114.232 Z" fill="#404040" stroke="none" stroke-width="1.0" />
<path d="M 65.0 218.25 L 73.0 218.25 L 73.0 225.75 L 65.0 225.75 L 65.0 218.25 Z" fill="#ffffff" stroke="none" stroke-width="1.0" />
<text x='65.0' y='225.75' font-family="Default" font-size="10.0" fill="#404040" >2</text>
<path d="M 66.52 122.232 C 66.52 123.456 67.715195 124.68 68.895996 124.68 C 72.495995 124.68 76.09599 122.232 76.09599 119.856 C 76.09599 118.6752 74.871994 117.48 73.71999 117.48 C 70.119995 117.48 66.52 119.856 66.52 122.232 Z" fill="#404040" stroke="none" stroke-width="1.0" />
<path d="M 65.0 228.25 L 73.0 228.25 L 73.0 235.75 L 65.0 235.75 L 65.0 228.25 Z" fill="#ffffff" stroke="none" stroke-width="1.0" />
<text x='65.0' y='235.75' font-family="Default" font-size="10.0" fill="#404040" >3</text>
<path d="M 75.18 120.04 L 76.18 120.04 L 76.18 37.0 L 75.18 37.0 M 75.18 120.04 Z" fill="#404040" stroke="none" stroke-width="0.75" />
<path d="M 84.0 109.0 L 100.0 109.0 Z" fill="none" stroke="#d6d6d6" stroke-width="0.75" />
<path d="M 84.0 117.0 L 100.0 117.0 Z" fill="none" stroke="#d6d6d6" stroke-width="0.75" />
<path d="M 87.52 70.232 C 87.52 71.456 88.715195 72.68 89.895996 72.68 C 93.495995 72.68 97.09599 70.232 97.09599 67.856 C 97.09599 66.6752 95.871994 65.48 94.71999 65.48 C 91.119995 65.48 87.52 67.856 87.52 70.232 Z" fill="#404040" stroke="none" stroke-width="1.0" />
<path d="M 86.0 178.25 L 94.0 178.25 L 94.0 185.75 L 86.0 185.75 L 86.0 178.25 Z" fill="#ffffff" stroke="none" stroke-width="1.0" />
<text x='86.0' y='185.75' font-family="Default" font-size="10.0" fill="#404040" >1</text>
<path d="M 87.52 86.232 C 87.52 87.456 88.715195 88.68 89.895996 88.68 C 93.495995 88.68 97.09599 86.232 97.09599 83.856 C 97.09599 82.6752 95.871994 81.48 94.71999 81.48 C 91.119995 81.48 87.52 83.856 87.52 86.232 Z" fill="#404040" stroke="none" stroke-width="1.0" />
<path d="M 86.0 188.25 L 94.0 188.25 L 94.0 195.75 L 86.0 195.75 L 86.0 188.25 Z" fill="#ffffff" stroke="none" stroke-width="1.0" />
<text x='86.0' y='195.75' font-family="Default" font-size="10.0" fill="#404040" >0</text>
<path d="M 87.52 94.232 C 87.52 95.456 88.715195 96.68 89.895996 96.68 C 93.495995 96.68 97.09599 94.232 97.09599 91.856 C 97.09599 90.6752 95.871994 89.48 94.71999 89.48 C 91.119995 89.48 87.52 91.856 87.52 94.232 Z" fill="#404040" stroke="none" stroke-width="1.0" />
<path d="M 86.0 198.25 L 94.0 198.25 L 94.0 205.75 L 86.0 205.75 L 86.0 198.25 Z" fill="#ffffff" stroke="none" stroke-width="1.0" />
<text x='86.0' y='205.75' font-family="Default" font-size="10.0" fill="#404040" >0</text>
<path d="M 87.52 106.232 C 87.52 107.456 88.715195 108.68 89.895996 108.68 C 93.495995 108.68 97.09599 106.232 97.09599 103.856 C 97.09599 102.6752 95.871994 101.48 94.71999 101.48 C 91.119995 101.48 87.52 103.856 87.52 106.232 Z" fill="#404040" stroke="none" stroke-width="1.0" />
<path d="M 86.0 208.25 L 94.0 208.25 L 94.0 215.75 L 86.0 215.75 L 86.0 208.25 Z" fill="#ffffff" stroke="none" stroke-width="1.0" />
<text x='86.0' y='215.75' font-family="Default" font-size="10.0" fill="#404040" >0</text>
<path d="M 87.52 114.232 C 87.52 115.456 88.715195 116.68 89.895996 116.68 C 93.495995 116.68 97.09599 114.232 97.09599 111.856 C 97.09599 110.6752 95.871994 109.48 94.71999 109.48 C 91.119995 109.48 87.52 111.856 87.52 114.232 Z" fill="#404040" stroke="none" stroke-width="1.0" />
<path d="M 86.0 218.25 L 94.0 218.25 L 94.0 225.75 L 86.0 225.75 L 86.0 218.25 Z" fill="#ffffff" stroke="none" stroke-width="1.0" />
<text x='86.0' y='225.75' font-family="Default" font-size="10.0" fill="#404040" >2</text>
<path d="M 87.52 122.232 C 87.52 123.456 88.715195 124.68 89.895996 124.68 C 93.495995 124.68 97.09599 122.232 97.09599 119.856 C 97.09599 118.6752 95.871994 117.48 94.71999 117.48 C 91.119995 117.48 87.52 119.856 87.52 122.232 Z" fill="#404040" stroke="none" stroke-width="1.0" />
<path d="M 86.0 228.25 L 94.0 228.25 L 94.0 235.75 L 86.0 235.75 L 86.0 228.25 Z" fill="#ffffff" stroke="none" stroke-width="1.0" />
<text x='86.0' y='235.75' font-family="Default" font-size="10.0" fill="#404040" >3</text>
<path d="M 96.18 120.04 L 97.18 120.04 L 97.18 37.0 L 96.18 37.0 M 96.18 120.04 Z" fill="#404040" stroke="none" stroke-width="0.75" /></g>
<text x='364.0' y='20.0' font-family="Default" font-size="10.0" fill="#000000" >C</text>
<text x='406.0' y='20.0' font-family="Default" font-size="10.0" fill="#000000" >G7</text>
<text x='340.0' y='87.0' font-family="Default" font-size="10.0" fill="#ff0000" >3</text>
<path d="M 339.0 89.0 L 339.0 121.0 Z" fill="#000000" stroke="#000000" stroke-width="0.75" />
<path d="M 463.0 89.0 L 463.0 121.0 Z" fill="#000000" stroke="#000000" stroke-width="0.75" />
<path d="M 339.0 202.0 L 339.0 252.0 Z" fill="#000000" stroke="#000000" stroke-width="0.75" />
<path d="M 463.0 202.0 L 463.0 252.0 Z" fill="#000000" stroke="#000000" stroke-width="0.75" /><g transform="translate(463.0,20.0)">
<path d="M 0.0 0.0 L 124.0 0.0 L 124.0 253.0 L 0.0 253.0 L 0.0 0.0 Z" fill="#ffffff" stroke="none" stroke-width="1.0" />
<path d="M 0.0 69.0 L 124.0 69.0 M 0.0 77.0 L 124.0 77.0 M 0.0 85.0 L 124.0 85.0 M 0.0 93.0 L 124.0 93.0 M 0.0 101.0 L 124.0 101.0 Z" fill="none" stroke="#d6d6d6" stroke-width="0.75" />
<path d="M 0.0 182.0 L 124.0 182.0 M 0.0 192.0 L 124.0 192.0 M 0.0 202.0 L 124.0 202.0 M 0.0 212.0 L 124.0 212.0 M 0.0 222.0 L 124.0 222.0 M 0.0 232.0 L 124.0 232.0 Z" fill="none" stroke="#d6d6d6" stroke-width="0.75" />
<path d="M 21.0 109.0 L 37.0 109.0 Z" fill="none" stroke="#d6d6d6" stroke-width="0.75" />
<path d="M 21.0 117.0 L 37.0 117.0 Z" fill="none" stroke="#d6d6d6" stroke-width="0.75" />
<path d="M 21.0 125.0 L 37.0 125.0 Z" fill="none" stroke="#d6d6d6" stroke-width="0.75" />
<path d="M 24.52 74.232 C 24.52 75.456 25.7152 76.68 26.896 76.68 C 30.496 76.68 34.096 74.232 34.096 71.856 C 34.096 70.6752 32.872 69.48 31.720001 69.48 C 28.12 69.48 24.52 71.856 24.52 74.232 Z" fill="#404040" stroke="none" stroke-width="1.0" />
<path d="M 23.0 178.25 L 31.0 178.25 L 31.0 185.75 L 23.0 185.75 L 23.0 178.25 Z" fill="#ffffff" stroke="none" stroke-width="1.0" />
<text x='23.0' y='185.75' font-family="Default" font-size="10.0" fill="#404040" >0</text>
<path d="M 24.52 82.232 C 24.52 83.456 25.7152 84.68 26.896 84.68 C 30.496 84.68 34.096 82.232 34.096 79.856 C 34.096 78.6752 32.872 77.48 31.720001 77.48 C 28.12 77.48 24.52 79.856 24.52 82.232 Z" fill="#404040" stroke="none" stroke-width="1.0" />
<path d="M 23.0 188.25 L 31.0 188.25 L 31.0 195.75 L 23.0 195.75 L 23.0 188.25 Z" fill="#ffffff" stroke="none" stroke-width="1.0" />
<text x='23.0' y='195.75' font-family="Default" font-size="10.0" fill="#404040" >1</text>
<path d="M 24.52 94.232 C 24.52 95.456 25.7152 96.68 26.896 96.68 C 30.496 96.68 34.096 94.232 34.096 91.856 C 34.096 90.6752 32.872 89.48 31.720001 89.48 C 28.12 89.48 24.52 91.856 24.52 94.232 Z" fill="#404040" stroke="none" stroke-width="1.0" />
<path d="M 23.0 198.25 L 31.0 198.25 L 31.0 205.75 L 23.0 205.75 L 23.0 198.25 Z" fill="#ffffff" stroke="none" stroke-width="1.0" />
<text x='23.0' y='205.75' font-family="Default" font-size="10.0" fill="#404040" >0</text>
<path d="M 24.52 102.232 C 24.52 103.456 25.7152 104.68 26.896 104.68 C 30.496 104.68 34.096 102.232 34.096 99.856 C 34.096 98.6752 32.872 97.48 31.720001 97.48 C 28.12 97.48 24.52 99.856 24.52 102.232 Z" fill="#404040" stroke="none" stroke-width="1.0" />
<path d="M 23.0 208.25 L 31.0 208.25 L 31.0 215.75 L 23.0 215.75 L 23.0 208.25 Z" fill="#ffffff" stroke="none" stroke-width="1.0" />
<text x='23.0' y='215.75' font-family="Default" font-size="10.0" fill="#404040" >2</text>
<path d="M 24.52 110.232 C 24.52 111.456 25.7152 112.68 26.896 112.68 C 30.496 112.68 34.096 110.232 34.096 107.856 C 34.096 106.6752 32.872 105.48 31.720001 105.48 C 28.12 105.48 24.52 107.856 24.52 110.232 Z" fill="#404040" stroke="none" stroke-width="1.0" />
<path d="M 23.0 218.25 L 31.0 218.25 L 31.0 225.75 L 23.0 225.75 L 23.0 218.25 Z" fill="#ffffff" stroke="none" stroke-width="1.0" />
<text x='23.0' y='225.75' font-family="Default" font-size="10.0" fill="#404040" >3</text>
<path d="M 24.52 130.23201 C 24.52 131.45601 25.7152 132.68001 26.896 132.68001 C 30.496 132.68001 34.096 130.23201 34.096 127.856 C 34.096 126.6752 32.872 125.48 31.720001 125.48 C 28.12 125.48 24.52 127.856 24.52 130.23201 Z" fill="#404040" stroke="none" stroke-width="1.0" />
<path d="M 23.0 228.25 L 31.0 228.25 L 31.0 235.75 L 23.0 235.75 L 23.0 228.25 Z" fill="#ffffff" stroke="none" stroke-width="1.0" />
<text x='23.0' y='235.75' font-family="Default" font-size="10.0" fill="#404040" >0</text>
<path d="M 33.18 128.04 L 34.18 128.04 L 34.18 41.0 L 33.18 41.0 M 33.18 128.04 Z" fill="#404040" stroke="none" stroke-width="0.75" />
<path d="M 42.0 109.0 L 58.0 109.0 Z" fill="none" stroke="#d6d6d6" stroke-width="0.75" />
<path d="M 42.0 117.0 L 58.0 117.0 Z" fill="none" stroke="#d6d6d6" stroke-width="0.75" />
<path d="M 42.0 125.0 L 58.0 125.0 Z" fill="none" stroke="#d6d6d6" stroke-width="0.75" />
<path d="M 45.52 74.232 C 45.52 75.456 46.715202 76.68 47.896 76.68 C 51.496002 76.68 55.096 74.232 55.096 71.856 C 55.096 70.6752 53.872 69.48 52.72 69.48 C 49.12 69.48 45.52 71.856 45.52 74.232 Z" fill="#404040" stroke="none" stroke-width="1.0" />
<path d="M 44.0 178.25 L 52.0 178.25 L 52.0 185.75 L 44.0 185.75 L 44.0 178.25 Z" fill="#ffffff" stroke="none" stroke-width="1.0" />
<text x='44.0' y='185.75' font-family="Default" font-size="10.0" fill="#404040" >0</text>
<path d="M 45.52 82.232 C 45.52 83.456 46.715202 84.68 47.896 84.68 C 51.496002 84.68 55.096 82.232 55.096 79.856 C 55.096 78.6752 53.872 77.48 52.72 77.48 C 49.12 77.48 45.52 79.856 45.52 82.232 Z" fill="#404040" stroke="none" stroke-width="1.0" />
<path d="M 44.0 188.25 L 52.0 188.25 L 52.0 195.75 L 44.0 195.75 L 44.0 188.25 Z" fill="#ffffff" stroke="none" stroke-width="1.0" />
<text x='44.0' y='195.75' font-family="Default" font-size="10.0" fill="#404040" >1</text>
<path d="M 45.52 94.232 C 45.52 95.456 46.715202 96.68 47.896 96.68 C 51.496002 96.68 55.096 94.232 55.096 91.856 C 55.096 90.6752 53.872 89.48 52.72 89.48 C 49.12 89.48 45.52 91.856 45.52 94.232 Z" fill="#404040" stroke="none" stroke-width="1.0" />
<path d="M 44.0 198.25 L 52.0 198.25 L 52.0 205.75 L 44.0 205.75 L 44.0 198.25 Z" fill="#ffffff" stroke="none" stroke-width="1.0" />
<text x='44.0' y='205.75' font-family="Default" font-size="10.0" fill="#404040" >0</text>
<path d="M 45.52 102.232 C 45.52 103.456 46.715202 104.68 47.896 104.68 C 51.496002 104.68 55.096 102.232 55.096 99.856 C 55.096 98.6752 53.872 97.48 52.72 97.48 C 49.12 97.48 45.52 99.856 45.52 102.232 Z" fill="#404040" stroke="none" stroke-width="1.0" />
<path d="M 44.0 208.25 L 52.0 208.25 L 52.0 215.75 L 44.0 215.75 L 44.0 208.25 Z" fill="#ffffff" stroke="none" stroke-width="1.0" />
<text x='44.0' y='215.75' font-family="Default" font-size="10.0" fill="#404040" >2</text>
<path d="M 45.52 110.232 C 45.52 111.456 46.715202 112.68 47.896 112.68 C 51.496002 112.68 55.096 110.232 55.096 107.856 C 55.096 106.6752 53.872 105.48 52.72 105.48 C 49.12 105.48 45.52 107.856 45.52 110.232 Z" fill="#404040" stroke="none" stroke-width="1.0" />
<path d="M 44.0 218.25 L 52.0 218.25 L 52.0 225.75 L 44.0 225.75 L 44.0 218.25 Z" fill="#ffffff" stroke="none" stroke-width="1.0" />
<text x='44.0' y='225.75' font-family="Default" font-size="10.0" fill="#404040" >3</text>
<path d="M 45.52 130.23201 C 45.52 131.45601 46.715202 132.68001 47.896 132.68001 C 51.496002 132.68001 55.096 130.23201 55.096 127.856 C 55.096 126.6752 53.872 125.48 52.72 125.48 C 49.12 125.48 45.52 127.856 45.52 130.23201 Z" fill="#404040" stroke="none" stroke-width="1.0" />
<path d="M 44.0 228.25 L 52.0 228.25 L 52.0 235.75 L 44.0 235.75 L 44.0 228.25 Z" fill="#ffffff" stroke="none" stroke-width="1.0" />
<text x='44.0' y='235.75' font-family="Default" font-size="10.0" fill="#404040" >0</text>
<path d="M 54.18 128.04 L 55.18 128.04 L 55.18 41.0 L 54.18 41.0 M 54.18 128.04 Z" fill="#404040" stroke="none" stroke-width="0.75" />
<path d="M 63.0 109.0 L 79.0 109.0 Z" fill="none" stroke="#d6d6d6" stroke-width="0.75" />
<path d="M 63.0 117.0 L 79.0 117.0 Z" fill="none" stroke="#d6d6d6" stroke-width="0.75" />
<path d="M 66.52 66.232 C 66.52 67.456 67.715195 68.68 68.895996 68.68 C 72.495995 68.68 76.09599 66.232 76.09599 63.856 C 76.09599 62.6752 74.871994 61.48 73.71999 61.48 C 70.119995 61.48 66.52 63.856 66.52 66.232 Z" fill="#404040" stroke="none" stroke-width="1.0" />
<path d="M 65.0 178.25 L 73.0 178.25 L 73.0 185.75 L 65.0 185.75 L 65.0 178.25 Z" fill="#ffffff" stroke="none" stroke-width="1.0" />
<text x='65.0' y='185.75' font-family="Default" font-size="10.0" fill="#404040" >3</text>
<path d="M 66.52 86.232 C 66.52 87.456 67.715195 88.68 68.895996 88.68 C 72.495995 88.68 76.09599 86.232 76.09599 83.856 C 76.09599 82.6752 74.871994 81.48 73.71999 81.48 C 70.119995 81.48 66.52 83.856 66.52 86.232 Z" fill="#404040" stroke="none" stroke-width="1.0" />
<path d="M 65.0 188.25 L 73.0 188.25 L 73.0 195.75 L 65.0 195.75 L 65.0 188.25 Z" fill="#ffffff" stroke="none" stroke-width="1.0" />
<text x='65.0' y='195.75' font-family="Default" font-size="10.0" fill="#404040" >0</text>
<path d="M 66.52 94.232 C 66.52 95.456 67.715195 96.68 68.895996 96.68 C 72.495995 96.68 76.09599 94.232 76.09599 91.856 C 76.09599 90.6752 74.871994 89.48 73.71999 89.48 C 70.119995 89.48 66.52 91.856 66.52 94.232 Z" fill="#404040" stroke="none" stroke-width="1.0" />
<path d="M 65.0 198.25 L 73.0 198.25 L 73.0 205.75 L 65.0 205.75 L 65.0 198.25 Z" fill="#ffffff" stroke="none" stroke-width="1.0" />
<text x='65.0' y='205.75' font-family="Default" font-size="10.0" fill="#404040" >0</text>
<path d="M 66.52 106.232 C 66.52 107.456 67.715195 108.68 68.895996 108.68 C 72.495995 108.68 76.09599 106.232 76.09599 103.856 C 76.09599 102.6752 74.871994 101.48 73.71999 101.48 C 70.119995 101.48 66.52 103.856 66.52 106.232 Z" fill="#404040" stroke="none" stroke-width="1.0" />
<path d="M 65.0 208.25 L 73.0 208.25 L 73.0 215.75 L 65.0 215.75 L 65.0 208.25 Z" fill="#ffffff" stroke="none" stroke-width="1.0" />
<text x='65.0' y='215.75' font-family="Default" font-size="10.0" fill="#404040" >0</text>
<path d="M 66.52 114.232 C 66.52 115.456 67.715195 116.68 68.895996 116.68 C 72.495995 116.68 76.09599 114.232 76.09599 111.856 C 76.09599 110.6752 74.871994 109.48 73.71999 109.48 C 70.119995 109.48 66.52 111.856 66.52 114.232 Z" fill="#404040" stroke="none" stroke-width="1.0" />
<path d="M 65.0 218.25 L 73.0 218.25 L 73.0 225.75 L 65.0 225.75 L 65.0 218.25 Z" fill="#ffffff" stroke="none" stroke-width="1.0" />
<text x='65.0' y='225.75' font-family="Default" font-size="10.0" fill="#404040" >2</text>
<path d="M 66.52 122.232 C 66.52 123.456 67.715195 124.68 68.895996 124.68 C 72.495995 124.68 76.09599 122.232 76.09599 119.856 C 76.09599 118.6752 74.871994 117.48 73.71999 117.48 C 70.119995 117.48 66.52 119.856 66.52 122.232 Z" fill="#404040" stroke="none" stroke-width="1.0" />
<path d="M 65.0 228.25 L 73.0 228.25 L 73.0 235.75 L 65.0 235.75 L 65.0 228.25 Z" fill="#ffffff" stroke="none" stroke-width="1.0" />
<text x='65.0' y='235.75' font-family="Default" font-size="10.0" fill="#404040" >3</text>
<path d="M 66.5 65.96 L 67.5 65.96 L 67.5 152.0 L 66.5 152.0 M 66.5 65.96 Z" fill="#404040" stroke="none" stroke-width="0.75" />
<path d="M 84.0 109.0 L 100.0 109.0 Z" fill="none" stroke="#d6d6d6" stroke-width="0.75" />
<path d="M 84.0 117.0 L 100.0 117.0 Z" fill="none" stroke="#d6d6d6" stroke-width="0.75" />
<path d="M 87.52 66.232 C 87.52 67.456 88.715195 68.68 89.895996 68.68 C 93.495995 68.68 97.09599 66.232 97.09599 63.856 C 97.09599 62.6752 95.871994 61.48 94.71999 61.48 C 91.119995 61.48 87.52 63.856 87.52 66.232 Z" fill="#404040" stroke="none" stroke-width="1.0" />
<path d="M 86.0 178.25 L 94.0 178.25 L 94.0 185.75 L 86.0 185.75 L 86.0 178.25 Z" fill="#ffffff" stroke="none" stroke-width="1.0" />
<text x='86.0' y='185.75' font-family="Default" font-size="10.0" fill="#404040" >3</text>
<path d="M 87.52 86.232 C 87.52 87.456 88.715195 88.68 89.895996 88.68 C 93.495995 88.68 97.09599 86.232 97.09599 83.856 C 97.09599 82.6752 95.871994 81.48 94.71999 81.48 C 91.119995 81.48 87.52 83.856 87.52 86.232 Z" fill="#404040" stroke="none" stroke-width="1.0" />
<path d="M 86.0 188.25 L 94.0 188.25 L 94.0 195.75 L 86.0 195.75 L 86.0 188.25 Z" fill="#ffffff" stroke="none" stroke-width="1.0" />
<text x='86.0' y='195.75' font-family="Default" font-size="10.0" fill="#404040" >0</text>
<path d="M 87.52 94.232 C 87.52 95.456 88.715195 96.68 89.895996 96.68 C 93.495995 96.68 97.09599 94.232 97.09599 91.856 C 97.09599 90.6752 95.871994 89.48 94.71999 89.48 C 91.119995 89.48 87.52 91.856 87.52 94.232 Z" fill="#404040" stroke="none" stroke-width="1.0" />
<path d="M 86.0 198.25 L 94.0 198.25 L 94.0 205.75 L 86.0 205.75 L 86.0 198.25 Z" fill="#ffffff" stroke="none" stroke-width="1.0" />
<text x='86.0' y='205.75' font-family="Default" font-size="10.0" fill="#404040" >0</text>
<path d="M 87.52 106.232 C 87.52 107.456 88.715195 108.68 89.895996 108.68 C 93.495995 108.68 97.09599 106.232 97.09599 103.856 C 97.09599 102.6752 95.871994 101.48 94.71999 101.48 C 91.119995 101.48 87.52 103.856 87.52 106.232 Z" fill="#404040" stroke="none" stroke-width="1.0" />
<path d="M 86.0 208.25 L 94.0 208.25 L 94.0 215.75 L 86.0 215.75 L 86.0 208.25 Z" fill="#ffffff" stroke="none" stroke-width="1.0" />
<text x='86.0' y='215.75' font-family="Default" font-size="10.0" fill="#404040" >0</text>
<path d="M 87.52 114.232 C 87.52 115.456 88.715195 116.68 89.895996 116.68 C 93.495995 116.68 97.09599 114.232 97.09599 111.856 C 97.09599 110.6752 95.871994 109.48 94.71999 109.48 C 91.119995 109.48 87.52 111.856 87.52 114.232 Z" fill="#404040" stroke="none" stroke-width="1.0" />
<path d="M 86.0 218.25 L 94.0 218.25 L 94.0 225.75 L 86.0 225.75 L 86.0 218.25 Z" fill="#ffffff" stroke="none" stroke-width="1.0" />
<text x='86.0' y='225.75' font-family="Default" font-size="10.0" fill="#404040" >2</text>
<path d="M 87.52 122.232 C 87.52 123.456 88.715195 124.68 89.895996 124.68 C 93.495995 124.68 97.09599 122.232 97.09599 119.856 C 97.09599 118.6752 95.871994 117.48 94.71999 117.48 C 91.119995 117.48 87.52 119.856 87.52 122.232 Z" fill="#404040" stroke="none" stroke-width="1.0" />
<path d="M 86.0 228.25 L 94.0 228.25 L 94.0 235.75 L 86.0 235.75 L 86.0 228.25 Z" fill="#ffffff" stroke="none" stroke-width="1.0" />
<text x='86.0' y='235.75' font-family="Default" font-size="10.0" fill="#404040" >3</text>
<path d="M 87.5 65.96 L 88.5 65.96 L 88.5 152.0 L 87.5 152.0 M 87.5 65.96 Z" fill="#404040" stroke="none" stroke-width="0.75" /></g>
<text x='488.0' y='20.0' font-family="Default" font-size="10.0" fill="#000000" >C</text>
<text x='530.0' y='20.0' font-family="Default" font-size="10.0" fill="#000000" >G</text>
<text x='464.0' y='87.0' font-family="Default" font-size="10.0" fill="#ff0000" >4</text>
<path d="M 463.0 89.0 L 463.0 121.0 Z" fill="#000000" stroke="#000000" stroke-width="0.75" />
<path d="M 581.0 89.0 L 582.0 89.0 L 582.0 121.0 L 581.0 121.0 L 581.0 89.0 Z" fill="#000000" stroke="#000000" stroke-width="0.75" />
<path d="M 584.0 89.0 L 587.0 89.0 L 587.0 121.0 L 584.0 121.0 L 584.0 89.0 Z" fill="#000000" stroke="#000000" stroke-width="0.75" />
<path d="M 463.0 202.0 L 463.0 252.0 Z" fill="#000000" stroke="#000000" stroke-width="0.75" />
<path d="M 581.0 202.0 L 582.0 202.0 L 582.0 252.0 L 581.0 252.0 L 581.0 202.0 Z" fill="#000000" stroke="#000000" stroke-width="0.75" />
<path d="M 584.0 202.0 L 587.0 202.0 L 587.0 252.0 L 584.0 252.0 L 584.0 202.0 Z" fill="#000000" stroke="#000000" stroke-width="0.75" />

</svg>