<svg width="960.0px" height="695.0px" xmlns="http://www.w3.org/2000/svg" version="1.1">

<path d="M 0.0 0.0 L 960.0 0.0 L 960.0 695.0 L 0.0 695.0 L 0.0 0.0 Z" fill="#ffffff" stroke="none" stroke-width="1.0" /><g transform="translate(20.0,20.0)">
<path d="M 0.0 0.0 L 371.0 0.0 L 371.0 214.0 L 0.0 214.0 L 0.0 0.0 Z" fill="#ffffff" stroke="none" stroke-width="1.0" />
<path d="M 0.0 30.0 L 371.0 30.0 M 0.0 38.0 L 371.0 38.0 M 0.0 46.0 L 371.0 46.0 M 0.0 54.0 L 371.0 54.0 M 0.0 62.0 L 371.0 62.0 Z" fill="none" stroke="#d6d6d6" stroke-width="0.75" />
<path d="M 0.0 143.0 L 371.0 143.0 M 0.0 153.0 L 371.0 153.0 M 0.0 163.0 L 371.0 163.0 M 0.0 173.0 L 371.0 173.0 M 0.0 183.0 L 371.0 183.0 M 0.0 193.0 L 371.0 193.0 Z" fill="none" stroke="#d6d6d6" stroke-width="0.75" />
<path d="M 87.58852 37.6751 C 88.31809 37.6751 88.78502 37.38327 88.96011 36.79961 C 89.106026 36.332684 89.16439 35.60311 89.16439 34.640076 L 89.16439 33.76459 C 89.16439 32.801556 89.106026 32.071983 88.96011 31.605059 C 88.78502 31.0214 88.31809 30.729572 87.58852 30.729572 C 86.71303 30.729572 86.18774 31.079767 86.01264 31.750973 C 85.86673 32.33463 85.77918 33.151752 85.77918 34.202335 C 85.77918 35.428017 85.89591 36.3035 86.10019 36.79961 C 86.36284 37.38327 86.85895 37.6751 87.58852 37.6751 M 89.16439 37.966927 C 88.52237 38.229572 87.99708 38.37549 87.58852 38.37549 C 86.01264 38.37549 84.786964 38.02529 83.85311 37.3249 C 82.97762 36.62451 82.5107 35.57393 82.5107 34.231518 C 82.5107 32.830738 82.97762 31.809338 83.88229 31.079767 C 84.786964 30.379377 86.041824 30.029182 87.58852 30.029182 C 89.19357 30.029182 90.41926 30.758755 91.32393 32.24708 C 92.2286 33.73541 92.666336 35.48638 92.666336 37.5 C 92.666336 37.5 92.141045 41.23541 91.09046 42.75292 C 90.06906 44.212063 88.697464 44.970818 87.00486 44.970818 C 85.89591 44.970818 84.93288 44.678986 84.08657 44.12451 C 83.269455 43.570038 82.86089 42.811283 82.86089 41.906616 C 82.86089 41.352142 83.03599 40.885216 83.44455 40.505836 C 83.79475 40.126457 84.26167 39.92218 84.786964 39.92218 C 85.34144 39.92218 85.808365 40.126457 86.18774 40.505836 C 86.567116 40.885216 86.7714 41.35214 86.7714 41.906616 C 86.7714 42.140076 86.567116 42.373543 86.18774 42.636185 C 85.808365 42.869648 85.60408 43.10311 85.60408 43.365757 C 85.60408 43.628403 85.75 43.861866 86.01264 44.036964 C 86.304474 44.182877 86.62548 44.270428 87.00486 44.270428 C 87.90953 44.270428 88.49319 43.92023 88.78502 43.19066 C 89.07684 42.46109 89.22276 41.43969 89.22276 40.126457 C 89.22276 39.892998 89.22276 39.5428 89.19357 39.04669 C 89.16439 38.550583 89.16439 38.20039 89.16439 37.966927 Z" fill="#000000" stroke="none" stroke-width="0.75" />
<path d="M 89.76265 53.361866 C 90.72568 52.311283 91.22179 51.289883 91.22179 50.326847 C 91.22179 49.53891 90.8716 48.89689 90.200386 48.429962 C 89.52918 47.963036 88.71206 47.729572 87.74902 47.729572 C 87.07782 47.729572 86.523346 47.933853 86.114784 48.371597 C 85.70622 48.809338 85.501945 49.276264 85.501945 49.830738 C 85.501945 50.501945 85.79378 51.027237 86.40662 51.406616 M 90.66731 53.857975 C 92.33074 54.82101 93.14786 56.075874 93.14786 57.680935 C 93.14786 58.848248 92.65175 59.869648 91.65953 60.686768 C 90.63813 61.562256 89.26654 61.970818 87.48638 61.970818 C 85.998055 61.970818 84.714005 61.59144 83.66342 60.8035 C 82.554474 60.015564 82.02918 59.023346 82.02918 57.797665 C 82.02918 57.330738 82.175095 56.863815 82.437744 56.367706 C 82.700386 55.90078 82.963036 55.550583 83.196495 55.31712 C 83.40078 55.054474 83.78016 54.70428 84.30545 54.20817 C 83.10895 53.361866 82.49611 52.311283 82.46693 51.027237 C 82.46693 49.94747 82.93385 49.01362 83.89689 48.1965 C 84.83074 47.437744 86.114784 47.029182 87.74903 47.029182 C 89.062256 47.029182 90.1712 47.32101 91.13424 47.90467 C 92.06809 48.488327 92.53502 49.305447 92.53502 50.326847 C 92.50584 51.377434 91.893 52.544746 90.66731 53.857975 M 85.21011 54.733463 C 83.984436 55.81323 83.3716 56.834633 83.342415 57.797665 C 83.342415 58.789883 83.75098 59.607002 84.597275 60.27821 C 85.4144 60.949417 86.37743 61.270428 87.48638 61.270428 C 88.27432 61.270428 88.88716 61.036964 89.35409 60.511673 C 89.821014 60.044746 90.054474 59.46109 90.054474 58.789883 C 90.054474 57.94358 89.70428 57.330738 89.03307 56.951363 Z" fill="#000000" stroke="none" stroke-width="0.75" />
<path d="M 22.764973 22.115383 C 22.921913 22.036913 22.948072 22.036913 23.105015 22.036913 C 23.314268 22.06307 23.445057 22.14154 23.73278 22.455425 C 25.616081 24.39104 27.185501 27.843758 27.577856 30.773342 C 27.630169 31.244167 27.630169 32.34276 27.577856 32.839737 C 27.29013 35.533905 26.165377 37.99266 23.57584 41.52385 L 23.209644 42.020832 L 23.418898 42.62244 C 23.915882 44.061073 24.491331 45.81359 24.85753 47.095284 C 24.96216 47.409164 25.04063 47.67074 25.04063 47.696896 C 25.04063 47.696896 25.223728 47.696896 25.406826 47.723053 C 26.322319 47.80152 27.10703 48.01078 27.917896 48.40313 C 28.57182 48.74317 29.147274 49.13552 29.696568 49.658665 C 30.29818 50.260277 30.690535 50.80957 31.05673 51.568123 C 31.606026 52.666718 31.84144 53.81762 31.81528 54.96853 C 31.789125 55.700924 31.684496 56.25022 31.449085 56.930305 C 31.1352 57.924263 30.559748 58.83976 29.77504 59.62447 C 29.094955 60.30455 28.46719 60.72306 27.630169 61.063103 L 27.316284 61.193886 L 27.316284 62.135536 C 27.316284 63.469543 27.237814 65.038956 27.133184 65.980606 C 27.02856 66.94841 26.766989 67.86391 26.348476 68.700935 C 25.249886 70.92427 23.314268 72.10133 21.143244 71.89209 C 18.684484 71.65667 16.69656 69.98262 16.199577 67.73312 C 15.964161 66.713 16.068794 65.9283 16.487303 65.27437 C 17.036598 64.411194 18.082878 63.91421 19.102997 63.940365 C 20.30622 63.992683 21.274027 64.934326 21.457123 66.24218 C 21.58791 67.28845 21.143244 68.25626 20.30622 68.7794 C 19.835394 69.06713 19.181469 69.197914 18.684484 69.119446 C 18.606018 69.119446 18.527544 69.093285 18.527544 69.119446 L 18.84143 69.43333 C 19.416882 70.00878 20.070807 70.374985 20.907831 70.558075 C 21.090927 70.584236 21.247868 70.584236 21.666382 70.584236 C 22.137207 70.584236 22.189518 70.584236 22.451088 70.53192 C 22.81729 70.42729 23.131172 70.29651 23.418898 70.139565 C 24.726748 69.35486 25.616081 67.73312 25.851494 65.77136 C 25.929964 65.038956 26.008434 63.469543 26.008434 62.318638 C 26.008434 61.560085 26.008434 61.50777 25.956123 61.50777 C 25.851494 61.560085 25.302197 61.6124 24.909843 61.638554 C 24.41286 61.66471 23.57584 61.66471 23.183485 61.6124 C 21.640223 61.4293 20.227747 60.90616 18.998373 60.042976 C 17.167385 58.761288 15.859535 56.851826 15.31024 54.654644 C 14.604002 51.908165 15.100986 48.978584 16.827343 45.89206 C 17.55974 44.610374 18.265978 43.564095 20.018494 41.236122 L 21.012455 39.902122 L 20.829355 39.405136 C 19.573822 36.083202 19.15531 34.173744 19.024527 31.401108 C 18.972214 30.197887 19.024527 29.177761 19.181469 28.340742 C 19.573822 26.143559 20.593945 24.181787 22.189518 22.612366 C 22.503403 22.298483 22.63419 22.193855 22.764973 22.115383 M 24.831371 26.588224 C 24.569805 26.143559 24.622118 26.169712 24.386707 26.326658 C 23.65431 26.771324 22.89576 27.451405 22.34646 28.131483 C 21.221714 29.57012 20.593945 31.244167 20.515476 33.048996 C 20.489319 33.78139 20.56779 34.252216 20.907831 35.37696 C 21.169397 36.292458 21.901793 38.5158 21.95411 38.56811 C 21.95411 38.59427 22.111048 38.411175 22.26799 38.17576 C 24.072823 35.58622 25.04063 33.467506 25.406826 31.348791 C 25.485298 30.799496 25.53761 30.354828 25.563768 29.727062 C 25.589928 28.28843 25.432985 27.582191 24.831371 26.588224 M 22.581877 44.191864 C 22.424934 43.694878 22.26799 43.302525 22.26799 43.302525 C 22.241835 43.302525 21.143244 44.76731 20.672415 45.421238 C 19.129156 47.592266 18.187506 49.34478 17.638206 51.071136 C 17.27201 52.143574 17.115068 53.137543 17.062756 54.236134 C 17.062756 54.837746 17.088915 55.20394 17.193539 55.64861 C 17.795153 57.976578 20.280064 59.886036 23.209644 60.30455 C 23.65431 60.35686 24.909843 60.35686 25.459139 60.30455 C 26.008434 60.226078 25.956123 60.252235 25.929964 60.016823 C 25.773026 57.53191 25.563768 56.014805 25.14526 53.765305 C 24.988314 52.823658 24.543648 50.835728 24.517488 50.80957 C 24.491331 50.783417 23.99435 50.835728 23.706627 50.9142 C 23.340427 50.99267 23.105015 51.071136 22.79113 51.22808 C 21.090927 52.091263 20.593945 54.053036 21.666382 55.64861 C 21.849482 55.91018 22.320305 56.381004 22.608032 56.564102 C 22.71266 56.642574 22.948072 56.799515 23.105015 56.877987 C 23.340427 57.00877 23.392738 57.061085 23.445057 57.165714 C 23.65431 57.505756 23.523525 57.924263 23.131172 58.107365 C 22.921913 58.21199 22.764973 58.185837 22.34646 57.976578 C 21.326344 57.4796 20.56779 56.799515 20.018494 55.962494 C 18.998373 54.393074 18.867586 52.37899 19.70461 50.678787 C 20.437006 49.213997 21.744852 48.22003 23.418898 47.853836 C 23.57584 47.80152 23.706627 47.775368 23.706627 47.775368 C 23.73278 47.749207 23.000385 45.368923 22.581877 44.191864 M 26.139221 50.94036 C 26.060753 50.94036 25.98228 50.9142 25.956123 50.9142 L 25.877651 50.88804 L 26.008434 51.43734 C 26.610046 54.07919 27.054714 56.956455 27.211655 59.389057 C 27.237814 59.650627 27.237814 59.859882 27.237814 59.859882 C 27.263973 59.859882 27.60401 59.70294 27.78711 59.572155 C 28.231777 59.31058 28.65029 58.91823 28.99033 58.47356 C 29.801197 57.401123 30.08892 56.06712 29.77504 54.706955 C 29.539627 53.608364 28.911861 52.58824 28.022522 51.882008 C 27.473227 51.463493 26.740831 51.097298 26.139221 50.94036 Z" fill="#000000" stroke="none" stroke-width="0.75" />
<path d="M 64.46439 23.631191 C 64.59136 23.558638 64.79088 23.613052 64.863434 23.776297 C 64.89971 23.84885 64.89971 23.903263 64.89971 25.172935 C 64.89971 25.916603 64.89971 26.515162 64.91785 26.515162 C 64.91785 26.515162 65.08109 26.44261 65.28061 26.370056 C 65.69779 26.206814 65.752205 26.188675 65.86103 26.279366 C 65.988 26.370056 65.988 26.388195 65.988 27.113722 C 65.988 27.73042 65.988 27.784836 65.95172 27.839249 C 65.933586 27.875526 65.89731 27.911802 65.87917 27.92994 C 65.842896 27.948078 65.62524 28.056908 65.3713 28.147598 L 64.91785 28.347118 L 64.89971 29.81631 C 64.89971 30.614391 64.89971 31.285505 64.91785 31.285505 C 64.91785 31.285505 65.08109 31.212952 65.28061 31.1404 C 65.69779 30.977156 65.752205 30.959017 65.86103 31.049707 C 65.988 31.1404 65.988 31.158537 65.988 31.884064 C 65.988 32.500763 65.988 32.555176 65.95172 32.609592 C 65.933586 32.64587 65.89731 32.682144 65.87917 32.700283 C 65.842896 32.718422 65.62524 32.82725 65.3713 32.917942 L 64.91785 33.117462 L 64.89971 34.641068 C 64.89971 36.01957 64.88157 36.18281 64.863434 36.23723 C 64.736465 36.454887 64.428116 36.454887 64.30115 36.23723 C 64.28301 36.18281 64.26487 36.03771 64.26487 34.768036 L 64.26487 33.371395 L 63.484932 33.679745 L 62.72313 33.988094 L 62.72313 35.457287 C 62.72313 37.01717 62.72313 36.980892 62.632435 37.071587 C 62.59616 37.126 62.469193 37.180412 62.41478 37.180412 C 62.342224 37.180412 62.21526 37.126 62.17898 37.071587 C 62.08829 36.980892 62.08829 37.01717 62.08829 35.60239 C 62.08829 34.858727 62.08829 34.260166 62.070152 34.260166 C 62.070152 34.260166 61.90691 34.332718 61.70739 34.405273 C 61.29021 34.568516 61.235798 34.586655 61.12697 34.495964 C 61.0 34.405273 61.0 34.387135 61.0 33.661606 C 61.0 33.044907 61.0 32.990494 61.036278 32.936077 C 61.054413 32.899803 61.09069 32.863525 61.10883 32.845387 C 61.145107 32.82725 61.362762 32.718422 61.6167 32.62773 L 62.08829 32.42821 L 62.08829 30.959017 C 62.08829 30.160938 62.08829 29.489824 62.070152 29.489824 C 62.070152 29.489824 61.90691 29.562378 61.70739 29.63493 C 61.29021 29.798174 61.235798 29.81631 61.12697 29.72562 C 61.0 29.63493 61.0 29.616793 61.0 28.891264 C 61.0 28.274567 61.0 28.220152 61.036278 28.165737 C 61.054413 28.129461 61.09069 28.093184 61.10883 28.075047 C 61.145107 28.056908 61.362762 27.948078 61.6167 27.857388 L 62.08829 27.657867 L 62.08829 26.13426 C 62.08829 24.755758 62.10643 24.592514 62.12457 24.538101 C 62.251534 24.320442 62.559883 24.320442 62.68685 24.538101 C 62.70499 24.592514 62.72313 24.73762 62.72313 26.007294 L 62.741264 27.403933 L 63.50307 27.095585 L 64.26487 26.787235 L 64.26487 25.318043 C 64.26487 23.93954 64.26487 23.84885 64.30115 23.776297 C 64.337425 23.703743 64.3737 23.667467 64.46439 23.631191 M 64.26487 30.070246 L 64.26487 28.601053 L 63.484932 28.909403 L 62.72313 29.217752 L 62.72313 30.705082 L 62.72313 32.174274 L 62.777542 32.156136 C 62.81382 32.138 63.158443 31.992893 63.557484 31.847788 L 64.26487 31.557577 L 64.26487 30.070246 Z" fill="#000000" stroke="none" stroke-width="0.75" />
<path d="M 113.0 70.0 L 129.0 70.0 Z" fill="none" stroke="#d6d6d6" stroke-width="0.75" />
<path d="M 113.0 78.0 L 129.0 78.0 Z" fill="none" stroke="#d6d6d6" stroke-width="0.75" />
<path d="M 113.0 70.0 L 129.0 70.0 Z" fill="none" stroke="#d6d6d6" stroke-width="0.75" />
<path d="M 113.0 78.0 L 129.0 78.0 Z" fill="none" stroke="#d6d6d6" stroke-width="0.75" />
<path d="M 116.52 83.232 C 116.52 84.456 117.715195 85.68 118.895996 85.68 C 122.495995 85.68 126.09599 83.232 126.09599 80.856 C 126.09599 79.6752 124.871994 78.48 123.71999 78.48 C 120.119995 78.48 116.52 80.856 116.52 83.232 Z" fill="#404040" stroke="none" stroke-width="1.0" />
<path d="M 115.0 189.25 L 123.0 189.25 L 123.0 196.75 L 115.0 196.75 L 115.0 189.25 Z" fill="#ffffff" stroke="none" stroke-width="1.0" />
<text x='115.0' y='196.75' font-family="Default" font-size="10.0" fill="#404040" >3/3</text>
<path d="M 116.5 82.96 L 117.5 82.96 L 117.5 113.0 L 116.5 113.0 M 116.5 82.96 Z" fill="#404040" stroke="none" stroke-width="0.75" />
<path d="M 116.5 111.0 L 116.5 115.0 L 144.05556 110.0 L 144.05556 106.0 L 116.5 111.0 Z" fill="#404040" stroke="none" stroke-width="0.75" />
<path d="M 143.07556 27.231998 C 143.07556 28.456 144.27077 29.68 145.45157 29.68 C 149.05156 29.68 152.65157 27.231998 152.65157 24.855999 C 152.65157 23.6752 151.42757 22.48 150.27556 22.48 C 146.67557 22.48 143.07556 24.855999 143.07556 27.231998 Z" fill="#404040" stroke="none" stroke-width="1.0" />
<path d="M 141.55556 139.25 L 149.55556 139.25 L 149.55556 146.75 L 141.55556 146.75 L 141.55556 139.25 Z" fill="#ffffff" stroke="none" stroke-width="1.0" />
<text x='141.55556' y='146.75' font-family="Default" font-size="10.0" fill="#404040" >3/4</text>
<path d="M 143.05556 26.96 L 144.05556 26.96 L 144.05556 108.0 L 143.05556 108.0 M 143.05556 26.96 Z" fill="#404040" stroke="none" stroke-width="0.75" />
<path d="M 143.05556 106.0 L 143.05556 110.0 L 170.61111 105.0 L 170.61111 101.0 L 143.05556 106.0 Z" fill="#404040" stroke="none" stroke-width="0.75" />
<path d="M 169.63112 47.232 C 169.63112 48.456 170.82632 49.68 172.00713 49.68 C 175.60712 49.68 179.20712 47.232 179.20712 44.856 C 179.20712 43.6752 177.98312 42.48 176.83112 42.48 C 173.23112 42.48 169.63112 44.856 169.63112 47.232 Z" fill="#404040" stroke="none" stroke-width="1.0" />
<path d="M 168.11111 149.25 L 176.11111 149.25 L 176.11111 156.75 L 168.11111 156.75 L 168.11111 149.25 Z" fill="#ffffff" stroke="none" stroke-width="1.0" />
<text x='168.11111' y='156.75' font-family="Default" font-size="10.0" fill="#404040" >0/0</text>
<path d="M 169.61111 46.96 L 170.61111 46.96 L 170.61111 103.0 L 169.61111 103.0 M 169.61111 46.96 Z" fill="#404040" stroke="none" stroke-width="0.75" />
<path d="M 192.66666 70.0 L 208.66666 70.0 Z" fill="none" stroke="#d6d6d6" stroke-width="0.75" />
<path d="M 192.66666 70.0 L 208.66666 70.0 Z" fill="none" stroke="#d6d6d6" stroke-width="0.75" />
<path d="M 196.18666 75.232 C 196.18666 76.456 197.38187 77.68 198.56267 77.68 C 202.16266 77.68 205.76266 75.232 205.76266 72.856 C 205.76266 71.6752 204.53867 70.48 203.38666 70.48 C 199.78667 70.48 196.18666 72.856 196.18666 75.232 Z" fill="#404040" stroke="none" stroke-width="1.0" />
<path d="M 194.66666 179.25 L 202.66666 179.25 L 202.66666 186.75 L 194.66666 186.75 L 194.66666 179.25 Z" fill="#ffffff" stroke="none" stroke-width="1.0" />
<text x='194.66666' y='186.75' font-family="Default" font-size="10.0" fill="#404040" >2/1</text>
<path d="M 196.16666 74.96 L 197.16666 74.96 L 197.16666 105.0 L 196.16666 105.0 M 196.16666 74.96 Z" fill="#404040" stroke="none" stroke-width="0.75" />
<path d="M 196.16666 103.0 L 196.16666 107.0 L 223.72223 102.0 L 223.72223 98.0 L 196.16666 103.0 Z" fill="#404040" stroke="none" stroke-width="0.75" />
<path d="M 222.74223 27.231998 C 222.74223 28.456 223.93744 29.68 225.11824 29.68 C 228.71823 29.68 232.31824 27.231998 232.31824 24.855999 C 232.31824 23.6752 231.09424 22.48 229.94223 22.48 C 226.34224 22.48 222.74223 24.855999 222.74223 27.231998 Z" fill="#404040" stroke="none" stroke-width="1.0" />
<path d="M 221.22223 139.25 L 229.22223 139.25 L 229.22223 146.75 L 221.22223 146.75 L 221.22223 139.25 Z" fill="#ffffff" stroke="none" stroke-width="1.0" />
<text x='221.22223' y='146.75' font-family="Default" font-size="10.0" fill="#404040" >3/4</text>
<path d="M 222.72223 26.96 L 223.72223 26.96 L 223.72223 100.0 L 222.72223 100.0 M 222.72223 26.96 Z" fill="#404040" stroke="none" stroke-width="0.75" />
<path d="M 222.72223 98.0 L 222.72223 102.0 L 250.27777 97.0 L 250.27777 93.0 L 222.72223 98.0 Z" fill="#404040" stroke="none" stroke-width="0.75" />
<path d="M 249.29778 47.232 C 249.29778 48.456 250.49298 49.68 251.67378 49.68 C 255.27377 49.68 258.87378 47.232 258.87378 44.856 C 258.87378 43.6752 257.64978 42.48 256.49777 42.48 C 252.89778 42.48 249.29778 44.856 249.29778 47.232 Z" fill="#404040" stroke="none" stroke-width="1.0" />
<path d="M 247.77777 149.25 L 255.77777 149.25 L 255.77777 156.75 L 247.77777 156.75 L 247.77777 149.25 Z" fill="#ffffff" stroke="none" stroke-width="1.0" />
<text x='247.77777' y='156.75' font-family="Default" font-size="10.0" fill="#404040" >0/0</text>
<path d="M 249.27777 46.96 L 250.27777 46.96 L 250.27777 95.0 L 249.27777 95.0 M 249.27777 46.96 Z" fill="#404040" stroke="none" stroke-width="0.75" />
<path d="M 275.8533 67.232 C 275.8533 68.456 277.0485 69.68 278.2293 69.68 C 281.8293 69.68 285.4293 67.232 285.4293 64.856 C 285.4293 63.6752 284.2053 62.48 283.0533 62.48 C 279.4533 62.48 275.8533 64.856 275.8533 67.232 Z" fill="#404040" stroke="none" stroke-width="1.0" />
<path d="M 274.3333 169.25 L 282.3333 169.25 L 282.3333 176.75 L 274.3333 176.75 L 274.3333 169.25 Z" fill="#ffffff" stroke="none" stroke-width="1.0" />
<text x='274.3333' y='176.75' font-family="Default" font-size="10.0" fill="#404040" >0/0</text>
<path d="M 275.8333 66.96 L 276.8333 66.96 L 276.8333 97.0 L 275.8333 97.0 M 275.8333 66.96 Z" fill="#404040" stroke="none" stroke-width="0.75" />
<path d="M 275.8333 95.0 L 275.8333 99.0 L 303.3889 94.0 L 303.3889 90.0 L 275.8333 95.0 Z" fill="#404040" stroke="none" stroke-width="0.75" />
<path d="M 302.40887 27.231998 C 302.40887 28.456 303.60406 29.68 304.78488 29.68 C 308.3849 29.68 311.98486 27.231998 311.98486 24.855999 C 311.98486 23.6752 310.76086 22.48 309.6089 22.48 C 306.00888 22.48 302.40887 24.855999 302.40887 27.231998 Z" fill="#404040" stroke="none" stroke-width="1.0" />
<path d="M 300.8889 139.25 L 308.8889 139.25 L 308.8889 146.75 L 300.8889 146.75 L 300.8889 139.25 Z" fill="#ffffff" stroke="none" stroke-width="1.0" />
<text x='300.8889' y='146.75' font-family="Default" font-size="10.0" fill="#404040" >3/4</text>
<path d="M 302.3889 26.96 L 303.3889 26.96 L 303.3889 92.0 L 302.3889 92.0 M 302.3889 26.96 Z" fill="#404040" stroke="none" stroke-width="0.75" />
<path d="M 302.3889 90.0 L 302.3889 94.0 L 329.94446 89.0 L 329.94446 85.0 L 302.3889 90.0 Z" fill="#404040" stroke="none" stroke-width="0.75" />
<path d="M 328.96445 47.232 C 328.96445 48.456 330.15964 49.68 331.34045 49.68 C 334.94046 49.68 338.54044 47.232 338.54044 44.856 C 338.54044 43.6752 337.31644 42.48 336.16446 42.48 C 332.56445 42.48 328.96445 44.856 328.96445 47.232 Z" fill="#404040" stroke="none" stroke-width="1.0" />
<path d="M 327.44446 149.25 L 335.44446 149.25 L 335.44446 156.75 L 327.44446 156.75 L 327.44446 149.25 Z" fill="#ffffff" stroke="none" stroke-width="1.0" />
<text x='327.44446' y='156.75' font-family="Default" font-size="10.0" fill="#404040" >0/0</text>
<path d="M 328.94446 46.96 L 329.94446 46.96 L 329.94446 87.0 L 328.94446 87.0 M 328.94446 46.96 Z" fill="#404040" stroke="none" stroke-width="0.75" /></g>
<path d="M 35.35 36.3 C 35.35 37.15 36.18 38.0 37.0 38.0 C 39.5 38.0 42.0 36.3 42.0 34.65 C 42.0 33.83 41.149998 33.0 40.35 33.0 C 37.85 33.0 35.35 34.65 35.35 36.3 Z" fill="#000000" stroke="none" stroke-width="1.0" />
<path d="M 42.0 20.0 L 42.0 34.7 Z" fill="none" stroke="#000000" stroke-width="1.0" />
<text x='43.0' y='36.25' font-family="Default" font-size="10.0" fill="#000000" > = 60</text>
<text x='21.0' y='48.0' font-family="Default" font-size="10.0" fill="#ff0000" >1</text>
<path d="M 20.0 50.0 L 23.0 50.0 L 23.0 163.0 L 20.0 163.0 L 20.0 50.0 Z" fill="#000000" stroke="#000000" stroke-width="0.75" />
<path d="M 25.0 50.0 L 26.0 50.0 L 26.0 163.0 L 25.0 163.0 L 25.0 50.0 Z" fill="#000000" stroke="#000000" stroke-width="0.75" />
<path d="M 391.0 50.0 L 391.0 82.0 Z" fill="#000000" stroke="#000000" stroke-width="0.75" />
<path d="M 20.0 163.0 L 23.0 163.0 L 23.0 213.0 L 20.0 213.0 L 20.0 163.0 Z" fill="#000000" stroke="#000000" stroke-width="0.75" />
<path d="M 25.0 163.0 L 26.0 163.0 L 26.0 213.0 L 25.0 213.0 L 25.0 163.0 Z" fill="#000000" stroke="#000000" stroke-width="0.75" />
<path d="M 391.0 163.0 L 391.0 213.0 Z" fill="#000000" stroke="#000000" stroke-width="0.75" /><g transform="translate(391.0,20.0)">
<path d="M 0.0 0.0 L 280.0 0.0 L 280.0 214.0 L 0.0 214.0 L 0.0 0.0 Z" fill="#ffffff" stroke="none" stroke-width="1.0" />
<path d="M 0.0 30.0 L 280.0 30.0 M 0.0 38.0 L 280.0 38.0 M 0.0 46.0 L 280.0 46.0 M 0.0 54.0 L 280.0 54.0 M 0.0 62.0 L 280.0 62.0 Z" fill="none" stroke="#d6d6d6" stroke-width="0.75" />
<path d="M 0.0 143.0 L 280.0 143.0 M 0.0 153.0 L 280.0 153.0 M 0.0 163.0 L 280.0 163.0 M 0.0 173.0 L 280.0 173.0 M 0.0 183.0 L 280.0 183.0 M 0.0 193.0 L 280.0 193.0 Z" fill="none" stroke="#d6d6d6" stroke-width="0.75" />
<path d="M 24.52 55.232 C 24.52 56.456 25.7152 57.68 26.896 57.68 C 30.496 57.68 34.096 55.232 34.096 52.856 C 34.096 51.6752 32.872 50.48 31.720001 50.48 C 28.12 50.48 24.52 52.856 24.52 55.232 Z" fill="#404040" stroke="none" stroke-width="1.0" />
<path d="M 23.0 159.25 L 31.0 159.25 L 31.0 166.75 L 23.0 166.75 L 23.0 159.25 Z" fill="#ffffff" stroke="none" stroke-width="1.0" />
<text x='23.0' y='166.75' font-family="Default" font-size="10.0" fill="#404040" >0/0</text>
<path d="M 24.5 54.96 L 25.5 54.96 L 25.5 85.0 L 24.5 85.0 M 24.5 54.96 Z" fill="#404040" stroke="none" stroke-width="0.75" />
<path d="M 24.5 83.0 L 24.5 87.0 L 52.166664 83.0 L 52.166664 79.0 L 24.5 83.0 Z" fill="#404040" stroke="none" stroke-width="0.75" />
<path d="M 51.186665 27.231998 C 51.186665 28.456 52.381866 29.68 53.562664 29.68 C 57.162666 29.68 60.762665 27.231998 60.762665 24.855999 C 60.762665 23.6752 59.538666 22.48 58.386665 22.48 C 54.786663 22.48 51.186665 24.855999 51.186665 27.231998 Z" fill="#404040" stroke="none" stroke-width="1.0" />
<path d="M 49.666664 139.25 L 57.666664 139.25 L 57.666664 146.75 L 49.666664 146.75 L 49.666664 139.25 Z" fill="#ffffff" stroke="none" stroke-width="1.0" />
<text x='49.666664' y='146.75' font-family="Default" font-size="10.0" fill="#404040" >3/4</text>
<path d="M 51.166664 26.96 L 52.166664 26.96 L 52.166664 81.0 L 51.166664 81.0 M 51.166664 26.96 Z" fill="#404040" stroke="none" stroke-width="0.75" />
<path d="M 51.166664 79.0 L 51.166664 83.0 L 78.83333 79.0 L 78.83333 75.0 L 51.166664 79.0 Z" fill="#404040" stroke="none" stroke-width="0.75" />
<path d="M 77.853325 47.232 C 77.853325 48.456 79.04852 49.68 80.229324 49.68 C 83.82932 49.68 87.42932 47.232 87.42932 44.856 C 87.42932 43.6752 86.20532 42.48 85.05332 42.48 C 81.45332 42.48 77.853325 44.856 77.853325 47.232 Z" fill="#404040" stroke="none" stroke-width="1.0" />
<path d="M 76.33333 149.25 L 84.33333 149.25 L 84.33333 156.75 L 76.33333 156.75 L 76.33333 149.25 Z" fill="#ffffff" stroke="none" stroke-width="1.0" />
<text x='76.33333' y='156.75' font-family="Default" font-size="10.0" fill="#404040" >0/0</text>
<path d="M 77.83333 46.96 L 78.83333 46.96 L 78.83333 77.0 L 77.83333 77.0 M 77.83333 46.96 Z" fill="#404040" stroke="none" stroke-width="0.75" />
<path d="M 104.52 67.232 C 104.52 68.456 105.715195 69.68 106.895996 69.68 C 110.495995 69.68 114.09599 67.232 114.09599 64.856 C 114.09599 63.6752 112.871994 62.48 111.71999 62.48 C 108.119995 62.48 104.52 64.856 104.52 67.232 Z" fill="#404040" stroke="none" stroke-width="1.0" />
<path d="M 103.0 169.25 L 111.0 169.25 L 111.0 176.75 L 103.0 176.75 L 103.0 169.25 Z" fill="#ffffff" stroke="none" stroke-width="1.0" />
<text x='103.0' y='176.75' font-family="Default" font-size="10.0" fill="#404040" >0/0</text>
<path d="M 104.5 66.96 L 105.5 66.96 L 105.5 97.0 L 104.5 97.0 M 104.5 66.96 Z" fill="#404040" stroke="none" stroke-width="0.75" />
<path d="M 104.5 95.0 L 104.5 99.0 L 132.16666 94.0 L 132.16666 90.0 L 104.5 95.0 Z" fill="#404040" stroke="none" stroke-width="0.75" />
<path d="M 131.18666 27.231998 C 131.18666 28.456 132.38187 29.68 133.56267 29.68 C 137.16266 29.68 140.76266 27.231998 140.76266 24.855999 C 140.76266 23.6752 139.53867 22.48 138.38666 22.48 C 134.78667 22.48 131.18666 24.855999 131.18666 27.231998 Z" fill="#404040" stroke="none" stroke-width="1.0" />
<path d="M 129.66666 139.25 L 137.66666 139.25 L 137.66666 146.75 L 129.66666 146.75 L 129.66666 139.25 Z" fill="#ffffff" stroke="none" stroke-width="1.0" />
<text x='129.66666' y='146.75' font-family="Default" font-size="10.0" fill="#404040" >3/4</text>
<path d="M 131.16666 26.96 L 132.16666 26.96 L 132.16666 92.0 L 131.16666 92.0 M 131.16666 26.96 Z" fill="#404040" stroke="none" stroke-width="0.75" />
<path d="M 131.16666 90.0 L 131.16666 94.0 L 158.83333 89.0 L 158.83333 85.0 L 131.16666 90.0 Z" fill="#404040" stroke="none" stroke-width="0.75" />
<path d="M 157.85333 47.232 C 157.85333 48.456 159.04854 49.68 160.22934 49.68 C 163.82933 49.68 167.42934 47.232 167.42934 44.856 C 167.42934 43.6752 166.20534 42.48 165.05333 42.48 C 161.45334 42.48 157.85333 44.856 157.85333 47.232 Z" fill="#404040" stroke="none" stroke-width="1.0" />
<path d="M 156.33333 149.25 L 164.33333 149.25 L 164.33333 156.75 L 156.33333 156.75 L 156.33333 149.25 Z" fill="#ffffff" stroke="none" stroke-width="1.0" />
<text x='156.33333' y='156.75' font-family="Default" font-size="10.0" fill="#404040" >0/0</text>
<path d="M 157.83333 46.96 L 158.83333 46.96 L 158.83333 87.0 L 157.83333 87.0 M 157.83333 46.96 Z" fill="#404040" stroke="none" stroke-width="0.75" />
<path d="M 181.0 70.0 L 197.0 70.0 Z" fill="none" stroke="#d6d6d6" stroke-width="0.75" />
<path d="M 181.0 70.0 L 197.0 70.0 Z" fill="none" stroke="#d6d6d6" stroke-width="0.75" />
<path d="M 184.52 75.232 C 184.52 76.456 185.71521 77.68 186.89601 77.68 C 190.496 77.68 194.09601 75.232 194.09601 72.856 C 194.09601 71.6752 192.87201 70.48 191.72 70.48 C 188.12001 70.48 184.52 72.856 184.52 75.232 Z" fill="#404040" stroke="none" stroke-width="1.0" />
<path d="M 183.0 179.25 L 191.0 179.25 L 191.0 186.75 L 183.0 186.75 L 183.0 179.25 Z" fill="#ffffff" stroke="none" stroke-width="1.0" />
<text x='183.0' y='186.75' font-family="Default" font-size="10.0" fill="#404040" >2/1</text>
<path d="M 184.5 74.96 L 185.5 74.96 L 185.5 105.0 L 184.5 105.0 M 184.5 74.96 Z" fill="#404040" stroke="none" stroke-width="0.75" />
<path d="M 184.5 103.0 L 184.5 107.0 L 212.16667 102.0 L 212.16667 98.0 L 184.5 103.0 Z" fill="#404040" stroke="none" stroke-width="0.75" />
<path d="M 211.18668 27.231998 C 211.18668 28.456 212.38188 29.68 213.56268 29.68 C 217.16267 29.68 220.76268 27.231998 220.76268 24.855999 C 220.76268 23.6752 219.53868 22.48 218.38667 22.48 C 214.78668 22.48 211.18668 24.855999 211.18668 27.231998 Z" fill="#404040" stroke="none" stroke-width="1.0" />
<path d="M 209.66667 139.25 L 217.66667 139.25 L 217.66667 146.75 L 209.66667 146.75 L 209.66667 139.25 Z" fill="#ffffff" stroke="none" stroke-width="1.0" />
<text x='209.66667' y='146.75' font-family="Default" font-size="10.0" fill="#404040" >3/4</text>
<path d="M 211.16667 26.96 L 212.16667 26.96 L 212.16667 100.0 L 211.16667 100.0 M 211.16667 26.96 Z" fill="#404040" stroke="none" stroke-width="0.75" />
<path d="M 211.16667 98.0 L 211.16667 102.0 L 238.83333 97.0 L 238.83333 93.0 L 211.16667 98.0 Z" fill="#404040" stroke="none" stroke-width="0.75" />
<path d="M 237.85333 47.232 C 237.85333 48.456 239.04854 49.68 240.22934 49.68 C 243.82933 49.68 247.42934 47.232 247.42934 44.856 C 247.42934 43.6752 246.20534 42.48 245.05333 42.48 C 241.45334 42.48 237.85333 44.856 237.85333 47.232 Z" fill="#404040" stroke="none" stroke-width="1.0" />
<path d="M 236.33333 149.25 L 244.33333 149.25 L 244.33333 156.75 L 236.33333 156.75 L 236.33333 149.25 Z" fill="#ffffff" stroke="none" stroke-width="1.0" />
<text x='236.33333' y='156.75' font-family="Default" font-size="10.0" fill="#404040" >0/0</text>
<path d="M 237.83333 46.96 L 238.83333 46.96 L 238.83333 95.0 L 237.83333 95.0 M 237.83333 46.96 Z" fill="#404040" stroke="none" stroke-width="0.75" /></g>
<text x='392.0' y='48.0' font-family="Default" font-size="10.0" fill="#ff0000" >2</text>
<path d="M 391.0 50.0 L 391.0 82.0 Z" fill="#000000" stroke="#000000" stroke-width="0.75" />
<path d="M 671.0 50.0 L 671.0 82.0 Z" fill="#000000" stroke="#000000" stroke-width="0.75" />
<path d="M 391.0 163.0 L 391.0 213.0 Z" fill="#000000" stroke="#000000" stroke-width="0.75" />
<path d="M 671.0 163.0 L 671.0 213.0 Z" fill="#000000" stroke="#000000" stroke-width="0.75" /><g transform="translate(671.0,20.0)">
<path d="M 0.0 0.0 L 279.0 0.0 L 279.0 214.0 L 0.0 214.0 L 0.0 0.0 Z" fill="#ffffff" stroke="none" stroke-width="1.0" />
<path d="M 0.0 30.0 L 279.0 30.0 M 0.0 38.0 L 279.0 38.0 M 0.0 46.0 L 279.0 46.0 M 0.0 54.0 L 279.0 54.0 M 0.0 62.0 L 279.0 62.0 Z" fill="none" stroke="#d6d6d6" stroke-width="0.75" />
<path d="M 0.0 143.0 L 279.0 143.0 M 0.0 153.0 L 279.0 153.0 M 0.0 163.0 L 279.0 163.0 M 0.0 173.0 L 279.0 173.0 M 0.0 183.0 L 279.0 183.0 M 0.0 193.0 L 279.0 193.0 Z" fill="none" stroke="#d6d6d6" stroke-width="0.75" />
<path d="M 21.0 70.0 L 37.0 70.0 Z" fill="none" stroke="#d6d6d6" stroke-width="0.75" />
<path d="M 21.0 78.0 L 37.0 78.0 Z" fill="none" stroke="#d6d6d6" stroke-width="0.75" />
<path d="M 21.0 70.0 L 37.0 70.0 Z" fill="none" stroke="#d6d6d6" stroke-width="0.75" />
<path d="M 21.0 78.0 L 37.0 78.0 Z" fill="none" stroke="#d6d6d6" stroke-width="0.75" />
<path d="M 24.52 79.232 C 24.52 80.456 25.7152 81.68 26.896 81.68 C 30.496 81.68 34.096 79.232 34.096 76.856 C 34.096 75.6752 32.872 74.48 31.720001 74.48 C 28.12 74.48 24.52 76.856 24.52 79.232 Z" fill="#404040" stroke="none" stroke-width="1.0" />
<path d="M 23.0 179.25 L 31.0 179.25 L 31.0 186.75 L 23.0 186.75 L 23.0 179.25 Z" fill="#ffffff" stroke="none" stroke-width="1.0" />
<text x='23.0' y='186.75' font-family="Default" font-size="10.0" fill="#404040" >0/0</text>
<path d="M 24.5 78.96 L 25.5 78.96 L 25.5 109.0 L 24.5 109.0 M 24.5 78.96 Z" fill="#404040" stroke="none" stroke-width="0.75" />
<path d="M 24.5 107.0 L 24.5 111.0 L 52.055557 106.0 L 52.055557 102.0 L 24.5 107.0 Z" fill="#404040" stroke="none" stroke-width="0.75" />
<path d="M 51.075558 31.231998 C 51.075558 32.456 52.27076 33.68 53.451557 33.68 C 57.05156 33.68 60.651558 31.231998 60.651558 28.855999 C 60.651558 27.6752 59.42756 26.48 58.27556 26.48 C 54.675556 26.48 51.075558 28.855999 51.075558 31.231998 Z" fill="#404040" stroke="none" stroke-width="1.0" />
<path d="M 49.555557 139.25 L 57.555557 139.25 L 57.555557 146.75 L 49.555557 146.75 L 49.555557 139.25 Z" fill="#ffffff" stroke="none" stroke-width="1.0" />
<text x='49.555557' y='146.75' font-family="Default" font-size="10.0" fill="#404040" >2/3</text>
<path d="M 51.055557 30.96 L 52.055557 30.96 L 52.055557 104.0 L 51.055557 104.0 M 51.055557 30.96 Z" fill="#404040" stroke="none" stroke-width="0.75" />
<path d="M 51.055557 102.0 L 51.055557 106.0 L 78.611115 101.0 L 78.611115 97.0 L 51.055557 102.0 Z" fill="#404040" stroke="none" stroke-width="0.75" />
<path d="M 77.63111 43.232 C 77.63111 44.456 78.82631 45.68 80.00711 45.68 C 83.60711 45.68 87.20711 43.232 87.20711 40.856 C 87.20711 39.6752 85.98311 38.48 84.83111 38.48 C 81.23111 38.48 77.63111 40.856 77.63111 43.232 Z" fill="#404040" stroke="none" stroke-width="1.0" />
<path d="M 76.111115 149.25 L 84.111115 149.25 L 84.111115 156.75 L 76.111115 156.75 L 76.111115 149.25 Z" fill="#ffffff" stroke="none" stroke-width="1.0" />
<text x='76.111115' y='156.75' font-family="Default" font-size="10.0" fill="#404040" >1/1</text>
<path d="M 77.611115 42.96 L 78.611115 42.96 L 78.611115 99.0 L 77.611115 99.0 M 77.611115 42.96 Z" fill="#404040" stroke="none" stroke-width="0.75" />
<path d="M 104.18666 67.232 C 104.18666 68.456 105.38186 69.68 106.56266 69.68 C 110.16266 69.68 113.762665 67.232 113.762665 64.856 C 113.762665 63.6752 112.53866 62.48 111.38666 62.48 C 107.78666 62.48 104.18666 64.856 104.18666 67.232 Z" fill="#404040" stroke="none" stroke-width="1.0" />
<path d="M 102.666664 169.25 L 110.666664 169.25 L 110.666664 176.75 L 102.666664 176.75 L 102.666664 169.25 Z" fill="#ffffff" stroke="none" stroke-width="1.0" />
<text x='102.666664' y='176.75' font-family="Default" font-size="10.0" fill="#404040" >0/0</text>
<path d="M 104.166664 66.96 L 105.166664 66.96 L 105.166664 97.0 L 104.166664 97.0 M 104.166664 66.96 Z" fill="#404040" stroke="none" stroke-width="0.75" />
<path d="M 104.166664 95.0 L 104.166664 99.0 L 131.72223 94.0 L 131.72223 90.0 L 104.166664 95.0 Z" fill="#404040" stroke="none" stroke-width="0.75" />
<path d="M 130.74223 31.231998 C 130.74223 32.456 131.93744 33.68 133.11824 33.68 C 136.71823 33.68 140.31824 31.231998 140.31824 28.855999 C 140.31824 27.6752 139.09424 26.48 137.94223 26.48 C 134.34224 26.48 130.74223 28.855999 130.74223 31.231998 Z" fill="#404040" stroke="none" stroke-width="1.0" />
<path d="M 129.22223 139.25 L 137.22223 139.25 L 137.22223 146.75 L 129.22223 146.75 L 129.22223 139.25 Z" fill="#ffffff" stroke="none" stroke-width="1.0" />
<text x='129.22223' y='146.75' font-family="Default" font-size="10.0" fill="#404040" >2/3</text>
<path d="M 130.72223 30.96 L 131.72223 30.96 L 131.72223 92.0 L 130.72223 92.0 M 130.72223 30.96 Z" fill="#404040" stroke="none" stroke-width="0.75" />
<path d="M 130.72223 90.0 L 130.72223 94.0 L 158.27777 89.0 L 158.27777 85.0 L 130.72223 90.0 Z" fill="#404040" stroke="none" stroke-width="0.75" />
<path d="M 157.29778 43.232 C 157.29778 44.456 158.49298 45.68 159.67378 45.68 C 163.27377 45.68 166.87378 43.232 166.87378 40.856 C 166.87378 39.6752 165.64978 38.48 164.49777 38.48 C 160.89778 38.48 157.29778 40.856 157.29778 43.232 Z" fill="#404040" stroke="none" stroke-width="1.0" />
<path d="M 155.77777 149.25 L 163.77777 149.25 L 163.77777 156.75 L 155.77777 156.75 L 155.77777 149.25 Z" fill="#ffffff" stroke="none" stroke-width="1.0" />
<text x='155.77777' y='156.75' font-family="Default" font-size="10.0" fill="#404040" >1/1</text>
<path d="M 157.27777 42.96 L 158.27777 42.96 L 158.27777 87.0 L 157.27777 87.0 M 157.27777 42.96 Z" fill="#404040" stroke="none" stroke-width="0.75" />
<path d="M 180.33333 70.0 L 196.33333 70.0 Z" fill="none" stroke="#d6d6d6" stroke-width="0.75" />
<path d="M 180.33333 78.0 L 196.33333 78.0 Z" fill="none" stroke="#d6d6d6" stroke-width="0.75" />
<path d="M 180.33333 70.0 L 196.33333 70.0 Z" fill="none" stroke="#d6d6d6" stroke-width="0.75" />
<path d="M 180.33333 78.0 L 196.33333 78.0 Z" fill="none" stroke="#d6d6d6" stroke-width="0.75" />
<path d="M 183.85333 79.232 C 183.85333 80.456 185.04854 81.68 186.22934 81.68 C 189.82933 81.68 193.42934 79.232 193.42934 76.856 C 193.42934 75.6752 192.20534 74.48 191.05333 74.48 C 187.45334 74.48 183.85333 76.856 183.85333 79.232 Z" fill="#404040" stroke="none" stroke-width="1.0" />
<path d="M 182.33333 179.25 L 190.33333 179.25 L 190.33333 186.75 L 182.33333 186.75 L 182.33333 179.25 Z" fill="#ffffff" stroke="none" stroke-width="1.0" />
<text x='182.33333' y='186.75' font-family="Default" font-size="10.0" fill="#404040" >0/0</text>
<path d="M 183.83333 78.96 L 184.83333 78.96 L 184.83333 109.0 L 183.83333 109.0 M 183.83333 78.96 Z" fill="#404040" stroke="none" stroke-width="0.75" />
<path d="M 183.83333 107.0 L 183.83333 111.0 L 211.38889 106.0 L 211.38889 102.0 L 183.83333 107.0 Z" fill="#404040" stroke="none" stroke-width="0.75" />
<path d="M 210.40889 31.231998 C 210.40889 32.456 211.6041 33.68 212.7849 33.68 C 216.38489 33.68 219.9849 31.231998 219.9849 28.855999 C 219.9849 27.6752 218.7609 26.48 217.60889 26.48 C 214.0089 26.48 210.40889 28.855999 210.40889 31.231998 Z" fill="#404040" stroke="none" stroke-width="1.0" />
<path d="M 208.88889 139.25 L 216.88889 139.25 L 216.88889 146.75 L 208.88889 146.75 L 208.88889 139.25 Z" fill="#ffffff" stroke="none" stroke-width="1.0" />
<text x='208.88889' y='146.75' font-family="Default" font-size="10.0" fill="#404040" >2/3</text>
<path d="M 210.38889 30.96 L 211.38889 30.96 L 211.38889 104.0 L 210.38889 104.0 M 210.38889 30.96 Z" fill="#404040" stroke="none" stroke-width="0.75" />
<path d="M 210.38889 102.0 L 210.38889 106.0 L 237.94444 101.0 L 237.94444 97.0 L 210.38889 102.0 Z" fill="#404040" stroke="none" stroke-width="0.75" />
<path d="M 236.96445 43.232 C 236.96445 44.456 238.15965 45.68 239.34045 45.68 C 242.94044 45.68 246.54045 43.232 246.54045 40.856 C 246.54045 39.6752 245.31645 38.48 244.16444 38.48 C 240.56445 38.48 236.96445 40.856 236.96445 43.232 Z" fill="#404040" stroke="none" stroke-width="1.0" />
<path d="M 235.44444 149.25 L 243.44444 149.25 L 243.44444 156.75 L 235.44444 156.75 L 235.44444 149.25 Z" fill="#ffffff" stroke="none" stroke-width="1.0" />
<text x='235.44444' y='156.75' font-family="Default" font-size="10.0" fill="#404040" >1/1</text>
<path d="M 236.94444 42.96 L 237.94444 42.96 L 237.94444 99.0 L 236.94444 99.0 M 236.94444 42.96 Z" fill="#404040" stroke="none" stroke-width="0.75" /></g>
<text x='672.0' y='48.0' font-family="Default" font-size="10.0" fill="#ff0000" >3</text>
<path d="M 671.0 50.0 L 671.0 82.0 Z" fill="#000000" stroke="#000000" stroke-width="0.75" />
<path d="M 950.0 50.0 L 950.0 82.0 Z" fill="#000000" stroke="#000000" stroke-width="0.75" />
<path d="M 671.0 163.0 L 671.0 213.0 Z" fill="#000000" stroke="#000000" stroke-width="0.75" />
<path d="M 950.0 163.0 L 950.0 213.0 Z" fill="#000000" stroke="#000000" stroke-width="0.75" /><g transform="translate(20.0,245.0)">
<path d="M 0.0 0.0 L 233.0 0.0 L 233.0 214.0 L 0.0 214.0 L 0.0 0.0 Z" fill="#ffffff" stroke="none" stroke-width="1.0" />
<path d="M 0.0 30.0 L 233.0 30.0 M 0.0 38.0 L 233.0 38.0 M 0.0 46.0 L 233.0 46.0 M 0.0 54.0 L 233.0 54.0 M 0.0 62.0 L 233.0 62.0 Z" fill="none" stroke="#d6d6d6" stroke-width="0.75" />
<path d="M 0.0 143.0 L 233.0 143.0 M 0.0 153.0 L 233.0 153.0 M 0.0 163.0 L 233.0 163.0 M 0.0 173.0 L 233.0 173.0 M 0.0 183.0 L 233.0 183.0 M 0.0 193.0 L 233.0 193.0 Z" fill="none" stroke="#d6d6d6" stroke-width="0.75" />
<path d="M 24.52 67.232 C 24.52 68.456 25.7152 69.68 26.896 69.68 C 30.496 69.68 34.096 67.232 34.096 64.856 C 34.096 63.6752 32.872 62.48 31.720001 62.48 C 28.12 62.48 24.52 64.856 24.52 67.232 Z" fill="#404040" stroke="none" stroke-width="1.0" />
<path d="M 23.0 169.25 L 31.0 169.25 L 31.0 176.75 L 23.0 176.75 L 23.0 169.25 Z" fill="#ffffff" stroke="none" stroke-width="1.0" />
<text x='23.0' y='176.75' font-family="Default" font-size="10.0" fill="#404040" >0/0</text>
<path d="M 24.5 66.96 L 25.5 66.96 L 25.5 97.0 L 24.5 97.0 M 24.5 66.96 Z" fill="#404040" stroke="none" stroke-width="0.75" />
<path d="M 24.5 95.0 L 24.5 99.0 L 46.944443 94.0 L 46.944443 90.0 L 24.5 95.0 Z" fill="#404040" stroke="none" stroke-width="0.75" />
<path d="M 45.964443 31.231998 C 45.964443 32.456 47.159645 33.68 48.340443 33.68 C 51.940445 33.68 55.540443 31.231998 55.540443 28.855999 C 55.540443 27.6752 54.316444 26.48 53.164444 26.48 C 49.56444 26.48 45.964443 28.855999 45.964443 31.231998 Z" fill="#404040" stroke="none" stroke-width="1.0" />
<path d="M 44.444443 139.25 L 52.444443 139.25 L 52.444443 146.75 L 44.444443 146.75 L 44.444443 139.25 Z" fill="#ffffff" stroke="none" stroke-width="1.0" />
<text x='44.444443' y='146.75' font-family="Default" font-size="10.0" fill="#404040" >2/3</text>
<path d="M 45.944443 30.96 L 46.944443 30.96 L 46.944443 92.0 L 45.944443 92.0 M 45.944443 30.96 Z" fill="#404040" stroke="none" stroke-width="0.75" />
<path d="M 45.944443 90.0 L 45.944443 94.0 L 68.388885 89.0 L 68.388885 85.0 L 45.944443 90.0 Z" fill="#404040" stroke="none" stroke-width="0.75" />
<path d="M 67.40888 43.232 C 67.40888 44.456 68.60408 45.68 69.78488 45.68 C 73.38488 45.68 76.98488 43.232 76.98488 40.856 C 76.98488 39.6752 75.76088 38.48 74.60888 38.48 C 71.00888 38.48 67.40888 40.856 67.40888 43.232 Z" fill="#404040" stroke="none" stroke-width="1.0" />
<path d="M 65.888885 149.25 L 73.888885 149.25 L 73.888885 156.75 L 65.888885 156.75 L 65.888885 149.25 Z" fill="#ffffff" stroke="none" stroke-width="1.0" />
<text x='65.888885' y='156.75' font-family="Default" font-size="10.0" fill="#404040" >1/1</text>
<path d="M 67.388885 42.96 L 68.388885 42.96 L 68.388885 87.0 L 67.388885 87.0 M 67.388885 42.96 Z" fill="#404040" stroke="none" stroke-width="0.75" />
<path d="M 88.85333 51.232 C 88.85333 52.456 90.04853 53.68 91.22933 53.68 C 94.82933 53.68 98.42934 51.232 98.42934 48.856 C 98.42934 47.6752 97.20533 46.48 96.05333 46.48 C 92.45333 46.48 88.85333 48.856 88.85333 51.232 Z" fill="#404040" stroke="none" stroke-width="1.0" />
<path d="M 87.333336 159.25 L 95.333336 159.25 L 95.333336 166.75 L 87.333336 166.75 L 87.333336 159.25 Z" fill="#ffffff" stroke="none" stroke-width="1.0" />
<text x='87.333336' y='166.75' font-family="Default" font-size="10.0" fill="#404040" >2/2</text>
<path d="M 88.833336 50.96 L 89.833336 50.96 L 89.833336 81.0 L 88.833336 81.0 M 88.833336 50.96 Z" fill="#404040" stroke="none" stroke-width="0.75" />
<path d="M 88.833336 79.0 L 88.833336 83.0 L 111.27778 79.0 L 111.27778 75.0 L 88.833336 79.0 Z" fill="#404040" stroke="none" stroke-width="0.75" />
<path d="M 110.297775 31.231998 C 110.297775 32.456 111.49297 33.68 112.673775 33.68 C 116.27377 33.68 119.87378 31.231998 119.87378 28.855999 C 119.87378 27.6752 118.64977 26.48 117.49777 26.48 C 113.89777 26.48 110.297775 28.855999 110.297775 31.231998 Z" fill="#404040" stroke="none" stroke-width="1.0" />
<path d="M 108.77778 139.25 L 116.77778 139.25 L 116.77778 146.75 L 108.77778 146.75 L 108.77778 139.25 Z" fill="#ffffff" stroke="none" stroke-width="1.0" />
<text x='108.77778' y='146.75' font-family="Default" font-size="10.0" fill="#404040" >2/3</text>
<path d="M 110.27778 30.96 L 111.27778 30.96 L 111.27778 77.0 L 110.27778 77.0 M 110.27778 30.96 Z" fill="#404040" stroke="none" stroke-width="0.75" />
<path d="M 110.27778 75.0 L 110.27778 79.0 L 132.72223 75.0 L 132.72223 71.0 L 110.27778 75.0 Z" fill="#404040" stroke="none" stroke-width="0.75" />
<path d="M 131.74223 43.232 C 131.74223 44.456 132.93744 45.68 134.11824 45.68 C 137.71823 45.68 141.31824 43.232 141.31824 40.856 C 141.31824 39.6752 140.09424 38.48 138.94223 38.48 C 135.34224 38.48 131.74223 40.856 131.74223 43.232 Z" fill="#404040" stroke="none" stroke-width="1.0" />
<path d="M 130.22223 149.25 L 138.22223 149.25 L 138.22223 156.75 L 130.22223 156.75 L 130.22223 149.25 Z" fill="#ffffff" stroke="none" stroke-width="1.0" />
<text x='130.22223' y='156.75' font-family="Default" font-size="10.0" fill="#404040" >1/1</text>
<path d="M 131.72223 42.96 L 132.72223 42.96 L 132.72223 73.0 L 131.72223 73.0 M 131.72223 42.96 Z" fill="#404040" stroke="none" stroke-width="0.75" />
<path d="M 153.18668 67.232 C 153.18668 68.456 154.38188 69.68 155.56268 69.68 C 159.16267 69.68 162.76268 67.232 162.76268 64.856 C 162.76268 63.6752 161.53868 62.48 160.38667 62.48 C 156.78668 62.48 153.18668 64.856 153.18668 67.232 Z" fill="#404040" stroke="none" stroke-width="1.0" />
<path d="M 151.66667 169.25 L 159.66667 169.25 L 159.66667 176.75 L 151.66667 176.75 L 151.66667 169.25 Z" fill="#ffffff" stroke="none" stroke-width="1.0" />
<text x='151.66667' y='176.75' font-family="Default" font-size="10.0" fill="#404040" >0/0</text>
<path d="M 153.16667 66.96 L 154.16667 66.96 L 154.16667 97.0 L 153.16667 97.0 M 153.16667 66.96 Z" fill="#404040" stroke="none" stroke-width="0.75" />
<path d="M 153.16667 95.0 L 153.16667 99.0 L 175.61111 94.0 L 175.61111 90.0 L 153.16667 95.0 Z" fill="#404040" stroke="none" stroke-width="0.75" />
<path d="M 174.63112 31.231998 C 174.63112 32.456 175.82632 33.68 177.00713 33.68 C 180.60712 33.68 184.20712 31.231998 184.20712 28.855999 C 184.20712 27.6752 182.98312 26.48 181.83112 26.48 C 178.23112 26.48 174.63112 28.855999 174.63112 31.231998 Z" fill="#404040" stroke="none" stroke-width="1.0" />
<path d="M 173.11111 139.25 L 181.11111 139.25 L 181.11111 146.75 L 173.11111 146.75 L 173.11111 139.25 Z" fill="#ffffff" stroke="none" stroke-width="1.0" />
<text x='173.11111' y='146.75' font-family="Default" font-size="10.0" fill="#404040" >2/3</text>
<path d="M 174.61111 30.96 L 175.61111 30.96 L 175.61111 92.0 L 174.61111 92.0 M 174.61111 30.96 Z" fill="#404040" stroke="none" stroke-width="0.75" />
<path d="M 174.61111 90.0 L 174.61111 94.0 L 197.05556 89.0 L 197.05556 85.0 L 174.61111 90.0 Z" fill="#404040" stroke="none" stroke-width="0.75" />
<path d="M 196.07556 43.232 C 196.07556 44.456 197.27077 45.68 198.45157 45.68 C 202.05156 45.68 205.65157 43.232 205.65157 40.856 C 205.65157 39.6752 204.42757 38.48 203.27556 38.48 C 199.67557 38.48 196.07556 40.856 196.07556 43.232 Z" fill="#404040" stroke="none" stroke-width="1.0" />
<path d="M 194.55556 149.25 L 202.55556 149.25 L 202.55556 156.75 L 194.55556 156.75 L 194.55556 149.25 Z" fill="#ffffff" stroke="none" stroke-width="1.0" />
<text x='194.55556' y='156.75' font-family="Default" font-size="10.0" fill="#404040" >1/1</text>
<path d="M 196.05556 42.96 L 197.05556 42.96 L 197.05556 87.0 L 196.05556 87.0 M 196.05556 42.96 Z" fill="#404040" stroke="none" stroke-width="0.75" /></g>
<text x='21.0' y='273.0' font-family="Default" font-size="10.0" fill="#ff0000" >4</text>
<path d="M 20.0 275.0 L 20.0 388.0 Z" fill="#000000" stroke="#000000" stroke-width="0.75" />
<path d="M 253.0 275.0 L 253.0 307.0 Z" fill="#000000" stroke="#000000" stroke-width="0.75" />
<path d="M 20.0 388.0 L 20.0 438.0 Z" fill="#000000" stroke="#000000" stroke-width="0.75" />
<path d="M 253.0 388.0 L 253.0 438.0 Z" fill="#000000" stroke="#000000" stroke-width="0.75" /><g transform="translate(253.0,245.0)">
<path d="M 0.0 0.0 L 232.0 0.0 L 232.0 214.0 L 0.0 214.0 L 0.0 0.0 Z" fill="#ffffff" stroke="none" stroke-width="1.0" />
<path d="M 0.0 30.0 L 232.0 30.0 M 0.0 38.0 L 232.0 38.0 M 0.0 46.0 L 232.0 46.0 M 0.0 54.0 L 232.0 54.0 M 0.0 62.0 L 232.0 62.0 Z" fill="none" stroke="#d6d6d6" stroke-width="0.75" />
<path d="M 0.0 143.0 L 232.0 143.0 M 0.0 153.0 L 232.0 153.0 M 0.0 163.0 L 232.0 163.0 M 0.0 173.0 L 232.0 173.0 M 0.0 183.0 L 232.0 183.0 M 0.0 193.0 L 232.0 193.0 Z" fill="none" stroke="#d6d6d6" stroke-width="0.75" />
<path d="M 21.0 70.0 L 37.0 70.0 Z" fill="none" stroke="#d6d6d6" stroke-width="0.75" />
<path d="M 21.0 78.0 L 37.0 78.0 Z" fill="none" stroke="#d6d6d6" stroke-width="0.75" />
<path d="M 21.0 70.0 L 37.0 70.0 Z" fill="none" stroke="#d6d6d6" stroke-width="0.75" />
<path d="M 21.0 78.0 L 37.0 78.0 Z" fill="none" stroke="#d6d6d6" stroke-width="0.75" />
<path d="M 24.52 83.232 C 24.52 84.456 25.7152 85.68 26.896 85.68 C 30.496 85.68 34.096 83.232 34.096 80.856 C 34.096 79.6752 32.872 78.48 31.720001 78.48 C 28.12 78.48 24.52 80.856 24.52 83.232 Z" fill="#404040" stroke="none" stroke-width="1.0" />
<path d="M 23.0 189.25 L 31.0 189.25 L 31.0 196.75 L 23.0 196.75 L 23.0 189.25 Z" fill="#ffffff" stroke="none" stroke-width="1.0" />
<text x='23.0' y='196.75' font-family="Default" font-size="10.0" fill="#404040" >3/2</text>
<path d="M 24.5 82.96 L 25.5 82.96 L 25.5 113.0 L 24.5 113.0 M 24.5 82.96 Z" fill="#404040" stroke="none" stroke-width="0.75" />
<path d="M 24.5 111.0 L 24.5 115.0 L 46.833336 110.0 L 46.833336 106.0 L 24.5 111.0 Z" fill="#404040" stroke="none" stroke-width="0.75" />
<path d="M 45.853336 27.231998 C 45.853336 28.456 47.04854 29.68 48.229336 29.68 C 51.829338 29.68 55.429337 27.231998 55.429337 24.855999 C 55.429337 23.6752 54.205338 22.48 53.053337 22.48 C 49.453335 22.48 45.853336 24.855999 45.853336 27.231998 Z" fill="#404040" stroke="none" stroke-width="1.0" />
<path d="M 44.333336 139.25 L 52.333336 139.25 L 52.333336 146.75 L 44.333336 146.75 L 44.333336 139.25 Z" fill="#ffffff" stroke="none" stroke-width="1.0" />
<text x='44.333336' y='146.75' font-family="Default" font-size="10.0" fill="#404040" >3/4</text>
<path d="M 45.833336 26.96 L 46.833336 26.96 L 46.833336 108.0 L 45.833336 108.0 M 45.833336 26.96 Z" fill="#404040" stroke="none" stroke-width="0.75" />
<path d="M 45.833336 106.0 L 45.833336 110.0 L 68.16667 105.0 L 68.16667 101.0 L 45.833336 106.0 Z" fill="#404040" stroke="none" stroke-width="0.75" />
<path d="M 67.18667 47.232 C 67.18667 48.456 68.38187 49.68 69.56267 49.68 C 73.16267 49.68 76.762665 47.232 76.762665 44.856 C 76.762665 43.6752 75.538666 42.48 74.386665 42.48 C 70.78667 42.48 67.18667 44.856 67.18667 47.232 Z" fill="#404040" stroke="none" stroke-width="1.0" />
<path d="M 65.66667 149.25 L 73.66667 149.25 L 73.66667 156.75 L 65.66667 156.75 L 65.66667 149.25 Z" fill="#ffffff" stroke="none" stroke-width="1.0" />
<text x='65.66667' y='156.75' font-family="Default" font-size="10.0" fill="#404040" >0/0</text>
<path d="M 67.16667 46.96 L 68.16667 46.96 L 68.16667 103.0 L 67.16667 103.0 M 67.16667 46.96 Z" fill="#404040" stroke="none" stroke-width="0.75" />
<path d="M 85.0 70.0 L 101.0 70.0 Z" fill="none" stroke="#d6d6d6" stroke-width="0.75" />
<path d="M 85.0 70.0 L 101.0 70.0 Z" fill="none" stroke="#d6d6d6" stroke-width="0.75" />
<path d="M 88.52 75.232 C 88.52 76.456 89.715195 77.68 90.895996 77.68 C 94.495995 77.68 98.09599 75.232 98.09599 72.856 C 98.09599 71.6752 96.871994 70.48 95.71999 70.48 C 92.119995 70.48 88.52 72.856 88.52 75.232 Z" fill="#404040" stroke="none" stroke-width="1.0" />
<path d="M 87.0 179.25 L 95.0 179.25 L 95.0 186.75 L 87.0 186.75 L 87.0 179.25 Z" fill="#ffffff" stroke="none" stroke-width="1.0" />
<text x='87.0' y='186.75' font-family="Default" font-size="10.0" fill="#404040" >2/1</text>
<path d="M 88.5 74.96 L 89.5 74.96 L 89.5 105.0 L 88.5 105.0 M 88.5 74.96 Z" fill="#404040" stroke="none" stroke-width="0.75" />
<path d="M 88.5 103.0 L 88.5 107.0 L 110.833336 102.0 L 110.833336 98.0 L 88.5 103.0 Z" fill="#404040" stroke="none" stroke-width="0.75" />
<path d="M 109.85333 27.231998 C 109.85333 28.456 111.04853 29.68 112.22933 29.68 C 115.82933 29.68 119.42934 27.231998 119.42934 24.855999 C 119.42934 23.6752 118.20533 22.48 117.05333 22.48 C 113.45333 22.48 109.85333 24.855999 109.85333 27.231998 Z" fill="#404040" stroke="none" stroke-width="1.0" />
<path d="M 108.333336 139.25 L 116.333336 139.25 L 116.333336 146.75 L 108.333336 146.75 L 108.333336 139.25 Z" fill="#ffffff" stroke="none" stroke-width="1.0" />
<text x='108.333336' y='146.75' font-family="Default" font-size="10.0" fill="#404040" >3/4</text>
<path d="M 109.833336 26.96 L 110.833336 26.96 L 110.833336 100.0 L 109.833336 100.0 M 109.833336 26.96 Z" fill="#404040" stroke="none" stroke-width="0.75" />
<path d="M 109.833336 98.0 L 109.833336 102.0 L 132.16666 97.0 L 132.16666 93.0 L 109.833336 98.0 Z" fill="#404040" stroke="none" stroke-width="0.75" />
<path d="M 131.18666 47.232 C 131.18666 48.456 132.38187 49.68 133.56267 49.68 C 137.16266 49.68 140.76266 47.232 140.76266 44.856 C 140.76266 43.6752 139.53867 42.48 138.38666 42.48 C 134.78667 42.48 131.18666 44.856 131.18666 47.232 Z" fill="#404040" stroke="none" stroke-width="1.0" />
<path d="M 129.66666 149.25 L 137.66666 149.25 L 137.66666 156.75 L 129.66666 156.75 L 129.66666 149.25 Z" fill="#ffffff" stroke="none" stroke-width="1.0" />
<text x='129.66666' y='156.75' font-family="Default" font-size="10.0" fill="#404040" >0/0</text>
<path d="M 131.16666 46.96 L 132.16666 46.96 L 132.16666 95.0 L 131.16666 95.0 M 131.16666 46.96 Z" fill="#404040" stroke="none" stroke-width="0.75" />
<path d="M 152.52 67.232 C 152.52 68.456 153.71521 69.68 154.89601 69.68 C 158.496 69.68 162.09601 67.232 162.09601 64.856 C 162.09601 63.6752 160.87201 62.48 159.72 62.48 C 156.12001 62.48 152.52 64.856 152.52 67.232 Z" fill="#404040" stroke="none" stroke-width="1.0" />
<path d="M 151.0 169.25 L 159.0 169.25 L 159.0 176.75 L 151.0 176.75 L 151.0 169.25 Z" fill="#ffffff" stroke="none" stroke-width="1.0" />
<text x='151.0' y='176.75' font-family="Default" font-size="10.0" fill="#404040" >0/0</text>
<path d="M 152.5 66.96 L 153.5 66.96 L 153.5 97.0 L 152.5 97.0 M 152.5 66.96 Z" fill="#404040" stroke="none" stroke-width="0.75" />
<path d="M 152.5 95.0 L 152.5 99.0 L 174.83333 94.0 L 174.83333 90.0 L 152.5 95.0 Z" fill="#404040" stroke="none" stroke-width="0.75" />
<path d="M 173.85333 27.231998 C 173.85333 28.456 175.04854 29.68 176.22934 29.68 C 179.82933 29.68 183.42934 27.231998 183.42934 24.855999 C 183.42934 23.6752 182.20534 22.48 181.05333 22.48 C 177.45334 22.48 173.85333 24.855999 173.85333 27.231998 Z" fill="#404040" stroke="none" stroke-width="1.0" />
<path d="M 172.33333 139.25 L 180.33333 139.25 L 180.33333 146.75 L 172.33333 146.75 L 172.33333 139.25 Z" fill="#ffffff" stroke="none" stroke-width="1.0" />
<text x='172.33333' y='146.75' font-family="Default" font-size="10.0" fill="#404040" >3/4</text>
<path d="M 173.83333 26.96 L 174.83333 26.96 L 174.83333 92.0 L 173.83333 92.0 M 173.83333 26.96 Z" fill="#404040" stroke="none" stroke-width="0.75" />
<path d="M 173.83333 90.0 L 173.83333 94.0 L 196.16667 89.0 L 196.16667 85.0 L 173.83333 90.0 Z" fill="#404040" stroke="none" stroke-width="0.75" />
<path d="M 195.18668 47.232 C 195.18668 48.456 196.38188 49.68 197.56268 49.68 C 201.16267 49.68 204.76268 47.232 204.76268 44.856 C 204.76268 43.6752 203.53868 42.48 202.38667 42.48 C 198.78668 42.48 195.18668 44.856 195.18668 47.232 Z" fill="#404040" stroke="none" stroke-width="1.0" />
<path d="M 193.66667 149.25 L 201.66667 149.25 L 201.66667 156.75 L 193.66667 156.75 L 193.66667 149.25 Z" fill="#ffffff" stroke="none" stroke-width="1.0" />
<text x='193.66667' y='156.75' font-family="Default" font-size="10.0" fill="#404040" >0/0</text>
<path d="M 195.16667 46.96 L 196.16667 46.96 L 196.16667 87.0 L 195.16667 87.0 M 195.16667 46.96 Z" fill="#404040" stroke="none" stroke-width="0.75" /></g>
<text x='254.0' y='273.0' font-family="Default" font-size="10.0" fill="#ff0000" >5</text>
<path d="M 253.0 275.0 L 253.0 307.0 Z" fill="#000000" stroke="#000000" stroke-width="0.75" />
<path d="M 485.0 275.0 L 485.0 307.0 Z" fill="#000000" stroke="#000000" stroke-width="0.75" />
<path d="M 253.0 388.0 L 253.0 438.0 Z" fill="#000000" stroke="#000000" stroke-width="0.75" />
<path d="M 485.0 388.0 L 485.0 438.0 Z" fill="#000000" stroke="#000000" stroke-width="0.75" /><g transform="translate(485.0,245.0)">
<path d="M 0.0 0.0 L 233.0 0.0 L 233.0 214.0 L 0.0 214.0 L 0.0 0.0 Z" fill="#ffffff" stroke="none" stroke-width="1.0" />
<path d="M 0.0 30.0 L 233.0 30.0 M 0.0 38.0 L 233.0 38.0 M 0.0 46.0 L 233.0 46.0 M 0.0 54.0 L 233.0 54.0 M 0.0 62.0 L 233.0 62.0 Z" fill="none" stroke="#d6d6d6" stroke-width="0.75" />
<path d="M 0.0 143.0 L 233.0 143.0 M 0.0 153.0 L 233.0 153.0 M 0.0 163.0 L 233.0 163.0 M 0.0 173.0 L 233.0 173.0 M 0.0 183.0 L 233.0 183.0 M 0.0 193.0 L 233.0 193.0 Z" fill="none" stroke="#d6d6d6" stroke-width="0.75" />
<path d="M 21.0 70.0 L 37.0 70.0 Z" fill="none" stroke="#d6d6d6" stroke-width="0.75" />
<path d="M 21.0 70.0 L 37.0 70.0 Z" fill="none" stroke="#d6d6d6" stroke-width="0.75" />
<path d="M 24.52 71.232 C 24.52 72.456 25.7152 73.68 26.896 73.68 C 30.496 73.68 34.096 71.232 34.096 68.856 C 34.096 67.6752 32.872 66.48 31.720001 66.48 C 28.12 66.48 24.52 68.856 24.52 71.232 Z" fill="#404040" stroke="none" stroke-width="1.0" />
<path d="M 23.0 179.25 L 31.0 179.25 L 31.0 186.75 L 23.0 186.75 L 23.0 179.25 Z" fill="#ffffff" stroke="none" stroke-width="1.0" />
<text x='23.0' y='186.75' font-family="Default" font-size="10.0" fill="#404040" >3/3</text>
<path d="M 24.5 70.96 L 25.5 70.96 L 25.5 101.0 L 24.5 101.0 M 24.5 70.96 Z" fill="#404040" stroke="none" stroke-width="0.75" />
<path d="M 24.5 99.0 L 24.5 103.0 L 46.944443 98.0 L 46.944443 94.0 L 24.5 99.0 Z" fill="#404040" stroke="none" stroke-width="0.75" />
<path d="M 45.964443 35.232 C 45.964443 36.456 47.159645 37.68 48.340443 37.68 C 51.940445 37.68 55.540443 35.232 55.540443 32.856 C 55.540443 31.6752 54.316444 30.48 53.164444 30.48 C 49.56444 30.48 45.964443 32.856 45.964443 35.232 Z" fill="#404040" stroke="none" stroke-width="1.0" />
<path d="M 44.444443 139.25 L 52.444443 139.25 L 52.444443 146.75 L 44.444443 146.75 L 44.444443 139.25 Z" fill="#ffffff" stroke="none" stroke-width="1.0" />
<text x='44.444443' y='146.75' font-family="Default" font-size="10.0" fill="#404040" >0/0</text>
<path d="M 45.944443 34.96 L 46.944443 34.96 L 46.944443 96.0 L 45.944443 96.0 M 45.944443 34.96 Z" fill="#404040" stroke="none" stroke-width="0.75" />
<path d="M 45.944443 94.0 L 45.944443 98.0 L 68.388885 93.0 L 68.388885 89.0 L 45.944443 94.0 Z" fill="#404040" stroke="none" stroke-width="0.75" />
<path d="M 67.40888 43.232 C 67.40888 44.456 68.60408 45.68 69.78488 45.68 C 73.38488 45.68 76.98488 43.232 76.98488 40.856 C 76.98488 39.6752 75.76088 38.48 74.60888 38.48 C 71.00888 38.48 67.40888 40.856 67.40888 43.232 Z" fill="#404040" stroke="none" stroke-width="1.0" />
<path d="M 65.888885 149.25 L 73.888885 149.25 L 73.888885 156.75 L 65.888885 156.75 L 65.888885 149.25 Z" fill="#ffffff" stroke="none" stroke-width="1.0" />
<text x='65.888885' y='156.75' font-family="Default" font-size="10.0" fill="#404040" >1/1</text>
<path d="M 67.388885 42.96 L 68.388885 42.96 L 68.388885 91.0 L 67.388885 91.0 M 67.388885 42.96 Z" fill="#404040" stroke="none" stroke-width="0.75" />
<path d="M 88.85333 63.232 C 88.85333 64.456 90.04853 65.68 91.22933 65.68 C 94.82933 65.68 98.42934 63.232 98.42934 60.856 C 98.42934 59.6752 97.20533 58.48 96.05333 58.48 C 92.45333 58.48 88.85333 60.856 88.85333 63.232 Z" fill="#404040" stroke="none" stroke-width="1.0" />
<path d="M 87.333336 169.25 L 95.333336 169.25 L 95.333336 176.75 L 87.333336 176.75 L 87.333336 169.25 Z" fill="#ffffff" stroke="none" stroke-width="1.0" />
<text x='87.333336' y='176.75' font-family="Default" font-size="10.0" fill="#404040" >2/2</text>
<path d="M 88.833336 62.96 L 89.833336 62.96 L 89.833336 93.0 L 88.833336 93.0 M 88.833336 62.96 Z" fill="#404040" stroke="none" stroke-width="0.75" />
<path d="M 88.833336 91.0 L 88.833336 95.0 L 111.27778 90.0 L 111.27778 86.0 L 88.833336 91.0 Z" fill="#404040" stroke="none" stroke-width="0.75" />
<path d="M 110.297775 35.232 C 110.297775 36.456 111.49297 37.68 112.673775 37.68 C 116.27377 37.68 119.87378 35.232 119.87378 32.856 C 119.87378 31.6752 118.64977 30.48 117.49777 30.48 C 113.89777 30.48 110.297775 32.856 110.297775 35.232 Z" fill="#404040" stroke="none" stroke-width="1.0" />
<path d="M 108.77778 139.25 L 116.77778 139.25 L 116.77778 146.75 L 108.77778 146.75 L 108.77778 139.25 Z" fill="#ffffff" stroke="none" stroke-width="1.0" />
<text x='108.77778' y='146.75' font-family="Default" font-size="10.0" fill="#404040" >0/0</text>
<path d="M 110.27778 34.96 L 111.27778 34.96 L 111.27778 88.0 L 110.27778 88.0 M 110.27778 34.96 Z" fill="#404040" stroke="none" stroke-width="0.75" />
<path d="M 110.27778 86.0 L 110.27778 90.0 L 132.72223 85.0 L 132.72223 81.0 L 110.27778 86.0 Z" fill="#404040" stroke="none" stroke-width="0.75" />
<path d="M 131.74223 43.232 C 131.74223 44.456 132.93744 45.68 134.11824 45.68 C 137.71823 45.68 141.31824 43.232 141.31824 40.856 C 141.31824 39.6752 140.09424 38.48 138.94223 38.48 C 135.34224 38.48 131.74223 40.856 131.74223 43.232 Z" fill="#404040" stroke="none" stroke-width="1.0" />
<path d="M 130.22223 149.25 L 138.22223 149.25 L 138.22223 156.75 L 130.22223 156.75 L 130.22223 149.25 Z" fill="#ffffff" stroke="none" stroke-width="1.0" />
<text x='130.22223' y='156.75' font-family="Default" font-size="10.0" fill="#404040" >1/1</text>
<path d="M 131.72223 42.96 L 132.72223 42.96 L 132.72223 83.0 L 131.72223 83.0 M 131.72223 42.96 Z" fill="#404040" stroke="none" stroke-width="0.75" />
<path d="M 149.66667 70.0 L 165.66667 70.0 Z" fill="none" stroke="#d6d6d6" stroke-width="0.75" />
<path d="M 149.66667 70.0 L 165.66667 70.0 Z" fill="none" stroke="#d6d6d6" stroke-width="0.75" />
<path d="M 153.18668 71.232 C 153.18668 72.456 154.38188 73.68 155.56268 73.68 C 159.16267 73.68 162.76268 71.232 162.76268 68.856 C 162.76268 67.6752 161.53868 66.48 160.38667 66.48 C 156.78668 66.48 153.18668 68.856 153.18668 71.232 Z" fill="#404040" stroke="none" stroke-width="1.0" />
<path d="M 151.66667 179.25 L 159.66667 179.25 L 159.66667 186.75 L 151.66667 186.75 L 151.66667 179.25 Z" fill="#ffffff" stroke="none" stroke-width="1.0" />
<text x='151.66667' y='186.75' font-family="Default" font-size="10.0" fill="#404040" >3/3</text>
<path d="M 153.16667 70.96 L 154.16667 70.96 L 154.16667 101.0 L 153.16667 101.0 M 153.16667 70.96 Z" fill="#404040" stroke="none" stroke-width="0.75" />
<path d="M 153.16667 99.0 L 153.16667 103.0 L 175.61111 98.0 L 175.61111 94.0 L 153.16667 99.0 Z" fill="#404040" stroke="none" stroke-width="0.75" />
<path d="M 174.63112 35.232 C 174.63112 36.456 175.82632 37.68 177.00713 37.68 C 180.60712 37.68 184.20712 35.232 184.20712 32.856 C 184.20712 31.6752 182.98312 30.48 181.83112 30.48 C 178.23112 30.48 174.63112 32.856 174.63112 35.232 Z" fill="#404040" stroke="none" stroke-width="1.0" />
<path d="M 173.11111 139.25 L 181.11111 139.25 L 181.11111 146.75 L 173.11111 146.75 L 173.11111 139.25 Z" fill="#ffffff" stroke="none" stroke-width="1.0" />
<text x='173.11111' y='146.75' font-family="Default" font-size="10.0" fill="#404040" >0/0</text>
<path d="M 174.61111 34.96 L 175.61111 34.96 L 175.61111 96.0 L 174.61111 96.0 M 174.61111 34.96 Z" fill="#404040" stroke="none" stroke-width="0.75" />
<path d="M 174.61111 94.0 L 174.61111 98.0 L 197.05556 93.0 L 197.05556 89.0 L 174.61111 94.0 Z" fill="#404040" stroke="none" stroke-width="0.75" />
<path d="M 196.07556 43.232 C 196.07556 44.456 197.27077 45.68 198.45157 45.68 C 202.05156 45.68 205.65157 43.232 205.65157 40.856 C 205.65157 39.6752 204.42757 38.48 203.27556 38.48 C 199.67557 38.48 196.07556 40.856 196.07556 43.232 Z" fill="#404040" stroke="none" stroke-width="1.0" />
<path d="M 194.55556 149.25 L 202.55556 149.25 L 202.55556 156.75 L 194.55556 156.75 L 194.55556 149.25 Z" fill="#ffffff" stroke="none" stroke-width="1.0" />
<text x='194.55556' y='156.75' font-family="Default" font-size="10.0" fill="#404040" >1/1</text>
<path d="M 196.05556 42.96 L 197.05556 42.96 L 197.05556 91.0 L 196.05556 91.0 M 196.05556 42.96 Z" fill="#404040" stroke="none" stroke-width="0.75" /></g>
<text x='486.0' y='273.0' font-family="Default" font-size="10.0" fill="#ff0000" >6</text>
<path d="M 485.0 275.0 L 485.0 307.0 Z" fill="#000000" stroke="#000000" stroke-width="0.75" />
<path d="M 718.0 275.0 L 718.0 307.0 Z" fill="#000000" stroke="#000000" stroke-width="0.75" />
<path d="M 485.0 388.0 L 485.0 438.0 Z" fill="#000000" stroke="#000000" stroke-width="0.75" />
<path d="M 718.0 388.0 L 718.0 438.0 Z" fill="#000000" stroke="#000000" stroke-width="0.75" /><g transform="translate(718.0,245.0)">
<path d="M 0.0 0.0 L 232.0 0.0 L 232.0 214.0 L 0.0 214.0 L 0.0 0.0 Z" fill="#ffffff" stroke="none" stroke-width="1.0" />
<path d="M 0.0 30.0 L 232.0 30.0 M 0.0 38.0 L 232.0 38.0 M 0.0 46.0 L 232.0 46.0 M 0.0 54.0 L 232.0 54.0 M 0.0 62.0 L 232.0 62.0 Z" fill="none" stroke="#d6d6d6" stroke-width="0.75" />
<path d="M 0.0 143.0 L 232.0 143.0 M 0.0 153.0 L 232.0 153.0 M 0.0 163.0 L 232.0 163.0 M 0.0 173.0 L 232.0 173.0 M 0.0 183.0 L 232.0 183.0 M 0.0 193.0 L 232.0 193.0 Z" fill="none" stroke="#d6d6d6" stroke-width="0.75" />
<path d="M 24.52 67.232 C 24.52 68.456 25.7152 69.68 26.896 69.68 C 30.496 69.68 34.096 67.232 34.096 64.856 C 34.096 63.6752 32.872 62.48 31.720001 62.48 C 28.12 62.48 24.52 64.856 24.52 67.232 Z" fill="#404040" stroke="none" stroke-width="1.0" />
<path d="M 23.0 169.25 L 31.0 169.25 L 31.0 176.75 L 23.0 176.75 L 23.0 169.25 Z" fill="#ffffff" stroke="none" stroke-width="1.0" />
<text x='23.0' y='176.75' font-family="Default" font-size="10.0" fill="#404040" >0/0</text>
<path d="M 24.5 66.96 L 25.5 66.96 L 25.5 97.0 L 24.5 97.0 M 24.5 66.96 Z" fill="#404040" stroke="none" stroke-width="0.75" />
<path d="M 24.5 95.0 L 24.5 99.0 L 46.833336 94.0 L 46.833336 90.0 L 24.5 95.0 Z" fill="#404040" stroke="none" stroke-width="0.75" />
<path d="M 45.853336 31.231998 C 45.853336 32.456 47.04854 33.68 48.229336 33.68 C 51.829338 33.68 55.429337 31.231998 55.429337 28.855999 C 55.429337 27.6752 54.205338 26.48 53.053337 26.48 C 49.453335 26.48 45.853336 28.855999 45.853336 31.231998 Z" fill="#404040" stroke="none" stroke-width="1.0" />
<path d="M 44.333336 139.25 L 52.333336 139.25 L 52.333336 146.75 L 44.333336 146.75 L 44.333336 139.25 Z" fill="#ffffff" stroke="none" stroke-width="1.0" />
<text x='44.333336' y='146.75' font-family="Default" font-size="10.0" fill="#404040" >2/3</text>
<path d="M 45.833336 30.96 L 46.833336 30.96 L 46.833336 92.0 L 45.833336 92.0 M 45.833336 30.96 Z" fill="#404040" stroke="none" stroke-width="0.75" />
<path d="M 45.833336 90.0 L 45.833336 94.0 L 68.16667 89.0 L 68.16667 85.0 L 45.833336 90.0 Z" fill="#404040" stroke="none" stroke-width="0.75" />
<path d="M 67.18667 43.232 C 67.18667 44.456 68.38187 45.68 69.56267 45.68 C 73.16267 45.68 76.762665 43.232 76.762665 40.856 C 76.762665 39.6752 75.538666 38.48 74.386665 38.48 C 70.78667 38.48 67.18667 40.856 67.18667 43.232 Z" fill="#404040" stroke="none" stroke-width="1.0" />
<path d="M 65.66667 149.25 L 73.66667 149.25 L 73.66667 156.75 L 65.66667 156.75 L 65.66667 149.25 Z" fill="#ffffff" stroke="none" stroke-width="1.0" />
<text x='65.66667' y='156.75' font-family="Default" font-size="10.0" fill="#404040" >1/1</text>
<path d="M 67.16667 42.96 L 68.16667 42.96 L 68.16667 87.0 L 67.16667 87.0 M 67.16667 42.96 Z" fill="#404040" stroke="none" stroke-width="0.75" />
<path d="M 88.52 51.232 C 88.52 52.456 89.715195 53.68 90.895996 53.68 C 94.495995 53.68 98.09599 51.232 98.09599 48.856 C 98.09599 47.6752 96.871994 46.48 95.71999 46.48 C 92.119995 46.48 88.52 48.856 88.52 51.232 Z" fill="#404040" stroke="none" stroke-width="1.0" />
<path d="M 87.0 159.25 L 95.0 159.25 L 95.0 166.75 L 87.0 166.75 L 87.0 159.25 Z" fill="#ffffff" stroke="none" stroke-width="1.0" />
<text x='87.0' y='166.75' font-family="Default" font-size="10.0" fill="#404040" >2/2</text>
<path d="M 88.5 50.96 L 89.5 50.96 L 89.5 81.0 L 88.5 81.0 M 88.5 50.96 Z" fill="#404040" stroke="none" stroke-width="0.75" />
<path d="M 88.5 79.0 L 88.5 83.0 L 110.833336 79.0 L 110.833336 75.0 L 88.5 79.0 Z" fill="#404040" stroke="none" stroke-width="0.75" />
<path d="M 109.85333 31.231998 C 109.85333 32.456 111.04853 33.68 112.22933 33.68 C 115.82933 33.68 119.42934 31.231998 119.42934 28.855999 C 119.42934 27.6752 118.20533 26.48 117.05333 26.48 C 113.45333 26.48 109.85333 28.855999 109.85333 31.231998 Z" fill="#404040" stroke="none" stroke-width="1.0" />
<path d="M 108.333336 139.25 L 116.333336 139.25 L 116.333336 146.75 L 108.333336 146.75 L 108.333336 139.25 Z" fill="#ffffff" stroke="none" stroke-width="1.0" />
<text x='108.333336' y='146.75' font-family="Default" font-size="10.0" fill="#404040" >2/3</text>
<path d="M 109.833336 30.96 L 110.833336 30.96 L 110.833336 77.0 L 109.833336 77.0 M 109.833336 30.96 Z" fill="#404040" stroke="none" stroke-width="0.75" />
<path d="M 109.833336 75.0 L 109.833336 79.0 L 132.16666 75.0 L 132.16666 71.0 L 109.833336 75.0 Z" fill="#404040" stroke="none" stroke-width="0.75" />
<path d="M 131.18666 43.232 C 131.18666 44.456 132.38187 45.68 133.56267 45.68 C 137.16266 45.68 140.76266 43.232 140.76266 40.856 C 140.76266 39.6752 139.53867 38.48 138.38666 38.48 C 134.78667 38.48 131.18666 40.856 131.18666 43.232 Z" fill="#404040" stroke="none" stroke-width="1.0" />
<path d="M 129.66666 149.25 L 137.66666 149.25 L 137.66666 156.75 L 129.66666 156.75 L 129.66666 149.25 Z" fill="#ffffff" stroke="none" stroke-width="1.0" />
<text x='129.66666' y='156.75' font-family="Default" font-size="10.0" fill="#404040" >1/1</text>
<path d="M 131.16666 42.96 L 132.16666 42.96 L 132.16666 73.0 L 131.16666 73.0 M 131.16666 42.96 Z" fill="#404040" stroke="none" stroke-width="0.75" />
<path d="M 152.52 67.232 C 152.52 68.456 153.71521 69.68 154.89601 69.68 C 158.496 69.68 162.09601 67.232 162.09601 64.856 C 162.09601 63.6752 160.87201 62.48 159.72 62.48 C 156.12001 62.48 152.52 64.856 152.52 67.232 Z" fill="#404040" stroke="none" stroke-width="1.0" />
<path d="M 151.0 169.25 L 159.0 169.25 L 159.0 176.75 L 151.0 176.75 L 151.0 169.25 Z" fill="#ffffff" stroke="none" stroke-width="1.0" />
<text x='151.0' y='176.75' font-family="Default" font-size="10.0" fill="#404040" >0/0</text>
<path d="M 152.5 66.96 L 153.5 66.96 L 153.5 97.0 L 152.5 97.0 M 152.5 66.96 Z" fill="#404040" stroke="none" stroke-width="0.75" />
<path d="M 152.5 95.0 L 152.5 99.0 L 174.83333 94.0 L 174.83333 90.0 L 152.5 95.0 Z" fill="#404040" stroke="none" stroke-width="0.75" />
<path d="M 173.85333 31.231998 C 173.85333 32.456 175.04854 33.68 176.22934 33.68 C 179.82933 33.68 183.42934 31.231998 183.42934 28.855999 C 183.42934 27.6752 182.20534 26.48 181.05333 26.48 C 177.45334 26.48 173.85333 28.855999 173.85333 31.231998 Z" fill="#404040" stroke="none" stroke-width="1.0" />
<path d="M 172.33333 139.25 L 180.33333 139.25 L 180.33333 146.75 L 172.33333 146.75 L 172.33333 139.25 Z" fill="#ffffff" stroke="none" stroke-width="1.0" />
<text x='172.33333' y='146.75' font-family="Default" font-size="10.0" fill="#404040" >2/3</text>
<path d="M 173.83333 30.96 L 174.83333 30.96 L 174.83333 92.0 L 173.83333 92.0 M 173.83333 30.96 Z" fill="#404040" stroke="none" stroke-width="0.75" />
<path d="M 173.83333 90.0 L 173.83333 94.0 L 196.16667 89.0 L 196.16667 85.0 L 173.83333 90.0 Z" fill="#404040" stroke="none" stroke-width="0.75" />
<path d="M 195.18668 43.232 C 195.18668 44.456 196.38188 45.68 197.56268 45.68 C 201.16267 45.68 204.76268 43.232 204.76268 40.856 C 204.76268 39.6752 203.53868 38.48 202.38667 38.48 C 198.78668 38.48 195.18668 40.856 195.18668 43.232 Z" fill="#404040" stroke="none" stroke-width="1.0" />
<path d="M 193.66667 149.25 L 201.66667 149.25 L 201.66667 156.75 L 193.66667 156.75 L 193.66667 149.25 Z" fill="#ffffff" stroke="none" stroke-width="1.0" />
<text x='193.66667' y='156.75' font-family="Default" font-size="10.0" fill="#404040" >1/1</text>
<path d="M 195.16667 42.96 L 196.16667 42.96 L 196.16667 87.0 L 195.16667 87.0 M 195.16667 42.96 Z" fill="#404040" stroke="none" stroke-width="0.75" /></g>
<text x='719.0' y='273.0' font-family="Default" font-size="10.0" fill="#ff0000" >7</text>
<path d="M 718.0 275.0 L 718.0 307.0 Z" fill="#000000" stroke="#000000" stroke-width="0.75" />
<path d="M 950.0 275.0 L 950.0 307.0 Z" fill="#000000" stroke="#000000" stroke-width="0.75" />
<path d="M 718.0 388.0 L 718.0 438.0 Z" fill="#000000" stroke="#000000" stroke-width="0.75" />
<path d="M 950.0 388.0 L 950.0 438.0 Z" fill="#000000" stroke="#000000" stroke-width="0.75" /><g transform="translate(20.0,470.0)">
<path d="M 0.0 0.0 L 181.0 0.0 L 181.0 214.0 L 0.0 214.0 L 0.0 0.0 Z" fill="#ffffff" stroke="none" stroke-width="1.0" />
<path d="M 0.0 30.0 L 181.0 30.0 M 0.0 38.0 L 181.0 38.0 M 0.0 46.0 L 181.0 46.0 M 0.0 54.0 L 181.0 54.0 M 0.0 62.0 L 181.0 62.0 Z" fill="none" stroke="#d6d6d6" stroke-width="0.75" />
<path d="M 0.0 143.0 L 181.0 143.0 M 0.0 153.0 L 181.0 153.0 M 0.0 163.0 L 181.0 163.0 M 0.0 173.0 L 181.0 173.0 M 0.0 183.0 L 181.0 183.0 M 0.0 193.0 L 181.0 193.0 Z" fill="none" stroke="#d6d6d6" stroke-width="0.75" />
<path d="M 24.52 55.232 C 24.52 56.456 25.7152 57.68 26.896 57.68 C 30.496 57.68 34.096 55.232 34.096 52.856 C 34.096 51.6752 32.872 50.48 31.720001 50.48 C 28.12 50.48 24.52 52.856 24.52 55.232 Z" fill="#404040" stroke="none" stroke-width="1.0" />
<path d="M 23.0 159.25 L 31.0 159.25 L 31.0 166.75 L 23.0 166.75 L 23.0 159.25 Z" fill="#ffffff" stroke="none" stroke-width="1.0" />
<text x='23.0' y='166.75' font-family="Default" font-size="10.0" fill="#404040" >0/0</text>
<path d="M 24.5 54.96 L 25.5 54.96 L 25.5 85.0 L 24.5 85.0 M 24.5 54.96 Z" fill="#404040" stroke="none" stroke-width="0.75" />
<path d="M 24.5 83.0 L 24.5 87.0 L 45.5 83.0 L 45.5 79.0 L 24.5 83.0 Z" fill="#404040" stroke="none" stroke-width="0.75" />
<path d="M 44.52 27.231998 C 44.52 28.456 45.715202 29.68 46.896 29.68 C 50.496002 29.68 54.096 27.231998 54.096 24.855999 C 54.096 23.6752 52.872 22.48 51.72 22.48 C 48.12 22.48 44.52 24.855999 44.52 27.231998 Z" fill="#404040" stroke="none" stroke-width="1.0" />
<path d="M 43.0 139.25 L 51.0 139.25 L 51.0 146.75 L 43.0 146.75 L 43.0 139.25 Z" fill="#ffffff" stroke="none" stroke-width="1.0" />
<text x='43.0' y='146.75' font-family="Default" font-size="10.0" fill="#404040" >3/4</text>
<path d="M 44.5 26.96 L 45.5 26.96 L 45.5 81.0 L 44.5 81.0 M 44.5 26.96 Z" fill="#404040" stroke="none" stroke-width="0.75" />
<path d="M 44.5 79.0 L 44.5 83.0 L 65.5 79.0 L 65.5 75.0 L 44.5 79.0 Z" fill="#404040" stroke="none" stroke-width="0.75" />
<path d="M 64.52 47.232 C 64.52 48.456 65.715195 49.68 66.895996 49.68 C 70.495995 49.68 74.09599 47.232 74.09599 44.856 C 74.09599 43.6752 72.871994 42.48 71.71999 42.48 C 68.119995 42.48 64.52 44.856 64.52 47.232 Z" fill="#404040" stroke="none" stroke-width="1.0" />
<path d="M 63.0 149.25 L 71.0 149.25 L 71.0 156.75 L 63.0 156.75 L 63.0 149.25 Z" fill="#ffffff" stroke="none" stroke-width="1.0" />
<text x='63.0' y='156.75' font-family="Default" font-size="10.0" fill="#404040" >0/0</text>
<path d="M 64.5 46.96 L 65.5 46.96 L 65.5 77.0 L 64.5 77.0 M 64.5 46.96 Z" fill="#404040" stroke="none" stroke-width="0.75" />
<path d="M 84.52 67.232 C 84.52 68.456 85.715195 69.68 86.895996 69.68 C 90.495995 69.68 94.09599 67.232 94.09599 64.856 C 94.09599 63.6752 92.871994 62.48 91.71999 62.48 C 88.119995 62.48 84.52 64.856 84.52 67.232 Z" fill="#404040" stroke="none" stroke-width="1.0" />
<path d="M 83.0 169.25 L 91.0 169.25 L 91.0 176.75 L 83.0 176.75 L 83.0 169.25 Z" fill="#ffffff" stroke="none" stroke-width="1.0" />
<text x='83.0' y='176.75' font-family="Default" font-size="10.0" fill="#404040" >0/0</text>
<path d="M 84.5 66.96 L 85.5 66.96 L 85.5 97.0 L 84.5 97.0 M 84.5 66.96 Z" fill="#404040" stroke="none" stroke-width="0.75" />
<path d="M 84.5 95.0 L 84.5 99.0 L 105.5 94.0 L 105.5 90.0 L 84.5 95.0 Z" fill="#404040" stroke="none" stroke-width="0.75" />
<path d="M 104.52 27.231998 C 104.52 28.456 105.715195 29.68 106.895996 29.68 C 110.495995 29.68 114.09599 27.231998 114.09599 24.855999 C 114.09599 23.6752 112.871994 22.48 111.71999 22.48 C 108.119995 22.48 104.52 24.855999 104.52 27.231998 Z" fill="#404040" stroke="none" stroke-width="1.0" />
<path d="M 103.0 139.25 L 111.0 139.25 L 111.0 146.75 L 103.0 146.75 L 103.0 139.25 Z" fill="#ffffff" stroke="none" stroke-width="1.0" />
<text x='103.0' y='146.75' font-family="Default" font-size="10.0" fill="#404040" >3/4</text>
<path d="M 104.5 26.96 L 105.5 26.96 L 105.5 92.0 L 104.5 92.0 M 104.5 26.96 Z" fill="#404040" stroke="none" stroke-width="0.75" />
<path d="M 104.5 90.0 L 104.5 94.0 L 125.5 89.0 L 125.5 85.0 L 104.5 90.0 Z" fill="#404040" stroke="none" stroke-width="0.75" />
<path d="M 124.52 47.232 C 124.52 48.456 125.715195 49.68 126.895996 49.68 C 130.496 49.68 134.096 47.232 134.096 44.856 C 134.096 43.6752 132.872 42.48 131.72 42.48 C 128.12 42.48 124.52 44.856 124.52 47.232 Z" fill="#404040" stroke="none" stroke-width="1.0" />
<path d="M 123.0 149.25 L 131.0 149.25 L 131.0 156.75 L 123.0 156.75 L 123.0 149.25 Z" fill="#ffffff" stroke="none" stroke-width="1.0" />
<text x='123.0' y='156.75' font-family="Default" font-size="10.0" fill="#404040" >0/0</text>
<path d="M 124.5 46.96 L 125.5 46.96 L 125.5 87.0 L 124.5 87.0 M 124.5 46.96 Z" fill="#404040" stroke="none" stroke-width="0.75" />
<path d="M 141.0 70.0 L 157.0 70.0 Z" fill="none" stroke="#d6d6d6" stroke-width="0.75" />
<path d="M 141.0 78.0 L 157.0 78.0 Z" fill="none" stroke="#d6d6d6" stroke-width="0.75" />
<path d="M 141.0 70.0 L 157.0 70.0 Z" fill="none" stroke="#d6d6d6" stroke-width="0.75" />
<path d="M 141.0 78.0 L 157.0 78.0 Z" fill="none" stroke="#d6d6d6" stroke-width="0.75" />
<path d="M 144.52 83.232 C 144.52 84.456 145.71521 85.68 146.89601 85.68 C 150.496 85.68 154.09601 83.232 154.09601 80.856 C 154.09601 79.6752 152.87201 78.48 151.72 78.48 C 148.12001 78.48 144.52 80.856 144.52 83.232 Z" fill="#404040" stroke="none" stroke-width="1.0" />
<path d="M 157.0 82.0 M 155.8 82.0 a 1.2 1.2 0 1 0 2.4 0 1.2 1.2 0 1 0 -2.4 0 Z" fill="#404040" stroke="none" stroke-width="0.75" />
<path d="M 143.0 189.25 L 151.0 189.25 L 151.0 196.75 L 143.0 196.75 L 143.0 189.25 Z" fill="#ffffff" stroke="none" stroke-width="0.75" />
<text x='143.0' y='196.75' font-family="Default" font-size="10.0" fill="#404040" >3/2</text>
<path d="M 153.18 81.04 L 154.18 81.04 L 154.18 50.0 L 153.18 50.0 M 153.18 81.04 Z" fill="#404040" stroke="none" stroke-width="0.75" /></g>
<text x='21.0' y='498.0' font-family="Default" font-size="10.0" fill="#ff0000" >8</text>
<path d="M 20.0 500.0 L 20.0 613.0 Z" fill="#000000" stroke="#000000" stroke-width="0.75" />
<path d="M 201.0 500.0 L 201.0 532.0 Z" fill="#000000" stroke="#000000" stroke-width="0.75" />
<path d="M 20.0 613.0 L 20.0 663.0 Z" fill="#000000" stroke="#000000" stroke-width="0.75" />
<path d="M 201.0 613.0 L 201.0 663.0 Z" fill="#000000" stroke="#000000" stroke-width="0.75" /><g transform="translate(201.0,470.0)">
<path d="M 0.0 0.0 L 103.0 0.0 L 103.0 214.0 L 0.0 214.0 L 0.0 0.0 Z" fill="#ffffff" stroke="none" stroke-width="1.0" />
<path d="M 0.0 30.0 L 103.0 30.0 M 0.0 38.0 L 103.0 38.0 M 0.0 46.0 L 103.0 46.0 M 0.0 54.0 L 103.0 54.0 M 0.0 62.0 L 103.0 62.0 Z" fill="none" stroke="#d6d6d6" stroke-width="0.75" />
<path d="M 0.0 143.0 L 103.0 143.0 M 0.0 153.0 L 103.0 153.0 M 0.0 163.0 L 103.0 163.0 M 0.0 173.0 L 103.0 173.0 M 0.0 183.0 L 103.0 183.0 M 0.0 193.0 L 103.0 193.0 Z" fill="none" stroke="#d6d6d6" stroke-width="0.75" />
<path d="M 21.0 70.0 L 37.0 70.0 Z" fill="none" stroke="#d6d6d6" stroke-width="0.75" />
<path d="M 21.0 78.0 L 37.0 78.0 Z" fill="none" stroke="#d6d6d6" stroke-width="0.75" />
<path d="M 24.52 27.231998 C 24.52 28.456 25.7152 29.68 26.896 29.68 C 30.496 29.68 34.096 27.231998 34.096 24.855999 C 34.096 23.6752 32.872 22.48 31.720001 22.48 C 28.12 22.48 24.52 24.855999 24.52 27.231998 Z" fill="#404040" stroke="none" stroke-width="1.0" />
<path d="M 37.0 26.0 M 35.8 26.0 a 1.2 1.2 0 1 0 2.4 0 1.2 1.2 0 1 0 -2.4 0 Z" fill="#404040" stroke="none" stroke-width="0.75" />
<path d="M 23.0 139.25 L 31.0 139.25 L 31.0 146.75 L 23.0 146.75 L 23.0 139.25 Z" fill="#ffffff" stroke="none" stroke-width="0.75" />
<text x='23.0' y='146.75' font-family="Default" font-size="10.0" fill="#404040" >3/4</text>
<path d="M 24.52 47.232 C 24.52 48.456 25.7152 49.68 26.896 49.68 C 30.496 49.68 34.096 47.232 34.096 44.856 C 34.096 43.6752 32.872 42.48 31.720001 42.48 C 28.12 42.48 24.52 44.856 24.52 47.232 Z" fill="#404040" stroke="none" stroke-width="1.0" />
<path d="M 37.0 46.0 M 35.8 46.0 a 1.2 1.2 0 1 0 2.4 0 1.2 1.2 0 1 0 -2.4 0 Z" fill="#404040" stroke="none" stroke-width="0.75" />
<path d="M 23.0 149.25 L 31.0 149.25 L 31.0 156.75 L 23.0 156.75 L 23.0 149.25 Z" fill="#ffffff" stroke="none" stroke-width="0.75" />
<text x='23.0' y='156.75' font-family="Default" font-size="10.0" fill="#404040" >0/0</text>
<path d="M 24.52 55.232 C 24.52 56.456 25.7152 57.68 26.896 57.68 C 30.496 57.68 34.096 55.232 34.096 52.856 C 34.096 51.6752 32.872 50.48 31.720001 50.48 C 28.12 50.48 24.52 52.856 24.52 55.232 Z" fill="#404040" stroke="none" stroke-width="1.0" />
<path d="M 37.0 54.0 M 35.8 54.0 a 1.2 1.2 0 1 0 2.4 0 1.2 1.2 0 1 0 -2.4 0 Z" fill="#404040" stroke="none" stroke-width="0.75" />
<path d="M 23.0 159.25 L 31.0 159.25 L 31.0 166.75 L 23.0 166.75 L 23.0 159.25 Z" fill="#ffffff" stroke="none" stroke-width="0.75" />
<text x='23.0' y='166.75' font-family="Default" font-size="10.0" fill="#404040" >0/0</text>
<path d="M 24.52 67.232 C 24.52 68.456 25.7152 69.68 26.896 69.68 C 30.496 69.68 34.096 67.232 34.096 64.856 C 34.096 63.6752 32.872 62.48 31.720001 62.48 C 28.12 62.48 24.52 64.856 24.52 67.232 Z" fill="#404040" stroke="none" stroke-width="1.0" />
<path d="M 37.0 66.0 M 35.8 66.0 a 1.2 1.2 0 1 0 2.4 0 1.2 1.2 0 1 0 -2.4 0 Z" fill="#404040" stroke="none" stroke-width="0.75" />
<path d="M 23.0 169.25 L 31.0 169.25 L 31.0 176.75 L 23.0 176.75 L 23.0 169.25 Z" fill="#ffffff" stroke="none" stroke-width="0.75" />
<text x='23.0' y='176.75' font-family="Default" font-size="10.0" fill="#404040" >0/0</text>
<path d="M 24.52 75.232 C 24.52 76.456 25.7152 77.68 26.896 77.68 C 30.496 77.68 34.096 75.232 34.096 72.856 C 34.096 71.6752 32.872 70.48 31.720001 70.48 C 28.12 70.48 24.52 72.856 24.52 75.232 Z" fill="#404040" stroke="none" stroke-width="1.0" />
<path d="M 37.0 74.0 M 35.8 74.0 a 1.2 1.2 0 1 0 2.4 0 1.2 1.2 0 1 0 -2.4 0 Z" fill="#404040" stroke="none" stroke-width="0.75" />
<path d="M 23.0 179.25 L 31.0 179.25 L 31.0 186.75 L 23.0 186.75 L 23.0 179.25 Z" fill="#ffffff" stroke="none" stroke-width="0.75" />
<text x='23.0' y='186.75' font-family="Default" font-size="10.0" fill="#404040" >2/2</text>
<path d="M 24.52 83.232 C 24.52 84.456 25.7152 85.68 26.896 85.68 C 30.496 85.68 34.096 83.232 34.096 80.856 C 34.096 79.6752 32.872 78.48 31.720001 78.48 C 28.12 78.48 24.52 80.856 24.52 83.232 Z" fill="#404040" stroke="none" stroke-width="1.0" />
<path d="M 37.0 82.0 M 35.8 82.0 a 1.2 1.2 0 1 0 2.4 0 1.2 1.2 0 1 0 -2.4 0 Z" fill="#404040" stroke="none" stroke-width="0.75" />
<path d="M 23.0 189.25 L 31.0 189.25 L 31.0 196.75 L 23.0 196.75 L 23.0 189.25 Z" fill="#ffffff" stroke="none" stroke-width="0.75" />
<text x='23.0' y='196.75' font-family="Default" font-size="10.0" fill="#404040" >3/3</text>
<path d="M 24.5 26.96 L 25.5 26.96 L 25.5 113.0 L 24.5 113.0 M 24.5 26.96 Z" fill="#404040" stroke="none" stroke-width="0.75" />
<path d="M 42.0 70.0 L 58.0 70.0 Z" fill="none" stroke="#d6d6d6" stroke-width="0.75" />
<path d="M 45.52 35.232 C 45.52 36.456 46.715202 37.68 47.896 37.68 C 51.496002 37.68 55.096 35.232 55.096 32.856 C 55.096 31.6752 53.872 30.48 52.72 30.48 C 49.12 30.48 45.52 32.856 45.52 35.232 Z" fill="#404040" stroke="none" stroke-width="1.0" />
<path d="M 58.0 34.0 M 56.8 34.0 a 1.2 1.2 0 1 0 2.4 0 1.2 1.2 0 1 0 -2.4 0 Z" fill="#404040" stroke="none" stroke-width="0.75" />
<path d="M 44.0 139.25 L 52.0 139.25 L 52.0 146.75 L 44.0 146.75 L 44.0 139.25 Z" fill="#ffffff" stroke="none" stroke-width="0.75" />
<text x='44.0' y='146.75' font-family="Default" font-size="10.0" fill="#404040" >0/0</text>
<path d="M 45.52 43.232 C 45.52 44.456 46.715202 45.68 47.896 45.68 C 51.496002 45.68 55.096 43.232 55.096 40.856 C 55.096 39.6752 53.872 38.48 52.72 38.48 C 49.12 38.48 45.52 40.856 45.52 43.232 Z" fill="#404040" stroke="none" stroke-width="1.0" />
<path d="M 58.0 42.0 M 56.8 42.0 a 1.2 1.2 0 1 0 2.4 0 1.2 1.2 0 1 0 -2.4 0 Z" fill="#404040" stroke="none" stroke-width="0.75" />
<path d="M 44.0 149.25 L 52.0 149.25 L 52.0 156.75 L 44.0 156.75 L 44.0 149.25 Z" fill="#ffffff" stroke="none" stroke-width="0.75" />
<text x='44.0' y='156.75' font-family="Default" font-size="10.0" fill="#404040" >1/1</text>
<path d="M 45.52 55.232 C 45.52 56.456 46.715202 57.68 47.896 57.68 C 51.496002 57.68 55.096 55.232 55.096 52.856 C 55.096 51.6752 53.872 50.48 52.72 50.48 C 49.12 50.48 45.52 52.856 45.52 55.232 Z" fill="#404040" stroke="none" stroke-width="1.0" />
<path d="M 58.0 54.0 M 56.8 54.0 a 1.2 1.2 0 1 0 2.4 0 1.2 1.2 0 1 0 -2.4 0 Z" fill="#404040" stroke="none" stroke-width="0.75" />
<path d="M 44.0 159.25 L 52.0 159.25 L 52.0 166.75 L 44.0 166.75 L 44.0 159.25 Z" fill="#ffffff" stroke="none" stroke-width="0.75" />
<text x='44.0' y='166.75' font-family="Default" font-size="10.0" fill="#404040" >0/0</text>
<path d="M 45.52 63.232 C 45.52 64.456 46.715202 65.68 47.896 65.68 C 51.496002 65.68 55.096 63.232 55.096 60.856 C 55.096 59.6752 53.872 58.48 52.72 58.48 C 49.12 58.48 45.52 60.856 45.52 63.232 Z" fill="#404040" stroke="none" stroke-width="1.0" />
<path d="M 58.0 62.0 M 56.8 62.0 a 1.2 1.2 0 1 0 2.4 0 1.2 1.2 0 1 0 -2.4 0 Z" fill="#404040" stroke="none" stroke-width="0.75" />
<path d="M 44.0 169.25 L 52.0 169.25 L 52.0 176.75 L 44.0 176.75 L 44.0 169.25 Z" fill="#ffffff" stroke="none" stroke-width="0.75" />
<text x='44.0' y='176.75' font-family="Default" font-size="10.0" fill="#404040" >2/2</text>
<path d="M 45.52 71.232 C 45.52 72.456 46.715202 73.68 47.896 73.68 C 51.496002 73.68 55.096 71.232 55.096 68.856 C 55.096 67.6752 53.872 66.48 52.72 66.48 C 49.12 66.48 45.52 68.856 45.52 71.232 Z" fill="#404040" stroke="none" stroke-width="1.0" />
<path d="M 58.0 70.0 M 56.8 70.0 a 1.2 1.2 0 1 0 2.4 0 1.2 1.2 0 1 0 -2.4 0 Z" fill="#404040" stroke="none" stroke-width="0.75" />
<path d="M 44.0 179.25 L 52.0 179.25 L 52.0 186.75 L 44.0 186.75 L 44.0 179.25 Z" fill="#ffffff" stroke="none" stroke-width="0.75" />
<text x='44.0' y='186.75' font-family="Default" font-size="10.0" fill="#404040" >3/3</text>
<path d="M 45.5 34.96 L 46.5 34.96 L 46.5 101.0 L 45.5 101.0 M 45.5 34.96 Z" fill="#404040" stroke="none" stroke-width="0.75" />
<path d="M 66.52 31.231998 C 66.52 32.456 67.715195 33.68 68.895996 33.68 C 72.495995 33.68 76.09599 31.231998 76.09599 28.855999 C 76.09599 27.6752 74.871994 26.48 73.71999 26.48 C 70.119995 26.48 66.52 28.855999 66.52 31.231998 Z" fill="#404040" stroke="none" stroke-width="1.0" />
<path d="M 79.0 30.0 M 77.8 30.0 a 1.2 1.2 0 1 0 2.4 0 1.2 1.2 0 1 0 -2.4 0 Z" fill="#404040" stroke="none" stroke-width="0.75" />
<path d="M 65.0 139.25 L 73.0 139.25 L 73.0 146.75 L 65.0 146.75 L 65.0 139.25 Z" fill="#ffffff" stroke="none" stroke-width="0.75" />
<text x='65.0' y='146.75' font-family="Default" font-size="10.0" fill="#404040" >2/3</text>
<path d="M 66.52 43.232 C 66.52 44.456 67.715195 45.68 68.895996 45.68 C 72.495995 45.68 76.09599 43.232 76.09599 40.856 C 76.09599 39.6752 74.871994 38.48 73.71999 38.48 C 70.119995 38.48 66.52 40.856 66.52 43.232 Z" fill="#404040" stroke="none" stroke-width="1.0" />
<path d="M 79.0 42.0 M 77.8 42.0 a 1.2 1.2 0 1 0 2.4 0 1.2 1.2 0 1 0 -2.4 0 Z" fill="#404040" stroke="none" stroke-width="0.75" />
<path d="M 65.0 149.25 L 73.0 149.25 L 73.0 156.75 L 65.0 156.75 L 65.0 149.25 Z" fill="#ffffff" stroke="none" stroke-width="0.75" />
<text x='65.0' y='156.75' font-family="Default" font-size="10.0" fill="#404040" >1/1</text>
<path d="M 66.52 51.232 C 66.52 52.456 67.715195 53.68 68.895996 53.68 C 72.495995 53.68 76.09599 51.232 76.09599 48.856 C 76.09599 47.6752 74.871994 46.48 73.71999 46.48 C 70.119995 46.48 66.52 48.856 66.52 51.232 Z" fill="#404040" stroke="none" stroke-width="1.0" />
<path d="M 79.0 50.0 M 77.8 50.0 a 1.2 1.2 0 1 0 2.4 0 1.2 1.2 0 1 0 -2.4 0 Z" fill="#404040" stroke="none" stroke-width="0.75" />
<path d="M 65.0 159.25 L 73.0 159.25 L 73.0 166.75 L 65.0 166.75 L 65.0 159.25 Z" fill="#ffffff" stroke="none" stroke-width="0.75" />
<text x='65.0' y='166.75' font-family="Default" font-size="10.0" fill="#404040" >2/2</text>
<path d="M 66.52 67.232 C 66.52 68.456 67.715195 69.68 68.895996 69.68 C 72.495995 69.68 76.09599 67.232 76.09599 64.856 C 76.09599 63.6752 74.871994 62.48 73.71999 62.48 C 70.119995 62.48 66.52 64.856 66.52 67.232 Z" fill="#404040" stroke="none" stroke-width="1.0" />
<path d="M 79.0 66.0 M 77.8 66.0 a 1.2 1.2 0 1 0 2.4 0 1.2 1.2 0 1 0 -2.4 0 Z" fill="#404040" stroke="none" stroke-width="0.75" />
<path d="M 65.0 169.25 L 73.0 169.25 L 73.0 176.75 L 65.0 176.75 L 65.0 169.25 Z" fill="#ffffff" stroke="none" stroke-width="0.75" />
<text x='65.0' y='176.75' font-family="Default" font-size="10.0" fill="#404040" >0/0</text>
<path d="M 66.5 30.96 L 67.5 30.96 L 67.5 97.0 L 66.5 97.0 M 66.5 30.96 Z" fill="#404040" stroke="none" stroke-width="0.75" /></g>
<text x='202.0' y='498.0' font-family="Default" font-size="10.0" fill="#ff0000" >9</text>
<path d="M 201.0 500.0 L 201.0 532.0 Z" fill="#000000" stroke="#000000" stroke-width="0.75" />
<path d="M 298.0 500.0 L 299.0 500.0 L 299.0 532.0 L 298.0 532.0 L 298.0 500.0 Z" fill="#000000" stroke="#000000" stroke-width="0.75" />
<path d="M 301.0 500.0 L 304.0 500.0 L 304.0 532.0 L 301.0 532.0 L 301.0 500.0 Z" fill="#000000" stroke="#000000" stroke-width="0.75" />
<path d="M 201.0 613.0 L 201.0 663.0 Z" fill="#000000" stroke="#000000" stroke-width="0.75" />
<path d="M 298.0 613.0 L 299.0 613.0 L 299.0 663.0 L 298.0 663.0 L 298.0 613.0 Z" fill="#000000" stroke="#000000" stroke-width="0.75" />
<path d="M 301.0 613.0 L 304.0 613.0 L 304.0 663.0 L 301.0 663.0 L 301.0 613.0 Z" fill="#000000" stroke="#000000" stroke-width="0.75" />

</svg>