<svg width="960.0px" height="221.0px" xmlns="http://www.w3.org/2000/svg" version="1.1">

<path d="M 0.0 0.0 L 960.0 0.0 L 960.0 221.0 L 0.0 221.0 L 0.0 0.0 Z" fill="#ffffff" stroke="none" stroke-width="1.0" /><g transform="translate(20.0,20.0)">
<path d="M 0.0 0.0 L 351.0 0.0 L 351.0 190.0 L 0.0 190.0 L 0.0 0.0 Z" fill="#ffffff" stroke="none" stroke-width="1.0" />
<path d="M 0.0 34.0 L 351.0 34.0 M 0.0 42.0 L 351.0 42.0 M 0.0 50.0 L 351.0 50.0 M 0.0 58.0 L 351.0 58.0 M 0.0 66.0 L 351.0 66.0 Z" fill="none" stroke="#d6d6d6" stroke-width="0.75" />
<path d="M 0.0 119.0 L 351.0 119.0 M 0.0 129.0 L 351.0 129.0 M 0.0 139.0 L 351.0 139.0 M 0.0 149.0 L 351.0 149.0 M 0.0 159.0 L 351.0 159.0 M 0.0 169.0 L 351.0 169.0 Z" fill="none" stroke="#d6d6d6" stroke-width="0.75" />
<path d="M 67.040855 41.3249 C 66.31129 41.3249 65.84436 41.61673 65.66926 42.20039 C 65.523346 42.667316 65.46498 43.39689 65.46498 44.359924 L 65.46498 45.23541 C 65.46498 46.198444 65.523346 46.928017 65.66926 47.394943 C 65.84436 47.9786 66.31129 48.270428 67.040855 48.270428 C 67.88716 48.270428 68.38327 47.920235 68.58755 47.249027 C 68.79183 46.57782 68.87938 45.7607 68.87938 44.797665 C 68.87938 43.630352 68.76265 42.754864 68.558365 42.20039 C 68.324905 41.616734 67.8288 41.324905 67.040855 41.324905 M 65.46498 41.033073 C 66.107 40.770428 66.63229 40.653698 67.040855 40.62451 C 68.61673 40.62451 69.842415 40.97471 70.77627 41.6751 C 71.65175 42.37549 72.118675 43.42607 72.118675 44.768482 C 72.118675 46.140076 71.65175 47.190662 70.747086 47.920235 C 69.842415 48.62062 68.58755 48.970818 67.040855 48.970818 C 65.4358 48.970818 64.21012 48.241245 63.30545 46.75292 C 62.40078 45.26459 61.963036 43.51362 61.963036 41.5 C 61.963036 41.5 62.488327 37.76459 63.538914 36.24708 C 64.58949 34.787937 65.96109 34.029182 67.6537 34.029182 C 68.76265 34.029182 69.725685 34.32101 70.5428 34.87549 C 71.359924 35.429962 71.768486 36.188717 71.768486 37.093384 C 71.768486 37.64786 71.59338 38.114784 71.18483 38.494164 C 70.83463 38.873543 70.36771 39.07782 69.842415 39.07782 C 69.28794 39.07782 68.821014 38.873543 68.441635 38.494164 C 68.062256 38.114784 67.85798 37.64786 67.85798 37.093384 C 67.85798 36.859924 68.062256 36.62646 68.441635 36.363815 C 68.821014 36.130352 69.02529 35.89689 69.02529 35.634243 C 69.02529 35.371597 68.87938 35.138134 68.61673 34.963036 C 68.324905 34.81712 68.00389 34.729572 67.653694 34.729572 C 66.74903 34.729572 66.16537 35.079765 65.87354 35.809338 C 65.55253 36.53891 65.40662 37.56031 65.40662 38.873543 C 65.40662 39.107002 65.40662 39.4572 65.4358 39.95331 C 65.46498 40.449417 65.46498 40.79961 65.46498 41.033073 Z" fill="#000000" stroke="none" stroke-width="0.75" />
<path d="M 67.77043 51.40856 C 68.324905 51.40856 68.821014 51.350193 69.25876 51.20428 C 69.6965 51.058365 69.959145 51.0 70.04669 51.0 C 70.192604 51.0 70.28015 51.029182 70.36771 51.11673 C 70.42607 51.1751 70.45525 51.233463 70.484436 51.32101 C 70.484436 51.37938 70.45525 51.437744 70.42607 51.49611 L 61.933853 61.35992 L 66.924126 61.35992 L 66.924126 57.449417 C 66.924126 57.18677 67.01167 56.95331 67.1284 56.807392 C 67.3035 56.661476 67.4786 56.515564 67.71206 56.4572 C 67.97471 56.340466 68.26653 56.07782 68.64591 55.640076 C 68.937744 55.319065 69.317116 54.706226 69.75486 53.801556 C 69.81323 53.684826 69.90078 53.626457 70.01751 53.626457 C 70.28015 53.626457 70.39688 53.772373 70.42607 54.03502 L 70.42607 61.35992 L 72.55642 61.35992 C 72.84825 61.35992 72.99416 61.505836 73.023346 61.797665 C 73.023346 62.089493 72.877426 62.235405 72.55642 62.235405 L 70.42607 62.235405 L 70.42607 62.468872 C 70.42607 63.28599 70.63035 63.928013 71.00973 64.45331 C 71.44747 64.9786 71.97276 65.270424 72.5856 65.270424 C 72.81906 65.270424 72.9358 65.38716 72.9358 65.62062 C 72.9358 65.85408 72.81906 65.97082 72.5856 65.97082 C 72.14786 65.97082 71.50584 65.91245 70.601166 65.795715 C 69.696495 65.6498 69.054474 65.59144 68.64591 65.59144 C 68.23735 65.59144 67.56615 65.6498 66.69066 65.795715 C 65.81517 65.91245 65.17315 65.97082 64.735405 65.97082 C 64.501945 65.97082 64.385216 65.85408 64.385216 65.62062 C 64.385216 65.38716 64.501945 65.270424 64.735405 65.270424 C 65.34825 65.270424 65.87354 64.9786 66.31128 64.45331 C 66.71984 63.89883 66.924126 63.25681 66.924126 62.468872 L 66.924126 62.235405 L 61.933853 62.235405 C 61.61284 62.235405 61.379375 62.17704 61.233463 62.001945 C 61.087547 61.885212 61.0 61.710114 61.0 61.53502 C 61.0 61.476654 61.145912 61.272373 61.437744 60.92218 C 61.729572 60.571983 62.079765 60.105057 62.488327 59.492218 C 62.488327 59.492218 63.305447 58.20817 63.71401 57.449417 C 63.71401 57.449417 64.47276 55.78599 64.735405 54.706226 C 65.02724 53.65564 65.17315 52.575874 65.17315 51.49611 C 65.17315 51.175095 65.31907 51.029182 65.58171 51.029182 C 65.61089 51.029182 65.756805 51.058365 65.96109 51.11673 C 66.16537 51.175095 66.4572 51.233463 66.77821 51.32101 C 67.1284 51.379375 67.44942 51.408558 67.77043 51.408558 Z" fill="#000000" stroke="none" stroke-width="0.75" />
<path d="M 22.764973 26.115383 C 22.921913 26.036913 22.948072 26.036913 23.105015 26.036913 C 23.314268 26.06307 23.445057 26.14154 23.73278 26.455425 C 25.616081 28.39104 27.185501 31.843758 27.577856 34.773342 C 27.630169 35.244167 27.630169 36.34276 27.577856 36.839737 C 27.29013 39.533905 26.165377 41.99266 23.57584 45.52385 L 23.209644 46.020832 L 23.418898 46.62244 C 23.915882 48.061073 24.491331 49.81359 24.85753 51.095284 C 24.96216 51.409164 25.04063 51.67074 25.04063 51.696896 C 25.04063 51.696896 25.223728 51.696896 25.406826 51.723053 C 26.322319 51.80152 27.10703 52.01078 27.917896 52.40313 C 28.57182 52.74317 29.147274 53.13552 29.696568 53.658665 C 30.29818 54.260277 30.690535 54.80957 31.05673 55.568123 C 31.606026 56.666718 31.84144 57.81762 31.81528 58.96853 C 31.789125 59.700924 31.684496 60.25022 31.449085 60.930305 C 31.1352 61.924263 30.559748 62.83976 29.77504 63.62447 C 29.094955 64.30455 28.46719 64.72306 27.630169 65.0631 L 27.316284 65.193886 L 27.316284 66.13554 C 27.316284 67.46954 27.237814 69.038956 27.133184 69.980606 C 27.02856 70.94841 26.766989 71.86391 26.348476 72.700935 C 25.249886 74.92427 23.314268 76.10133 21.143244 75.89209 C 18.684484 75.65667 16.69656 73.98262 16.199577 71.73312 C 15.964161 70.713 16.068794 69.9283 16.487303 69.27437 C 17.036598 68.411194 18.082878 67.914215 19.102997 67.94037 C 20.30622 67.99268 21.274027 68.934326 21.457123 70.24218 C 21.58791 71.28845 21.143244 72.25626 20.30622 72.7794 C 19.835394 73.06713 19.181469 73.197914 18.684484 73.119446 C 18.606018 73.119446 18.527544 73.093285 18.527544 73.119446 L 18.84143 73.43333 C 19.416882 74.00878 20.070807 74.374985 20.907831 74.558075 C 21.090927 74.584236 21.247868 74.584236 21.666382 74.584236 C 22.137207 74.584236 22.189518 74.584236 22.451088 74.53192 C 22.81729 74.42729 23.131172 74.29651 23.418898 74.139565 C 24.726748 73.35486 25.616081 71.73312 25.851494 69.77136 C 25.929964 69.038956 26.008434 67.46954 26.008434 66.318634 C 26.008434 65.56009 26.008434 65.50777 25.956123 65.50777 C 25.851494 65.56009 25.302197 65.6124 24.909843 65.63855 C 24.41286 65.66471 23.57584 65.66471 23.183485 65.6124 C 21.640223 65.4293 20.227747 64.90616 18.998373 64.04298 C 17.167385 62.761288 15.859535 60.851826 15.31024 58.654644 C 14.604002 55.908165 15.100986 52.978584 16.827343 49.89206 C 17.55974 48.610374 18.265978 47.564095 20.018494 45.236122 L 21.012455 43.902122 L 20.829355 43.405136 C 19.573822 40.083202 19.15531 38.173744 19.024527 35.401108 C 18.972214 34.197887 19.024527 33.17776 19.181469 32.34074 C 19.573822 30.143559 20.593945 28.181787 22.189518 26.612366 C 22.503403 26.298483 22.63419 26.193855 22.764973 26.115383 M 24.831371 30.588224 C 24.569805 30.143559 24.622118 30.169712 24.386707 30.326658 C 23.65431 30.771324 22.89576 31.451405 22.34646 32.131485 C 21.221714 33.57012 20.593945 35.244167 20.515476 37.048996 C 20.489319 37.78139 20.56779 38.252216 20.907831 39.37696 C 21.169397 40.292458 21.901793 42.5158 21.95411 42.56811 C 21.95411 42.59427 22.111048 42.411175 22.26799 42.17576 C 24.072823 39.58622 25.04063 37.467506 25.406826 35.348793 C 25.485298 34.799496 25.53761 34.354828 25.563768 33.727062 C 25.589928 32.28843 25.432985 31.582191 24.831371 30.588224 M 22.581877 48.191864 C 22.424934 47.694878 22.26799 47.302525 22.26799 47.302525 C 22.241835 47.302525 21.143244 48.76731 20.672415 49.421238 C 19.129156 51.592266 18.187506 53.34478 17.638206 55.071136 C 17.27201 56.143574 17.115068 57.137543 17.062756 58.236134 C 17.062756 58.837746 17.088915 59.20394 17.193539 59.64861 C 17.795153 61.976578 20.280064 63.886036 23.209644 64.30455 C 23.65431 64.35686 24.909843 64.35686 25.459139 64.30455 C 26.008434 64.226074 25.956123 64.252235 25.929964 64.01682 C 25.773026 61.53191 25.563768 60.014805 25.14526 57.765305 C 24.988314 56.823658 24.543648 54.835728 24.517488 54.80957 C 24.491331 54.783417 23.99435 54.835728 23.706627 54.9142 C 23.340427 54.99267 23.105015 55.071136 22.79113 55.22808 C 21.090927 56.091263 20.593945 58.053036 21.666382 59.64861 C 21.849482 59.91018 22.320305 60.381004 22.608032 60.564102 C 22.71266 60.642574 22.948072 60.799515 23.105015 60.877987 C 23.340427 61.00877 23.392738 61.061085 23.445057 61.165714 C 23.65431 61.505756 23.523525 61.924263 23.131172 62.107365 C 22.921913 62.21199 22.764973 62.185837 22.34646 61.976578 C 21.326344 61.4796 20.56779 60.799515 20.018494 59.962494 C 18.998373 58.393074 18.867586 56.37899 19.70461 54.678787 C 20.437006 53.213997 21.744852 52.22003 23.418898 51.853836 C 23.57584 51.80152 23.706627 51.775368 23.706627 51.775368 C 23.73278 51.749207 23.000385 49.368923 22.581877 48.191864 M 26.139221 54.94036 C 26.060753 54.94036 25.98228 54.9142 25.956123 54.9142 L 25.877651 54.88804 L 26.008434 55.43734 C 26.610046 58.07919 27.054714 60.956455 27.211655 63.389057 C 27.237814 63.650627 27.237814 63.859882 27.237814 63.859882 C 27.263973 63.859882 27.60401 63.70294 27.78711 63.572155 C 28.231777 63.31058 28.65029 62.91823 28.99033 62.47356 C 29.801197 61.401123 30.08892 60.06712 29.77504 58.706955 C 29.539627 57.608364 28.911861 56.58824 28.022522 55.882008 C 27.473227 55.463493 26.740831 55.097298 26.139221 54.94036 Z" fill="#000000" stroke="none" stroke-width="0.75" />
<path d="M 95.52 35.232 C 95.52 36.456 96.715195 37.68 97.895996 37.68 C 101.495995 37.68 105.09599 35.232 105.09599 32.856 C 105.09599 31.6752 103.871994 30.48 102.71999 30.48 C 99.119995 30.48 95.52 32.856 95.52 35.232 Z" fill="#404040" stroke="none" stroke-width="1.0" />
<path d="M 94.0 115.25 L 102.0 115.25 L 102.0 122.75 L 94.0 122.75 L 94.0 115.25 Z" fill="#ffffff" stroke="none" stroke-width="1.0" />
<text x='94.0' y='122.75' font-family="Default" font-size="10.0" fill="#404040" >1</text>
<path d="M 95.5 34.96 L 96.5 34.96 L 96.5 65.0 L 95.5 65.0 M 95.5 34.96 Z" fill="#404040" stroke="none" stroke-width="0.75" />
<path d="M 95.5 63.0 L 95.5 67.0 L 116.5 67.0 L 116.5 63.0 L 95.5 63.0 Z" fill="#404040" stroke="none" stroke-width="0.75" />
<path d="M 115.52 35.232 C 115.52 36.456 116.715195 37.68 117.895996 37.68 C 121.495995 37.68 125.09599 35.232 125.09599 32.856 C 125.09599 31.6752 123.871994 30.48 122.71999 30.48 C 119.119995 30.48 115.52 32.856 115.52 35.232 Z" fill="#404040" stroke="none" stroke-width="1.0" />
<path d="M 114.0 115.25 L 122.0 115.25 L 122.0 122.75 L 114.0 122.75 L 114.0 115.25 Z" fill="#ffffff" stroke="none" stroke-width="1.0" />
<text x='114.0' y='122.75' font-family="Default" font-size="10.0" fill="#404040" >1</text>
<path d="M 115.5 34.96 L 116.5 34.96 L 116.5 65.0 L 115.5 65.0 M 115.5 34.96 Z" fill="#404040" stroke="none" stroke-width="0.75" />
<path d="M 135.52 35.232 C 135.52 36.456 136.71521 37.68 137.89601 37.68 C 141.496 37.68 145.09601 35.232 145.09601 32.856 C 145.09601 31.6752 143.87201 30.48 142.72 30.48 C 139.12001 30.48 135.52 32.856 135.52 35.232 Z" fill="#404040" stroke="none" stroke-width="1.0" />
<path d="M 134.0 115.25 L 142.0 115.25 L 142.0 122.75 L 134.0 122.75 L 134.0 115.25 Z" fill="#ffffff" stroke="none" stroke-width="1.0" />
<text x='134.0' y='122.75' font-family="Default" font-size="10.0" fill="#404040" >1</text>
<path d="M 135.5 34.96 L 136.5 34.96 L 136.5 67.0 L 135.5 67.0 M 135.5 34.96 Z" fill="#404040" stroke="none" stroke-width="0.75" />
<path d="M 135.5 65.0 L 135.5 69.0 L 156.5 79.0 L 156.5 75.0 L 135.5 65.0 Z" fill="#404040" stroke="none" stroke-width="0.75" />
<path d="M 155.52 47.232 C 155.52 48.456 156.71521 49.68 157.89601 49.68 C 161.496 49.68 165.09601 47.232 165.09601 44.856 C 165.09601 43.6752 163.87201 42.48 162.72 42.48 C 159.12001 42.48 155.52 44.856 155.52 47.232 Z" fill="#404040" stroke="none" stroke-width="1.0" />
<path d="M 154.0 125.25 L 162.0 125.25 L 162.0 132.75 L 154.0 132.75 L 154.0 125.25 Z" fill="#ffffff" stroke="none" stroke-width="1.0" />
<text x='154.0' y='132.75' font-family="Default" font-size="10.0" fill="#404040" >1</text>
<path d="M 155.5 46.96 L 156.5 46.96 L 156.5 77.0 L 155.5 77.0 M 155.5 46.96 Z" fill="#404040" stroke="none" stroke-width="0.75" />
<path d="M 175.52 47.232 C 175.52 48.456 176.71521 49.68 177.89601 49.68 C 181.496 49.68 185.09601 47.232 185.09601 44.856 C 185.09601 43.6752 183.87201 42.48 182.72 42.48 C 179.12001 42.48 175.52 44.856 175.52 47.232 Z" fill="#404040" stroke="none" stroke-width="1.0" />
<path d="M 174.0 125.25 L 182.0 125.25 L 182.0 132.75 L 174.0 132.75 L 174.0 125.25 Z" fill="#ffffff" stroke="none" stroke-width="1.0" />
<text x='174.0' y='132.75' font-family="Default" font-size="10.0" fill="#404040" >1</text>
<path d="M 175.5 46.96 L 176.5 46.96 L 176.5 77.0 L 175.5 77.0 M 175.5 46.96 Z" fill="#404040" stroke="none" stroke-width="0.75" />
<path d="M 175.5 75.0 L 175.5 79.0 L 196.5 79.0 L 196.5 75.0 L 175.5 75.0 Z" fill="#404040" stroke="none" stroke-width="0.75" />
<path d="M 195.52 47.232 C 195.52 48.456 196.71521 49.68 197.89601 49.68 C 201.496 49.68 205.09601 47.232 205.09601 44.856 C 205.09601 43.6752 203.87201 42.48 202.72 42.48 C 199.12001 42.48 195.52 44.856 195.52 47.232 Z" fill="#404040" stroke="none" stroke-width="1.0" />
<path d="M 194.0 125.25 L 202.0 125.25 L 202.0 132.75 L 194.0 132.75 L 194.0 125.25 Z" fill="#ffffff" stroke="none" stroke-width="1.0" />
<text x='194.0' y='132.75' font-family="Default" font-size="10.0" fill="#404040" >1</text>
<path d="M 195.5 46.96 L 196.5 46.96 L 196.5 77.0 L 195.5 77.0 M 195.5 46.96 Z" fill="#404040" stroke="none" stroke-width="0.75" />
<path d="M 213.46439 51.63119 C 213.59135 51.55864 213.79088 51.613052 213.86343 51.7763 C 213.8997 51.84885 213.8997 51.903263 213.8997 53.172935 C 213.8997 53.916603 213.8997 54.515163 213.91785 54.515163 C 213.91785 54.515163 214.08109 54.442608 214.28061 54.370056 C 214.69778 54.206814 214.7522 54.188675 214.86104 54.279366 C 214.988 54.370056 214.988 54.388195 214.988 55.113724 C 214.988 55.73042 214.988 55.784836 214.95172 55.83925 C 214.93358 55.875526 214.89731 55.911804 214.87917 55.92994 C 214.8429 55.94808 214.62524 56.056908 214.3713 56.1476 L 213.91785 56.34712 L 213.8997 57.81631 C 213.8997 58.61439 213.8997 59.285503 213.91785 59.285503 C 213.91785 59.285503 214.08109 59.21295 214.28061 59.1404 C 214.69778 58.977154 214.7522 58.95902 214.86104 59.04971 C 214.988 59.1404 214.988 59.15854 214.988 59.884064 C 214.988 60.500763 214.988 60.555176 214.95172 60.609592 C 214.93358 60.64587 214.89731 60.682144 214.87917 60.700283 C 214.8429 60.718422 214.62524 60.82725 214.3713 60.917942 L 213.91785 61.117462 L 213.8997 62.641068 C 213.8997 64.01957 213.88158 64.182816 213.86343 64.23723 C 213.73647 64.45489 213.42812 64.45489 213.30115 64.23723 C 213.283 64.182816 213.26488 64.037704 213.26488 62.768036 L 213.26488 61.371395 L 212.48492 61.679745 L 211.72313 61.988094 L 211.72313 63.457287 C 211.72313 65.01717 211.72313 64.980896 211.63243 65.07159 C 211.59616 65.126 211.4692 65.18041 211.41478 65.18041 C 211.34222 65.18041 211.21526 65.126 211.17899 65.07159 C 211.08829 64.980896 211.08829 65.01717 211.08829 63.60239 C 211.08829 62.858727 211.08829 62.260166 211.07016 62.260166 C 211.07016 62.260166 210.9069 62.332718 210.70738 62.405273 C 210.2902 62.568516 210.2358 62.586655 210.12697 62.495964 C 210.0 62.405273 210.0 62.387135 210.0 61.661606 C 210.0 61.044907 210.0 60.990494 210.03627 60.936077 C 210.05441 60.899803 210.0907 60.863525 210.10883 60.845387 C 210.14511 60.82725 210.36276 60.718422 210.6167 60.62773 L 211.08829 60.42821 L 211.08829 58.95902 C 211.08829 58.16094 211.08829 57.489826 211.07016 57.489826 C 211.07016 57.489826 210.9069 57.562378 210.70738 57.63493 C 210.2902 57.798172 210.2358 57.81631 210.12697 57.72562 C 210.0 57.63493 210.0 57.61679 210.0 56.891266 C 210.0 56.274567 210.0 56.22015 210.03627 56.165737 C 210.05441 56.12946 210.0907 56.093185 210.10883 56.075047 C 210.14511 56.056908 210.36276 55.94808 210.6167 55.857388 L 211.08829 55.657867 L 211.08829 54.134262 C 211.08829 52.75576 211.10643 52.592514 211.12457 52.5381 C 211.25154 52.320442 211.55989 52.320442 211.68684 52.5381 C 211.70499 52.592514 211.72313 52.73762 211.72313 54.007294 L 211.74127 55.403934 L 212.50307 55.095585 L 213.26488 54.787235 L 213.26488 53.318043 C 213.26488 51.93954 213.26488 51.84885 213.30115 51.7763 C 213.33743 51.703743 213.3737 51.667465 213.46439 51.63119 M 213.26488 58.070248 L 213.26488 56.601055 L 212.48492 56.9094 L 211.72313 57.21775 L 211.72313 58.705082 L 211.72313 60.174274 L 211.77754 60.156136 C 211.81381 60.138 212.15845 59.992893 212.55748 59.84779 L 213.26488 59.55758 L 213.26488 58.070248 Z" fill="#404040" stroke="none" stroke-width="0.75" />
<path d="M 215.52 59.232 C 215.52 60.456 216.71521 61.68 217.89601 61.68 C 221.496 61.68 225.09601 59.232 225.09601 56.856 C 225.09601 55.6752 223.87201 54.48 222.72 54.48 C 219.12001 54.48 215.52 56.856 215.52 59.232 Z" fill="#404040" stroke="none" stroke-width="1.0" />
<path d="M 214.0 135.25 L 222.0 135.25 L 222.0 142.75 L 214.0 142.75 L 214.0 135.25 Z" fill="#ffffff" stroke="none" stroke-width="1.0" />
<text x='214.0' y='142.75' font-family="Default" font-size="10.0" fill="#404040" >1</text>
<path d="M 215.5 58.96 L 216.5 58.96 L 216.5 89.0 L 215.5 89.0 M 215.5 58.96 Z" fill="#404040" stroke="none" stroke-width="0.75" />
<path d="M 215.5 87.0 L 215.5 91.0 L 236.5 91.0 L 236.5 87.0 L 215.5 87.0 Z" fill="#404040" stroke="none" stroke-width="0.75" />
<path d="M 235.52 59.232 C 235.52 60.456 236.71521 61.68 237.89601 61.68 C 241.496 61.68 245.09601 59.232 245.09601 56.856 C 245.09601 55.6752 243.87201 54.48 242.72 54.48 C 239.12001 54.48 235.52 56.856 235.52 59.232 Z" fill="#404040" stroke="none" stroke-width="1.0" />
<path d="M 234.0 135.25 L 242.0 135.25 L 242.0 142.75 L 234.0 142.75 L 234.0 135.25 Z" fill="#ffffff" stroke="none" stroke-width="1.0" />
<text x='234.0' y='142.75' font-family="Default" font-size="10.0" fill="#404040" >1</text>
<path d="M 235.5 58.96 L 236.5 58.96 L 236.5 89.0 L 235.5 89.0 M 235.5 58.96 Z" fill="#404040" stroke="none" stroke-width="0.75" />
<path d="M 255.52 59.232 C 255.52 60.456 256.7152 61.68 257.896 61.68 C 261.496 61.68 265.096 59.232 265.096 56.856 C 265.096 55.6752 263.872 54.48 262.72 54.48 C 259.12 54.48 255.52 56.856 255.52 59.232 Z" fill="#404040" stroke="none" stroke-width="1.0" />
<path d="M 254.0 135.25 L 262.0 135.25 L 262.0 142.75 L 254.0 142.75 L 254.0 135.25 Z" fill="#ffffff" stroke="none" stroke-width="1.0" />
<text x='254.0' y='142.75' font-family="Default" font-size="10.0" fill="#404040" >1</text>
<path d="M 264.18 57.04 L 265.18 57.04 L 265.18 26.0 L 264.18 26.0 M 264.18 57.04 Z" fill="#404040" stroke="none" stroke-width="0.75" />
<path d="M 264.18 24.0 L 264.18 28.0 L 285.18 38.0 L 285.18 34.0 L 264.18 24.0 Z" fill="#404040" stroke="none" stroke-width="0.75" />
<path d="M 273.4644 63.63119 C 273.59137 63.55864 273.7909 63.613052 273.86343 63.7763 C 273.89972 63.84885 273.89972 63.903263 273.89972 65.172935 C 273.89972 65.9166 273.89972 66.51516 273.91785 66.51516 C 273.91785 66.51516 274.0811 66.44261 274.2806 66.370056 C 274.69778 66.20681 274.7522 66.188675 274.86102 66.279366 C 274.988 66.370056 274.988 66.38819 274.988 67.11372 C 274.988 67.73042 274.988 67.784836 274.95172 67.83925 C 274.9336 67.87553 274.8973 67.911804 274.87918 67.92994 C 274.8429 67.94808 274.62524 68.05691 274.3713 68.1476 L 273.91785 68.34712 L 273.89972 69.816315 C 273.89972 70.614395 273.89972 71.28551 273.91785 71.28551 C 273.91785 71.28551 274.0811 71.21295 274.2806 71.140396 C 274.69778 70.97716 274.7522 70.959015 274.86102 71.049706 C 274.988 71.140396 274.988 71.15854 274.988 71.88406 C 274.988 72.50076 274.988 72.555176 274.95172 72.60959 C 274.9336 72.64587 274.8973 72.682144 274.87918 72.70028 C 274.8429 72.71842 274.62524 72.82725 274.3713 72.91794 L 273.91785 73.11746 L 273.89972 74.64107 C 273.89972 76.01957 273.88156 76.182816 273.86343 76.23723 C 273.73648 76.45489 273.42813 76.45489 273.30115 76.23723 C 273.28302 76.182816 273.26486 76.037704 273.26486 74.768036 L 273.26486 73.3714 L 272.48492 73.67974 L 271.7231 73.98809 L 271.7231 75.45728 C 271.7231 77.01717 271.7231 76.980896 271.63245 77.07159 C 271.59616 77.126 271.4692 77.18041 271.41476 77.18041 C 271.34222 77.18041 271.21527 77.126 271.179 77.07159 C 271.0883 76.980896 271.0883 77.01717 271.0883 75.602394 C 271.0883 74.85873 271.0883 74.26017 271.07016 74.26017 C 271.07016 74.26017 270.90692 74.33272 270.7074 74.40527 C 270.29022 74.56851 270.2358 74.586655 270.12695 74.495964 C 270.0 74.40527 270.0 74.38713 270.0 73.661606 C 270.0 73.04491 270.0 72.99049 270.0363 72.93608 C 270.0544 72.8998 270.0907 72.863525 270.10883 72.84539 C 270.1451 72.82725 270.36276 72.71842 270.6167 72.62773 L 271.0883 72.42821 L 271.0883 70.959015 C 271.0883 70.160934 271.0883 69.48982 271.07016 69.48982 C 271.07016 69.48982 270.90692 69.56238 270.7074 69.63493 C 270.29022 69.79817 270.2358 69.816315 270.12695 69.725624 C 270.0 69.63493 270.0 69.61679 270.0 68.891266 C 270.0 68.27457 270.0 68.22015 270.0363 68.16573 C 270.0544 68.12946 270.0907 68.093185 270.10883 68.07504 C 270.1451 68.05691 270.36276 67.94808 270.6167 67.85739 L 271.0883 67.65787 L 271.0883 66.13426 C 271.0883 64.75576 271.1064 64.592514 271.12457 64.5381 C 271.25153 64.32044 271.55988 64.32044 271.68686 64.5381 C 271.705 64.592514 271.7231 64.73762 271.7231 66.00729 L 271.74127 67.40393 L 272.50308 67.09558 L 273.26486 66.78723 L 273.26486 65.31804 C 273.26486 63.93954 273.26486 63.84885 273.30115 63.7763 C 273.33743 63.703743 273.3737 63.667465 273.4644 63.63119 M 273.26486 70.070244 L 273.26486 68.60105 L 272.48492 68.9094 L 271.7231 69.21775 L 271.7231 70.705086 L 271.7231 72.17428 L 271.77753 72.156136 C 271.8138 72.138 272.15845 71.9929 272.5575 71.847786 L 273.26486 71.55758 L 273.26486 70.070244 Z" fill="#404040" stroke="none" stroke-width="0.75" />
<path d="M 275.52 71.232 C 275.52 72.456 276.71518 73.68 277.896 73.68 C 281.496 73.68 285.09598 71.232 285.09598 68.856 C 285.09598 67.6752 283.87198 66.48 282.72 66.48 C 279.12 66.48 275.52 68.856 275.52 71.232 Z" fill="#404040" stroke="none" stroke-width="1.0" />
<path d="M 274.0 145.25 L 282.0 145.25 L 282.0 152.75 L 274.0 152.75 L 274.0 145.25 Z" fill="#ffffff" stroke="none" stroke-width="1.0" />
<text x='274.0' y='152.75' font-family="Default" font-size="10.0" fill="#404040" >1</text>
<path d="M 284.18 69.04 L 285.18 69.04 L 285.18 36.0 L 284.18 36.0 M 284.18 69.04 Z" fill="#404040" stroke="none" stroke-width="0.75" />
<path d="M 295.52 71.232 C 295.52 72.456 296.71518 73.68 297.896 73.68 C 301.496 73.68 305.09598 71.232 305.09598 68.856 C 305.09598 67.6752 303.87198 66.48 302.72 66.48 C 299.12 66.48 295.52 68.856 295.52 71.232 Z" fill="#404040" stroke="none" stroke-width="1.0" />
<path d="M 294.0 145.25 L 302.0 145.25 L 302.0 152.75 L 294.0 152.75 L 294.0 145.25 Z" fill="#ffffff" stroke="none" stroke-width="1.0" />
<text x='294.0' y='152.75' font-family="Default" font-size="10.0" fill="#404040" >1</text>
<path d="M 304.18 69.04 L 305.18 69.04 L 305.18 38.0 L 304.18 38.0 M 304.18 69.04 Z" fill="#404040" stroke="none" stroke-width="0.75" />
<path d="M 304.18 36.0 L 304.18 40.0 L 325.18 40.0 L 325.18 36.0 L 304.18 36.0 Z" fill="#404040" stroke="none" stroke-width="0.75" />
<path d="M 315.52 71.232 C 315.52 72.456 316.71518 73.68 317.896 73.68 C 321.496 73.68 325.09598 71.232 325.09598 68.856 C 325.09598 67.6752 323.87198 66.48 322.72 66.48 C 319.12 66.48 315.52 68.856 315.52 71.232 Z" fill="#404040" stroke="none" stroke-width="1.0" />
<path d="M 314.0 145.25 L 322.0 145.25 L 322.0 152.75 L 314.0 152.75 L 314.0 145.25 Z" fill="#ffffff" stroke="none" stroke-width="1.0" />
<text x='314.0' y='152.75' font-family="Default" font-size="10.0" fill="#404040" >1</text>
<path d="M 324.18 69.04 L 325.18 69.04 L 325.18 38.0 L 324.18 38.0 M 324.18 69.04 Z" fill="#404040" stroke="none" stroke-width="0.75" /></g>
<path d="M 35.35 40.3 C 35.35 41.15 36.18 42.0 37.0 42.0 C 39.5 42.0 42.0 40.3 42.0 38.65 C 42.0 37.83 41.149998 37.0 40.35 37.0 C 37.85 37.0 35.35 38.65 35.35 40.3 Z" fill="#000000" stroke="none" stroke-width="1.0" />
<path d="M 42.0 24.0 L 42.0 38.7 Z" fill="none" stroke="#000000" stroke-width="1.0" />
<text x='43.0' y='40.25' font-family="Default" font-size="10.0" fill="#000000" > = 120</text>
<text x='21.0' y='52.0' font-family="Default" font-size="10.0" fill="#ff0000" >1</text>
<path d="M 20.0 54.0 L 23.0 54.0 L 23.0 139.0 L 20.0 139.0 L 20.0 54.0 Z" fill="#000000" stroke="#000000" stroke-width="0.75" />
<path d="M 25.0 54.0 L 26.0 54.0 L 26.0 139.0 L 25.0 139.0 L 25.0 54.0 Z" fill="#000000" stroke="#000000" stroke-width="0.75" />
<path d="M 371.0 54.0 L 371.0 86.0 Z" fill="#000000" stroke="#000000" stroke-width="0.75" />
<path d="M 20.0 139.0 L 23.0 139.0 L 23.0 189.0 L 20.0 189.0 L 20.0 139.0 Z" fill="#000000" stroke="#000000" stroke-width="0.75" />
<path d="M 25.0 139.0 L 26.0 139.0 L 26.0 189.0 L 25.0 189.0 L 25.0 139.0 Z" fill="#000000" stroke="#000000" stroke-width="0.75" />
<path d="M 371.0 139.0 L 371.0 189.0 Z" fill="#000000" stroke="#000000" stroke-width="0.75" /><g transform="translate(371.0,20.0)">
<path d="M 0.0 0.0 L 280.0 0.0 L 280.0 190.0 L 0.0 190.0 L 0.0 0.0 Z" fill="#ffffff" stroke="none" stroke-width="1.0" />
<path d="M 0.0 34.0 L 280.0 34.0 M 0.0 42.0 L 280.0 42.0 M 0.0 50.0 L 280.0 50.0 M 0.0 58.0 L 280.0 58.0 M 0.0 66.0 L 280.0 66.0 Z" fill="none" stroke="#d6d6d6" stroke-width="0.75" />
<path d="M 0.0 119.0 L 280.0 119.0 M 0.0 129.0 L 280.0 129.0 M 0.0 139.0 L 280.0 139.0 M 0.0 149.0 L 280.0 149.0 M 0.0 159.0 L 280.0 159.0 M 0.0 169.0 L 280.0 169.0 Z" fill="none" stroke="#d6d6d6" stroke-width="0.75" />
<path d="M 22.464394 27.631191 C 22.59136 27.558638 22.79088 27.613052 22.863434 27.776297 C 22.89971 27.84885 22.89971 27.903263 22.89971 29.172935 C 22.89971 29.916603 22.89971 30.515162 22.917847 30.515162 C 22.917847 30.515162 23.08109 30.44261 23.280611 30.370056 C 23.69779 30.206814 23.752205 30.188675 23.861032 30.279366 C 23.988 30.370056 23.988 30.388195 23.988 31.113722 C 23.988 31.73042 23.988 31.784836 23.951725 31.839249 C 23.933586 31.875526 23.897308 31.911802 23.879171 31.92994 C 23.842896 31.948078 23.625237 32.056908 23.371302 32.1476 L 22.917847 32.34712 L 22.89971 33.81631 C 22.89971 34.61439 22.89971 35.285503 22.917847 35.285503 C 22.917847 35.285503 23.08109 35.21295 23.280611 35.1404 C 23.69779 34.977154 23.752205 34.95902 23.861032 35.04971 C 23.988 35.1404 23.988 35.15854 23.988 35.884064 C 23.988 36.500763 23.988 36.555176 23.951725 36.609592 C 23.933586 36.64587 23.897308 36.682144 23.879171 36.700283 C 23.842896 36.718422 23.625237 36.82725 23.371302 36.917942 L 22.917847 37.117462 L 22.89971 38.641068 C 22.89971 40.01957 22.88157 40.18281 22.863434 40.23723 C 22.736465 40.454887 22.428116 40.454887 22.30115 40.23723 C 22.283012 40.18281 22.264874 40.03771 22.264874 38.768036 L 22.264874 37.371395 L 21.484932 37.679745 L 20.723127 37.988094 L 20.723127 39.457287 C 20.723127 41.01717 20.723127 40.980892 20.632437 41.071587 C 20.59616 41.126 20.469193 41.180412 20.414778 41.180412 C 20.342226 41.180412 20.215258 41.126 20.178982 41.071587 C 20.088291 40.980892 20.088291 41.01717 20.088291 39.60239 C 20.088291 38.858727 20.088291 38.260166 20.070152 38.260166 C 20.070152 38.260166 19.90691 38.332718 19.70739 38.405273 C 19.29021 38.568516 19.235796 38.586655 19.126966 38.495964 C 19.0 38.405273 19.0 38.387135 19.0 37.661606 C 19.0 37.044907 19.0 36.990494 19.036276 36.936077 C 19.054415 36.899803 19.09069 36.863525 19.10883 36.845387 C 19.145105 36.82725 19.362764 36.718422 19.6167 36.62773 L 20.088291 36.42821 L 20.088291 34.95902 C 20.088291 34.16094 20.088291 33.489826 20.070152 33.489826 C 20.070152 33.489826 19.90691 33.562378 19.70739 33.63493 C 19.29021 33.798172 19.235796 33.81631 19.126966 33.72562 C 19.0 33.63493 19.0 33.61679 19.0 32.891266 C 19.0 32.274567 19.0 32.22015 19.036276 32.165737 C 19.054415 32.12946 19.09069 32.093185 19.10883 32.075047 C 19.145105 32.056908 19.362764 31.948078 19.6167 31.857388 L 20.088291 31.657867 L 20.088291 30.13426 C 20.088291 28.755758 20.10643 28.592514 20.124567 28.538101 C 20.251535 28.320442 20.559883 28.320442 20.686852 28.538101 C 20.704988 28.592514 20.723127 28.73762 20.723127 30.007294 L 20.741266 31.403933 L 21.503069 31.095585 L 22.264874 30.787235 L 22.264874 29.318043 C 22.264874 27.93954 22.264874 27.84885 22.30115 27.776297 C 22.337425 27.703743 22.373703 27.667467 22.464394 27.631191 M 22.264874 34.070248 L 22.264874 32.601055 L 21.484932 32.9094 L 20.723127 33.21775 L 20.723127 34.705082 L 20.723127 36.174274 L 20.777542 36.156136 C 20.813818 36.138 21.158443 35.992893 21.557484 35.84779 L 22.264874 35.55758 L 22.264874 34.070248 Z" fill="#404040" stroke="none" stroke-width="0.75" />
<path d="M 24.52 35.232 C 24.52 36.456 25.7152 37.68 26.896 37.68 C 30.496 37.68 34.096 35.232 34.096 32.856 C 34.096 31.6752 32.872 30.48 31.720001 30.48 C 28.12 30.48 24.52 32.856 24.52 35.232 Z" fill="#404040" stroke="none" stroke-width="1.0" />
<path d="M 23.0 115.25 L 31.0 115.25 L 31.0 122.75 L 23.0 122.75 L 23.0 115.25 Z" fill="#ffffff" stroke="none" stroke-width="1.0" />
<text x='23.0' y='122.75' font-family="Default" font-size="10.0" fill="#404040" >2</text>
<path d="M 24.5 34.96 L 25.5 34.96 L 25.5 65.0 L 24.5 65.0 M 24.5 34.96 Z" fill="#404040" stroke="none" stroke-width="0.75" />
<path d="M 24.5 63.0 L 24.5 67.0 L 45.5 67.0 L 45.5 63.0 L 24.5 63.0 Z" fill="#404040" stroke="none" stroke-width="0.75" />
<path d="M 44.52 35.232 C 44.52 36.456 45.715202 37.68 46.896 37.68 C 50.496002 37.68 54.096 35.232 54.096 32.856 C 54.096 31.6752 52.872 30.48 51.72 30.48 C 48.12 30.48 44.52 32.856 44.52 35.232 Z" fill="#404040" stroke="none" stroke-width="1.0" />
<path d="M 43.0 115.25 L 51.0 115.25 L 51.0 122.75 L 43.0 122.75 L 43.0 115.25 Z" fill="#ffffff" stroke="none" stroke-width="1.0" />
<text x='43.0' y='122.75' font-family="Default" font-size="10.0" fill="#404040" >2</text>
<path d="M 44.5 34.96 L 45.5 34.96 L 45.5 65.0 L 44.5 65.0 M 44.5 34.96 Z" fill="#404040" stroke="none" stroke-width="0.75" />
<path d="M 64.52 35.232 C 64.52 36.456 65.715195 37.68 66.895996 37.68 C 70.495995 37.68 74.09599 35.232 74.09599 32.856 C 74.09599 31.6752 72.871994 30.48 71.71999 30.48 C 68.119995 30.48 64.52 32.856 64.52 35.232 Z" fill="#404040" stroke="none" stroke-width="1.0" />
<path d="M 63.0 115.25 L 71.0 115.25 L 71.0 122.75 L 63.0 122.75 L 63.0 115.25 Z" fill="#ffffff" stroke="none" stroke-width="1.0" />
<text x='63.0' y='122.75' font-family="Default" font-size="10.0" fill="#404040" >2</text>
<path d="M 64.5 34.96 L 65.5 34.96 L 65.5 67.0 L 64.5 67.0 M 64.5 34.96 Z" fill="#404040" stroke="none" stroke-width="0.75" />
<path d="M 64.5 65.0 L 64.5 69.0 L 85.5 79.0 L 85.5 75.0 L 64.5 65.0 Z" fill="#404040" stroke="none" stroke-width="0.75" />
<path d="M 82.46439 39.63119 C 82.59136 39.55864 82.79088 39.613052 82.863434 39.7763 C 82.89971 39.84885 82.89971 39.903263 82.89971 41.172935 C 82.89971 41.916603 82.89971 42.515163 82.91785 42.515163 C 82.91785 42.515163 83.08109 42.442608 83.28061 42.370056 C 83.69779 42.206814 83.752205 42.188675 83.86103 42.279366 C 83.988 42.370056 83.988 42.388195 83.988 43.113724 C 83.988 43.73042 83.988 43.784836 83.95172 43.83925 C 83.933586 43.875526 83.89731 43.911804 83.87917 43.92994 C 83.842896 43.94808 83.62524 44.056908 83.3713 44.1476 L 82.91785 44.34712 L 82.89971 45.81631 C 82.89971 46.61439 82.89971 47.285503 82.91785 47.285503 C 82.91785 47.285503 83.08109 47.21295 83.28061 47.1404 C 83.69779 46.977154 83.752205 46.95902 83.86103 47.04971 C 83.988 47.1404 83.988 47.15854 83.988 47.884064 C 83.988 48.500763 83.988 48.555176 83.95172 48.609592 C 83.933586 48.64587 83.89731 48.682144 83.87917 48.700283 C 83.842896 48.718422 83.62524 48.82725 83.3713 48.917942 L 82.91785 49.117462 L 82.89971 50.641068 C 82.89971 52.01957 82.88157 52.18281 82.863434 52.23723 C 82.736465 52.454887 82.428116 52.454887 82.30115 52.23723 C 82.28301 52.18281 82.26487 52.03771 82.26487 50.768036 L 82.26487 49.371395 L 81.48493 49.679745 L 80.72313 49.988094 L 80.72313 51.457287 C 80.72313 53.01717 80.72313 52.980892 80.63244 53.071587 C 80.59616 53.126 80.46919 53.180412 80.41478 53.180412 C 80.342224 53.180412 80.215256 53.126 80.178986 53.071587 C 80.08829 52.980892 80.08829 53.01717 80.08829 51.60239 C 80.08829 50.858727 80.08829 50.260166 80.07015 50.260166 C 80.07015 50.260166 79.906906 50.332718 79.70739 50.405273 C 79.290215 50.568516 79.235794 50.586655 79.12697 50.495964 C 79.0 50.405273 79.0 50.387135 79.0 49.661606 C 79.0 49.044907 79.0 48.990494 79.03628 48.936077 C 79.05441 48.899803 79.09069 48.863525 79.108826 48.845387 C 79.1451 48.82725 79.36276 48.718422 79.6167 48.62773 L 80.08829 48.42821 L 80.08829 46.95902 C 80.08829 46.16094 80.08829 45.489826 80.07015 45.489826 C 80.07015 45.489826 79.906906 45.562378 79.70739 45.63493 C 79.290215 45.798172 79.235794 45.81631 79.12697 45.72562 C 79.0 45.63493 79.0 45.61679 79.0 44.891266 C 79.0 44.274567 79.0 44.22015 79.03628 44.165737 C 79.05441 44.12946 79.09069 44.093185 79.108826 44.075047 C 79.1451 44.056908 79.36276 43.94808 79.6167 43.857388 L 80.08829 43.657867 L 80.08829 42.134262 C 80.08829 40.75576 80.10643 40.592514 80.124565 40.5381 C 80.25153 40.320442 80.55988 40.320442 80.68685 40.5381 C 80.70499 40.592514 80.72313 40.73762 80.72313 42.007294 L 80.741264 43.403934 L 81.50307 43.095585 L 82.26487 42.787235 L 82.26487 41.318043 C 82.26487 39.93954 82.26487 39.84885 82.30115 39.7763 C 82.337425 39.703743 82.3737 39.667465 82.46439 39.63119 M 82.26487 46.070248 L 82.26487 44.601055 L 81.48493 44.9094 L 80.72313 45.21775 L 80.72313 46.705082 L 80.72313 48.174274 L 80.77754 48.156136 C 80.81382 48.138 81.15845 47.992893 81.55749 47.84779 L 82.26487 47.55758 L 82.26487 46.070248 Z" fill="#404040" stroke="none" stroke-width="0.75" />
<path d="M 84.52 47.232 C 84.52 48.456 85.715195 49.68 86.895996 49.68 C 90.495995 49.68 94.09599 47.232 94.09599 44.856 C 94.09599 43.6752 92.871994 42.48 91.71999 42.48 C 88.119995 42.48 84.52 44.856 84.52 47.232 Z" fill="#404040" stroke="none" stroke-width="1.0" />
<path d="M 83.0 125.25 L 91.0 125.25 L 91.0 132.75 L 83.0 132.75 L 83.0 125.25 Z" fill="#ffffff" stroke="none" stroke-width="1.0" />
<text x='83.0' y='132.75' font-family="Default" font-size="10.0" fill="#404040" >2</text>
<path d="M 84.5 46.96 L 85.5 46.96 L 85.5 77.0 L 84.5 77.0 M 84.5 46.96 Z" fill="#404040" stroke="none" stroke-width="0.75" />
<path d="M 104.52 47.232 C 104.52 48.456 105.715195 49.68 106.895996 49.68 C 110.495995 49.68 114.09599 47.232 114.09599 44.856 C 114.09599 43.6752 112.871994 42.48 111.71999 42.48 C 108.119995 42.48 104.52 44.856 104.52 47.232 Z" fill="#404040" stroke="none" stroke-width="1.0" />
<path d="M 103.0 125.25 L 111.0 125.25 L 111.0 132.75 L 103.0 132.75 L 103.0 125.25 Z" fill="#ffffff" stroke="none" stroke-width="1.0" />
<text x='103.0' y='132.75' font-family="Default" font-size="10.0" fill="#404040" >2</text>
<path d="M 104.5 46.96 L 105.5 46.96 L 105.5 77.0 L 104.5 77.0 M 104.5 46.96 Z" fill="#404040" stroke="none" stroke-width="0.75" />
<path d="M 104.5 75.0 L 104.5 79.0 L 125.5 79.0 L 125.5 75.0 L 104.5 75.0 Z" fill="#404040" stroke="none" stroke-width="0.75" />
<path d="M 124.52 47.232 C 124.52 48.456 125.715195 49.68 126.895996 49.68 C 130.496 49.68 134.096 47.232 134.096 44.856 C 134.096 43.6752 132.872 42.48 131.72 42.48 C 128.12 42.48 124.52 44.856 124.52 47.232 Z" fill="#404040" stroke="none" stroke-width="1.0" />
<path d="M 123.0 125.25 L 131.0 125.25 L 131.0 132.75 L 123.0 132.75 L 123.0 125.25 Z" fill="#ffffff" stroke="none" stroke-width="1.0" />
<text x='123.0' y='132.75' font-family="Default" font-size="10.0" fill="#404040" >2</text>
<path d="M 124.5 46.96 L 125.5 46.96 L 125.5 77.0 L 124.5 77.0 M 124.5 46.96 Z" fill="#404040" stroke="none" stroke-width="0.75" />
<path d="M 144.52 55.232 C 144.52 56.456 145.71521 57.68 146.89601 57.68 C 150.496 57.68 154.09601 55.232 154.09601 52.856 C 154.09601 51.6752 152.87201 50.48 151.72 50.48 C 148.12001 50.48 144.52 52.856 144.52 55.232 Z" fill="#404040" stroke="none" stroke-width="1.0" />
<path d="M 143.0 135.25 L 151.0 135.25 L 151.0 142.75 L 143.0 142.75 L 143.0 135.25 Z" fill="#ffffff" stroke="none" stroke-width="1.0" />
<text x='143.0' y='142.75' font-family="Default" font-size="10.0" fill="#404040" >2</text>
<path d="M 144.5 54.96 L 145.5 54.96 L 145.5 85.0 L 144.5 85.0 M 144.5 54.96 Z" fill="#404040" stroke="none" stroke-width="0.75" />
<path d="M 144.5 83.0 L 144.5 87.0 L 165.5 87.0 L 165.5 83.0 L 144.5 83.0 Z" fill="#404040" stroke="none" stroke-width="0.75" />
<path d="M 164.52 55.232 C 164.52 56.456 165.71521 57.68 166.89601 57.68 C 170.496 57.68 174.09601 55.232 174.09601 52.856 C 174.09601 51.6752 172.87201 50.48 171.72 50.48 C 168.12001 50.48 164.52 52.856 164.52 55.232 Z" fill="#404040" stroke="none" stroke-width="1.0" />
<path d="M 163.0 135.25 L 171.0 135.25 L 171.0 142.75 L 163.0 142.75 L 163.0 135.25 Z" fill="#ffffff" stroke="none" stroke-width="1.0" />
<text x='163.0' y='142.75' font-family="Default" font-size="10.0" fill="#404040" >2</text>
<path d="M 164.5 54.96 L 165.5 54.96 L 165.5 85.0 L 164.5 85.0 M 164.5 54.96 Z" fill="#404040" stroke="none" stroke-width="0.75" />
<path d="M 184.52 55.232 C 184.52 56.456 185.71521 57.68 186.89601 57.68 C 190.496 57.68 194.09601 55.232 194.09601 52.856 C 194.09601 51.6752 192.87201 50.48 191.72 50.48 C 188.12001 50.48 184.52 52.856 184.52 55.232 Z" fill="#404040" stroke="none" stroke-width="1.0" />
<path d="M 183.0 135.25 L 191.0 135.25 L 191.0 142.75 L 183.0 142.75 L 183.0 135.25 Z" fill="#ffffff" stroke="none" stroke-width="1.0" />
<text x='183.0' y='142.75' font-family="Default" font-size="10.0" fill="#404040" >2</text>
<path d="M 193.18 53.04 L 194.18 53.04 L 194.18 22.0 L 193.18 22.0 M 193.18 53.04 Z" fill="#404040" stroke="none" stroke-width="0.75" />
<path d="M 193.18 20.0 L 193.18 24.0 L 214.18 34.0 L 214.18 30.0 L 193.18 20.0 Z" fill="#404040" stroke="none" stroke-width="0.75" />
<path d="M 204.52 67.232 C 204.52 68.456 205.71521 69.68 206.89601 69.68 C 210.496 69.68 214.09601 67.232 214.09601 64.856 C 214.09601 63.6752 212.87201 62.48 211.72 62.48 C 208.12001 62.48 204.52 64.856 204.52 67.232 Z" fill="#404040" stroke="none" stroke-width="1.0" />
<path d="M 203.0 145.25 L 211.0 145.25 L 211.0 152.75 L 203.0 152.75 L 203.0 145.25 Z" fill="#ffffff" stroke="none" stroke-width="1.0" />
<text x='203.0' y='152.75' font-family="Default" font-size="10.0" fill="#404040" >2</text>
<path d="M 213.18 65.04 L 214.18 65.04 L 214.18 32.0 L 213.18 32.0 M 213.18 65.04 Z" fill="#404040" stroke="none" stroke-width="0.75" />
<path d="M 224.52 67.232 C 224.52 68.456 225.71521 69.68 226.89601 69.68 C 230.496 69.68 234.09601 67.232 234.09601 64.856 C 234.09601 63.6752 232.87201 62.48 231.72 62.48 C 228.12001 62.48 224.52 64.856 224.52 67.232 Z" fill="#404040" stroke="none" stroke-width="1.0" />
<path d="M 223.0 145.25 L 231.0 145.25 L 231.0 152.75 L 223.0 152.75 L 223.0 145.25 Z" fill="#ffffff" stroke="none" stroke-width="1.0" />
<text x='223.0' y='152.75' font-family="Default" font-size="10.0" fill="#404040" >2</text>
<path d="M 233.18 65.04 L 234.18 65.04 L 234.18 34.0 L 233.18 34.0 M 233.18 65.04 Z" fill="#404040" stroke="none" stroke-width="0.75" />
<path d="M 233.18 32.0 L 233.18 36.0 L 254.18 36.0 L 254.18 32.0 L 233.18 32.0 Z" fill="#404040" stroke="none" stroke-width="0.75" />
<path d="M 244.52 67.232 C 244.52 68.456 245.71521 69.68 246.89601 69.68 C 250.496 69.68 254.09601 67.232 254.09601 64.856 C 254.09601 63.6752 252.87201 62.48 251.72 62.48 C 248.12001 62.48 244.52 64.856 244.52 67.232 Z" fill="#404040" stroke="none" stroke-width="1.0" />
<path d="M 243.0 145.25 L 251.0 145.25 L 251.0 152.75 L 243.0 152.75 L 243.0 145.25 Z" fill="#ffffff" stroke="none" stroke-width="1.0" />
<text x='243.0' y='152.75' font-family="Default" font-size="10.0" fill="#404040" >2</text>
<path d="M 253.18 65.04 L 254.18 65.04 L 254.18 34.0 L 253.18 34.0 M 253.18 65.04 Z" fill="#404040" stroke="none" stroke-width="0.75" /></g>
<text x='372.0' y='52.0' font-family="Default" font-size="10.0" fill="#ff0000" >2</text>
<path d="M 371.0 54.0 L 371.0 86.0 Z" fill="#000000" stroke="#000000" stroke-width="0.75" />
<path d="M 645.0 54.0 L 646.0 54.0 L 646.0 86.0 L 645.0 86.0 L 645.0 54.0 Z" fill="#000000" stroke="#000000" stroke-width="0.75" />
<path d="M 648.0 54.0 L 651.0 54.0 L 651.0 86.0 L 648.0 86.0 L 648.0 54.0 Z" fill="#000000" stroke="#000000" stroke-width="0.75" />
<path d="M 371.0 139.0 L 371.0 189.0 Z" fill="#000000" stroke="#000000" stroke-width="0.75" />
<path d="M 645.0 139.0 L 646.0 139.0 L 646.0 189.0 L 645.0 189.0 L 645.0 139.0 Z" fill="#000000" stroke="#000000" stroke-width="0.75" />
<path d="M 648.0 139.0 L 651.0 139.0 L 651.0 189.0 L 648.0 189.0 L 648.0 139.0 Z" fill="#000000" stroke="#000000" stroke-width="0.75" />

</svg>