<svg width="960.0px" height="419.0px" xmlns="http://www.w3.org/2000/svg" version="1.1">

<path d="M 0.0 0.0 L 960.0 0.0 L 960.0 419.0 L 0.0 419.0 L 0.0 0.0 Z" fill="#ffffff" stroke="none" stroke-width="1.0" /><g transform="translate(20.0,20.0)">
<path d="M 0.0 0.0 L 143.0 0.0 L 143.0 186.0 L 0.0 186.0 L 0.0 0.0 Z" fill="#ffffff" stroke="none" stroke-width="1.0" />
<path d="M 0.0 30.0 L 143.0 30.0 M 0.0 38.0 L 143.0 38.0 M 0.0 46.0 L 143.0 46.0 M 0.0 54.0 L 143.0 54.0 M 0.0 62.0 L 143.0 62.0 Z" fill="none" stroke="#d6d6d6" stroke-width="0.75" />
<path d="M 0.0 115.0 L 143.0 115.0 M 0.0 125.0 L 143.0 125.0 M 0.0 135.0 L 143.0 135.0 M 0.0 145.0 L 143.0 145.0 M 0.0 155.0 L 143.0 155.0 M 0.0 165.0 L 143.0 165.0 Z" fill="none" stroke="#d6d6d6" stroke-width="0.75" />
<path d="M 67.77043 30.40856 C 68.324905 30.40856 68.821014 30.350195 69.25876 30.20428 C 69.6965 30.058365 69.959145 30.0 70.04669 30.0 C 70.192604 30.0 70.28015 30.029182 70.36771 30.116732 C 70.42607 30.175097 70.45525 30.233463 70.484436 30.321012 C 70.484436 30.379377 70.45525 30.437744 70.42607 30.496109 L 61.933853 40.35992 L 66.924126 40.35992 L 66.924126 36.449417 C 66.924126 36.18677 67.01167 35.95331 67.1284 35.807392 C 67.3035 35.661476 67.4786 35.515564 67.71206 35.4572 C 67.97471 35.340466 68.26653 35.07782 68.64591 34.640076 C 68.937744 34.319065 69.317116 33.706226 69.75486 32.801556 C 69.81323 32.684826 69.90078 32.626457 70.01751 32.626457 C 70.28015 32.626457 70.39688 32.772373 70.42607 33.03502 L 70.42607 40.35992 L 72.55642 40.35992 C 72.84825 40.35992 72.99416 40.505836 73.023346 40.797665 C 73.023346 41.089493 72.877426 41.235405 72.55642 41.235405 L 70.42607 41.235405 L 70.42607 41.468872 C 70.42607 42.28599 70.63035 42.928013 71.00973 43.45331 C 71.44747 43.9786 71.97276 44.270428 72.5856 44.270428 C 72.81906 44.270428 72.9358 44.387157 72.9358 44.62062 C 72.9358 44.854084 72.81906 44.970818 72.5856 44.970818 C 72.14786 44.970818 71.50584 44.91245 70.601166 44.79572 C 69.696495 44.649803 69.054474 44.59144 68.64591 44.59144 C 68.23735 44.59144 67.56615 44.649803 66.69066 44.79572 C 65.81517 44.91245 65.17315 44.970818 64.735405 44.970818 C 64.501945 44.970818 64.385216 44.854084 64.385216 44.62062 C 64.385216 44.387157 64.501945 44.270428 64.735405 44.270428 C 65.34825 44.270428 65.87354 43.9786 66.31128 43.45331 C 66.71984 42.89883 66.924126 42.25681 66.924126 41.468872 L 66.924126 41.235405 L 61.933853 41.235405 C 61.61284 41.235405 61.379375 41.17704 61.233463 41.001945 C 61.087547 40.885212 61.0 40.710114 61.0 40.53502 C 61.0 40.476654 61.145912 40.272373 61.437744 39.92218 C 61.729572 39.571983 62.079765 39.105057 62.488327 38.492218 C 62.488327 38.492218 63.305447 37.20817 63.71401 36.449417 C 63.71401 36.449417 64.47276 34.78599 64.735405 33.706226 C 65.02724 32.65564 65.17315 31.575874 65.17315 30.496109 C 65.17315 30.175097 65.31907 30.029182 65.58171 30.029182 C 65.61089 30.029182 65.756805 30.058365 65.96109 30.11673 C 66.16537 30.175097 66.4572 30.233461 66.77821 30.32101 C 67.1284 30.379377 67.44942 30.40856 67.77043 30.40856 Z" fill="#000000" stroke="none" stroke-width="0.75" />
<path d="M 67.77043 47.40856 C 68.324905 47.40856 68.821014 47.350193 69.25876 47.20428 C 69.6965 47.058365 69.959145 47.0 70.04669 47.0 C 70.192604 47.0 70.28015 47.029182 70.36771 47.11673 C 70.42607 47.1751 70.45525 47.233463 70.484436 47.32101 C 70.484436 47.37938 70.45525 47.437744 70.42607 47.49611 L 61.933853 57.35992 L 66.924126 57.35992 L 66.924126 53.449417 C 66.924126 53.18677 67.01167 52.95331 67.1284 52.807392 C 67.3035 52.661476 67.4786 52.515564 67.71206 52.4572 C 67.97471 52.340466 68.26653 52.07782 68.64591 51.640076 C 68.937744 51.319065 69.317116 50.706226 69.75486 49.801556 C 69.81323 49.684826 69.90078 49.626457 70.01751 49.626457 C 70.28015 49.626457 70.39688 49.772373 70.42607 50.03502 L 70.42607 57.35992 L 72.55642 57.35992 C 72.84825 57.35992 72.99416 57.505836 73.023346 57.797665 C 73.023346 58.089493 72.877426 58.235405 72.55642 58.235405 L 70.42607 58.235405 L 70.42607 58.468872 C 70.42607 59.28599 70.63035 59.928013 71.00973 60.45331 C 71.44747 60.9786 71.97276 61.270428 72.5856 61.270428 C 72.81906 61.270428 72.9358 61.387157 72.9358 61.62062 C 72.9358 61.854084 72.81906 61.970818 72.5856 61.970818 C 72.14786 61.970818 71.50584 61.91245 70.601166 61.79572 C 69.696495 61.649803 69.054474 61.59144 68.64591 61.59144 C 68.23735 61.59144 67.56615 61.649803 66.69066 61.79572 C 65.81517 61.91245 65.17315 61.970818 64.735405 61.970818 C 64.501945 61.970818 64.385216 61.854084 64.385216 61.62062 C 64.385216 61.387157 64.501945 61.270428 64.735405 61.270428 C 65.34825 61.270428 65.87354 60.9786 66.31128 60.45331 C 66.71984 59.89883 66.924126 59.25681 66.924126 58.468872 L 66.924126 58.235405 L 61.933853 58.235405 C 61.61284 58.235405 61.379375 58.17704 61.233463 58.001945 C 61.087547 57.885212 61.0 57.710114 61.0 57.53502 C 61.0 57.476654 61.145912 57.272373 61.437744 56.92218 C 61.729572 56.571983 62.079765 56.105057 62.488327 55.492218 C 62.488327 55.492218 63.305447 54.20817 63.71401 53.449417 C 63.71401 53.449417 64.47276 51.78599 64.735405 50.706226 C 65.02724 49.65564 65.17315 48.575874 65.17315 47.49611 C 65.17315 47.175095 65.31907 47.029182 65.58171 47.029182 C 65.61089 47.029182 65.756805 47.058365 65.96109 47.11673 C 66.16537 47.175095 66.4572 47.233463 66.77821 47.32101 C 67.1284 47.379375 67.44942 47.408558 67.77043 47.408558 Z" fill="#000000" stroke="none" stroke-width="0.75" />
<path d="M 22.764973 22.115383 C 22.921913 22.036913 22.948072 22.036913 23.105015 22.036913 C 23.314268 22.06307 23.445057 22.14154 23.73278 22.455425 C 25.616081 24.39104 27.185501 27.843758 27.577856 30.773342 C 27.630169 31.244167 27.630169 32.34276 27.577856 32.839737 C 27.29013 35.533905 26.165377 37.99266 23.57584 41.52385 L 23.209644 42.020832 L 23.418898 42.62244 C 23.915882 44.061073 24.491331 45.81359 24.85753 47.095284 C 24.96216 47.409164 25.04063 47.67074 25.04063 47.696896 C 25.04063 47.696896 25.223728 47.696896 25.406826 47.723053 C 26.322319 47.80152 27.10703 48.01078 27.917896 48.40313 C 28.57182 48.74317 29.147274 49.13552 29.696568 49.658665 C 30.29818 50.260277 30.690535 50.80957 31.05673 51.568123 C 31.606026 52.666718 31.84144 53.81762 31.81528 54.96853 C 31.789125 55.700924 31.684496 56.25022 31.449085 56.930305 C 31.1352 57.924263 30.559748 58.83976 29.77504 59.62447 C 29.094955 60.30455 28.46719 60.72306 27.630169 61.063103 L 27.316284 61.193886 L 27.316284 62.135536 C 27.316284 63.469543 27.237814 65.038956 27.133184 65.980606 C 27.02856 66.94841 26.766989 67.86391 26.348476 68.700935 C 25.249886 70.92427 23.314268 72.10133 21.143244 71.89209 C 18.684484 71.65667 16.69656 69.98262 16.199577 67.73312 C 15.964161 66.713 16.068794 65.9283 16.487303 65.27437 C 17.036598 64.411194 18.082878 63.91421 19.102997 63.940365 C 20.30622 63.992683 21.274027 64.934326 21.457123 66.24218 C 21.58791 67.28845 21.143244 68.25626 20.30622 68.7794 C 19.835394 69.06713 19.181469 69.197914 18.684484 69.119446 C 18.606018 69.119446 18.527544 69.093285 18.527544 69.119446 L 18.84143 69.43333 C 19.416882 70.00878 20.070807 70.374985 20.907831 70.558075 C 21.090927 70.584236 21.247868 70.584236 21.666382 70.584236 C 22.137207 70.584236 22.189518 70.584236 22.451088 70.53192 C 22.81729 70.42729 23.131172 70.29651 23.418898 70.139565 C 24.726748 69.35486 25.616081 67.73312 25.851494 65.77136 C 25.929964 65.038956 26.008434 63.469543 26.008434 62.318638 C 26.008434 61.560085 26.008434 61.50777 25.956123 61.50777 C 25.851494 61.560085 25.302197 61.6124 24.909843 61.638554 C 24.41286 61.66471 23.57584 61.66471 23.183485 61.6124 C 21.640223 61.4293 20.227747 60.90616 18.998373 60.042976 C 17.167385 58.761288 15.859535 56.851826 15.31024 54.654644 C 14.604002 51.908165 15.100986 48.978584 16.827343 45.89206 C 17.55974 44.610374 18.265978 43.564095 20.018494 41.236122 L 21.012455 39.902122 L 20.829355 39.405136 C 19.573822 36.083202 19.15531 34.173744 19.024527 31.401108 C 18.972214 30.197887 19.024527 29.177761 19.181469 28.340742 C 19.573822 26.143559 20.593945 24.181787 22.189518 22.612366 C 22.503403 22.298483 22.63419 22.193855 22.764973 22.115383 M 24.831371 26.588224 C 24.569805 26.143559 24.622118 26.169712 24.386707 26.326658 C 23.65431 26.771324 22.89576 27.451405 22.34646 28.131483 C 21.221714 29.57012 20.593945 31.244167 20.515476 33.048996 C 20.489319 33.78139 20.56779 34.252216 20.907831 35.37696 C 21.169397 36.292458 21.901793 38.5158 21.95411 38.56811 C 21.95411 38.59427 22.111048 38.411175 22.26799 38.17576 C 24.072823 35.58622 25.04063 33.467506 25.406826 31.348791 C 25.485298 30.799496 25.53761 30.354828 25.563768 29.727062 C 25.589928 28.28843 25.432985 27.582191 24.831371 26.588224 M 22.581877 44.191864 C 22.424934 43.694878 22.26799 43.302525 22.26799 43.302525 C 22.241835 43.302525 21.143244 44.76731 20.672415 45.421238 C 19.129156 47.592266 18.187506 49.34478 17.638206 51.071136 C 17.27201 52.143574 17.115068 53.137543 17.062756 54.236134 C 17.062756 54.837746 17.088915 55.20394 17.193539 55.64861 C 17.795153 57.976578 20.280064 59.886036 23.209644 60.30455 C 23.65431 60.35686 24.909843 60.35686 25.459139 60.30455 C 26.008434 60.226078 25.956123 60.252235 25.929964 60.016823 C 25.773026 57.53191 25.563768 56.014805 25.14526 53.765305 C 24.988314 52.823658 24.543648 50.835728 24.517488 50.80957 C 24.491331 50.783417 23.99435 50.835728 23.706627 50.9142 C 23.340427 50.99267 23.105015 51.071136 22.79113 51.22808 C 21.090927 52.091263 20.593945 54.053036 21.666382 55.64861 C 21.849482 55.91018 22.320305 56.381004 22.608032 56.564102 C 22.71266 56.642574 22.948072 56.799515 23.105015 56.877987 C 23.340427 57.00877 23.392738 57.061085 23.445057 57.165714 C 23.65431 57.505756 23.523525 57.924263 23.131172 58.107365 C 22.921913 58.21199 22.764973 58.185837 22.34646 57.976578 C 21.326344 57.4796 20.56779 56.799515 20.018494 55.962494 C 18.998373 54.393074 18.867586 52.37899 19.70461 50.678787 C 20.437006 49.213997 21.744852 48.22003 23.418898 47.853836 C 23.57584 47.80152 23.706627 47.775368 23.706627 47.775368 C 23.73278 47.749207 23.000385 45.368923 22.581877 44.191864 M 26.139221 50.94036 C 26.060753 50.94036 25.98228 50.9142 25.956123 50.9142 L 25.877651 50.88804 L 26.008434 51.43734 C 26.610046 54.07919 27.054714 56.956455 27.211655 59.389057 C 27.237814 59.650627 27.237814 59.859882 27.237814 59.859882 C 27.263973 59.859882 27.60401 59.70294 27.78711 59.572155 C 28.231777 59.31058 28.65029 58.91823 28.99033 58.47356 C 29.801197 57.401123 30.08892 56.06712 29.77504 54.706955 C 29.539627 53.608364 28.911861 52.58824 28.022522 51.882008 C 27.473227 51.463493 26.740831 51.097298 26.139221 50.94036 Z" fill="#000000" stroke="none" stroke-width="0.75" />
<path d="M 96.0 35.024 C 96.0 36.112 97.0624 37.2 98.112 37.2 C 101.312 37.2 104.512 35.024 104.512 32.912 C 104.512 31.8624 103.423996 30.8 102.4 30.8 C 99.2 30.8 96.0 32.912 96.0 35.024 Z" fill="none" stroke="#404040" stroke-width="1.0" />
<path d="M 94.0 111.25 L 102.0 111.25 L 102.0 118.75 L 94.0 118.75 L 94.0 111.25 Z" fill="#ffffff" stroke="none" stroke-width="1.0" />
<text x='94.0' y='118.75' font-family="Default" font-size="10.0" fill="#404040" >0</text></g>
<path d="M 35.35 36.3 C 35.35 37.15 36.18 38.0 37.0 38.0 C 39.5 38.0 42.0 36.3 42.0 34.65 C 42.0 33.83 41.149998 33.0 40.35 33.0 C 37.85 33.0 35.35 34.65 35.35 36.3 Z" fill="#000000" stroke="none" stroke-width="1.0" />
<path d="M 42.0 20.0 L 42.0 34.7 Z" fill="none" stroke="#000000" stroke-width="1.0" />
<text x='43.0' y='36.25' font-family="Default" font-size="10.0" fill="#000000" > = 60</text>
<text x='21.0' y='48.0' font-family="Default" font-size="10.0" fill="#ff0000" >1</text>
<path d="M 20.0 50.0 L 23.0 50.0 L 23.0 135.0 L 20.0 135.0 L 20.0 50.0 Z" fill="#000000" stroke="#000000" stroke-width="0.75" />
<path d="M 25.0 50.0 L 26.0 50.0 L 26.0 135.0 L 25.0 135.0 L 25.0 50.0 Z" fill="#000000" stroke="#000000" stroke-width="0.75" />
<path d="M 163.0 50.0 L 163.0 82.0 Z" fill="#000000" stroke="#000000" stroke-width="0.75" />
<path d="M 20.0 135.0 L 23.0 135.0 L 23.0 185.0 L 20.0 185.0 L 20.0 135.0 Z" fill="#000000" stroke="#000000" stroke-width="0.75" />
<path d="M 25.0 135.0 L 26.0 135.0 L 26.0 185.0 L 25.0 185.0 L 25.0 135.0 Z" fill="#000000" stroke="#000000" stroke-width="0.75" />
<path d="M 163.0 135.0 L 163.0 185.0 Z" fill="#000000" stroke="#000000" stroke-width="0.75" /><g transform="translate(163.0,20.0)">
<path d="M 0.0 0.0 L 71.0 0.0 L 71.0 186.0 L 0.0 186.0 L 0.0 0.0 Z" fill="#ffffff" stroke="none" stroke-width="1.0" />
<path d="M 0.0 30.0 L 71.0 30.0 M 0.0 38.0 L 71.0 38.0 M 0.0 46.0 L 71.0 46.0 M 0.0 54.0 L 71.0 54.0 M 0.0 62.0 L 71.0 62.0 Z" fill="none" stroke="#d6d6d6" stroke-width="0.75" />
<path d="M 0.0 115.0 L 71.0 115.0 M 0.0 125.0 L 71.0 125.0 M 0.0 135.0 L 71.0 135.0 M 0.0 145.0 L 71.0 145.0 M 0.0 155.0 L 71.0 155.0 M 0.0 165.0 L 71.0 165.0 Z" fill="none" stroke="#d6d6d6" stroke-width="0.75" />
<path d="M 25.0 35.024 C 25.0 36.112 26.0624 37.2 27.112 37.2 C 30.312 37.2 33.512 35.024 33.512 32.912 C 33.512 31.8624 32.424 30.8 31.4 30.8 C 28.2 30.8 25.0 32.912 25.0 35.024 Z" fill="none" stroke="#404040" stroke-width="1.0" />
<path d="M 23.0 111.25 L 31.0 111.25 L 31.0 118.75 L 23.0 118.75 L 23.0 111.25 Z" fill="#ffffff" stroke="none" stroke-width="1.0" />
<text x='23.0' y='118.75' font-family="Default" font-size="10.0" fill="#404040" >0</text></g>
<text x='164.0' y='48.0' font-family="Default" font-size="10.0" fill="#ff0000" >2</text>
<path d="M 163.0 50.0 L 163.0 82.0 Z" fill="#000000" stroke="#000000" stroke-width="0.75" />
<path d="M 234.0 50.0 L 234.0 82.0 Z" fill="#000000" stroke="#000000" stroke-width="0.75" />
<path d="M 163.0 135.0 L 163.0 185.0 Z" fill="#000000" stroke="#000000" stroke-width="0.75" />
<path d="M 234.0 135.0 L 234.0 185.0 Z" fill="#000000" stroke="#000000" stroke-width="0.75" /><g transform="translate(234.0,20.0)">
<path d="M 0.0 0.0 L 72.0 0.0 L 72.0 186.0 L 0.0 186.0 L 0.0 0.0 Z" fill="#ffffff" stroke="none" stroke-width="1.0" />
<path d="M 0.0 30.0 L 72.0 30.0 M 0.0 38.0 L 72.0 38.0 M 0.0 46.0 L 72.0 46.0 M 0.0 54.0 L 72.0 54.0 M 0.0 62.0 L 72.0 62.0 Z" fill="none" stroke="#d6d6d6" stroke-width="0.75" />
<path d="M 0.0 115.0 L 72.0 115.0 M 0.0 125.0 L 72.0 125.0 M 0.0 135.0 L 72.0 135.0 M 0.0 145.0 L 72.0 145.0 M 0.0 155.0 L 72.0 155.0 M 0.0 165.0 L 72.0 165.0 Z" fill="none" stroke="#d6d6d6" stroke-width="0.75" />
<path d="M 25.0 47.024 C 25.0 48.112 26.0624 49.2 27.112 49.2 C 30.312 49.2 33.512 47.024 33.512 44.912 C 33.512 43.8624 32.424 42.8 31.4 42.8 C 28.2 42.8 25.0 44.912 25.0 47.024 Z" fill="none" stroke="#404040" stroke-width="1.0" />
<path d="M 23.0 121.25 L 31.0 121.25 L 31.0 128.75 L 23.0 128.75 L 23.0 121.25 Z" fill="#ffffff" stroke="none" stroke-width="1.0" />
<text x='23.0' y='128.75' font-family="Default" font-size="10.0" fill="#404040" >0</text></g>
<text x='235.0' y='48.0' font-family="Default" font-size="10.0" fill="#ff0000" >3</text>
<path d="M 234.0 50.0 L 234.0 82.0 Z" fill="#000000" stroke="#000000" stroke-width="0.75" />
<path d="M 306.0 50.0 L 306.0 82.0 Z" fill="#000000" stroke="#000000" stroke-width="0.75" />
<path d="M 234.0 135.0 L 234.0 185.0 Z" fill="#000000" stroke="#000000" stroke-width="0.75" />
<path d="M 306.0 135.0 L 306.0 185.0 Z" fill="#000000" stroke="#000000" stroke-width="0.75" /><g transform="translate(306.0,20.0)">
<path d="M 0.0 0.0 L 71.0 0.0 L 71.0 186.0 L 0.0 186.0 L 0.0 0.0 Z" fill="#ffffff" stroke="none" stroke-width="1.0" />
<path d="M 0.0 30.0 L 71.0 30.0 M 0.0 38.0 L 71.0 38.0 M 0.0 46.0 L 71.0 46.0 M 0.0 54.0 L 71.0 54.0 M 0.0 62.0 L 71.0 62.0 Z" fill="none" stroke="#d6d6d6" stroke-width="0.75" />
<path d="M 0.0 115.0 L 71.0 115.0 M 0.0 125.0 L 71.0 125.0 M 0.0 135.0 L 71.0 135.0 M 0.0 145.0 L 71.0 145.0 M 0.0 155.0 L 71.0 155.0 M 0.0 165.0 L 71.0 165.0 Z" fill="none" stroke="#d6d6d6" stroke-width="0.75" />
<path d="M 25.0 47.024 C 25.0 48.112 26.0624 49.2 27.112 49.2 C 30.312 49.2 33.512 47.024 33.512 44.912 C 33.512 43.8624 32.424 42.8 31.4 42.8 C 28.2 42.8 25.0 44.912 25.0 47.024 Z" fill="none" stroke="#404040" stroke-width="1.0" />
<path d="M 23.0 121.25 L 31.0 121.25 L 31.0 128.75 L 23.0 128.75 L 23.0 121.25 Z" fill="#ffffff" stroke="none" stroke-width="1.0" />
<text x='23.0' y='128.75' font-family="Default" font-size="10.0" fill="#404040" >0</text></g>
<text x='307.0' y='48.0' font-family="Default" font-size="10.0" fill="#ff0000" >4</text>
<path d="M 306.0 50.0 L 306.0 82.0 Z" fill="#000000" stroke="#000000" stroke-width="0.75" />
<path d="M 377.0 50.0 L 377.0 82.0 Z" fill="#000000" stroke="#000000" stroke-width="0.75" />
<path d="M 306.0 135.0 L 306.0 185.0 Z" fill="#000000" stroke="#000000" stroke-width="0.75" />
<path d="M 377.0 135.0 L 377.0 185.0 Z" fill="#000000" stroke="#000000" stroke-width="0.75" /><g transform="translate(377.0,20.0)">
<path d="M 0.0 0.0 L 72.0 0.0 L 72.0 186.0 L 0.0 186.0 L 0.0 0.0 Z" fill="#ffffff" stroke="none" stroke-width="1.0" />
<path d="M 0.0 30.0 L 72.0 30.0 M 0.0 38.0 L 72.0 38.0 M 0.0 46.0 L 72.0 46.0 M 0.0 54.0 L 72.0 54.0 M 0.0 62.0 L 72.0 62.0 Z" fill="none" stroke="#d6d6d6" stroke-width="0.75" />
<path d="M 0.0 115.0 L 72.0 115.0 M 0.0 125.0 L 72.0 125.0 M 0.0 135.0 L 72.0 135.0 M 0.0 145.0 L 72.0 145.0 M 0.0 155.0 L 72.0 155.0 M 0.0 165.0 L 72.0 165.0 Z" fill="none" stroke="#d6d6d6" stroke-width="0.75" />
<path d="M 25.0 55.024 C 25.0 56.112 26.0624 57.2 27.112 57.2 C 30.312 57.2 33.512 55.024 33.512 52.912 C 33.512 51.8624 32.424 50.8 31.4 50.8 C 28.2 50.8 25.0 52.912 25.0 55.024 Z" fill="none" stroke="#404040" stroke-width="1.0" />
<path d="M 23.0 131.25 L 31.0 131.25 L 31.0 138.75 L 23.0 138.75 L 23.0 131.25 Z" fill="#ffffff" stroke="none" stroke-width="1.0" />
<text x='23.0' y='138.75' font-family="Default" font-size="10.0" fill="#404040" >0</text></g>
<text x='378.0' y='48.0' font-family="Default" font-size="10.0" fill="#ff0000" >5</text>
<path d="M 377.0 50.0 L 377.0 82.0 Z" fill="#000000" stroke="#000000" stroke-width="0.75" />
<path d="M 449.0 50.0 L 449.0 82.0 Z" fill="#000000" stroke="#000000" stroke-width="0.75" />
<path d="M 377.0 135.0 L 377.0 185.0 Z" fill="#000000" stroke="#000000" stroke-width="0.75" />
<path d="M 449.0 135.0 L 449.0 185.0 Z" fill="#000000" stroke="#000000" stroke-width="0.75" /><g transform="translate(449.0,20.0)">
<path d="M 0.0 0.0 L 72.0 0.0 L 72.0 186.0 L 0.0 186.0 L 0.0 0.0 Z" fill="#ffffff" stroke="none" stroke-width="1.0" />
<path d="M 0.0 30.0 L 72.0 30.0 M 0.0 38.0 L 72.0 38.0 M 0.0 46.0 L 72.0 46.0 M 0.0 54.0 L 72.0 54.0 M 0.0 62.0 L 72.0 62.0 Z" fill="none" stroke="#d6d6d6" stroke-width="0.75" />
<path d="M 0.0 115.0 L 72.0 115.0 M 0.0 125.0 L 72.0 125.0 M 0.0 135.0 L 72.0 135.0 M 0.0 145.0 L 72.0 145.0 M 0.0 155.0 L 72.0 155.0 M 0.0 165.0 L 72.0 165.0 Z" fill="none" stroke="#d6d6d6" stroke-width="0.75" />
<path d="M 25.0 55.024 C 25.0 56.112 26.0624 57.2 27.112 57.2 C 30.312 57.2 33.512 55.024 33.512 52.912 C 33.512 51.8624 32.424 50.8 31.4 50.8 C 28.2 50.8 25.0 52.912 25.0 55.024 Z" fill="none" stroke="#404040" stroke-width="1.0" />
<path d="M 23.0 131.25 L 31.0 131.25 L 31.0 138.75 L 23.0 138.75 L 23.0 131.25 Z" fill="#ffffff" stroke="none" stroke-width="1.0" />
<text x='23.0' y='138.75' font-family="Default" font-size="10.0" fill="#404040" >0</text></g>
<text x='450.0' y='48.0' font-family="Default" font-size="10.0" fill="#ff0000" >6</text>
<path d="M 449.0 50.0 L 449.0 82.0 Z" fill="#000000" stroke="#000000" stroke-width="0.75" />
<path d="M 521.0 50.0 L 521.0 82.0 Z" fill="#000000" stroke="#000000" stroke-width="0.75" />
<path d="M 449.0 135.0 L 449.0 185.0 Z" fill="#000000" stroke="#000000" stroke-width="0.75" />
<path d="M 521.0 135.0 L 521.0 185.0 Z" fill="#000000" stroke="#000000" stroke-width="0.75" /><g transform="translate(521.0,20.0)">
<path d="M 0.0 0.0 L 71.0 0.0 L 71.0 186.0 L 0.0 186.0 L 0.0 0.0 Z" fill="#ffffff" stroke="none" stroke-width="1.0" />
<path d="M 0.0 30.0 L 71.0 30.0 M 0.0 38.0 L 71.0 38.0 M 0.0 46.0 L 71.0 46.0 M 0.0 54.0 L 71.0 54.0 M 0.0 62.0 L 71.0 62.0 Z" fill="none" stroke="#d6d6d6" stroke-width="0.75" />
<path d="M 0.0 115.0 L 71.0 115.0 M 0.0 125.0 L 71.0 125.0 M 0.0 135.0 L 71.0 135.0 M 0.0 145.0 L 71.0 145.0 M 0.0 155.0 L 71.0 155.0 M 0.0 165.0 L 71.0 165.0 Z" fill="none" stroke="#d6d6d6" stroke-width="0.75" />
<path d="M 25.0 67.024 C 25.0 68.112 26.0624 69.2 27.112 69.2 C 30.312 69.2 33.512 67.024 33.512 64.912 C 33.512 63.8624 32.424 62.8 31.4 62.8 C 28.2 62.8 25.0 64.912 25.0 67.024 Z" fill="none" stroke="#404040" stroke-width="1.0" />
<path d="M 23.0 141.25 L 31.0 141.25 L 31.0 148.75 L 23.0 148.75 L 23.0 141.25 Z" fill="#ffffff" stroke="none" stroke-width="1.0" />
<text x='23.0' y='148.75' font-family="Default" font-size="10.0" fill="#404040" >0</text></g>
<text x='522.0' y='48.0' font-family="Default" font-size="10.0" fill="#ff0000" >7</text>
<path d="M 521.0 50.0 L 521.0 82.0 Z" fill="#000000" stroke="#000000" stroke-width="0.75" />
<path d="M 592.0 50.0 L 592.0 82.0 Z" fill="#000000" stroke="#000000" stroke-width="0.75" />
<path d="M 521.0 135.0 L 521.0 185.0 Z" fill="#000000" stroke="#000000" stroke-width="0.75" />
<path d="M 592.0 135.0 L 592.0 185.0 Z" fill="#000000" stroke="#000000" stroke-width="0.75" /><g transform="translate(592.0,20.0)">
<path d="M 0.0 0.0 L 72.0 0.0 L 72.0 186.0 L 0.0 186.0 L 0.0 0.0 Z" fill="#ffffff" stroke="none" stroke-width="1.0" />
<path d="M 0.0 30.0 L 72.0 30.0 M 0.0 38.0 L 72.0 38.0 M 0.0 46.0 L 72.0 46.0 M 0.0 54.0 L 72.0 54.0 M 0.0 62.0 L 72.0 62.0 Z" fill="none" stroke="#d6d6d6" stroke-width="0.75" />
<path d="M 0.0 115.0 L 72.0 115.0 M 0.0 125.0 L 72.0 125.0 M 0.0 135.0 L 72.0 135.0 M 0.0 145.0 L 72.0 145.0 M 0.0 155.0 L 72.0 155.0 M 0.0 165.0 L 72.0 165.0 Z" fill="none" stroke="#d6d6d6" stroke-width="0.75" />
<path d="M 25.0 67.024 C 25.0 68.112 26.0624 69.2 27.112 69.2 C 30.312 69.2 33.512 67.024 33.512 64.912 C 33.512 63.8624 32.424 62.8 31.4 62.8 C 28.2 62.8 25.0 64.912 25.0 67.024 Z" fill="none" stroke="#404040" stroke-width="1.0" />
<path d="M 23.0 141.25 L 31.0 141.25 L 31.0 148.75 L 23.0 148.75 L 23.0 141.25 Z" fill="#ffffff" stroke="none" stroke-width="1.0" />
<text x='23.0' y='148.75' font-family="Default" font-size="10.0" fill="#404040" >0</text></g>
<text x='593.0' y='48.0' font-family="Default" font-size="10.0" fill="#ff0000" >8</text>
<path d="M 592.0 50.0 L 592.0 82.0 Z" fill="#000000" stroke="#000000" stroke-width="0.75" />
<path d="M 664.0 50.0 L 664.0 82.0 Z" fill="#000000" stroke="#000000" stroke-width="0.75" />
<path d="M 592.0 135.0 L 592.0 185.0 Z" fill="#000000" stroke="#000000" stroke-width="0.75" />
<path d="M 664.0 135.0 L 664.0 185.0 Z" fill="#000000" stroke="#000000" stroke-width="0.75" /><g transform="translate(664.0,20.0)">
<path d="M 0.0 0.0 L 71.0 0.0 L 71.0 186.0 L 0.0 186.0 L 0.0 0.0 Z" fill="#ffffff" stroke="none" stroke-width="1.0" />
<path d="M 0.0 30.0 L 71.0 30.0 M 0.0 38.0 L 71.0 38.0 M 0.0 46.0 L 71.0 46.0 M 0.0 54.0 L 71.0 54.0 M 0.0 62.0 L 71.0 62.0 Z" fill="none" stroke="#d6d6d6" stroke-width="0.75" />
<path d="M 0.0 115.0 L 71.0 115.0 M 0.0 125.0 L 71.0 125.0 M 0.0 135.0 L 71.0 135.0 M 0.0 145.0 L 71.0 145.0 M 0.0 155.0 L 71.0 155.0 M 0.0 165.0 L 71.0 165.0 Z" fill="none" stroke="#d6d6d6" stroke-width="0.75" />
<path d="M 21.0 70.0 L 37.0 70.0 Z" fill="none" stroke="#d6d6d6" stroke-width="0.75" />
<path d="M 21.0 78.0 L 37.0 78.0 Z" fill="none" stroke="#d6d6d6" stroke-width="0.75" />
<path d="M 21.0 70.0 L 37.0 70.0 Z" fill="none" stroke="#d6d6d6" stroke-width="0.75" />
<path d="M 21.0 78.0 L 37.0 78.0 Z" fill="none" stroke="#d6d6d6" stroke-width="0.75" />
<path d="M 25.0 79.024 C 25.0 80.112 26.0624 81.200005 27.112 81.200005 C 30.312 81.200005 33.512 79.024 33.512 76.912 C 33.512 75.862404 32.424 74.8 31.4 74.8 C 28.2 74.8 25.0 76.912 25.0 79.024 Z" fill="none" stroke="#404040" stroke-width="1.0" />
<path d="M 23.0 151.25 L 31.0 151.25 L 31.0 158.75 L 23.0 158.75 L 23.0 151.25 Z" fill="#ffffff" stroke="none" stroke-width="1.0" />
<text x='23.0' y='158.75' font-family="Default" font-size="10.0" fill="#404040" >0</text></g>
<text x='665.0' y='48.0' font-family="Default" font-size="10.0" fill="#ff0000" >9</text>
<path d="M 664.0 50.0 L 664.0 82.0 Z" fill="#000000" stroke="#000000" stroke-width="0.75" />
<path d="M 735.0 50.0 L 735.0 82.0 Z" fill="#000000" stroke="#000000" stroke-width="0.75" />
<path d="M 664.0 135.0 L 664.0 185.0 Z" fill="#000000" stroke="#000000" stroke-width="0.75" />
<path d="M 735.0 135.0 L 735.0 185.0 Z" fill="#000000" stroke="#000000" stroke-width="0.75" /><g transform="translate(735.0,20.0)">
<path d="M 0.0 0.0 L 72.0 0.0 L 72.0 186.0 L 0.0 186.0 L 0.0 0.0 Z" fill="#ffffff" stroke="none" stroke-width="1.0" />
<path d="M 0.0 30.0 L 72.0 30.0 M 0.0 38.0 L 72.0 38.0 M 0.0 46.0 L 72.0 46.0 M 0.0 54.0 L 72.0 54.0 M 0.0 62.0 L 72.0 62.0 Z" fill="none" stroke="#d6d6d6" stroke-width="0.75" />
<path d="M 0.0 115.0 L 72.0 115.0 M 0.0 125.0 L 72.0 125.0 M 0.0 135.0 L 72.0 135.0 M 0.0 145.0 L 72.0 145.0 M 0.0 155.0 L 72.0 155.0 M 0.0 165.0 L 72.0 165.0 Z" fill="none" stroke="#d6d6d6" stroke-width="0.75" />
<path d="M 21.0 70.0 L 37.0 70.0 Z" fill="none" stroke="#d6d6d6" stroke-width="0.75" />
<path d="M 21.0 78.0 L 37.0 78.0 Z" fill="none" stroke="#d6d6d6" stroke-width="0.75" />
<path d="M 21.0 70.0 L 37.0 70.0 Z" fill="none" stroke="#d6d6d6" stroke-width="0.75" />
<path d="M 21.0 78.0 L 37.0 78.0 Z" fill="none" stroke="#d6d6d6" stroke-width="0.75" />
<path d="M 25.0 79.024 C 25.0 80.112 26.0624 81.200005 27.112 81.200005 C 30.312 81.200005 33.512 79.024 33.512 76.912 C 33.512 75.862404 32.424 74.8 31.4 74.8 C 28.2 74.8 25.0 76.912 25.0 79.024 Z" fill="none" stroke="#404040" stroke-width="1.0" />
<path d="M 23.0 151.25 L 31.0 151.25 L 31.0 158.75 L 23.0 158.75 L 23.0 151.25 Z" fill="#ffffff" stroke="none" stroke-width="1.0" />
<text x='23.0' y='158.75' font-family="Default" font-size="10.0" fill="#404040" >0</text></g>
<text x='736.0' y='48.0' font-family="Default" font-size="10.0" fill="#ff0000" >10</text>
<path d="M 735.0 50.0 L 735.0 82.0 Z" fill="#000000" stroke="#000000" stroke-width="0.75" />
<path d="M 807.0 50.0 L 807.0 82.0 Z" fill="#000000" stroke="#000000" stroke-width="0.75" />
<path d="M 735.0 135.0 L 735.0 185.0 Z" fill="#000000" stroke="#000000" stroke-width="0.75" />
<path d="M 807.0 135.0 L 807.0 185.0 Z" fill="#000000" stroke="#000000" stroke-width="0.75" /><g transform="translate(807.0,20.0)">
<path d="M 0.0 0.0 L 71.0 0.0 L 71.0 186.0 L 0.0 186.0 L 0.0 0.0 Z" fill="#ffffff" stroke="none" stroke-width="1.0" />
<path d="M 0.0 30.0 L 71.0 30.0 M 0.0 38.0 L 71.0 38.0 M 0.0 46.0 L 71.0 46.0 M 0.0 54.0 L 71.0 54.0 M 0.0 62.0 L 71.0 62.0 Z" fill="none" stroke="#d6d6d6" stroke-width="0.75" />
<path d="M 0.0 115.0 L 71.0 115.0 M 0.0 125.0 L 71.0 125.0 M 0.0 135.0 L 71.0 135.0 M 0.0 145.0 L 71.0 145.0 M 0.0 155.0 L 71.0 155.0 M 0.0 165.0 L 71.0 165.0 Z" fill="none" stroke="#d6d6d6" stroke-width="0.75" />
<path d="M 21.0 70.0 L 37.0 70.0 Z" fill="none" stroke="#d6d6d6" stroke-width="0.75" />
<path d="M 21.0 78.0 L 37.0 78.0 Z" fill="none" stroke="#d6d6d6" stroke-width="0.75" />
<path d="M 21.0 86.0 L 37.0 86.0 Z" fill="none" stroke="#d6d6d6" stroke-width="0.75" />
<path d="M 21.0 70.0 L 37.0 70.0 Z" fill="none" stroke="#d6d6d6" stroke-width="0.75" />
<path d="M 21.0 78.0 L 37.0 78.0 Z" fill="none" stroke="#d6d6d6" stroke-width="0.75" />
<path d="M 21.0 86.0 L 37.0 86.0 Z" fill="none" stroke="#d6d6d6" stroke-width="0.75" />
<path d="M 25.0 91.024 C 25.0 92.112 26.0624 93.200005 27.112 93.200005 C 30.312 93.200005 33.512 91.024 33.512 88.912 C 33.512 87.862404 32.424 86.8 31.4 86.8 C 28.2 86.8 25.0 88.912 25.0 91.024 Z" fill="none" stroke="#404040" stroke-width="1.0" />
<path d="M 23.0 161.25 L 31.0 161.25 L 31.0 168.75 L 23.0 168.75 L 23.0 161.25 Z" fill="#ffffff" stroke="none" stroke-width="1.0" />
<text x='23.0' y='168.75' font-family="Default" font-size="10.0" fill="#404040" >0</text></g>
<text x='808.0' y='48.0' font-family="Default" font-size="10.0" fill="#ff0000" >11</text>
<path d="M 807.0 50.0 L 807.0 82.0 Z" fill="#000000" stroke="#000000" stroke-width="0.75" />
<path d="M 878.0 50.0 L 878.0 82.0 Z" fill="#000000" stroke="#000000" stroke-width="0.75" />
<path d="M 807.0 135.0 L 807.0 185.0 Z" fill="#000000" stroke="#000000" stroke-width="0.75" />
<path d="M 878.0 135.0 L 878.0 185.0 Z" fill="#000000" stroke="#000000" stroke-width="0.75" /><g transform="translate(878.0,20.0)">
<path d="M 0.0 0.0 L 72.0 0.0 L 72.0 186.0 L 0.0 186.0 L 0.0 0.0 Z" fill="#ffffff" stroke="none" stroke-width="1.0" />
<path d="M 0.0 30.0 L 72.0 30.0 M 0.0 38.0 L 72.0 38.0 M 0.0 46.0 L 72.0 46.0 M 0.0 54.0 L 72.0 54.0 M 0.0 62.0 L 72.0 62.0 Z" fill="none" stroke="#d6d6d6" stroke-width="0.75" />
<path d="M 0.0 115.0 L 72.0 115.0 M 0.0 125.0 L 72.0 125.0 M 0.0 135.0 L 72.0 135.0 M 0.0 145.0 L 72.0 145.0 M 0.0 155.0 L 72.0 155.0 M 0.0 165.0 L 72.0 165.0 Z" fill="none" stroke="#d6d6d6" stroke-width="0.75" />
<path d="M 21.0 70.0 L 37.0 70.0 Z" fill="none" stroke="#d6d6d6" stroke-width="0.75" />
<path d="M 21.0 78.0 L 37.0 78.0 Z" fill="none" stroke="#d6d6d6" stroke-width="0.75" />
<path d="M 21.0 86.0 L 37.0 86.0 Z" fill="none" stroke="#d6d6d6" stroke-width="0.75" />
<path d="M 21.0 70.0 L 37.0 70.0 Z" fill="none" stroke="#d6d6d6" stroke-width="0.75" />
<path d="M 21.0 78.0 L 37.0 78.0 Z" fill="none" stroke="#d6d6d6" stroke-width="0.75" />
<path d="M 21.0 86.0 L 37.0 86.0 Z" fill="none" stroke="#d6d6d6" stroke-width="0.75" />
<path d="M 25.0 91.024 C 25.0 92.112 26.0624 93.200005 27.112 93.200005 C 30.312 93.200005 33.512 91.024 33.512 88.912 C 33.512 87.862404 32.424 86.8 31.4 86.8 C 28.2 86.8 25.0 88.912 25.0 91.024 Z" fill="none" stroke="#404040" stroke-width="1.0" />
<path d="M 23.0 161.25 L 31.0 161.25 L 31.0 168.75 L 23.0 168.75 L 23.0 161.25 Z" fill="#ffffff" stroke="none" stroke-width="1.0" />
<text x='23.0' y='168.75' font-family="Default" font-size="10.0" fill="#404040" >0</text></g>




<path d="M 160.0 252.0 L 160.0 284.0 Z" fill="#000000" stroke="#000000" stroke-width="0.75" />
<path d="M 230.0 252.0 L 230.0 284.0 Z" fill="#000000" stroke="#000000" stroke-width="0.75" />
<path d="M 160.0 337.0 L 160.0 387.0 Z" fill="#000000" stroke="#000000" stroke-width="0.75" />
<path d="M 230.0 337.0 L 230.0 387.0 Z" fill="#000000" stroke="#000000" stroke-width="0.75" /><g transform="translate(230.0,217.0)">
<path d="M 0.0 0.0 L 70.0 0.0 L 70.0 191.0 L 0.0 191.0 L 0.0 0.0 Z" fill="#ffffff" stroke="none" stroke-width="1.0" />
<path d="M 0.0 35.0 L 70.0 35.0 M 0.0 43.0 L 70.0 43.0 M 0.0 51.0 L 70.0 51.0 M 0.0 59.0 L 70.0 59.0 M 0.0 67.0 L 70.0 67.0 Z" fill="none" stroke="#d6d6d6" stroke-width="0.75" />
<path d="M 0.0 120.0 L 70.0 120.0 M 0.0 130.0 L 70.0 130.0 M 0.0 140.0 L 70.0 140.0 M 0.0 150.0 L 70.0 150.0 M 0.0 160.0 L 70.0 160.0 M 0.0 170.0 L 70.0 170.0 Z" fill="none" stroke="#d6d6d6" stroke-width="0.75" />
<path d="M 25.0 40.024 C 25.0 41.112 26.0624 42.2 27.112 42.2 C 30.312 42.2 33.512 40.024 33.512 37.912 C 33.512 36.8624 32.424 35.8 31.4 35.8 C 28.2 35.8 25.0 37.912 25.0 40.024 Z" fill="none" stroke="#404040" stroke-width="1.0" />
<path d="M 23.0 116.25 L 31.0 116.25 L 31.0 123.75 L 23.0 123.75 L 23.0 116.25 Z" fill="#ffffff" stroke="none" stroke-width="1.0" />
<text x='23.0' y='123.75' font-family="Default" font-size="10.0" fill="#404040" >0</text></g>
<text x='231.0' y='250.0' font-family="Default" font-size="10.0" fill="#ff0000" >16</text>
<path d="M 230.0 252.0 L 230.0 284.0 Z" fill="#000000" stroke="#000000" stroke-width="0.75" />
<path d="M 300.0 252.0 L 300.0 284.0 Z" fill="#000000" stroke="#000000" stroke-width="0.75" />
<path d="M 230.0 337.0 L 230.0 387.0 Z" fill="#000000" stroke="#000000" stroke-width="0.75" />
<path d="M 300.0 337.0 L 300.0 387.0 Z" fill="#000000" stroke="#000000" stroke-width="0.75" /><g transform="translate(300.0,217.0)">
<path d="M 0.0 0.0 L 70.0 0.0 L 70.0 191.0 L 0.0 191.0 L 0.0 0.0 Z" fill="#ffffff" stroke="none" stroke-width="1.0" />
<path d="M 0.0 35.0 L 70.0 35.0 M 0.0 43.0 L 70.0 43.0 M 0.0 51.0 L 70.0 51.0 M 0.0 59.0 L 70.0 59.0 M 0.0 67.0 L 70.0 67.0 Z" fill="none" stroke="#d6d6d6" stroke-width="0.75" />
<path d="M 0.0 120.0 L 70.0 120.0 M 0.0 130.0 L 70.0 130.0 M 0.0 140.0 L 70.0 140.0 M 0.0 150.0 L 70.0 150.0 M 0.0 160.0 L 70.0 160.0 M 0.0 170.0 L 70.0 170.0 Z" fill="none" stroke="#d6d6d6" stroke-width="0.75" />
<path d="M 25.0 40.024 C 25.0 41.112 26.0624 42.2 27.112 42.2 C 30.312 42.2 33.512 40.024 33.512 37.912 C 33.512 36.8624 32.424 35.8 31.4 35.8 C 28.2 35.8 25.0 37.912 25.0 40.024 Z" fill="none" stroke="#404040" stroke-width="1.0" />
<path d="M 23.0 126.25 L 31.0 126.25 L 31.0 133.75 L 23.0 133.75 L 23.0 126.25 Z" fill="#ffffff" stroke="none" stroke-width="1.0" />
<text x='23.0' y='133.75' font-family="Default" font-size="10.0" fill="#404040" >5</text></g>
<text x='325.0' y='217.0' font-family="Default" font-size="10.0" fill="#000000" >V</text>
<text x='301.0' y='250.0' font-family="Default" font-size="10.0" fill="#ff0000" >17</text>
<path d="M 300.0 252.0 L 300.0 284.0 Z" fill="#000000" stroke="#000000" stroke-width="0.75" />
<path d="M 370.0 252.0 L 370.0 284.0 Z" fill="#000000" stroke="#000000" stroke-width="0.75" />
<path d="M 300.0 337.0 L 300.0 387.0 Z" fill="#000000" stroke="#000000" stroke-width="0.75" />
<path d="M 370.0 337.0 L 370.0 387.0 Z" fill="#000000" stroke="#000000" stroke-width="0.75" /><g transform="translate(370.0,217.0)">
<path d="M 0.0 0.0 L 70.0 0.0 L 70.0 191.0 L 0.0 191.0 L 0.0 0.0 Z" fill="#ffffff" stroke="none" stroke-width="1.0" />
<path d="M 0.0 35.0 L 70.0 35.0 M 0.0 43.0 L 70.0 43.0 M 0.0 51.0 L 70.0 51.0 M 0.0 59.0 L 70.0 59.0 M 0.0 67.0 L 70.0 67.0 Z" fill="none" stroke="#d6d6d6" stroke-width="0.75" />
<path d="M 0.0 120.0 L 70.0 120.0 M 0.0 130.0 L 70.0 130.0 M 0.0 140.0 L 70.0 140.0 M 0.0 150.0 L 70.0 150.0 M 0.0 160.0 L 70.0 160.0 M 0.0 170.0 L 70.0 170.0 Z" fill="none" stroke="#d6d6d6" stroke-width="0.75" />
<path d="M 25.0 52.024 C 25.0 53.112 26.0624 54.2 27.112 54.2 C 30.312 54.2 33.512 52.024 33.512 49.912 C 33.512 48.8624 32.424 47.8 31.4 47.8 C 28.2 47.8 25.0 49.912 25.0 52.024 Z" fill="none" stroke="#404040" stroke-width="1.0" />
<path d="M 23.0 126.25 L 31.0 126.25 L 31.0 133.75 L 23.0 133.75 L 23.0 126.25 Z" fill="#ffffff" stroke="none" stroke-width="1.0" />
<text x='23.0' y='133.75' font-family="Default" font-size="10.0" fill="#404040" >0</text></g>
<text x='371.0' y='250.0' font-family="Default" font-size="10.0" fill="#ff0000" >18</text>
<path d="M 370.0 252.0 L 370.0 284.0 Z" fill="#000000" stroke="#000000" stroke-width="0.75" />
<path d="M 440.0 252.0 L 440.0 284.0 Z" fill="#000000" stroke="#000000" stroke-width="0.75" />
<path d="M 370.0 337.0 L 370.0 387.0 Z" fill="#000000" stroke="#000000" stroke-width="0.75" />
<path d="M 440.0 337.0 L 440.0 387.0 Z" fill="#000000" stroke="#000000" stroke-width="0.75" /><g transform="translate(440.0,217.0)">
<path d="M 0.0 0.0 L 70.0 0.0 L 70.0 191.0 L 0.0 191.0 L 0.0 0.0 Z" fill="#ffffff" stroke="none" stroke-width="1.0" />
<path d="M 0.0 35.0 L 70.0 35.0 M 0.0 43.0 L 70.0 43.0 M 0.0 51.0 L 70.0 51.0 M 0.0 59.0 L 70.0 59.0 M 0.0 67.0 L 70.0 67.0 Z" fill="none" stroke="#d6d6d6" stroke-width="0.75" />
<path d="M 0.0 120.0 L 70.0 120.0 M 0.0 130.0 L 70.0 130.0 M 0.0 140.0 L 70.0 140.0 M 0.0 150.0 L 70.0 150.0 M 0.0 160.0 L 70.0 160.0 M 0.0 170.0 L 70.0 170.0 Z" fill="none" stroke="#d6d6d6" stroke-width="0.75" />
<path d="M 25.0 52.024 C 25.0 53.112 26.0624 54.2 27.112 54.2 C 30.312 54.2 33.512 52.024 33.512 49.912 C 33.512 48.8624 32.424 47.8 31.4 47.8 C 28.2 47.8 25.0 49.912 25.0 52.024 Z" fill="none" stroke="#404040" stroke-width="1.0" />
<path d="M 23.0 136.25 L 31.0 136.25 L 31.0 143.75 L 23.0 143.75 L 23.0 136.25 Z" fill="#ffffff" stroke="none" stroke-width="1.0" />
<text x='23.0' y='143.75' font-family="Default" font-size="10.0" fill="#404040" >4</text></g>
<text x='465.0' y='217.0' font-family="Default" font-size="10.0" fill="#000000" >IV</text>
<text x='441.0' y='250.0' font-family="Default" font-size="10.0" fill="#ff0000" >19</text>
<path d="M 440.0 252.0 L 440.0 284.0 Z" fill="#000000" stroke="#000000" stroke-width="0.75" />
<path d="M 510.0 252.0 L 510.0 284.0 Z" fill="#000000" stroke="#000000" stroke-width="0.75" />
<path d="M 440.0 337.0 L 440.0 387.0 Z" fill="#000000" stroke="#000000" stroke-width="0.75" />
<path d="M 510.0 337.0 L 510.0 387.0 Z" fill="#000000" stroke="#000000" stroke-width="0.75" /><g transform="translate(510.0,217.0)">
<path d="M 0.0 0.0 L 70.0 0.0 L 70.0 191.0 L 0.0 191.0 L 0.0 0.0 Z" fill="#ffffff" stroke="none" stroke-width="1.0" />
<path d="M 0.0 35.0 L 70.0 35.0 M 0.0 43.0 L 70.0 43.0 M 0.0 51.0 L 70.0 51.0 M 0.0 59.0 L 70.0 59.0 M 0.0 67.0 L 70.0 67.0 Z" fill="none" stroke="#d6d6d6" stroke-width="0.75" />
<path d="M 0.0 120.0 L 70.0 120.0 M 0.0 130.0 L 70.0 130.0 M 0.0 140.0 L 70.0 140.0 M 0.0 150.0 L 70.0 150.0 M 0.0 160.0 L 70.0 160.0 M 0.0 170.0 L 70.0 170.0 Z" fill="none" stroke="#d6d6d6" stroke-width="0.75" />
<path d="M 25.0 60.024 C 25.0 61.112 26.0624 62.2 27.112 62.2 C 30.312 62.2 33.512 60.024 33.512 57.912 C 33.512 56.8624 32.424 55.8 31.4 55.8 C 28.2 55.8 25.0 57.912 25.0 60.024 Z" fill="none" stroke="#404040" stroke-width="1.0" />
<path d="M 23.0 136.25 L 31.0 136.25 L 31.0 143.75 L 23.0 143.75 L 23.0 136.25 Z" fill="#ffffff" stroke="none" stroke-width="1.0" />
<text x='23.0' y='143.75' font-family="Default" font-size="10.0" fill="#404040" >0</text></g>
<text x='511.0' y='250.0' font-family="Default" font-size="10.0" fill="#ff0000" >20</text>
<path d="M 510.0 252.0 L 510.0 284.0 Z" fill="#000000" stroke="#000000" stroke-width="0.75" />
<path d="M 580.0 252.0 L 580.0 284.0 Z" fill="#000000" stroke="#000000" stroke-width="0.75" />
<path d="M 510.0 337.0 L 510.0 387.0 Z" fill="#000000" stroke="#000000" stroke-width="0.75" />
<path d="M 580.0 337.0 L 580.0 387.0 Z" fill="#000000" stroke="#000000" stroke-width="0.75" /><g transform="translate(580.0,217.0)">
<path d="M 0.0 0.0 L 70.0 0.0 L 70.0 191.0 L 0.0 191.0 L 0.0 0.0 Z" fill="#ffffff" stroke="none" stroke-width="1.0" />
<path d="M 0.0 35.0 L 70.0 35.0 M 0.0 43.0 L 70.0 43.0 M 0.0 51.0 L 70.0 51.0 M 0.0 59.0 L 70.0 59.0 M 0.0 67.0 L 70.0 67.0 Z" fill="none" stroke="#d6d6d6" stroke-width="0.75" />
<path d="M 0.0 120.0 L 70.0 120.0 M 0.0 130.0 L 70.0 130.0 M 0.0 140.0 L 70.0 140.0 M 0.0 150.0 L 70.0 150.0 M 0.0 160.0 L 70.0 160.0 M 0.0 170.0 L 70.0 170.0 Z" fill="none" stroke="#d6d6d6" stroke-width="0.75" />
<path d="M 25.0 60.024 C 25.0 61.112 26.0624 62.2 27.112 62.2 C 30.312 62.2 33.512 60.024 33.512 57.912 C 33.512 56.8624 32.424 55.8 31.4 55.8 C 28.2 55.8 25.0 57.912 25.0 60.024 Z" fill="none" stroke="#404040" stroke-width="1.0" />
<path d="M 23.0 146.25 L 31.0 146.25 L 31.0 153.75 L 23.0 153.75 L 23.0 146.25 Z" fill="#ffffff" stroke="none" stroke-width="1.0" />
<text x='23.0' y='153.75' font-family="Default" font-size="10.0" fill="#404040" >5</text></g>
<text x='605.0' y='217.0' font-family="Default" font-size="10.0" fill="#000000" >V</text>
<text x='581.0' y='250.0' font-family="Default" font-size="10.0" fill="#ff0000" >21</text>
<path d="M 580.0 252.0 L 580.0 284.0 Z" fill="#000000" stroke="#000000" stroke-width="0.75" />
<path d="M 650.0 252.0 L 650.0 284.0 Z" fill="#000000" stroke="#000000" stroke-width="0.75" />
<path d="M 580.0 337.0 L 580.0 387.0 Z" fill="#000000" stroke="#000000" stroke-width="0.75" />
<path d="M 650.0 337.0 L 650.0 387.0 Z" fill="#000000" stroke="#000000" stroke-width="0.75" /><g transform="translate(650.0,217.0)">
<path d="M 0.0 0.0 L 70.0 0.0 L 70.0 191.0 L 0.0 191.0 L 0.0 0.0 Z" fill="#ffffff" stroke="none" stroke-width="1.0" />
<path d="M 0.0 35.0 L 70.0 35.0 M 0.0 43.0 L 70.0 43.0 M 0.0 51.0 L 70.0 51.0 M 0.0 59.0 L 70.0 59.0 M 0.0 67.0 L 70.0 67.0 Z" fill="none" stroke="#d6d6d6" stroke-width="0.75" />
<path d="M 0.0 120.0 L 70.0 120.0 M 0.0 130.0 L 70.0 130.0 M 0.0 140.0 L 70.0 140.0 M 0.0 150.0 L 70.0 150.0 M 0.0 160.0 L 70.0 160.0 M 0.0 170.0 L 70.0 170.0 Z" fill="none" stroke="#d6d6d6" stroke-width="0.75" />
<path d="M 25.0 72.024 C 25.0 73.112 26.0624 74.200005 27.112 74.200005 C 30.312 74.200005 33.512 72.024 33.512 69.912 C 33.512 68.862404 32.424 67.8 31.4 67.8 C 28.2 67.8 25.0 69.912 25.0 72.024 Z" fill="none" stroke="#404040" stroke-width="1.0" />
<path d="M 23.0 146.25 L 31.0 146.25 L 31.0 153.75 L 23.0 153.75 L 23.0 146.25 Z" fill="#ffffff" stroke="none" stroke-width="1.0" />
<text x='23.0' y='153.75' font-family="Default" font-size="10.0" fill="#404040" >0</text></g>
<text x='651.0' y='250.0' font-family="Default" font-size="10.0" fill="#ff0000" >22</text>
<path d="M 650.0 252.0 L 650.0 284.0 Z" fill="#000000" stroke="#000000" stroke-width="0.75" />
<path d="M 720.0 252.0 L 720.0 284.0 Z" fill="#000000" stroke="#000000" stroke-width="0.75" />
<path d="M 650.0 337.0 L 650.0 387.0 Z" fill="#000000" stroke="#000000" stroke-width="0.75" />
<path d="M 720.0 337.0 L 720.0 387.0 Z" fill="#000000" stroke="#000000" stroke-width="0.75" /><g transform="translate(720.0,217.0)">
<path d="M 0.0 0.0 L 70.0 0.0 L 70.0 191.0 L 0.0 191.0 L 0.0 0.0 Z" fill="#ffffff" stroke="none" stroke-width="1.0" />
<path d="M 0.0 35.0 L 70.0 35.0 M 0.0 43.0 L 70.0 43.0 M 0.0 51.0 L 70.0 51.0 M 0.0 59.0 L 70.0 59.0 M 0.0 67.0 L 70.0 67.0 Z" fill="none" stroke="#d6d6d6" stroke-width="0.75" />
<path d="M 0.0 120.0 L 70.0 120.0 M 0.0 130.0 L 70.0 130.0 M 0.0 140.0 L 70.0 140.0 M 0.0 150.0 L 70.0 150.0 M 0.0 160.0 L 70.0 160.0 M 0.0 170.0 L 70.0 170.0 Z" fill="none" stroke="#d6d6d6" stroke-width="0.75" />
<path d="M 25.0 72.024 C 25.0 73.112 26.0624 74.200005 27.112 74.200005 C 30.312 74.200005 33.512 72.024 33.512 69.912 C 33.512 68.862404 32.424 67.8 31.4 67.8 C 28.2 67.8 25.0 69.912 25.0 72.024 Z" fill="none" stroke="#404040" stroke-width="1.0" />
<path d="M 23.0 156.25 L 31.0 156.25 L 31.0 163.75 L 23.0 163.75 L 23.0 156.25 Z" fill="#ffffff" stroke="none" stroke-width="1.0" />
<text x='23.0' y='163.75' font-family="Default" font-size="10.0" fill="#404040" >5</text></g>
<text x='745.0' y='217.0' font-family="Default" font-size="10.0" fill="#000000" >V</text>
<text x='721.0' y='250.0' font-family="Default" font-size="10.0" fill="#ff0000" >23</text>
<path d="M 720.0 252.0 L 720.0 284.0 Z" fill="#000000" stroke="#000000" stroke-width="0.75" />
<path d="M 790.0 252.0 L 790.0 284.0 Z" fill="#000000" stroke="#000000" stroke-width="0.75" />
<path d="M 720.0 337.0 L 720.0 387.0 Z" fill="#000000" stroke="#000000" stroke-width="0.75" />
<path d="M 790.0 337.0 L 790.0 387.0 Z" fill="#000000" stroke="#000000" stroke-width="0.75" /><g transform="translate(790.0,217.0)">
<path d="M 0.0 0.0 L 70.0 0.0 L 70.0 191.0 L 0.0 191.0 L 0.0 0.0 Z" fill="#ffffff" stroke="none" stroke-width="1.0" />
<path d="M 0.0 35.0 L 70.0 35.0 M 0.0 43.0 L 70.0 43.0 M 0.0 51.0 L 70.0 51.0 M 0.0 59.0 L 70.0 59.0 M 0.0 67.0 L 70.0 67.0 Z" fill="none" stroke="#d6d6d6" stroke-width="0.75" />
<path d="M 0.0 120.0 L 70.0 120.0 M 0.0 130.0 L 70.0 130.0 M 0.0 140.0 L 70.0 140.0 M 0.0 150.0 L 70.0 150.0 M 0.0 160.0 L 70.0 160.0 M 0.0 170.0 L 70.0 170.0 Z" fill="none" stroke="#d6d6d6" stroke-width="0.75" />
<path d="M 21.0 75.0 L 37.0 75.0 Z" fill="none" stroke="#d6d6d6" stroke-width="0.75" />
<path d="M 21.0 83.0 L 37.0 83.0 Z" fill="none" stroke="#d6d6d6" stroke-width="0.75" />
<path d="M 21.0 75.0 L 37.0 75.0 Z" fill="none" stroke="#d6d6d6" stroke-width="0.75" />
<path d="M 21.0 83.0 L 37.0 83.0 Z" fill="none" stroke="#d6d6d6" stroke-width="0.75" />
<path d="M 25.0 84.024 C 25.0 85.112 26.0624 86.200005 27.112 86.200005 C 30.312 86.200005 33.512 84.024 33.512 81.912 C 33.512 80.862404 32.424 79.8 31.4 79.8 C 28.2 79.8 25.0 81.912 25.0 84.024 Z" fill="none" stroke="#404040" stroke-width="1.0" />
<path d="M 23.0 156.25 L 31.0 156.25 L 31.0 163.75 L 23.0 163.75 L 23.0 156.25 Z" fill="#ffffff" stroke="none" stroke-width="1.0" />
<text x='23.0' y='163.75' font-family="Default" font-size="10.0" fill="#404040" >0</text></g>
<text x='791.0' y='250.0' font-family="Default" font-size="10.0" fill="#ff0000" >24</text>
<path d="M 790.0 252.0 L 790.0 284.0 Z" fill="#000000" stroke="#000000" stroke-width="0.75" />
<path d="M 860.0 252.0 L 860.0 284.0 Z" fill="#000000" stroke="#000000" stroke-width="0.75" />
<path d="M 790.0 337.0 L 790.0 387.0 Z" fill="#000000" stroke="#000000" stroke-width="0.75" />
<path d="M 860.0 337.0 L 860.0 387.0 Z" fill="#000000" stroke="#000000" stroke-width="0.75" /><g transform="translate(860.0,217.0)">
<path d="M 0.0 0.0 L 70.0 0.0 L 70.0 191.0 L 0.0 191.0 L 0.0 0.0 Z" fill="#ffffff" stroke="none" stroke-width="1.0" />
<path d="M 0.0 35.0 L 70.0 35.0 M 0.0 43.0 L 70.0 43.0 M 0.0 51.0 L 70.0 51.0 M 0.0 59.0 L 70.0 59.0 M 0.0 67.0 L 70.0 67.0 Z" fill="none" stroke="#d6d6d6" stroke-width="0.75" />
<path d="M 0.0 120.0 L 70.0 120.0 M 0.0 130.0 L 70.0 130.0 M 0.0 140.0 L 70.0 140.0 M 0.0 150.0 L 70.0 150.0 M 0.0 160.0 L 70.0 160.0 M 0.0 170.0 L 70.0 170.0 Z" fill="none" stroke="#d6d6d6" stroke-width="0.75" />
<path d="M 21.0 75.0 L 37.0 75.0 Z" fill="none" stroke="#d6d6d6" stroke-width="0.75" />
<path d="M 21.0 83.0 L 37.0 83.0 Z" fill="none" stroke="#d6d6d6" stroke-width="0.75" />
<path d="M 21.0 75.0 L 37.0 75.0 Z" fill="none" stroke="#d6d6d6" stroke-width="0.75" />
<path d="M 21.0 83.0 L 37.0 83.0 Z" fill="none" stroke="#d6d6d6" stroke-width="0.75" />
<path d="M 25.0 84.024 C 25.0 85.112 26.0624 86.200005 27.112 86.200005 C 30.312 86.200005 33.512 84.024 33.512 81.912 C 33.512 80.862404 32.424 79.8 31.4 79.8 C 28.2 79.8 25.0 81.912 25.0 84.024 Z" fill="none" stroke="#404040" stroke-width="1.0" />
<path d="M 23.0 166.25 L 31.0 166.25 L 31.0 173.75 L 23.0 173.75 L 23.0 166.25 Z" fill="#ffffff" stroke="none" stroke-width="1.0" />
<text x='23.0' y='173.75' font-family="Default" font-size="10.0" fill="#404040" >5</text></g>
<text x='885.0' y='217.0' font-family="Default" font-size="10.0" fill="#000000" >V</text>
<text x='861.0' y='250.0' font-family="Default" font-size="10.0" fill="#ff0000" >25</text>
<path d="M 860.0 252.0 L 860.0 284.0 Z" fill="#000000" stroke="#000000" stroke-width="0.75" />
<path d="M 924.0 252.0 L 925.0 252.0 L 925.0 284.0 L 924.0 284.0 L 924.0 252.0 Z" fill="#000000" stroke="#000000" stroke-width="0.75" />
<path d="M 927.0 252.0 L 930.0 252.0 L 930.0 284.0 L 927.0 284.0 L 927.0 252.0 Z" fill="#000000" stroke="#000000" stroke-width="0.75" />
<path d="M 860.0 337.0 L 860.0 387.0 Z" fill="#000000" stroke="#000000" stroke-width="0.75" />
<path d="M 924.0 337.0 L 925.0 337.0 L 925.0 387.0 L 924.0 387.0 L 924.0 337.0 Z" fill="#000000" stroke="#000000" stroke-width="0.75" />
<path d="M 927.0 337.0 L 930.0 337.0 L 930.0 387.0 L 927.0 387.0 L 927.0 337.0 Z" fill="#000000" stroke="#000000" stroke-width="0.75" />
</svg>