<svg width="960.0px" height="217.0px" xmlns="http://www.w3.org/2000/svg" version="1.1">

<path d="M 0.0 0.0 L 960.0 0.0 L 960.0 217.0 L 0.0 217.0 L 0.0 0.0 Z" fill="#ffffff" stroke="none" stroke-width="1.0" /><g transform="translate(20.0,20.0)">
<path d="M 0.0 0.0 L 174.0 0.0 L 174.0 186.0 L 0.0 186.0 L 0.0 0.0 Z" fill="#ffffff" stroke="none" stroke-width="1.0" />
<path d="M 0.0 30.0 L 174.0 30.0 M 0.0 38.0 L 174.0 38.0 M 0.0 46.0 L 174.0 46.0 M 0.0 54.0 L 174.0 54.0 M 0.0 62.0 L 174.0 62.0 Z" fill="none" stroke="#d6d6d6" stroke-width="0.75" />
<path d="M 0.0 115.0 L 174.0 115.0 M 0.0 125.0 L 174.0 125.0 M 0.0 135.0 L 174.0 135.0 M 0.0 145.0 L 174.0 145.0 M 0.0 155.0 L 174.0 155.0 M 0.0 165.0 L 174.0 165.0 Z" fill="none" stroke="#d6d6d6" stroke-width="0.75" />
<path d="M 69.91537 37.062256 C 69.91537 37.266537 70.0321 37.441635 70.23638 37.61673 C 70.46984 37.79183 70.70331 37.966927 70.96595 38.14202 C 71.2286 38.287937 71.46206 38.608948 71.695526 39.075874 C 71.8998 39.51362 72.01653 40.097275 72.01653 40.797665 C 72.01653 42.140076 71.520424 43.161476 70.528206 43.891052 C 69.506805 44.62062 68.22276 44.970818 66.67607 44.970818 C 65.450386 44.970818 64.37062 44.678986 63.46595 44.036964 C 62.5321 43.45331 62.065174 42.607002 62.065174 41.5856 C 62.065174 41.031128 62.269455 40.593384 62.64883 40.184822 C 63.02821 39.83463 63.495132 39.63035 64.04961 39.63035 C 64.5749 39.63035 65.041824 39.83463 65.39202 40.21401 C 65.80058 40.593384 65.97568 41.06031 65.97568 41.5856 C 65.97568 41.848248 65.7714 42.110893 65.39202 42.402725 C 64.98346 42.665367 64.77918 42.928017 64.77918 43.19066 C 64.77918 43.570038 64.95428 43.832684 65.33366 44.007782 C 65.713036 44.182877 66.15077 44.270428 66.67607 44.270428 C 67.347275 44.270428 67.84338 43.92023 68.13521 43.27821 C 68.39786 42.57782 68.54377 41.7607 68.54377 40.797665 L 68.54377 40.301556 C 68.54377 39.63035 68.51459 39.13424 68.485405 38.81323 C 68.45622 38.492218 68.31031 38.171204 68.07684 37.90856 C 67.87257 37.645916 67.52237 37.5 67.05544 37.5 L 64.66245 37.5 C 64.3998 37.5 64.25389 37.354084 64.25389 37.062256 C 64.25389 36.79961 64.3998 36.653698 64.66245 36.62451 L 67.05544 36.62451 C 67.60992 36.62451 67.989296 36.449417 68.22276 36.09922 C 68.39786 35.836575 68.51459 35.340466 68.54377 34.640076 L 68.54377 33.677044 L 68.54377 33.44358 C 68.54377 31.634241 67.87257 30.729572 66.55933 30.729572 C 65.39202 30.729572 64.808365 31.050583 64.77918 31.692606 C 64.77918 31.896887 64.95428 32.13035 65.33366 32.392998 C 65.68385 32.655643 65.85895 32.889107 65.85895 33.093384 C 65.85895 33.589493 65.68385 33.998055 65.33366 34.348248 C 65.01264 34.669262 64.60408 34.844357 64.10797 34.844357 C 63.64105 34.844357 63.232487 34.669262 62.911476 34.348248 C 62.590466 33.998055 62.415367 33.589493 62.415367 33.093384 C 62.415367 32.159534 62.82393 31.42996 63.64105 30.846304 C 64.45817 30.32101 65.4212 30.029182 66.55933 30.029182 C 68.04766 30.029182 69.24416 30.32101 70.17802 30.875486 C 71.14105 31.42996 71.60797 32.305447 71.60797 33.44358 C 71.60797 34.2607 71.520424 34.902725 71.34533 35.340466 C 71.170235 35.77821 70.96595 36.070038 70.76167 36.15759 C 70.76167 36.15759 70.35311 36.361866 70.17802 36.507782 C 70.17802 36.507782 69.91537 36.828793 69.91537 37.062256 Z" fill="#000000" stroke="none" stroke-width="0.75" />
<path d="M 67.77043 47.40856 C 68.324905 47.40856 68.821014 47.350193 69.25876 47.20428 C 69.6965 47.058365 69.959145 47.0 70.04669 47.0 C 70.192604 47.0 70.28015 47.029182 70.36771 47.11673 C 70.42607 47.1751 70.45525 47.233463 70.484436 47.32101 C 70.484436 47.37938 70.45525 47.437744 70.42607 47.49611 L 61.933853 57.35992 L 66.924126 57.35992 L 66.924126 53.449417 C 66.924126 53.18677 67.01167 52.95331 67.1284 52.807392 C 67.3035 52.661476 67.4786 52.515564 67.71206 52.4572 C 67.97471 52.340466 68.26653 52.07782 68.64591 51.640076 C 68.937744 51.319065 69.317116 50.706226 69.75486 49.801556 C 69.81323 49.684826 69.90078 49.626457 70.01751 49.626457 C 70.28015 49.626457 70.39688 49.772373 70.42607 50.03502 L 70.42607 57.35992 L 72.55642 57.35992 C 72.84825 57.35992 72.99416 57.505836 73.023346 57.797665 C 73.023346 58.089493 72.877426 58.235405 72.55642 58.235405 L 70.42607 58.235405 L 70.42607 58.468872 C 70.42607 59.28599 70.63035 59.928013 71.00973 60.45331 C 71.44747 60.9786 71.97276 61.270428 72.5856 61.270428 C 72.81906 61.270428 72.9358 61.387157 72.9358 61.62062 C 72.9358 61.854084 72.81906 61.970818 72.5856 61.970818 C 72.14786 61.970818 71.50584 61.91245 70.601166 61.79572 C 69.696495 61.649803 69.054474 61.59144 68.64591 61.59144 C 68.23735 61.59144 67.56615 61.649803 66.69066 61.79572 C 65.81517 61.91245 65.17315 61.970818 64.735405 61.970818 C 64.501945 61.970818 64.385216 61.854084 64.385216 61.62062 C 64.385216 61.387157 64.501945 61.270428 64.735405 61.270428 C 65.34825 61.270428 65.87354 60.9786 66.31128 60.45331 C 66.71984 59.89883 66.924126 59.25681 66.924126 58.468872 L 66.924126 58.235405 L 61.933853 58.235405 C 61.61284 58.235405 61.379375 58.17704 61.233463 58.001945 C 61.087547 57.885212 61.0 57.710114 61.0 57.53502 C 61.0 57.476654 61.145912 57.272373 61.437744 56.92218 C 61.729572 56.571983 62.079765 56.105057 62.488327 55.492218 C 62.488327 55.492218 63.305447 54.20817 63.71401 53.449417 C 63.71401 53.449417 64.47276 51.78599 64.735405 50.706226 C 65.02724 49.65564 65.17315 48.575874 65.17315 47.49611 C 65.17315 47.175095 65.31907 47.029182 65.58171 47.029182 C 65.61089 47.029182 65.756805 47.058365 65.96109 47.11673 C 66.16537 47.175095 66.4572 47.233463 66.77821 47.32101 C 67.1284 47.379375 67.44942 47.408558 67.77043 47.408558 Z" fill="#000000" stroke="none" stroke-width="0.75" />
<path d="M 22.764973 22.115383 C 22.921913 22.036913 22.948072 22.036913 23.105015 22.036913 C 23.314268 22.06307 23.445057 22.14154 23.73278 22.455425 C 25.616081 24.39104 27.185501 27.843758 27.577856 30.773342 C 27.630169 31.244167 27.630169 32.34276 27.577856 32.839737 C 27.29013 35.533905 26.165377 37.99266 23.57584 41.52385 L 23.209644 42.020832 L 23.418898 42.62244 C 23.915882 44.061073 24.491331 45.81359 24.85753 47.095284 C 24.96216 47.409164 25.04063 47.67074 25.04063 47.696896 C 25.04063 47.696896 25.223728 47.696896 25.406826 47.723053 C 26.322319 47.80152 27.10703 48.01078 27.917896 48.40313 C 28.57182 48.74317 29.147274 49.13552 29.696568 49.658665 C 30.29818 50.260277 30.690535 50.80957 31.05673 51.568123 C 31.606026 52.666718 31.84144 53.81762 31.81528 54.96853 C 31.789125 55.700924 31.684496 56.25022 31.449085 56.930305 C 31.1352 57.924263 30.559748 58.83976 29.77504 59.62447 C 29.094955 60.30455 28.46719 60.72306 27.630169 61.063103 L 27.316284 61.193886 L 27.316284 62.135536 C 27.316284 63.469543 27.237814 65.038956 27.133184 65.980606 C 27.02856 66.94841 26.766989 67.86391 26.348476 68.700935 C 25.249886 70.92427 23.314268 72.10133 21.143244 71.89209 C 18.684484 71.65667 16.69656 69.98262 16.199577 67.73312 C 15.964161 66.713 16.068794 65.9283 16.487303 65.27437 C 17.036598 64.411194 18.082878 63.91421 19.102997 63.940365 C 20.30622 63.992683 21.274027 64.934326 21.457123 66.24218 C 21.58791 67.28845 21.143244 68.25626 20.30622 68.7794 C 19.835394 69.06713 19.181469 69.197914 18.684484 69.119446 C 18.606018 69.119446 18.527544 69.093285 18.527544 69.119446 L 18.84143 69.43333 C 19.416882 70.00878 20.070807 70.374985 20.907831 70.558075 C 21.090927 70.584236 21.247868 70.584236 21.666382 70.584236 C 22.137207 70.584236 22.189518 70.584236 22.451088 70.53192 C 22.81729 70.42729 23.131172 70.29651 23.418898 70.139565 C 24.726748 69.35486 25.616081 67.73312 25.851494 65.77136 C 25.929964 65.038956 26.008434 63.469543 26.008434 62.318638 C 26.008434 61.560085 26.008434 61.50777 25.956123 61.50777 C 25.851494 61.560085 25.302197 61.6124 24.909843 61.638554 C 24.41286 61.66471 23.57584 61.66471 23.183485 61.6124 C 21.640223 61.4293 20.227747 60.90616 18.998373 60.042976 C 17.167385 58.761288 15.859535 56.851826 15.31024 54.654644 C 14.604002 51.908165 15.100986 48.978584 16.827343 45.89206 C 17.55974 44.610374 18.265978 43.564095 20.018494 41.236122 L 21.012455 39.902122 L 20.829355 39.405136 C 19.573822 36.083202 19.15531 34.173744 19.024527 31.401108 C 18.972214 30.197887 19.024527 29.177761 19.181469 28.340742 C 19.573822 26.143559 20.593945 24.181787 22.189518 22.612366 C 22.503403 22.298483 22.63419 22.193855 22.764973 22.115383 M 24.831371 26.588224 C 24.569805 26.143559 24.622118 26.169712 24.386707 26.326658 C 23.65431 26.771324 22.89576 27.451405 22.34646 28.131483 C 21.221714 29.57012 20.593945 31.244167 20.515476 33.048996 C 20.489319 33.78139 20.56779 34.252216 20.907831 35.37696 C 21.169397 36.292458 21.901793 38.5158 21.95411 38.56811 C 21.95411 38.59427 22.111048 38.411175 22.26799 38.17576 C 24.072823 35.58622 25.04063 33.467506 25.406826 31.348791 C 25.485298 30.799496 25.53761 30.354828 25.563768 29.727062 C 25.589928 28.28843 25.432985 27.582191 24.831371 26.588224 M 22.581877 44.191864 C 22.424934 43.694878 22.26799 43.302525 22.26799 43.302525 C 22.241835 43.302525 21.143244 44.76731 20.672415 45.421238 C 19.129156 47.592266 18.187506 49.34478 17.638206 51.071136 C 17.27201 52.143574 17.115068 53.137543 17.062756 54.236134 C 17.062756 54.837746 17.088915 55.20394 17.193539 55.64861 C 17.795153 57.976578 20.280064 59.886036 23.209644 60.30455 C 23.65431 60.35686 24.909843 60.35686 25.459139 60.30455 C 26.008434 60.226078 25.956123 60.252235 25.929964 60.016823 C 25.773026 57.53191 25.563768 56.014805 25.14526 53.765305 C 24.988314 52.823658 24.543648 50.835728 24.517488 50.80957 C 24.491331 50.783417 23.99435 50.835728 23.706627 50.9142 C 23.340427 50.99267 23.105015 51.071136 22.79113 51.22808 C 21.090927 52.091263 20.593945 54.053036 21.666382 55.64861 C 21.849482 55.91018 22.320305 56.381004 22.608032 56.564102 C 22.71266 56.642574 22.948072 56.799515 23.105015 56.877987 C 23.340427 57.00877 23.392738 57.061085 23.445057 57.165714 C 23.65431 57.505756 23.523525 57.924263 23.131172 58.107365 C 22.921913 58.21199 22.764973 58.185837 22.34646 57.976578 C 21.326344 57.4796 20.56779 56.799515 20.018494 55.962494 C 18.998373 54.393074 18.867586 52.37899 19.70461 50.678787 C 20.437006 49.213997 21.744852 48.22003 23.418898 47.853836 C 23.57584 47.80152 23.706627 47.775368 23.706627 47.775368 C 23.73278 47.749207 23.000385 45.368923 22.581877 44.191864 M 26.139221 50.94036 C 26.060753 50.94036 25.98228 50.9142 25.956123 50.9142 L 25.877651 50.88804 L 26.008434 51.43734 C 26.610046 54.07919 27.054714 56.956455 27.211655 59.389057 C 27.237814 59.650627 27.237814 59.859882 27.237814 59.859882 C 27.263973 59.859882 27.60401 59.70294 27.78711 59.572155 C 28.231777 59.31058 28.65029 58.91823 28.99033 58.47356 C 29.801197 57.401123 30.08892 56.06712 29.77504 54.706955 C 29.539627 53.608364 28.911861 52.58824 28.022522 51.882008 C 27.473227 51.463493 26.740831 51.097298 26.139221 50.94036 Z" fill="#000000" stroke="none" stroke-width="0.75" />
<path d="M 95.52 35.232 C 95.52 36.456 96.715195 37.68 97.895996 37.68 C 101.495995 37.68 105.09599 35.232 105.09599 32.856 C 105.09599 31.6752 103.871994 30.48 102.71999 30.48 C 99.119995 30.48 95.52 32.856 95.52 35.232 Z" fill="#404040" stroke="none" stroke-width="1.0" />
<path d="M 94.0 111.25 L 102.0 111.25 L 102.0 118.75 L 94.0 118.75 L 94.0 111.25 Z" fill="#ffffff" stroke="none" stroke-width="1.0" />
<text x='94.0' y='118.75' font-family="Default" font-size="10.0" fill="#404040" >0</text>
<path d="M 95.52 47.232 C 95.52 48.456 96.715195 49.68 97.895996 49.68 C 101.495995 49.68 105.09599 47.232 105.09599 44.856 C 105.09599 43.6752 103.871994 42.48 102.71999 42.48 C 99.119995 42.48 95.52 44.856 95.52 47.232 Z" fill="#404040" stroke="none" stroke-width="1.0" />
<path d="M 94.0 121.25 L 102.0 121.25 L 102.0 128.75 L 94.0 128.75 L 94.0 121.25 Z" fill="#ffffff" stroke="none" stroke-width="1.0" />
<text x='94.0' y='128.75' font-family="Default" font-size="10.0" fill="#404040" >0</text>
<path d="M 95.5 34.96 L 96.5 34.96 L 96.5 77.0 L 95.5 77.0 M 95.5 34.96 Z" fill="#404040" stroke="none" stroke-width="0.75" />
<path d="M 116.52 35.232 C 116.52 36.456 117.715195 37.68 118.895996 37.68 C 122.495995 37.68 126.09599 35.232 126.09599 32.856 C 126.09599 31.6752 124.871994 30.48 123.71999 30.48 C 120.119995 30.48 116.52 32.856 116.52 35.232 Z" fill="#404040" stroke="none" stroke-width="1.0" />
<path d="M 115.0 111.25 L 123.0 111.25 L 123.0 118.75 L 115.0 118.75 L 115.0 111.25 Z" fill="#ffffff" stroke="none" stroke-width="1.0" />
<text x='115.0' y='118.75' font-family="Default" font-size="10.0" fill="#404040" >0</text>
<path d="M 116.52 47.232 C 116.52 48.456 117.715195 49.68 118.895996 49.68 C 122.495995 49.68 126.09599 47.232 126.09599 44.856 C 126.09599 43.6752 124.871994 42.48 123.71999 42.48 C 120.119995 42.48 116.52 44.856 116.52 47.232 Z" fill="#404040" stroke="none" stroke-width="1.0" />
<path d="M 115.0 121.25 L 123.0 121.25 L 123.0 128.75 L 115.0 128.75 L 115.0 121.25 Z" fill="#ffffff" stroke="none" stroke-width="1.0" />
<text x='115.0' y='128.75' font-family="Default" font-size="10.0" fill="#404040" >0</text>
<path d="M 116.5 34.96 L 117.5 34.96 L 117.5 77.0 L 116.5 77.0 M 116.5 34.96 Z" fill="#404040" stroke="none" stroke-width="0.75" />
<path d="M 137.52 35.232 C 137.52 36.456 138.71521 37.68 139.89601 37.68 C 143.496 37.68 147.09601 35.232 147.09601 32.856 C 147.09601 31.6752 145.87201 30.48 144.72 30.48 C 141.12001 30.48 137.52 32.856 137.52 35.232 Z" fill="#404040" stroke="none" stroke-width="1.0" />
<path d="M 136.0 111.25 L 144.0 111.25 L 144.0 118.75 L 136.0 118.75 L 136.0 111.25 Z" fill="#ffffff" stroke="none" stroke-width="1.0" />
<text x='136.0' y='118.75' font-family="Default" font-size="10.0" fill="#404040" >0</text>
<path d="M 137.52 47.232 C 137.52 48.456 138.71521 49.68 139.89601 49.68 C 143.496 49.68 147.09601 47.232 147.09601 44.856 C 147.09601 43.6752 145.87201 42.48 144.72 42.48 C 141.12001 42.48 137.52 44.856 137.52 47.232 Z" fill="#404040" stroke="none" stroke-width="1.0" />
<path d="M 136.0 121.25 L 144.0 121.25 L 144.0 128.75 L 136.0 128.75 L 136.0 121.25 Z" fill="#ffffff" stroke="none" stroke-width="1.0" />
<text x='136.0' y='128.75' font-family="Default" font-size="10.0" fill="#404040" >0</text>
<path d="M 137.5 34.96 L 138.5 34.96 L 138.5 77.0 L 137.5 77.0 M 137.5 34.96 Z" fill="#404040" stroke="none" stroke-width="0.75" /></g>
<path d="M 35.35 36.3 C 35.35 37.15 36.18 38.0 37.0 38.0 C 39.5 38.0 42.0 36.3 42.0 34.65 C 42.0 33.83 41.149998 33.0 40.35 33.0 C 37.85 33.0 35.35 34.65 35.35 36.3 Z" fill="#000000" stroke="none" stroke-width="1.0" />
<path d="M 42.0 20.0 L 42.0 34.7 Z" fill="none" stroke="#000000" stroke-width="1.0" />
<text x='43.0' y='36.25' font-family="Default" font-size="10.0" fill="#000000" > = 60</text>
<text x='21.0' y='48.0' font-family="Default" font-size="10.0" fill="#ff0000" >1</text>
<path d="M 20.0 50.0 L 23.0 50.0 L 23.0 135.0 L 20.0 135.0 L 20.0 50.0 Z" fill="#000000" stroke="#000000" stroke-width="0.75" />
<path d="M 25.0 50.0 L 26.0 50.0 L 26.0 135.0 L 25.0 135.0 L 25.0 50.0 Z" fill="#000000" stroke="#000000" stroke-width="0.75" />
<path d="M 194.0 50.0 L 194.0 82.0 Z" fill="#000000" stroke="#000000" stroke-width="0.75" />
<path d="M 20.0 135.0 L 23.0 135.0 L 23.0 185.0 L 20.0 185.0 L 20.0 135.0 Z" fill="#000000" stroke="#000000" stroke-width="0.75" />
<path d="M 25.0 135.0 L 26.0 135.0 L 26.0 185.0 L 25.0 185.0 L 25.0 135.0 Z" fill="#000000" stroke="#000000" stroke-width="0.75" />
<path d="M 194.0 135.0 L 194.0 185.0 Z" fill="#000000" stroke="#000000" stroke-width="0.75" /><g transform="translate(194.0,20.0)">
<path d="M 0.0 0.0 L 103.0 0.0 L 103.0 186.0 L 0.0 186.0 L 0.0 0.0 Z" fill="#ffffff" stroke="none" stroke-width="1.0" />
<path d="M 0.0 30.0 L 103.0 30.0 M 0.0 38.0 L 103.0 38.0 M 0.0 46.0 L 103.0 46.0 M 0.0 54.0 L 103.0 54.0 M 0.0 62.0 L 103.0 62.0 Z" fill="none" stroke="#d6d6d6" stroke-width="0.75" />
<path d="M 0.0 115.0 L 103.0 115.0 M 0.0 125.0 L 103.0 125.0 M 0.0 135.0 L 103.0 135.0 M 0.0 145.0 L 103.0 145.0 M 0.0 155.0 L 103.0 155.0 M 0.0 165.0 L 103.0 165.0 Z" fill="none" stroke="#d6d6d6" stroke-width="0.75" />
<path d="M 24.52 47.232 C 24.52 48.456 25.7152 49.68 26.896 49.68 C 30.496 49.68 34.096 47.232 34.096 44.856 C 34.096 43.6752 32.872 42.48 31.720001 42.48 C 28.12 42.48 24.52 44.856 24.52 47.232 Z" fill="#404040" stroke="none" stroke-width="1.0" />
<path d="M 23.0 121.25 L 31.0 121.25 L 31.0 128.75 L 23.0 128.75 L 23.0 121.25 Z" fill="#ffffff" stroke="none" stroke-width="1.0" />
<text x='23.0' y='128.75' font-family="Default" font-size="10.0" fill="#404040" >0</text>
<path d="M 24.52 55.232 C 24.52 56.456 25.7152 57.68 26.896 57.68 C 30.496 57.68 34.096 55.232 34.096 52.856 C 34.096 51.6752 32.872 50.48 31.720001 50.48 C 28.12 50.48 24.52 52.856 24.52 55.232 Z" fill="#404040" stroke="none" stroke-width="1.0" />
<path d="M 23.0 131.25 L 31.0 131.25 L 31.0 138.75 L 23.0 138.75 L 23.0 131.25 Z" fill="#ffffff" stroke="none" stroke-width="1.0" />
<text x='23.0' y='138.75' font-family="Default" font-size="10.0" fill="#404040" >0</text>
<path d="M 24.5 46.96 L 25.5 46.96 L 25.5 85.0 L 24.5 85.0 M 24.5 46.96 Z" fill="#404040" stroke="none" stroke-width="0.75" />
<path d="M 45.52 47.232 C 45.52 48.456 46.715202 49.68 47.896 49.68 C 51.496002 49.68 55.096 47.232 55.096 44.856 C 55.096 43.6752 53.872 42.48 52.72 42.48 C 49.12 42.48 45.52 44.856 45.52 47.232 Z" fill="#404040" stroke="none" stroke-width="1.0" />
<path d="M 44.0 121.25 L 52.0 121.25 L 52.0 128.75 L 44.0 128.75 L 44.0 121.25 Z" fill="#ffffff" stroke="none" stroke-width="1.0" />
<text x='44.0' y='128.75' font-family="Default" font-size="10.0" fill="#404040" >0</text>
<path d="M 45.52 55.232 C 45.52 56.456 46.715202 57.68 47.896 57.68 C 51.496002 57.68 55.096 55.232 55.096 52.856 C 55.096 51.6752 53.872 50.48 52.72 50.48 C 49.12 50.48 45.52 52.856 45.52 55.232 Z" fill="#404040" stroke="none" stroke-width="1.0" />
<path d="M 44.0 131.25 L 52.0 131.25 L 52.0 138.75 L 44.0 138.75 L 44.0 131.25 Z" fill="#ffffff" stroke="none" stroke-width="1.0" />
<text x='44.0' y='138.75' font-family="Default" font-size="10.0" fill="#404040" >0</text>
<path d="M 45.5 46.96 L 46.5 46.96 L 46.5 85.0 L 45.5 85.0 M 45.5 46.96 Z" fill="#404040" stroke="none" stroke-width="0.75" />
<path d="M 66.52 47.232 C 66.52 48.456 67.715195 49.68 68.895996 49.68 C 72.495995 49.68 76.09599 47.232 76.09599 44.856 C 76.09599 43.6752 74.871994 42.48 73.71999 42.48 C 70.119995 42.48 66.52 44.856 66.52 47.232 Z" fill="#404040" stroke="none" stroke-width="1.0" />
<path d="M 65.0 121.25 L 73.0 121.25 L 73.0 128.75 L 65.0 128.75 L 65.0 121.25 Z" fill="#ffffff" stroke="none" stroke-width="1.0" />
<text x='65.0' y='128.75' font-family="Default" font-size="10.0" fill="#404040" >0</text>
<path d="M 66.52 55.232 C 66.52 56.456 67.715195 57.68 68.895996 57.68 C 72.495995 57.68 76.09599 55.232 76.09599 52.856 C 76.09599 51.6752 74.871994 50.48 73.71999 50.48 C 70.119995 50.48 66.52 52.856 66.52 55.232 Z" fill="#404040" stroke="none" stroke-width="1.0" />
<path d="M 65.0 131.25 L 73.0 131.25 L 73.0 138.75 L 65.0 138.75 L 65.0 131.25 Z" fill="#ffffff" stroke="none" stroke-width="1.0" />
<text x='65.0' y='138.75' font-family="Default" font-size="10.0" fill="#404040" >0</text>
<path d="M 66.5 46.96 L 67.5 46.96 L 67.5 85.0 L 66.5 85.0 M 66.5 46.96 Z" fill="#404040" stroke="none" stroke-width="0.75" /></g>
<text x='195.0' y='48.0' font-family="Default" font-size="10.0" fill="#ff0000" >2</text>
<path d="M 194.0 50.0 L 194.0 82.0 Z" fill="#000000" stroke="#000000" stroke-width="0.75" />
<path d="M 297.0 50.0 L 297.0 82.0 Z" fill="#000000" stroke="#000000" stroke-width="0.75" />
<path d="M 194.0 135.0 L 194.0 185.0 Z" fill="#000000" stroke="#000000" stroke-width="0.75" />
<path d="M 297.0 135.0 L 297.0 185.0 Z" fill="#000000" stroke="#000000" stroke-width="0.75" /><g transform="translate(297.0,20.0)">
<path d="M 0.0 0.0 L 103.0 0.0 L 103.0 186.0 L 0.0 186.0 L 0.0 0.0 Z" fill="#ffffff" stroke="none" stroke-width="1.0" />
<path d="M 0.0 30.0 L 103.0 30.0 M 0.0 38.0 L 103.0 38.0 M 0.0 46.0 L 103.0 46.0 M 0.0 54.0 L 103.0 54.0 M 0.0 62.0 L 103.0 62.0 Z" fill="none" stroke="#d6d6d6" stroke-width="0.75" />
<path d="M 0.0 115.0 L 103.0 115.0 M 0.0 125.0 L 103.0 125.0 M 0.0 135.0 L 103.0 135.0 M 0.0 145.0 L 103.0 145.0 M 0.0 155.0 L 103.0 155.0 M 0.0 165.0 L 103.0 165.0 Z" fill="none" stroke="#d6d6d6" stroke-width="0.75" />
<path d="M 24.52 55.232 C 24.52 56.456 25.7152 57.68 26.896 57.68 C 30.496 57.68 34.096 55.232 34.096 52.856 C 34.096 51.6752 32.872 50.48 31.720001 50.48 C 28.12 50.48 24.52 52.856 24.52 55.232 Z" fill="#404040" stroke="none" stroke-width="1.0" />
<path d="M 23.0 131.25 L 31.0 131.25 L 31.0 138.75 L 23.0 138.75 L 23.0 131.25 Z" fill="#ffffff" stroke="none" stroke-width="1.0" />
<text x='23.0' y='138.75' font-family="Default" font-size="10.0" fill="#404040" >0</text>
<path d="M 24.52 67.232 C 24.52 68.456 25.7152 69.68 26.896 69.68 C 30.496 69.68 34.096 67.232 34.096 64.856 C 34.096 63.6752 32.872 62.48 31.720001 62.48 C 28.12 62.48 24.52 64.856 24.52 67.232 Z" fill="#404040" stroke="none" stroke-width="1.0" />
<path d="M 23.0 141.25 L 31.0 141.25 L 31.0 148.75 L 23.0 148.75 L 23.0 141.25 Z" fill="#ffffff" stroke="none" stroke-width="1.0" />
<text x='23.0' y='148.75' font-family="Default" font-size="10.0" fill="#404040" >0</text>
<path d="M 33.18 65.04 L 34.18 65.04 L 34.18 22.0 L 33.18 22.0 M 33.18 65.04 Z" fill="#404040" stroke="none" stroke-width="0.75" />
<path d="M 45.52 55.232 C 45.52 56.456 46.715202 57.68 47.896 57.68 C 51.496002 57.68 55.096 55.232 55.096 52.856 C 55.096 51.6752 53.872 50.48 52.72 50.48 C 49.12 50.48 45.52 52.856 45.52 55.232 Z" fill="#404040" stroke="none" stroke-width="1.0" />
<path d="M 44.0 131.25 L 52.0 131.25 L 52.0 138.75 L 44.0 138.75 L 44.0 131.25 Z" fill="#ffffff" stroke="none" stroke-width="1.0" />
<text x='44.0' y='138.75' font-family="Default" font-size="10.0" fill="#404040" >0</text>
<path d="M 45.52 67.232 C 45.52 68.456 46.715202 69.68 47.896 69.68 C 51.496002 69.68 55.096 67.232 55.096 64.856 C 55.096 63.6752 53.872 62.48 52.72 62.48 C 49.12 62.48 45.52 64.856 45.52 67.232 Z" fill="#404040" stroke="none" stroke-width="1.0" />
<path d="M 44.0 141.25 L 52.0 141.25 L 52.0 148.75 L 44.0 148.75 L 44.0 141.25 Z" fill="#ffffff" stroke="none" stroke-width="1.0" />
<text x='44.0' y='148.75' font-family="Default" font-size="10.0" fill="#404040" >0</text>
<path d="M 54.18 65.04 L 55.18 65.04 L 55.18 22.0 L 54.18 22.0 M 54.18 65.04 Z" fill="#404040" stroke="none" stroke-width="0.75" />
<path d="M 66.52 55.232 C 66.52 56.456 67.715195 57.68 68.895996 57.68 C 72.495995 57.68 76.09599 55.232 76.09599 52.856 C 76.09599 51.6752 74.871994 50.48 73.71999 50.48 C 70.119995 50.48 66.52 52.856 66.52 55.232 Z" fill="#404040" stroke="none" stroke-width="1.0" />
<path d="M 65.0 131.25 L 73.0 131.25 L 73.0 138.75 L 65.0 138.75 L 65.0 131.25 Z" fill="#ffffff" stroke="none" stroke-width="1.0" />
<text x='65.0' y='138.75' font-family="Default" font-size="10.0" fill="#404040" >0</text>
<path d="M 66.52 67.232 C 66.52 68.456 67.715195 69.68 68.895996 69.68 C 72.495995 69.68 76.09599 67.232 76.09599 64.856 C 76.09599 63.6752 74.871994 62.48 73.71999 62.48 C 70.119995 62.48 66.52 64.856 66.52 67.232 Z" fill="#404040" stroke="none" stroke-width="1.0" />
<path d="M 65.0 141.25 L 73.0 141.25 L 73.0 148.75 L 65.0 148.75 L 65.0 141.25 Z" fill="#ffffff" stroke="none" stroke-width="1.0" />
<text x='65.0' y='148.75' font-family="Default" font-size="10.0" fill="#404040" >0</text>
<path d="M 75.18 65.04 L 76.18 65.04 L 76.18 22.0 L 75.18 22.0 M 75.18 65.04 Z" fill="#404040" stroke="none" stroke-width="0.75" /></g>
<text x='298.0' y='48.0' font-family="Default" font-size="10.0" fill="#ff0000" >3</text>
<path d="M 297.0 50.0 L 297.0 82.0 Z" fill="#000000" stroke="#000000" stroke-width="0.75" />
<path d="M 400.0 50.0 L 400.0 82.0 Z" fill="#000000" stroke="#000000" stroke-width="0.75" />
<path d="M 297.0 135.0 L 297.0 185.0 Z" fill="#000000" stroke="#000000" stroke-width="0.75" />
<path d="M 400.0 135.0 L 400.0 185.0 Z" fill="#000000" stroke="#000000" stroke-width="0.75" /><g transform="translate(400.0,20.0)">
<path d="M 0.0 0.0 L 103.0 0.0 L 103.0 186.0 L 0.0 186.0 L 0.0 0.0 Z" fill="#ffffff" stroke="none" stroke-width="1.0" />
<path d="M 0.0 30.0 L 103.0 30.0 M 0.0 38.0 L 103.0 38.0 M 0.0 46.0 L 103.0 46.0 M 0.0 54.0 L 103.0 54.0 M 0.0 62.0 L 103.0 62.0 Z" fill="none" stroke="#d6d6d6" stroke-width="0.75" />
<path d="M 0.0 115.0 L 103.0 115.0 M 0.0 125.0 L 103.0 125.0 M 0.0 135.0 L 103.0 135.0 M 0.0 145.0 L 103.0 145.0 M 0.0 155.0 L 103.0 155.0 M 0.0 165.0 L 103.0 165.0 Z" fill="none" stroke="#d6d6d6" stroke-width="0.75" />
<path d="M 21.0 70.0 L 37.0 70.0 Z" fill="none" stroke="#d6d6d6" stroke-width="0.75" />
<path d="M 21.0 78.0 L 37.0 78.0 Z" fill="none" stroke="#d6d6d6" stroke-width="0.75" />
<path d="M 24.52 67.232 C 24.52 68.456 25.7152 69.68 26.896 69.68 C 30.496 69.68 34.096 67.232 34.096 64.856 C 34.096 63.6752 32.872 62.48 31.720001 62.48 C 28.12 62.48 24.52 64.856 24.52 67.232 Z" fill="#404040" stroke="none" stroke-width="1.0" />
<path d="M 23.0 141.25 L 31.0 141.25 L 31.0 148.75 L 23.0 148.75 L 23.0 141.25 Z" fill="#ffffff" stroke="none" stroke-width="1.0" />
<text x='23.0' y='148.75' font-family="Default" font-size="10.0" fill="#404040" >0</text>
<path d="M 24.52 79.232 C 24.52 80.456 25.7152 81.68 26.896 81.68 C 30.496 81.68 34.096 79.232 34.096 76.856 C 34.096 75.6752 32.872 74.48 31.720001 74.48 C 28.12 74.48 24.52 76.856 24.52 79.232 Z" fill="#404040" stroke="none" stroke-width="1.0" />
<path d="M 23.0 151.25 L 31.0 151.25 L 31.0 158.75 L 23.0 158.75 L 23.0 151.25 Z" fill="#ffffff" stroke="none" stroke-width="1.0" />
<text x='23.0' y='158.75' font-family="Default" font-size="10.0" fill="#404040" >0</text>
<path d="M 33.18 77.04 L 34.18 77.04 L 34.18 34.0 L 33.18 34.0 M 33.18 77.04 Z" fill="#404040" stroke="none" stroke-width="0.75" />
<path d="M 42.0 70.0 L 58.0 70.0 Z" fill="none" stroke="#d6d6d6" stroke-width="0.75" />
<path d="M 42.0 78.0 L 58.0 78.0 Z" fill="none" stroke="#d6d6d6" stroke-width="0.75" />
<path d="M 45.52 67.232 C 45.52 68.456 46.715202 69.68 47.896 69.68 C 51.496002 69.68 55.096 67.232 55.096 64.856 C 55.096 63.6752 53.872 62.48 52.72 62.48 C 49.12 62.48 45.52 64.856 45.52 67.232 Z" fill="#404040" stroke="none" stroke-width="1.0" />
<path d="M 44.0 141.25 L 52.0 141.25 L 52.0 148.75 L 44.0 148.75 L 44.0 141.25 Z" fill="#ffffff" stroke="none" stroke-width="1.0" />
<text x='44.0' y='148.75' font-family="Default" font-size="10.0" fill="#404040" >0</text>
<path d="M 45.52 79.232 C 45.52 80.456 46.715202 81.68 47.896 81.68 C 51.496002 81.68 55.096 79.232 55.096 76.856 C 55.096 75.6752 53.872 74.48 52.72 74.48 C 49.12 74.48 45.52 76.856 45.52 79.232 Z" fill="#404040" stroke="none" stroke-width="1.0" />
<path d="M 44.0 151.25 L 52.0 151.25 L 52.0 158.75 L 44.0 158.75 L 44.0 151.25 Z" fill="#ffffff" stroke="none" stroke-width="1.0" />
<text x='44.0' y='158.75' font-family="Default" font-size="10.0" fill="#404040" >0</text>
<path d="M 54.18 77.04 L 55.18 77.04 L 55.18 34.0 L 54.18 34.0 M 54.18 77.04 Z" fill="#404040" stroke="none" stroke-width="0.75" />
<path d="M 63.0 70.0 L 79.0 70.0 Z" fill="none" stroke="#d6d6d6" stroke-width="0.75" />
<path d="M 63.0 78.0 L 79.0 78.0 Z" fill="none" stroke="#d6d6d6" stroke-width="0.75" />
<path d="M 66.52 67.232 C 66.52 68.456 67.715195 69.68 68.895996 69.68 C 72.495995 69.68 76.09599 67.232 76.09599 64.856 C 76.09599 63.6752 74.871994 62.48 73.71999 62.48 C 70.119995 62.48 66.52 64.856 66.52 67.232 Z" fill="#404040" stroke="none" stroke-width="1.0" />
<path d="M 65.0 141.25 L 73.0 141.25 L 73.0 148.75 L 65.0 148.75 L 65.0 141.25 Z" fill="#ffffff" stroke="none" stroke-width="1.0" />
<text x='65.0' y='148.75' font-family="Default" font-size="10.0" fill="#404040" >0</text>
<path d="M 66.52 79.232 C 66.52 80.456 67.715195 81.68 68.895996 81.68 C 72.495995 81.68 76.09599 79.232 76.09599 76.856 C 76.09599 75.6752 74.871994 74.48 73.71999 74.48 C 70.119995 74.48 66.52 76.856 66.52 79.232 Z" fill="#404040" stroke="none" stroke-width="1.0" />
<path d="M 65.0 151.25 L 73.0 151.25 L 73.0 158.75 L 65.0 158.75 L 65.0 151.25 Z" fill="#ffffff" stroke="none" stroke-width="1.0" />
<text x='65.0' y='158.75' font-family="Default" font-size="10.0" fill="#404040" >0</text>
<path d="M 75.18 77.04 L 76.18 77.04 L 76.18 34.0 L 75.18 34.0 M 75.18 77.04 Z" fill="#404040" stroke="none" stroke-width="0.75" /></g>
<text x='401.0' y='48.0' font-family="Default" font-size="10.0" fill="#ff0000" >4</text>
<path d="M 400.0 50.0 L 400.0 82.0 Z" fill="#000000" stroke="#000000" stroke-width="0.75" />
<path d="M 503.0 50.0 L 503.0 82.0 Z" fill="#000000" stroke="#000000" stroke-width="0.75" />
<path d="M 400.0 135.0 L 400.0 185.0 Z" fill="#000000" stroke="#000000" stroke-width="0.75" />
<path d="M 503.0 135.0 L 503.0 185.0 Z" fill="#000000" stroke="#000000" stroke-width="0.75" /><g transform="translate(503.0,20.0)">
<path d="M 0.0 0.0 L 103.0 0.0 L 103.0 186.0 L 0.0 186.0 L 0.0 0.0 Z" fill="#ffffff" stroke="none" stroke-width="1.0" />
<path d="M 0.0 30.0 L 103.0 30.0 M 0.0 38.0 L 103.0 38.0 M 0.0 46.0 L 103.0 46.0 M 0.0 54.0 L 103.0 54.0 M 0.0 62.0 L 103.0 62.0 Z" fill="none" stroke="#d6d6d6" stroke-width="0.75" />
<path d="M 0.0 115.0 L 103.0 115.0 M 0.0 125.0 L 103.0 125.0 M 0.0 135.0 L 103.0 135.0 M 0.0 145.0 L 103.0 145.0 M 0.0 155.0 L 103.0 155.0 M 0.0 165.0 L 103.0 165.0 Z" fill="none" stroke="#d6d6d6" stroke-width="0.75" />
<path d="M 24.52 55.232 C 24.52 56.456 25.7152 57.68 26.896 57.68 C 30.496 57.68 34.096 55.232 34.096 52.856 C 34.096 51.6752 32.872 50.48 31.720001 50.48 C 28.12 50.48 24.52 52.856 24.52 55.232 Z" fill="#404040" stroke="none" stroke-width="1.0" />
<path d="M 23.0 131.25 L 31.0 131.25 L 31.0 138.75 L 23.0 138.75 L 23.0 131.25 Z" fill="#ffffff" stroke="none" stroke-width="1.0" />
<text x='23.0' y='138.75' font-family="Default" font-size="10.0" fill="#404040" >0</text>
<path d="M 24.52 67.232 C 24.52 68.456 25.7152 69.68 26.896 69.68 C 30.496 69.68 34.096 67.232 34.096 64.856 C 34.096 63.6752 32.872 62.48 31.720001 62.48 C 28.12 62.48 24.52 64.856 24.52 67.232 Z" fill="#404040" stroke="none" stroke-width="1.0" />
<path d="M 23.0 141.25 L 31.0 141.25 L 31.0 148.75 L 23.0 148.75 L 23.0 141.25 Z" fill="#ffffff" stroke="none" stroke-width="1.0" />
<text x='23.0' y='148.75' font-family="Default" font-size="10.0" fill="#404040" >0</text>
<path d="M 33.18 65.04 L 34.18 65.04 L 34.18 22.0 L 33.18 22.0 M 33.18 65.04 Z" fill="#404040" stroke="none" stroke-width="0.75" />
<path d="M 45.52 55.232 C 45.52 56.456 46.715202 57.68 47.896 57.68 C 51.496002 57.68 55.096 55.232 55.096 52.856 C 55.096 51.6752 53.872 50.48 52.72 50.48 C 49.12 50.48 45.52 52.856 45.52 55.232 Z" fill="#404040" stroke="none" stroke-width="1.0" />
<path d="M 44.0 131.25 L 52.0 131.25 L 52.0 138.75 L 44.0 138.75 L 44.0 131.25 Z" fill="#ffffff" stroke="none" stroke-width="1.0" />
<text x='44.0' y='138.75' font-family="Default" font-size="10.0" fill="#404040" >0</text>
<path d="M 45.52 67.232 C 45.52 68.456 46.715202 69.68 47.896 69.68 C 51.496002 69.68 55.096 67.232 55.096 64.856 C 55.096 63.6752 53.872 62.48 52.72 62.48 C 49.12 62.48 45.52 64.856 45.52 67.232 Z" fill="#404040" stroke="none" stroke-width="1.0" />
<path d="M 44.0 141.25 L 52.0 141.25 L 52.0 148.75 L 44.0 148.75 L 44.0 141.25 Z" fill="#ffffff" stroke="none" stroke-width="1.0" />
<text x='44.0' y='148.75' font-family="Default" font-size="10.0" fill="#404040" >0</text>
<path d="M 54.18 65.04 L 55.18 65.04 L 55.18 22.0 L 54.18 22.0 M 54.18 65.04 Z" fill="#404040" stroke="none" stroke-width="0.75" />
<path d="M 66.52 55.232 C 66.52 56.456 67.715195 57.68 68.895996 57.68 C 72.495995 57.68 76.09599 55.232 76.09599 52.856 C 76.09599 51.6752 74.871994 50.48 73.71999 50.48 C 70.119995 50.48 66.52 52.856 66.52 55.232 Z" fill="#404040" stroke="none" stroke-width="1.0" />
<path d="M 65.0 131.25 L 73.0 131.25 L 73.0 138.75 L 65.0 138.75 L 65.0 131.25 Z" fill="#ffffff" stroke="none" stroke-width="1.0" />
<text x='65.0' y='138.75' font-family="Default" font-size="10.0" fill="#404040" >0</text>
<path d="M 66.52 67.232 C 66.52 68.456 67.715195 69.68 68.895996 69.68 C 72.495995 69.68 76.09599 67.232 76.09599 64.856 C 76.09599 63.6752 74.871994 62.48 73.71999 62.48 C 70.119995 62.48 66.52 64.856 66.52 67.232 Z" fill="#404040" stroke="none" stroke-width="1.0" />
<path d="M 65.0 141.25 L 73.0 141.25 L 73.0 148.75 L 65.0 148.75 L 65.0 141.25 Z" fill="#ffffff" stroke="none" stroke-width="1.0" />
<text x='65.0' y='148.75' font-family="Default" font-size="10.0" fill="#404040" >0</text>
<path d="M 75.18 65.04 L 76.18 65.04 L 76.18 22.0 L 75.18 22.0 M 75.18 65.04 Z" fill="#404040" stroke="none" stroke-width="0.75" /></g>
<text x='504.0' y='48.0' font-family="Default" font-size="10.0" fill="#ff0000" >5</text>
<path d="M 503.0 50.0 L 503.0 82.0 Z" fill="#000000" stroke="#000000" stroke-width="0.75" />
<path d="M 606.0 50.0 L 606.0 82.0 Z" fill="#000000" stroke="#000000" stroke-width="0.75" />
<path d="M 503.0 135.0 L 503.0 185.0 Z" fill="#000000" stroke="#000000" stroke-width="0.75" />
<path d="M 606.0 135.0 L 606.0 185.0 Z" fill="#000000" stroke="#000000" stroke-width="0.75" /><g transform="translate(606.0,20.0)">
<path d="M 0.0 0.0 L 103.0 0.0 L 103.0 186.0 L 0.0 186.0 L 0.0 0.0 Z" fill="#ffffff" stroke="none" stroke-width="1.0" />
<path d="M 0.0 30.0 L 103.0 30.0 M 0.0 38.0 L 103.0 38.0 M 0.0 46.0 L 103.0 46.0 M 0.0 54.0 L 103.0 54.0 M 0.0 62.0 L 103.0 62.0 Z" fill="none" stroke="#d6d6d6" stroke-width="0.75" />
<path d="M 0.0 115.0 L 103.0 115.0 M 0.0 125.0 L 103.0 125.0 M 0.0 135.0 L 103.0 135.0 M 0.0 145.0 L 103.0 145.0 M 0.0 155.0 L 103.0 155.0 M 0.0 165.0 L 103.0 165.0 Z" fill="none" stroke="#d6d6d6" stroke-width="0.75" />
<path d="M 24.52 47.232 C 24.52 48.456 25.7152 49.68 26.896 49.68 C 30.496 49.68 34.096 47.232 34.096 44.856 C 34.096 43.6752 32.872 42.48 31.720001 42.48 C 28.12 42.48 24.52 44.856 24.52 47.232 Z" fill="#404040" stroke="none" stroke-width="1.0" />
<path d="M 23.0 121.25 L 31.0 121.25 L 31.0 128.75 L 23.0 128.75 L 23.0 121.25 Z" fill="#ffffff" stroke="none" stroke-width="1.0" />
<text x='23.0' y='128.75' font-family="Default" font-size="10.0" fill="#404040" >0</text>
<path d="M 24.52 55.232 C 24.52 56.456 25.7152 57.68 26.896 57.68 C 30.496 57.68 34.096 55.232 34.096 52.856 C 34.096 51.6752 32.872 50.48 31.720001 50.48 C 28.12 50.48 24.52 52.856 24.52 55.232 Z" fill="#404040" stroke="none" stroke-width="1.0" />
<path d="M 23.0 131.25 L 31.0 131.25 L 31.0 138.75 L 23.0 138.75 L 23.0 131.25 Z" fill="#ffffff" stroke="none" stroke-width="1.0" />
<text x='23.0' y='138.75' font-family="Default" font-size="10.0" fill="#404040" >0</text>
<path d="M 24.5 46.96 L 25.5 46.96 L 25.5 85.0 L 24.5 85.0 M 24.5 46.96 Z" fill="#404040" stroke="none" stroke-width="0.75" />
<path d="M 45.52 47.232 C 45.52 48.456 46.715202 49.68 47.896 49.68 C 51.496002 49.68 55.096 47.232 55.096 44.856 C 55.096 43.6752 53.872 42.48 52.72 42.48 C 49.12 42.48 45.52 44.856 45.52 47.232 Z" fill="#404040" stroke="none" stroke-width="1.0" />
<path d="M 44.0 121.25 L 52.0 121.25 L 52.0 128.75 L 44.0 128.75 L 44.0 121.25 Z" fill="#ffffff" stroke="none" stroke-width="1.0" />
<text x='44.0' y='128.75' font-family="Default" font-size="10.0" fill="#404040" >0</text>
<path d="M 45.52 55.232 C 45.52 56.456 46.715202 57.68 47.896 57.68 C 51.496002 57.68 55.096 55.232 55.096 52.856 C 55.096 51.6752 53.872 50.48 52.72 50.48 C 49.12 50.48 45.52 52.856 45.52 55.232 Z" fill="#404040" stroke="none" stroke-width="1.0" />
<path d="M 44.0 131.25 L 52.0 131.25 L 52.0 138.75 L 44.0 138.75 L 44.0 131.25 Z" fill="#ffffff" stroke="none" stroke-width="1.0" />
<text x='44.0' y='138.75' font-family="Default" font-size="10.0" fill="#404040" >0</text>
<path d="M 45.5 46.96 L 46.5 46.96 L 46.5 85.0 L 45.5 85.0 M 45.5 46.96 Z" fill="#404040" stroke="none" stroke-width="0.75" />
<path d="M 66.52 47.232 C 66.52 48.456 67.715195 49.68 68.895996 49.68 C 72.495995 49.68 76.09599 47.232 76.09599 44.856 C 76.09599 43.6752 74.871994 42.48 73.71999 42.48 C 70.119995 42.48 66.52 44.856 66.52 47.232 Z" fill="#404040" stroke="none" stroke-width="1.0" />
<path d="M 65.0 121.25 L 73.0 121.25 L 73.0 128.75 L 65.0 128.75 L 65.0 121.25 Z" fill="#ffffff" stroke="none" stroke-width="1.0" />
<text x='65.0' y='128.75' font-family="Default" font-size="10.0" fill="#404040" >0</text>
<path d="M 66.52 55.232 C 66.52 56.456 67.715195 57.68 68.895996 57.68 C 72.495995 57.68 76.09599 55.232 76.09599 52.856 C 76.09599 51.6752 74.871994 50.48 73.71999 50.48 C 70.119995 50.48 66.52 52.856 66.52 55.232 Z" fill="#404040" stroke="none" stroke-width="1.0" />
<path d="M 65.0 131.25 L 73.0 131.25 L 73.0 138.75 L 65.0 138.75 L 65.0 131.25 Z" fill="#ffffff" stroke="none" stroke-width="1.0" />
<text x='65.0' y='138.75' font-family="Default" font-size="10.0" fill="#404040" >0</text>
<path d="M 66.5 46.96 L 67.5 46.96 L 67.5 85.0 L 66.5 85.0 M 66.5 46.96 Z" fill="#404040" stroke="none" stroke-width="0.75" /></g>
<text x='607.0' y='48.0' font-family="Default" font-size="10.0" fill="#ff0000" >6</text>
<path d="M 606.0 50.0 L 606.0 82.0 Z" fill="#000000" stroke="#000000" stroke-width="0.75" />
<path d="M 709.0 50.0 L 709.0 82.0 Z" fill="#000000" stroke="#000000" stroke-width="0.75" />
<path d="M 606.0 135.0 L 606.0 185.0 Z" fill="#000000" stroke="#000000" stroke-width="0.75" />
<path d="M 709.0 135.0 L 709.0 185.0 Z" fill="#000000" stroke="#000000" stroke-width="0.75" /><g transform="translate(709.0,20.0)">
<path d="M 0.0 0.0 L 103.0 0.0 L 103.0 186.0 L 0.0 186.0 L 0.0 0.0 Z" fill="#ffffff" stroke="none" stroke-width="1.0" />
<path d="M 0.0 30.0 L 103.0 30.0 M 0.0 38.0 L 103.0 38.0 M 0.0 46.0 L 103.0 46.0 M 0.0 54.0 L 103.0 54.0 M 0.0 62.0 L 103.0 62.0 Z" fill="none" stroke="#d6d6d6" stroke-width="0.75" />
<path d="M 0.0 115.0 L 103.0 115.0 M 0.0 125.0 L 103.0 125.0 M 0.0 135.0 L 103.0 135.0 M 0.0 145.0 L 103.0 145.0 M 0.0 155.0 L 103.0 155.0 M 0.0 165.0 L 103.0 165.0 Z" fill="none" stroke="#d6d6d6" stroke-width="0.75" />
<path d="M 24.52 35.232 C 24.52 36.456 25.7152 37.68 26.896 37.68 C 30.496 37.68 34.096 35.232 34.096 32.856 C 34.096 31.6752 32.872 30.48 31.720001 30.48 C 28.12 30.48 24.52 32.856 24.52 35.232 Z" fill="#404040" stroke="none" stroke-width="1.0" />
<path d="M 23.0 111.25 L 31.0 111.25 L 31.0 118.75 L 23.0 118.75 L 23.0 111.25 Z" fill="#ffffff" stroke="none" stroke-width="1.0" />
<text x='23.0' y='118.75' font-family="Default" font-size="10.0" fill="#404040" >0</text>
<path d="M 24.52 47.232 C 24.52 48.456 25.7152 49.68 26.896 49.68 C 30.496 49.68 34.096 47.232 34.096 44.856 C 34.096 43.6752 32.872 42.48 31.720001 42.48 C 28.12 42.48 24.52 44.856 24.52 47.232 Z" fill="#404040" stroke="none" stroke-width="1.0" />
<path d="M 23.0 121.25 L 31.0 121.25 L 31.0 128.75 L 23.0 128.75 L 23.0 121.25 Z" fill="#ffffff" stroke="none" stroke-width="1.0" />
<text x='23.0' y='128.75' font-family="Default" font-size="10.0" fill="#404040" >0</text>
<path d="M 24.5 34.96 L 25.5 34.96 L 25.5 77.0 L 24.5 77.0 M 24.5 34.96 Z" fill="#404040" stroke="none" stroke-width="0.75" />
<path d="M 45.52 35.232 C 45.52 36.456 46.715202 37.68 47.896 37.68 C 51.496002 37.68 55.096 35.232 55.096 32.856 C 55.096 31.6752 53.872 30.48 52.72 30.48 C 49.12 30.48 45.52 32.856 45.52 35.232 Z" fill="#404040" stroke="none" stroke-width="1.0" />
<path d="M 44.0 111.25 L 52.0 111.25 L 52.0 118.75 L 44.0 118.75 L 44.0 111.25 Z" fill="#ffffff" stroke="none" stroke-width="1.0" />
<text x='44.0' y='118.75' font-family="Default" font-size="10.0" fill="#404040" >0</text>
<path d="M 45.52 47.232 C 45.52 48.456 46.715202 49.68 47.896 49.68 C 51.496002 49.68 55.096 47.232 55.096 44.856 C 55.096 43.6752 53.872 42.48 52.72 42.48 C 49.12 42.48 45.52 44.856 45.52 47.232 Z" fill="#404040" stroke="none" stroke-width="1.0" />
<path d="M 44.0 121.25 L 52.0 121.25 L 52.0 128.75 L 44.0 128.75 L 44.0 121.25 Z" fill="#ffffff" stroke="none" stroke-width="1.0" />
<text x='44.0' y='128.75' font-family="Default" font-size="10.0" fill="#404040" >0</text>
<path d="M 45.5 34.96 L 46.5 34.96 L 46.5 77.0 L 45.5 77.0 M 45.5 34.96 Z" fill="#404040" stroke="none" stroke-width="0.75" />
<path d="M 66.52 35.232 C 66.52 36.456 67.715195 37.68 68.895996 37.68 C 72.495995 37.68 76.09599 35.232 76.09599 32.856 C 76.09599 31.6752 74.871994 30.48 73.71999 30.48 C 70.119995 30.48 66.52 32.856 66.52 35.232 Z" fill="#404040" stroke="none" stroke-width="1.0" />
<path d="M 65.0 111.25 L 73.0 111.25 L 73.0 118.75 L 65.0 118.75 L 65.0 111.25 Z" fill="#ffffff" stroke="none" stroke-width="1.0" />
<text x='65.0' y='118.75' font-family="Default" font-size="10.0" fill="#404040" >0</text>
<path d="M 66.52 47.232 C 66.52 48.456 67.715195 49.68 68.895996 49.68 C 72.495995 49.68 76.09599 47.232 76.09599 44.856 C 76.09599 43.6752 74.871994 42.48 73.71999 42.48 C 70.119995 42.48 66.52 44.856 66.52 47.232 Z" fill="#404040" stroke="none" stroke-width="1.0" />
<path d="M 65.0 121.25 L 73.0 121.25 L 73.0 128.75 L 65.0 128.75 L 65.0 121.25 Z" fill="#ffffff" stroke="none" stroke-width="1.0" />
<text x='65.0' y='128.75' font-family="Default" font-size="10.0" fill="#404040" >0</text>
<path d="M 66.5 34.96 L 67.5 34.96 L 67.5 77.0 L 66.5 77.0 M 66.5 34.96 Z" fill="#404040" stroke="none" stroke-width="0.75" /></g>
<text x='710.0' y='48.0' font-family="Default" font-size="10.0" fill="#ff0000" >7</text>
<path d="M 709.0 50.0 L 709.0 82.0 Z" fill="#000000" stroke="#000000" stroke-width="0.75" />
<path d="M 806.0 50.0 L 807.0 50.0 L 807.0 82.0 L 806.0 82.0 L 806.0 50.0 Z" fill="#000000" stroke="#000000" stroke-width="0.75" />
<path d="M 809.0 50.0 L 812.0 50.0 L 812.0 82.0 L 809.0 82.0 L 809.0 50.0 Z" fill="#000000" stroke="#000000" stroke-width="0.75" />
<path d="M 709.0 135.0 L 709.0 185.0 Z" fill="#000000" stroke="#000000" stroke-width="0.75" />
<path d="M 806.0 135.0 L 807.0 135.0 L 807.0 185.0 L 806.0 185.0 L 806.0 135.0 Z" fill="#000000" stroke="#000000" stroke-width="0.75" />
<path d="M 809.0 135.0 L 812.0 135.0 L 812.0 185.0 L 809.0 185.0 L 809.0 135.0 Z" fill="#000000" stroke="#000000" stroke-width="0.75" />

</svg>