<svg width="960.0px" height="630.0px" xmlns="http://www.w3.org/2000/svg" version="1.1">

<path d="M 0.0 0.0 L 960.0 0.0 L 960.0 630.0 L 0.0 630.0 L 0.0 0.0 Z" fill="#ffffff" stroke="none" stroke-width="1.0" /><g transform="translate(20.0,20.0)">
<path d="M 0.0 0.0 L 214.0 0.0 L 214.0 190.0 L 0.0 190.0 L 0.0 0.0 Z" fill="#ffffff" stroke="none" stroke-width="1.0" />
<path d="M 0.0 35.0 L 214.0 35.0 M 0.0 43.0 L 214.0 43.0 M 0.0 51.0 L 214.0 51.0 M 0.0 59.0 L 214.0 59.0 M 0.0 67.0 L 214.0 67.0 Z" fill="none" stroke="#d6d6d6" stroke-width="0.75" />
<path d="M 0.0 119.0 L 214.0 119.0 M 0.0 129.0 L 214.0 129.0 M 0.0 139.0 L 214.0 139.0 M 0.0 149.0 L 214.0 149.0 M 0.0 159.0 L 214.0 159.0 M 0.0 169.0 L 214.0 169.0 Z" fill="none" stroke="#d6d6d6" stroke-width="0.75" />
<path d="M 67.77043 35.40856 C 68.324905 35.40856 68.821014 35.350193 69.25876 35.20428 C 69.6965 35.058365 69.959145 35.0 70.04669 35.0 C 70.192604 35.0 70.28015 35.029182 70.36771 35.11673 C 70.42607 35.1751 70.45525 35.233463 70.484436 35.32101 C 70.484436 35.37938 70.45525 35.437744 70.42607 35.49611 L 61.933853 45.35992 L 66.924126 45.35992 L 66.924126 41.449417 C 66.924126 41.18677 67.01167 40.95331 67.1284 40.807392 C 67.3035 40.661476 67.4786 40.515564 67.71206 40.4572 C 67.97471 40.340466 68.26653 40.07782 68.64591 39.640076 C 68.937744 39.319065 69.317116 38.706226 69.75486 37.801556 C 69.81323 37.684826 69.90078 37.626457 70.01751 37.626457 C 70.28015 37.626457 70.39688 37.772373 70.42607 38.03502 L 70.42607 45.35992 L 72.55642 45.35992 C 72.84825 45.35992 72.99416 45.505836 73.023346 45.797665 C 73.023346 46.089493 72.877426 46.235405 72.55642 46.235405 L 70.42607 46.235405 L 70.42607 46.468872 C 70.42607 47.28599 70.63035 47.928013 71.00973 48.45331 C 71.44747 48.9786 71.97276 49.270428 72.5856 49.270428 C 72.81906 49.270428 72.9358 49.387157 72.9358 49.62062 C 72.9358 49.854084 72.81906 49.970818 72.5856 49.970818 C 72.14786 49.970818 71.50584 49.91245 70.601166 49.79572 C 69.696495 49.649803 69.054474 49.59144 68.64591 49.59144 C 68.23735 49.59144 67.56615 49.649803 66.69066 49.79572 C 65.81517 49.91245 65.17315 49.970818 64.735405 49.970818 C 64.501945 49.970818 64.385216 49.854084 64.385216 49.62062 C 64.385216 49.387157 64.501945 49.270428 64.735405 49.270428 C 65.34825 49.270428 65.87354 48.9786 66.31128 48.45331 C 66.71984 47.89883 66.924126 47.25681 66.924126 46.468872 L 66.924126 46.235405 L 61.933853 46.235405 C 61.61284 46.235405 61.379375 46.17704 61.233463 46.001945 C 61.087547 45.885212 61.0 45.710114 61.0 45.53502 C 61.0 45.476654 61.145912 45.272373 61.437744 44.92218 C 61.729572 44.571983 62.079765 44.105057 62.488327 43.492218 C 62.488327 43.492218 63.305447 42.20817 63.71401 41.449417 C 63.71401 41.449417 64.47276 39.78599 64.735405 38.706226 C 65.02724 37.65564 65.17315 36.575874 65.17315 35.49611 C 65.17315 35.175095 65.31907 35.029182 65.58171 35.029182 C 65.61089 35.029182 65.756805 35.058365 65.96109 35.11673 C 66.16537 35.175095 66.4572 35.233463 66.77821 35.32101 C 67.1284 35.379375 67.44942 35.408558 67.77043 35.408558 Z" fill="#000000" stroke="none" stroke-width="0.75" />
<path d="M 67.77043 52.40856 C 68.324905 52.40856 68.821014 52.350193 69.25876 52.20428 C 69.6965 52.058365 69.959145 52.0 70.04669 52.0 C 70.192604 52.0 70.28015 52.029182 70.36771 52.11673 C 70.42607 52.1751 70.45525 52.233463 70.484436 52.32101 C 70.484436 52.37938 70.45525 52.437744 70.42607 52.49611 L 61.933853 62.35992 L 66.924126 62.35992 L 66.924126 58.449417 C 66.924126 58.18677 67.01167 57.95331 67.1284 57.807392 C 67.3035 57.661476 67.4786 57.515564 67.71206 57.4572 C 67.97471 57.340466 68.26653 57.07782 68.64591 56.640076 C 68.937744 56.319065 69.317116 55.706226 69.75486 54.801556 C 69.81323 54.684826 69.90078 54.626457 70.01751 54.626457 C 70.28015 54.626457 70.39688 54.772373 70.42607 55.03502 L 70.42607 62.35992 L 72.55642 62.35992 C 72.84825 62.35992 72.99416 62.505836 73.023346 62.797665 C 73.023346 63.089493 72.877426 63.235405 72.55642 63.235405 L 70.42607 63.235405 L 70.42607 63.468872 C 70.42607 64.28599 70.63035 64.92802 71.00973 65.45331 C 71.44747 65.9786 71.97276 66.270424 72.5856 66.270424 C 72.81906 66.270424 72.9358 66.38716 72.9358 66.62062 C 72.9358 66.85408 72.81906 66.97082 72.5856 66.97082 C 72.14786 66.97082 71.50584 66.91245 70.601166 66.795715 C 69.696495 66.6498 69.054474 66.59144 68.64591 66.59144 C 68.23735 66.59144 67.56615 66.6498 66.69066 66.795715 C 65.81517 66.91245 65.17315 66.97082 64.735405 66.97082 C 64.501945 66.97082 64.385216 66.85408 64.385216 66.62062 C 64.385216 66.38716 64.501945 66.270424 64.735405 66.270424 C 65.34825 66.270424 65.87354 65.9786 66.31128 65.45331 C 66.71984 64.898834 66.924126 64.256805 66.924126 63.468872 L 66.924126 63.235405 L 61.933853 63.235405 C 61.61284 63.235405 61.379375 63.17704 61.233463 63.001945 C 61.087547 62.885212 61.0 62.710114 61.0 62.53502 C 61.0 62.476654 61.145912 62.272373 61.437744 61.92218 C 61.729572 61.571983 62.079765 61.105057 62.488327 60.492218 C 62.488327 60.492218 63.305447 59.20817 63.71401 58.449417 C 63.71401 58.449417 64.47276 56.78599 64.735405 55.706226 C 65.02724 54.65564 65.17315 53.575874 65.17315 52.49611 C 65.17315 52.175095 65.31907 52.029182 65.58171 52.029182 C 65.61089 52.029182 65.756805 52.058365 65.96109 52.11673 C 66.16537 52.175095 66.4572 52.233463 66.77821 52.32101 C 67.1284 52.379375 67.44942 52.408558 67.77043 52.408558 Z" fill="#000000" stroke="none" stroke-width="0.75" />
<path d="M 22.764973 27.115383 C 22.921913 27.036913 22.948072 27.036913 23.105015 27.036913 C 23.314268 27.06307 23.445057 27.14154 23.73278 27.455425 C 25.616081 29.39104 27.185501 32.843758 27.577856 35.773342 C 27.630169 36.244167 27.630169 37.34276 27.577856 37.839737 C 27.29013 40.533905 26.165377 42.99266 23.57584 46.52385 L 23.209644 47.020832 L 23.418898 47.62244 C 23.915882 49.061073 24.491331 50.81359 24.85753 52.095284 C 24.96216 52.409164 25.04063 52.67074 25.04063 52.696896 C 25.04063 52.696896 25.223728 52.696896 25.406826 52.723053 C 26.322319 52.80152 27.10703 53.01078 27.917896 53.40313 C 28.57182 53.74317 29.147274 54.13552 29.696568 54.658665 C 30.29818 55.260277 30.690535 55.80957 31.05673 56.568123 C 31.606026 57.666718 31.84144 58.81762 31.81528 59.96853 C 31.789125 60.700924 31.684496 61.25022 31.449085 61.930305 C 31.1352 62.924263 30.559748 63.83976 29.77504 64.624466 C 29.094955 65.30455 28.46719 65.72306 27.630169 66.0631 L 27.316284 66.193886 L 27.316284 67.13554 C 27.316284 68.46954 27.237814 70.038956 27.133184 70.980606 C 27.02856 71.94841 26.766989 72.86391 26.348476 73.700935 C 25.249886 75.92427 23.314268 77.10133 21.143244 76.89209 C 18.684484 76.65667 16.69656 74.98262 16.199577 72.73312 C 15.964161 71.713 16.068794 70.9283 16.487303 70.27437 C 17.036598 69.411194 18.082878 68.914215 19.102997 68.94037 C 20.30622 68.99268 21.274027 69.934326 21.457123 71.24218 C 21.58791 72.28845 21.143244 73.25626 20.30622 73.7794 C 19.835394 74.06713 19.181469 74.197914 18.684484 74.119446 C 18.606018 74.119446 18.527544 74.093285 18.527544 74.119446 L 18.84143 74.43333 C 19.416882 75.00878 20.070807 75.374985 20.907831 75.558075 C 21.090927 75.584236 21.247868 75.584236 21.666382 75.584236 C 22.137207 75.584236 22.189518 75.584236 22.451088 75.53192 C 22.81729 75.42729 23.131172 75.29651 23.418898 75.139565 C 24.726748 74.35486 25.616081 72.73312 25.851494 70.77136 C 25.929964 70.038956 26.008434 68.46954 26.008434 67.318634 C 26.008434 66.56009 26.008434 66.50777 25.956123 66.50777 C 25.851494 66.56009 25.302197 66.6124 24.909843 66.63855 C 24.41286 66.66471 23.57584 66.66471 23.183485 66.6124 C 21.640223 66.4293 20.227747 65.90616 18.998373 65.04298 C 17.167385 63.761288 15.859535 61.851826 15.31024 59.654644 C 14.604002 56.908165 15.100986 53.978584 16.827343 50.89206 C 17.55974 49.610374 18.265978 48.564095 20.018494 46.236122 L 21.012455 44.902122 L 20.829355 44.405136 C 19.573822 41.083202 19.15531 39.173744 19.024527 36.401108 C 18.972214 35.197887 19.024527 34.17776 19.181469 33.34074 C 19.573822 31.143559 20.593945 29.181787 22.189518 27.612366 C 22.503403 27.298483 22.63419 27.193855 22.764973 27.115383 M 24.831371 31.588224 C 24.569805 31.143559 24.622118 31.169712 24.386707 31.326658 C 23.65431 31.771324 22.89576 32.451405 22.34646 33.131485 C 21.221714 34.57012 20.593945 36.244167 20.515476 38.048996 C 20.489319 38.78139 20.56779 39.252216 20.907831 40.37696 C 21.169397 41.292458 21.901793 43.5158 21.95411 43.56811 C 21.95411 43.59427 22.111048 43.411175 22.26799 43.17576 C 24.072823 40.58622 25.04063 38.467506 25.406826 36.348793 C 25.485298 35.799496 25.53761 35.354828 25.563768 34.727062 C 25.589928 33.28843 25.432985 32.58219 24.831371 31.588224 M 22.581877 49.191864 C 22.424934 48.694878 22.26799 48.302525 22.26799 48.302525 C 22.241835 48.302525 21.143244 49.76731 20.672415 50.421238 C 19.129156 52.592266 18.187506 54.34478 17.638206 56.071136 C 17.27201 57.143574 17.115068 58.137543 17.062756 59.236134 C 17.062756 59.837746 17.088915 60.20394 17.193539 60.64861 C 17.795153 62.976578 20.280064 64.88603 23.209644 65.30455 C 23.65431 65.35686 24.909843 65.35686 25.459139 65.30455 C 26.008434 65.226074 25.956123 65.252235 25.929964 65.01682 C 25.773026 62.53191 25.563768 61.014805 25.14526 58.765305 C 24.988314 57.823658 24.543648 55.835728 24.517488 55.80957 C 24.491331 55.783417 23.99435 55.835728 23.706627 55.9142 C 23.340427 55.99267 23.105015 56.071136 22.79113 56.22808 C 21.090927 57.091263 20.593945 59.053036 21.666382 60.64861 C 21.849482 60.91018 22.320305 61.381004 22.608032 61.564102 C 22.71266 61.642574 22.948072 61.799515 23.105015 61.877987 C 23.340427 62.00877 23.392738 62.061085 23.445057 62.165714 C 23.65431 62.505756 23.523525 62.924263 23.131172 63.107365 C 22.921913 63.21199 22.764973 63.185837 22.34646 62.976578 C 21.326344 62.4796 20.56779 61.799515 20.018494 60.962494 C 18.998373 59.393074 18.867586 57.37899 19.70461 55.678787 C 20.437006 54.213997 21.744852 53.22003 23.418898 52.853836 C 23.57584 52.80152 23.706627 52.775368 23.706627 52.775368 C 23.73278 52.749207 23.000385 50.368923 22.581877 49.191864 M 26.139221 55.94036 C 26.060753 55.94036 25.98228 55.9142 25.956123 55.9142 L 25.877651 55.88804 L 26.008434 56.43734 C 26.610046 59.07919 27.054714 61.956455 27.211655 64.38905 C 27.237814 64.65063 27.237814 64.85988 27.237814 64.85988 C 27.263973 64.85988 27.60401 64.70294 27.78711 64.57216 C 28.231777 64.31058 28.65029 63.91823 28.99033 63.47356 C 29.801197 62.401123 30.08892 61.06712 29.77504 59.706955 C 29.539627 58.608364 28.911861 57.58824 28.022522 56.882008 C 27.473227 56.463493 26.740831 56.097298 26.139221 55.94036 Z" fill="#000000" stroke="none" stroke-width="0.75" />
<path d="M 92.0 75.0 L 108.0 75.0 Z" fill="none" stroke="#d6d6d6" stroke-width="0.75" />
<path d="M 92.0 83.0 L 108.0 83.0 Z" fill="none" stroke="#d6d6d6" stroke-width="0.75" />
<path d="M 92.0 91.0 L 108.0 91.0 Z" fill="none" stroke="#d6d6d6" stroke-width="0.75" />
<path d="M 92.0 75.0 L 108.0 75.0 Z" fill="none" stroke="#d6d6d6" stroke-width="0.75" />
<path d="M 92.0 83.0 L 108.0 83.0 Z" fill="none" stroke="#d6d6d6" stroke-width="0.75" />
<path d="M 92.0 91.0 L 108.0 91.0 Z" fill="none" stroke="#d6d6d6" stroke-width="0.75" />
<path d="M 95.52 96.232 C 95.52 97.456 96.715195 98.68 97.895996 98.68 C 101.495995 98.68 105.09599 96.232 105.09599 93.856 C 105.09599 92.6752 103.871994 91.48 102.71999 91.48 C 99.119995 91.48 95.52 93.856 95.52 96.232 Z" fill="#404040" stroke="none" stroke-width="1.0" />
<path d="M 94.0 165.25 L 102.0 165.25 L 102.0 172.75 L 94.0 172.75 L 94.0 165.25 Z" fill="#ffffff" stroke="none" stroke-width="1.0" />
<text x='94.0' y='172.75' font-family="Default" font-size="10.0" fill="#404040" >0/0</text>
<path d="M 104.18 94.04 L 105.18 94.04 L 105.18 63.0 L 104.18 63.0 M 104.18 94.04 Z" fill="#404040" stroke="none" stroke-width="0.75" />
<path d="M 117.75 75.0 L 133.75 75.0 Z" fill="none" stroke="#d6d6d6" stroke-width="0.75" />
<path d="M 117.75 83.0 L 133.75 83.0 Z" fill="none" stroke="#d6d6d6" stroke-width="0.75" />
<path d="M 117.75 91.0 L 133.75 91.0 Z" fill="none" stroke="#d6d6d6" stroke-width="0.75" />
<path d="M 117.75 75.0 L 133.75 75.0 Z" fill="none" stroke="#d6d6d6" stroke-width="0.75" />
<path d="M 117.75 83.0 L 133.75 83.0 Z" fill="none" stroke="#d6d6d6" stroke-width="0.75" />
<path d="M 117.75 91.0 L 133.75 91.0 Z" fill="none" stroke="#d6d6d6" stroke-width="0.75" />
<path d="M 121.27 92.232 C 121.27 93.456 122.465195 94.68 123.645996 94.68 C 127.245995 94.68 130.846 92.232 130.846 89.856 C 130.846 88.6752 129.622 87.48 128.47 87.48 C 124.869995 87.48 121.27 89.856 121.27 92.232 Z" fill="#404040" stroke="none" stroke-width="1.0" />
<path d="M 119.75 165.25 L 127.75 165.25 L 127.75 172.75 L 119.75 172.75 L 119.75 165.25 Z" fill="#ffffff" stroke="none" stroke-width="1.0" />
<text x='119.75' y='172.75' font-family="Default" font-size="10.0" fill="#404040" >1/1</text>
<path d="M 129.93 90.04 L 130.93 90.04 L 130.93 59.0 L 129.93 59.0 M 129.93 90.04 Z" fill="#404040" stroke="none" stroke-width="0.75" />
<path d="M 143.5 75.0 L 159.5 75.0 Z" fill="none" stroke="#d6d6d6" stroke-width="0.75" />
<path d="M 143.5 83.0 L 159.5 83.0 Z" fill="none" stroke="#d6d6d6" stroke-width="0.75" />
<path d="M 143.5 91.0 L 159.5 91.0 Z" fill="none" stroke="#d6d6d6" stroke-width="0.75" />
<path d="M 143.5 75.0 L 159.5 75.0 Z" fill="none" stroke="#d6d6d6" stroke-width="0.75" />
<path d="M 143.5 83.0 L 159.5 83.0 Z" fill="none" stroke="#d6d6d6" stroke-width="0.75" />
<path d="M 143.5 91.0 L 159.5 91.0 Z" fill="none" stroke="#d6d6d6" stroke-width="0.75" />
<path d="M 147.02 96.232 C 147.02 97.456 148.21521 98.68 149.39601 98.68 C 152.996 98.68 156.59601 96.232 156.59601 93.856 C 156.59601 92.6752 155.37201 91.48 154.22 91.48 C 150.62001 91.48 147.02 93.856 147.02 96.232 Z" fill="#404040" stroke="none" stroke-width="1.0" />
<path d="M 145.5 165.25 L 153.5 165.25 L 153.5 172.75 L 145.5 172.75 L 145.5 165.25 Z" fill="#ffffff" stroke="none" stroke-width="1.0" />
<text x='145.5' y='172.75' font-family="Default" font-size="10.0" fill="#404040" >0/0</text>
<path d="M 155.68 94.04 L 156.68 94.04 L 156.68 63.0 L 155.68 63.0 M 155.68 94.04 Z" fill="#404040" stroke="none" stroke-width="0.75" />
<path d="M 169.25 75.0 L 185.25 75.0 Z" fill="none" stroke="#d6d6d6" stroke-width="0.75" />
<path d="M 169.25 83.0 L 185.25 83.0 Z" fill="none" stroke="#d6d6d6" stroke-width="0.75" />
<path d="M 169.25 91.0 L 185.25 91.0 Z" fill="none" stroke="#d6d6d6" stroke-width="0.75" />
<path d="M 169.25 75.0 L 185.25 75.0 Z" fill="none" stroke="#d6d6d6" stroke-width="0.75" />
<path d="M 169.25 83.0 L 185.25 83.0 Z" fill="none" stroke="#d6d6d6" stroke-width="0.75" />
<path d="M 169.25 91.0 L 185.25 91.0 Z" fill="none" stroke="#d6d6d6" stroke-width="0.75" />
<path d="M 172.77 92.232 C 172.77 93.456 173.96521 94.68 175.14601 94.68 C 178.746 94.68 182.34601 92.232 182.34601 89.856 C 182.34601 88.6752 181.12201 87.48 179.97 87.48 C 176.37001 87.48 172.77 89.856 172.77 92.232 Z" fill="#404040" stroke="none" stroke-width="1.0" />
<path d="M 171.25 165.25 L 179.25 165.25 L 179.25 172.75 L 171.25 172.75 L 171.25 165.25 Z" fill="#ffffff" stroke="none" stroke-width="1.0" />
<text x='171.25' y='172.75' font-family="Default" font-size="10.0" fill="#404040" >1/1</text>
<path d="M 181.43 90.04 L 182.43 90.04 L 182.43 59.0 L 181.43 59.0 M 181.43 90.04 Z" fill="#404040" stroke="none" stroke-width="0.75" /></g>
<text x='193.25' y='20.0' font-family="Default" font-size="10.0" fill="#000000" >1-----------------------------------</text>
<path d="M 35.35 41.3 C 35.35 42.15 36.18 43.0 37.0 43.0 C 39.5 43.0 42.0 41.3 42.0 39.65 C 42.0 38.83 41.149998 38.0 40.35 38.0 C 37.85 38.0 35.35 39.65 35.35 41.3 Z" fill="#000000" stroke="none" stroke-width="1.0" />
<path d="M 42.0 25.0 L 42.0 39.7 Z" fill="none" stroke="#000000" stroke-width="1.0" />
<text x='43.0' y='41.25' font-family="Default" font-size="10.0" fill="#000000" > = 60</text>
<text x='21.0' y='53.0' font-family="Default" font-size="10.0" fill="#ff0000" >1</text>
<path d="M 20.0 55.0 L 23.0 55.0 L 23.0 139.0 L 20.0 139.0 L 20.0 55.0 Z" fill="#000000" stroke="#000000" stroke-width="0.75" />
<path d="M 25.0 55.0 L 26.0 55.0 L 26.0 139.0 L 25.0 139.0 L 25.0 55.0 Z" fill="#000000" stroke="#000000" stroke-width="0.75" />
<path d="M 234.0 55.0 L 234.0 87.0 Z" fill="#000000" stroke="#000000" stroke-width="0.75" />
<path d="M 20.0 139.0 L 23.0 139.0 L 23.0 189.0 L 20.0 189.0 L 20.0 139.0 Z" fill="#000000" stroke="#000000" stroke-width="0.75" />
<path d="M 25.0 139.0 L 26.0 139.0 L 26.0 189.0 L 25.0 189.0 L 25.0 139.0 Z" fill="#000000" stroke="#000000" stroke-width="0.75" />
<path d="M 234.0 139.0 L 234.0 189.0 Z" fill="#000000" stroke="#000000" stroke-width="0.75" /><g transform="translate(234.0,20.0)">
<path d="M 0.0 0.0 L 143.0 0.0 L 143.0 190.0 L 0.0 190.0 L 0.0 0.0 Z" fill="#ffffff" stroke="none" stroke-width="1.0" />
<path d="M 0.0 35.0 L 143.0 35.0 M 0.0 43.0 L 143.0 43.0 M 0.0 51.0 L 143.0 51.0 M 0.0 59.0 L 143.0 59.0 M 0.0 67.0 L 143.0 67.0 Z" fill="none" stroke="#d6d6d6" stroke-width="0.75" />
<path d="M 0.0 119.0 L 143.0 119.0 M 0.0 129.0 L 143.0 129.0 M 0.0 139.0 L 143.0 139.0 M 0.0 149.0 L 143.0 149.0 M 0.0 159.0 L 143.0 159.0 M 0.0 169.0 L 143.0 169.0 Z" fill="none" stroke="#d6d6d6" stroke-width="0.75" />
<path d="M 21.0 75.0 L 37.0 75.0 Z" fill="none" stroke="#d6d6d6" stroke-width="0.75" />
<path d="M 21.0 83.0 L 37.0 83.0 Z" fill="none" stroke="#d6d6d6" stroke-width="0.75" />
<path d="M 21.0 75.0 L 37.0 75.0 Z" fill="none" stroke="#d6d6d6" stroke-width="0.75" />
<path d="M 21.0 83.0 L 37.0 83.0 Z" fill="none" stroke="#d6d6d6" stroke-width="0.75" />
<path d="M 24.52 88.232 C 24.52 89.456 25.7152 90.68 26.896 90.68 C 30.496 90.68 34.096 88.232 34.096 85.856 C 34.096 84.6752 32.872 83.48 31.720001 83.48 C 28.12 83.48 24.52 85.856 24.52 88.232 Z" fill="#404040" stroke="none" stroke-width="1.0" />
<path d="M 23.0 165.25 L 31.0 165.25 L 31.0 172.75 L 23.0 172.75 L 23.0 165.25 Z" fill="#ffffff" stroke="none" stroke-width="1.0" />
<text x='23.0' y='172.75' font-family="Default" font-size="10.0" fill="#404040" >3/3</text>
<path d="M 33.18 86.04 L 34.18 86.04 L 34.18 55.0 L 33.18 55.0 M 33.18 86.04 Z" fill="#404040" stroke="none" stroke-width="0.75" />
<path d="M 46.75 75.0 L 62.75 75.0 Z" fill="none" stroke="#d6d6d6" stroke-width="0.75" />
<path d="M 46.75 83.0 L 62.75 83.0 Z" fill="none" stroke="#d6d6d6" stroke-width="0.75" />
<path d="M 46.75 91.0 L 62.75 91.0 Z" fill="none" stroke="#d6d6d6" stroke-width="0.75" />
<path d="M 46.75 75.0 L 62.75 75.0 Z" fill="none" stroke="#d6d6d6" stroke-width="0.75" />
<path d="M 46.75 83.0 L 62.75 83.0 Z" fill="none" stroke="#d6d6d6" stroke-width="0.75" />
<path d="M 46.75 91.0 L 62.75 91.0 Z" fill="none" stroke="#d6d6d6" stroke-width="0.75" />
<path d="M 50.27 92.232 C 50.27 93.456 51.465202 94.68 52.646 94.68 C 56.246002 94.68 59.846 92.232 59.846 89.856 C 59.846 88.6752 58.622 87.48 57.47 87.48 C 53.87 87.48 50.27 89.856 50.27 92.232 Z" fill="#404040" stroke="none" stroke-width="1.0" />
<path d="M 48.75 165.25 L 56.75 165.25 L 56.75 172.75 L 48.75 172.75 L 48.75 165.25 Z" fill="#ffffff" stroke="none" stroke-width="1.0" />
<text x='48.75' y='172.75' font-family="Default" font-size="10.0" fill="#404040" >1/1</text>
<path d="M 58.93 90.04 L 59.93 90.04 L 59.93 59.0 L 58.93 59.0 M 58.93 90.04 Z" fill="#404040" stroke="none" stroke-width="0.75" />
<path d="M 72.5 75.0 L 88.5 75.0 Z" fill="none" stroke="#d6d6d6" stroke-width="0.75" />
<path d="M 72.5 83.0 L 88.5 83.0 Z" fill="none" stroke="#d6d6d6" stroke-width="0.75" />
<path d="M 72.5 75.0 L 88.5 75.0 Z" fill="none" stroke="#d6d6d6" stroke-width="0.75" />
<path d="M 72.5 83.0 L 88.5 83.0 Z" fill="none" stroke="#d6d6d6" stroke-width="0.75" />
<path d="M 76.02 88.232 C 76.02 89.456 77.215195 90.68 78.395996 90.68 C 81.995995 90.68 85.59599 88.232 85.59599 85.856 C 85.59599 84.6752 84.371994 83.48 83.21999 83.48 C 79.619995 83.48 76.02 85.856 76.02 88.232 Z" fill="#404040" stroke="none" stroke-width="1.0" />
<path d="M 74.5 165.25 L 82.5 165.25 L 82.5 172.75 L 74.5 172.75 L 74.5 165.25 Z" fill="#ffffff" stroke="none" stroke-width="1.0" />
<text x='74.5' y='172.75' font-family="Default" font-size="10.0" fill="#404040" >3/3</text>
<path d="M 84.68 86.04 L 85.68 86.04 L 85.68 55.0 L 84.68 55.0 M 84.68 86.04 Z" fill="#404040" stroke="none" stroke-width="0.75" />
<path d="M 98.25 75.0 L 114.25 75.0 Z" fill="none" stroke="#d6d6d6" stroke-width="0.75" />
<path d="M 98.25 83.0 L 114.25 83.0 Z" fill="none" stroke="#d6d6d6" stroke-width="0.75" />
<path d="M 98.25 91.0 L 114.25 91.0 Z" fill="none" stroke="#d6d6d6" stroke-width="0.75" />
<path d="M 98.25 75.0 L 114.25 75.0 Z" fill="none" stroke="#d6d6d6" stroke-width="0.75" />
<path d="M 98.25 83.0 L 114.25 83.0 Z" fill="none" stroke="#d6d6d6" stroke-width="0.75" />
<path d="M 98.25 91.0 L 114.25 91.0 Z" fill="none" stroke="#d6d6d6" stroke-width="0.75" />
<path d="M 101.77 92.232 C 101.77 93.456 102.965195 94.68 104.145996 94.68 C 107.745995 94.68 111.34599 92.232 111.34599 89.856 C 111.34599 88.6752 110.121994 87.48 108.96999 87.48 C 105.369995 87.48 101.77 89.856 101.77 92.232 Z" fill="#404040" stroke="none" stroke-width="1.0" />
<path d="M 100.25 165.25 L 108.25 165.25 L 108.25 172.75 L 100.25 172.75 L 100.25 165.25 Z" fill="#ffffff" stroke="none" stroke-width="1.0" />
<text x='100.25' y='172.75' font-family="Default" font-size="10.0" fill="#404040" >1/1</text>
<path d="M 110.43 90.04 L 111.43 90.04 L 111.43 59.0 L 110.43 59.0 M 110.43 90.04 Z" fill="#404040" stroke="none" stroke-width="0.75" /></g>
<text x='235.0' y='53.0' font-family="Default" font-size="10.0" fill="#ff0000" >2</text>
<path d="M 234.0 55.0 L 234.0 87.0 Z" fill="#000000" stroke="#000000" stroke-width="0.75" />
<path d="M 377.0 55.0 L 377.0 87.0 Z" fill="#000000" stroke="#000000" stroke-width="0.75" />
<path d="M 234.0 139.0 L 234.0 189.0 Z" fill="#000000" stroke="#000000" stroke-width="0.75" />
<path d="M 377.0 139.0 L 377.0 189.0 Z" fill="#000000" stroke="#000000" stroke-width="0.75" /><g transform="translate(377.0,20.0)">
<path d="M 0.0 0.0 L 144.0 0.0 L 144.0 190.0 L 0.0 190.0 L 0.0 0.0 Z" fill="#ffffff" stroke="none" stroke-width="1.0" />
<path d="M 0.0 35.0 L 144.0 35.0 M 0.0 43.0 L 144.0 43.0 M 0.0 51.0 L 144.0 51.0 M 0.0 59.0 L 144.0 59.0 M 0.0 67.0 L 144.0 67.0 Z" fill="none" stroke="#d6d6d6" stroke-width="0.75" />
<path d="M 0.0 119.0 L 144.0 119.0 M 0.0 129.0 L 144.0 129.0 M 0.0 139.0 L 144.0 139.0 M 0.0 149.0 L 144.0 149.0 M 0.0 159.0 L 144.0 159.0 M 0.0 169.0 L 144.0 169.0 Z" fill="none" stroke="#d6d6d6" stroke-width="0.75" />
<path d="M 21.0 75.0 L 37.0 75.0 Z" fill="none" stroke="#d6d6d6" stroke-width="0.75" />
<path d="M 21.0 83.0 L 37.0 83.0 Z" fill="none" stroke="#d6d6d6" stroke-width="0.75" />
<path d="M 21.0 91.0 L 37.0 91.0 Z" fill="none" stroke="#d6d6d6" stroke-width="0.75" />
<path d="M 21.0 75.0 L 37.0 75.0 Z" fill="none" stroke="#d6d6d6" stroke-width="0.75" />
<path d="M 21.0 83.0 L 37.0 83.0 Z" fill="none" stroke="#d6d6d6" stroke-width="0.75" />
<path d="M 21.0 91.0 L 37.0 91.0 Z" fill="none" stroke="#d6d6d6" stroke-width="0.75" />
<path d="M 24.52 96.232 C 24.52 97.456 25.7152 98.68 26.896 98.68 C 30.496 98.68 34.096 96.232 34.096 93.856 C 34.096 92.6752 32.872 91.48 31.720001 91.48 C 28.12 91.48 24.52 93.856 24.52 96.232 Z" fill="#404040" stroke="none" stroke-width="1.0" />
<path d="M 23.0 165.25 L 31.0 165.25 L 31.0 172.75 L 23.0 172.75 L 23.0 165.25 Z" fill="#ffffff" stroke="none" stroke-width="1.0" />
<text x='23.0' y='172.75' font-family="Default" font-size="10.0" fill="#404040" >0/0</text>
<path d="M 33.18 94.04 L 34.18 94.04 L 34.18 63.0 L 33.18 63.0 M 33.18 94.04 Z" fill="#404040" stroke="none" stroke-width="0.75" />
<path d="M 47.0 75.0 L 63.0 75.0 Z" fill="none" stroke="#d6d6d6" stroke-width="0.75" />
<path d="M 47.0 83.0 L 63.0 83.0 Z" fill="none" stroke="#d6d6d6" stroke-width="0.75" />
<path d="M 47.0 75.0 L 63.0 75.0 Z" fill="none" stroke="#d6d6d6" stroke-width="0.75" />
<path d="M 47.0 83.0 L 63.0 83.0 Z" fill="none" stroke="#d6d6d6" stroke-width="0.75" />
<path d="M 50.52 88.232 C 50.52 89.456 51.715202 90.68 52.896 90.68 C 56.496002 90.68 60.096 88.232 60.096 85.856 C 60.096 84.6752 58.872 83.48 57.72 83.48 C 54.12 83.48 50.52 85.856 50.52 88.232 Z" fill="#404040" stroke="none" stroke-width="1.0" />
<path d="M 49.0 165.25 L 57.0 165.25 L 57.0 172.75 L 49.0 172.75 L 49.0 165.25 Z" fill="#ffffff" stroke="none" stroke-width="1.0" />
<text x='49.0' y='172.75' font-family="Default" font-size="10.0" fill="#404040" >3/3</text>
<path d="M 59.18 86.04 L 60.18 86.04 L 60.18 55.0 L 59.18 55.0 M 59.18 86.04 Z" fill="#404040" stroke="none" stroke-width="0.75" />
<path d="M 73.0 75.0 L 89.0 75.0 Z" fill="none" stroke="#d6d6d6" stroke-width="0.75" />
<path d="M 73.0 83.0 L 89.0 83.0 Z" fill="none" stroke="#d6d6d6" stroke-width="0.75" />
<path d="M 73.0 91.0 L 89.0 91.0 Z" fill="none" stroke="#d6d6d6" stroke-width="0.75" />
<path d="M 73.0 75.0 L 89.0 75.0 Z" fill="none" stroke="#d6d6d6" stroke-width="0.75" />
<path d="M 73.0 83.0 L 89.0 83.0 Z" fill="none" stroke="#d6d6d6" stroke-width="0.75" />
<path d="M 73.0 91.0 L 89.0 91.0 Z" fill="none" stroke="#d6d6d6" stroke-width="0.75" />
<path d="M 76.52 92.232 C 76.52 93.456 77.715195 94.68 78.895996 94.68 C 82.495995 94.68 86.09599 92.232 86.09599 89.856 C 86.09599 88.6752 84.871994 87.48 83.71999 87.48 C 80.119995 87.48 76.52 89.856 76.52 92.232 Z" fill="#404040" stroke="none" stroke-width="1.0" />
<path d="M 75.0 165.25 L 83.0 165.25 L 83.0 172.75 L 75.0 172.75 L 75.0 165.25 Z" fill="#ffffff" stroke="none" stroke-width="1.0" />
<text x='75.0' y='172.75' font-family="Default" font-size="10.0" fill="#404040" >1/1</text>
<path d="M 85.18 90.04 L 86.18 90.04 L 86.18 59.0 L 85.18 59.0 M 85.18 90.04 Z" fill="#404040" stroke="none" stroke-width="0.75" />
<path d="M 99.0 75.0 L 115.0 75.0 Z" fill="none" stroke="#d6d6d6" stroke-width="0.75" />
<path d="M 99.0 83.0 L 115.0 83.0 Z" fill="none" stroke="#d6d6d6" stroke-width="0.75" />
<path d="M 99.0 91.0 L 115.0 91.0 Z" fill="none" stroke="#d6d6d6" stroke-width="0.75" />
<path d="M 99.0 75.0 L 115.0 75.0 Z" fill="none" stroke="#d6d6d6" stroke-width="0.75" />
<path d="M 99.0 83.0 L 115.0 83.0 Z" fill="none" stroke="#d6d6d6" stroke-width="0.75" />
<path d="M 99.0 91.0 L 115.0 91.0 Z" fill="none" stroke="#d6d6d6" stroke-width="0.75" />
<path d="M 102.52 96.232 C 102.52 97.456 103.715195 98.68 104.895996 98.68 C 108.495995 98.68 112.09599 96.232 112.09599 93.856 C 112.09599 92.6752 110.871994 91.48 109.71999 91.48 C 106.119995 91.48 102.52 93.856 102.52 96.232 Z" fill="#404040" stroke="none" stroke-width="1.0" />
<path d="M 101.0 165.25 L 109.0 165.25 L 109.0 172.75 L 101.0 172.75 L 101.0 165.25 Z" fill="#ffffff" stroke="none" stroke-width="1.0" />
<text x='101.0' y='172.75' font-family="Default" font-size="10.0" fill="#404040" >0/0</text>
<path d="M 111.18 94.04 L 112.18 94.04 L 112.18 63.0 L 111.18 63.0 M 111.18 94.04 Z" fill="#404040" stroke="none" stroke-width="0.75" /></g>
<text x='378.0' y='53.0' font-family="Default" font-size="10.0" fill="#ff0000" >3</text>
<path d="M 377.0 55.0 L 377.0 87.0 Z" fill="#000000" stroke="#000000" stroke-width="0.75" />
<path d="M 521.0 55.0 L 521.0 87.0 Z" fill="#000000" stroke="#000000" stroke-width="0.75" />
<path d="M 377.0 139.0 L 377.0 189.0 Z" fill="#000000" stroke="#000000" stroke-width="0.75" />
<path d="M 521.0 139.0 L 521.0 189.0 Z" fill="#000000" stroke="#000000" stroke-width="0.75" /><g transform="translate(521.0,20.0)">
<path d="M 0.0 0.0 L 143.0 0.0 L 143.0 190.0 L 0.0 190.0 L 0.0 0.0 Z" fill="#ffffff" stroke="none" stroke-width="1.0" />
<path d="M 0.0 35.0 L 143.0 35.0 M 0.0 43.0 L 143.0 43.0 M 0.0 51.0 L 143.0 51.0 M 0.0 59.0 L 143.0 59.0 M 0.0 67.0 L 143.0 67.0 Z" fill="none" stroke="#d6d6d6" stroke-width="0.75" />
<path d="M 0.0 119.0 L 143.0 119.0 M 0.0 129.0 L 143.0 129.0 M 0.0 139.0 L 143.0 139.0 M 0.0 149.0 L 143.0 149.0 M 0.0 159.0 L 143.0 159.0 M 0.0 169.0 L 143.0 169.0 Z" fill="none" stroke="#d6d6d6" stroke-width="0.75" />
<path d="M 21.0 75.0 L 37.0 75.0 Z" fill="none" stroke="#d6d6d6" stroke-width="0.75" />
<path d="M 21.0 83.0 L 37.0 83.0 Z" fill="none" stroke="#d6d6d6" stroke-width="0.75" />
<path d="M 21.0 91.0 L 37.0 91.0 Z" fill="none" stroke="#d6d6d6" stroke-width="0.75" />
<path d="M 21.0 75.0 L 37.0 75.0 Z" fill="none" stroke="#d6d6d6" stroke-width="0.75" />
<path d="M 21.0 83.0 L 37.0 83.0 Z" fill="none" stroke="#d6d6d6" stroke-width="0.75" />
<path d="M 21.0 91.0 L 37.0 91.0 Z" fill="none" stroke="#d6d6d6" stroke-width="0.75" />
<path d="M 24.52 92.232 C 24.52 93.456 25.7152 94.68 26.896 94.68 C 30.496 94.68 34.096 92.232 34.096 89.856 C 34.096 88.6752 32.872 87.48 31.720001 87.48 C 28.12 87.48 24.52 89.856 24.52 92.232 Z" fill="#404040" stroke="none" stroke-width="1.0" />
<path d="M 23.0 165.25 L 31.0 165.25 L 31.0 172.75 L 23.0 172.75 L 23.0 165.25 Z" fill="#ffffff" stroke="none" stroke-width="1.0" />
<text x='23.0' y='172.75' font-family="Default" font-size="10.0" fill="#404040" >1/1</text>
<path d="M 33.18 90.04 L 34.18 90.04 L 34.18 59.0 L 33.18 59.0 M 33.18 90.04 Z" fill="#404040" stroke="none" stroke-width="0.75" />
<path d="M 46.75 75.0 L 62.75 75.0 Z" fill="none" stroke="#d6d6d6" stroke-width="0.75" />
<path d="M 46.75 83.0 L 62.75 83.0 Z" fill="none" stroke="#d6d6d6" stroke-width="0.75" />
<path d="M 46.75 91.0 L 62.75 91.0 Z" fill="none" stroke="#d6d6d6" stroke-width="0.75" />
<path d="M 46.75 75.0 L 62.75 75.0 Z" fill="none" stroke="#d6d6d6" stroke-width="0.75" />
<path d="M 46.75 83.0 L 62.75 83.0 Z" fill="none" stroke="#d6d6d6" stroke-width="0.75" />
<path d="M 46.75 91.0 L 62.75 91.0 Z" fill="none" stroke="#d6d6d6" stroke-width="0.75" />
<path d="M 50.27 96.232 C 50.27 97.456 51.465202 98.68 52.646 98.68 C 56.246002 98.68 59.846 96.232 59.846 93.856 C 59.846 92.6752 58.622 91.48 57.47 91.48 C 53.87 91.48 50.27 93.856 50.27 96.232 Z" fill="#404040" stroke="none" stroke-width="1.0" />
<path d="M 48.75 165.25 L 56.75 165.25 L 56.75 172.75 L 48.75 172.75 L 48.75 165.25 Z" fill="#ffffff" stroke="none" stroke-width="1.0" />
<text x='48.75' y='172.75' font-family="Default" font-size="10.0" fill="#404040" >0/0</text>
<path d="M 58.93 94.04 L 59.93 94.04 L 59.93 63.0 L 58.93 63.0 M 58.93 94.04 Z" fill="#404040" stroke="none" stroke-width="0.75" />
<path d="M 72.5 75.0 L 88.5 75.0 Z" fill="none" stroke="#d6d6d6" stroke-width="0.75" />
<path d="M 72.5 83.0 L 88.5 83.0 Z" fill="none" stroke="#d6d6d6" stroke-width="0.75" />
<path d="M 72.5 91.0 L 88.5 91.0 Z" fill="none" stroke="#d6d6d6" stroke-width="0.75" />
<path d="M 72.5 75.0 L 88.5 75.0 Z" fill="none" stroke="#d6d6d6" stroke-width="0.75" />
<path d="M 72.5 83.0 L 88.5 83.0 Z" fill="none" stroke="#d6d6d6" stroke-width="0.75" />
<path d="M 72.5 91.0 L 88.5 91.0 Z" fill="none" stroke="#d6d6d6" stroke-width="0.75" />
<path d="M 73.96439 84.63119 C 74.09136 84.55864 74.29088 84.61305 74.363434 84.7763 C 74.39971 84.84885 74.39971 84.90327 74.39971 86.172935 C 74.39971 86.9166 74.39971 87.51516 74.41785 87.51516 C 74.41785 87.51516 74.58109 87.44261 74.78061 87.370056 C 75.19779 87.20681 75.252205 87.188675 75.36103 87.279366 C 75.488 87.370056 75.488 87.38819 75.488 88.11372 C 75.488 88.73042 75.488 88.784836 75.45172 88.83925 C 75.433586 88.87553 75.39731 88.911804 75.37917 88.92994 C 75.342896 88.94808 75.12524 89.05691 74.8713 89.1476 L 74.41785 89.34712 L 74.39971 90.816315 C 74.39971 91.614395 74.39971 92.28551 74.41785 92.28551 C 74.41785 92.28551 74.58109 92.21295 74.78061 92.140396 C 75.19779 91.97716 75.252205 91.959015 75.36103 92.049706 C 75.488 92.140396 75.488 92.15854 75.488 92.88406 C 75.488 93.50076 75.488 93.555176 75.45172 93.60959 C 75.433586 93.64587 75.39731 93.682144 75.37917 93.70028 C 75.342896 93.71842 75.12524 93.82725 74.8713 93.91794 L 74.41785 94.11746 L 74.39971 95.64107 C 74.39971 97.01957 74.38157 97.182816 74.363434 97.23723 C 74.236465 97.45489 73.928116 97.45489 73.80115 97.23723 C 73.78301 97.182816 73.76487 97.037704 73.76487 95.768036 L 73.76487 94.3714 L 72.98493 94.67974 L 72.22313 94.98809 L 72.22313 96.45728 C 72.22313 98.01717 72.22313 97.980896 72.13244 98.07159 C 72.09616 98.126 71.96919 98.18041 71.91478 98.18041 C 71.842224 98.18041 71.715256 98.126 71.678986 98.07159 C 71.58829 97.980896 71.58829 98.01717 71.58829 96.602394 C 71.58829 95.85873 71.58829 95.26017 71.57015 95.26017 C 71.57015 95.26017 71.406906 95.33272 71.20739 95.40527 C 70.790215 95.56851 70.735794 95.586655 70.62697 95.495964 C 70.5 95.40527 70.5 95.38713 70.5 94.661606 C 70.5 94.04491 70.5 93.99049 70.53628 93.93608 C 70.55441 93.8998 70.59069 93.863525 70.608826 93.84539 C 70.6451 93.82725 70.86276 93.71842 71.1167 93.62773 L 71.58829 93.42821 L 71.58829 91.959015 C 71.58829 91.160934 71.58829 90.48982 71.57015 90.48982 C 71.57015 90.48982 71.406906 90.56238 71.20739 90.63493 C 70.790215 90.79817 70.735794 90.816315 70.62697 90.725624 C 70.5 90.63493 70.5 90.61679 70.5 89.891266 C 70.5 89.27457 70.5 89.22015 70.53628 89.16573 C 70.55441 89.12946 70.59069 89.093185 70.608826 89.07504 C 70.6451 89.05691 70.86276 88.94808 71.1167 88.85739 L 71.58829 88.65787 L 71.58829 87.13426 C 71.58829 85.75576 71.60643 85.592514 71.624565 85.5381 C 71.75153 85.32044 72.05988 85.32044 72.18685 85.5381 C 72.20499 85.592514 72.22313 85.73762 72.22313 87.00729 L 72.241264 88.40393 L 73.00307 88.09558 L 73.76487 87.78723 L 73.76487 86.31804 C 73.76487 84.93954 73.76487 84.84885 73.80115 84.7763 C 73.837425 84.70374 73.8737 84.667465 73.96439 84.63119 M 73.76487 91.070244 L 73.76487 89.60105 L 72.98493 89.9094 L 72.22313 90.21775 L 72.22313 91.705086 L 72.22313 93.17428 L 72.27754 93.156136 C 72.31382 93.138 72.65845 92.9929 73.05749 92.847786 L 73.76487 92.55758 L 73.76487 91.070244 Z" fill="#404040" stroke="none" stroke-width="0.75" />
<path d="M 76.02 92.232 C 76.02 93.456 77.215195 94.68 78.395996 94.68 C 81.995995 94.68 85.59599 92.232 85.59599 89.856 C 85.59599 88.6752 84.371994 87.48 83.21999 87.48 C 79.619995 87.48 76.02 89.856 76.02 92.232 Z" fill="#404040" stroke="none" stroke-width="1.0" />
<path d="M 74.5 165.25 L 82.5 165.25 L 82.5 172.75 L 74.5 172.75 L 74.5 165.25 Z" fill="#ffffff" stroke="none" stroke-width="1.0" />
<text x='74.5' y='172.75' font-family="Default" font-size="10.0" fill="#404040" >2/2</text>
<path d="M 84.68 90.04 L 85.68 90.04 L 85.68 59.0 L 84.68 59.0 M 84.68 90.04 Z" fill="#404040" stroke="none" stroke-width="0.75" />
<path d="M 98.25 75.0 L 114.25 75.0 Z" fill="none" stroke="#d6d6d6" stroke-width="0.75" />
<path d="M 98.25 83.0 L 114.25 83.0 Z" fill="none" stroke="#d6d6d6" stroke-width="0.75" />
<path d="M 98.25 75.0 L 114.25 75.0 Z" fill="none" stroke="#d6d6d6" stroke-width="0.75" />
<path d="M 98.25 83.0 L 114.25 83.0 Z" fill="none" stroke="#d6d6d6" stroke-width="0.75" />
<path d="M 99.71439 80.63119 C 99.84136 80.55864 100.04088 80.61305 100.113434 80.7763 C 100.14971 80.84885 100.14971 80.90327 100.14971 82.172935 C 100.14971 82.9166 100.14971 83.51516 100.16785 83.51516 C 100.16785 83.51516 100.33109 83.44261 100.53061 83.370056 C 100.94779 83.20681 101.002205 83.188675 101.11103 83.279366 C 101.238 83.370056 101.238 83.38819 101.238 84.11372 C 101.238 84.73042 101.238 84.784836 101.20172 84.83925 C 101.183586 84.87553 101.14731 84.911804 101.12917 84.92994 C 101.092896 84.94808 100.87524 85.05691 100.6213 85.1476 L 100.16785 85.34712 L 100.14971 86.816315 C 100.14971 87.614395 100.14971 88.28551 100.16785 88.28551 C 100.16785 88.28551 100.33109 88.21295 100.53061 88.140396 C 100.94779 87.97716 101.002205 87.959015 101.11103 88.049706 C 101.238 88.140396 101.238 88.15854 101.238 88.88406 C 101.238 89.50076 101.238 89.555176 101.20172 89.60959 C 101.183586 89.64587 101.14731 89.682144 101.12917 89.70028 C 101.092896 89.71842 100.87524 89.82725 100.6213 89.91794 L 100.16785 90.11746 L 100.14971 91.64107 C 100.14971 93.01957 100.13157 93.182816 100.113434 93.23723 C 99.986465 93.45489 99.678116 93.45489 99.55115 93.23723 C 99.53301 93.182816 99.51487 93.037704 99.51487 91.768036 L 99.51487 90.3714 L 98.73493 90.67974 L 97.97313 90.98809 L 97.97313 92.45728 C 97.97313 94.01717 97.97313 93.980896 97.88244 94.07159 C 97.84616 94.126 97.71919 94.18041 97.66478 94.18041 C 97.592224 94.18041 97.465256 94.126 97.428986 94.07159 C 97.33829 93.980896 97.33829 94.01717 97.33829 92.602394 C 97.33829 91.85873 97.33829 91.26017 97.32015 91.26017 C 97.32015 91.26017 97.156906 91.33272 96.95739 91.40527 C 96.540215 91.56851 96.485794 91.586655 96.37697 91.495964 C 96.25 91.40527 96.25 91.38713 96.25 90.661606 C 96.25 90.04491 96.25 89.99049 96.28628 89.93608 C 96.30441 89.8998 96.34069 89.863525 96.358826 89.84539 C 96.3951 89.82725 96.61276 89.71842 96.8667 89.62773 L 97.33829 89.42821 L 97.33829 87.959015 C 97.33829 87.160934 97.33829 86.48982 97.32015 86.48982 C 97.32015 86.48982 97.156906 86.56238 96.95739 86.63493 C 96.540215 86.79817 96.485794 86.816315 96.37697 86.725624 C 96.25 86.63493 96.25 86.61679 96.25 85.891266 C 96.25 85.27457 96.25 85.22015 96.28628 85.16573 C 96.30441 85.12946 96.34069 85.093185 96.358826 85.07504 C 96.3951 85.05691 96.61276 84.94808 96.8667 84.85739 L 97.33829 84.65787 L 97.33829 83.13426 C 97.33829 81.75576 97.35643 81.592514 97.374565 81.5381 C 97.50153 81.32044 97.80988 81.32044 97.93685 81.5381 C 97.95499 81.592514 97.97313 81.73762 97.97313 83.00729 L 97.991264 84.40393 L 98.75307 84.09558 L 99.51487 83.78723 L 99.51487 82.31804 C 99.51487 80.93954 99.51487 80.84885 99.55115 80.7763 C 99.587425 80.70374 99.6237 80.667465 99.71439 80.63119 M 99.51487 87.070244 L 99.51487 85.60105 L 98.73493 85.9094 L 97.97313 86.21775 L 97.97313 87.705086 L 97.97313 89.17428 L 98.02754 89.156136 C 98.06382 89.138 98.40845 88.9929 98.80749 88.847786 L 99.51487 88.55758 L 99.51487 87.070244 Z" fill="#404040" stroke="none" stroke-width="0.75" />
<path d="M 101.77 88.232 C 101.77 89.456 102.965195 90.68 104.145996 90.68 C 107.745995 90.68 111.34599 88.232 111.34599 85.856 C 111.34599 84.6752 110.121994 83.48 108.96999 83.48 C 105.369995 83.48 101.77 85.856 101.77 88.232 Z" fill="#404040" stroke="none" stroke-width="1.0" />
<path d="M 100.25 165.25 L 108.25 165.25 L 108.25 172.75 L 100.25 172.75 L 100.25 165.25 Z" fill="#ffffff" stroke="none" stroke-width="1.0" />
<text x='100.25' y='172.75' font-family="Default" font-size="10.0" fill="#404040" >4/4</text>
<path d="M 110.43 86.04 L 111.43 86.04 L 111.43 55.0 L 110.43 55.0 M 110.43 86.04 Z" fill="#404040" stroke="none" stroke-width="0.75" /></g>
<text x='597.5' y='20.0' font-family="Default" font-size="10.0" fill="#000000" >2-----------</text>
<text x='522.0' y='53.0' font-family="Default" font-size="10.0" fill="#ff0000" >4</text>
<path d="M 521.0 55.0 L 521.0 87.0 Z" fill="#000000" stroke="#000000" stroke-width="0.75" />
<path d="M 664.0 55.0 L 664.0 87.0 Z" fill="#000000" stroke="#000000" stroke-width="0.75" />
<path d="M 521.0 139.0 L 521.0 189.0 Z" fill="#000000" stroke="#000000" stroke-width="0.75" />
<path d="M 664.0 139.0 L 664.0 189.0 Z" fill="#000000" stroke="#000000" stroke-width="0.75" /><g transform="translate(664.0,20.0)">
<path d="M 0.0 0.0 L 143.0 0.0 L 143.0 190.0 L 0.0 190.0 L 0.0 0.0 Z" fill="#ffffff" stroke="none" stroke-width="1.0" />
<path d="M 0.0 35.0 L 143.0 35.0 M 0.0 43.0 L 143.0 43.0 M 0.0 51.0 L 143.0 51.0 M 0.0 59.0 L 143.0 59.0 M 0.0 67.0 L 143.0 67.0 Z" fill="none" stroke="#d6d6d6" stroke-width="0.75" />
<path d="M 0.0 119.0 L 143.0 119.0 M 0.0 129.0 L 143.0 129.0 M 0.0 139.0 L 143.0 139.0 M 0.0 149.0 L 143.0 149.0 M 0.0 159.0 L 143.0 159.0 M 0.0 169.0 L 143.0 169.0 Z" fill="none" stroke="#d6d6d6" stroke-width="0.75" />
<path d="M 21.0 75.0 L 37.0 75.0 Z" fill="none" stroke="#d6d6d6" stroke-width="0.75" />
<path d="M 21.0 83.0 L 37.0 83.0 Z" fill="none" stroke="#d6d6d6" stroke-width="0.75" />
<path d="M 21.0 75.0 L 37.0 75.0 Z" fill="none" stroke="#d6d6d6" stroke-width="0.75" />
<path d="M 21.0 83.0 L 37.0 83.0 Z" fill="none" stroke="#d6d6d6" stroke-width="0.75" />
<path d="M 24.52 84.232 C 24.52 85.456 25.7152 86.68 26.896 86.68 C 30.496 86.68 34.096 84.232 34.096 81.856 C 34.096 80.6752 32.872 79.48 31.720001 79.48 C 28.12 79.48 24.52 81.856 24.52 84.232 Z" fill="#404040" stroke="none" stroke-width="1.0" />
<path d="M 23.0 155.25 L 31.0 155.25 L 31.0 162.75 L 23.0 162.75 L 23.0 155.25 Z" fill="#ffffff" stroke="none" stroke-width="1.0" />
<text x='23.0' y='162.75' font-family="Default" font-size="10.0" fill="#404040" >0/0</text>
<path d="M 33.18 82.04 L 34.18 82.04 L 34.18 51.0 L 33.18 51.0 M 33.18 82.04 Z" fill="#404040" stroke="none" stroke-width="0.75" />
<path d="M 46.75 75.0 L 62.75 75.0 Z" fill="none" stroke="#d6d6d6" stroke-width="0.75" />
<path d="M 46.75 75.0 L 62.75 75.0 Z" fill="none" stroke="#d6d6d6" stroke-width="0.75" />
<path d="M 50.27 80.232 C 50.27 81.456 51.465202 82.68 52.646 82.68 C 56.246002 82.68 59.846 80.232 59.846 77.856 C 59.846 76.6752 58.622 75.48 57.47 75.48 C 53.87 75.48 50.27 77.856 50.27 80.232 Z" fill="#404040" stroke="none" stroke-width="1.0" />
<path d="M 48.75 155.25 L 56.75 155.25 L 56.75 162.75 L 48.75 162.75 L 48.75 155.25 Z" fill="#ffffff" stroke="none" stroke-width="1.0" />
<text x='48.75' y='162.75' font-family="Default" font-size="10.0" fill="#404040" >2/2</text>
<path d="M 58.93 78.04 L 59.93 78.04 L 59.93 47.0 L 58.93 47.0 M 58.93 78.04 Z" fill="#404040" stroke="none" stroke-width="0.75" />
<path d="M 72.5 75.0 L 88.5 75.0 Z" fill="none" stroke="#d6d6d6" stroke-width="0.75" />
<path d="M 72.5 83.0 L 88.5 83.0 Z" fill="none" stroke="#d6d6d6" stroke-width="0.75" />
<path d="M 72.5 75.0 L 88.5 75.0 Z" fill="none" stroke="#d6d6d6" stroke-width="0.75" />
<path d="M 72.5 83.0 L 88.5 83.0 Z" fill="none" stroke="#d6d6d6" stroke-width="0.75" />
<path d="M 76.02 84.232 C 76.02 85.456 77.215195 86.68 78.395996 86.68 C 81.995995 86.68 85.59599 84.232 85.59599 81.856 C 85.59599 80.6752 84.371994 79.48 83.21999 79.48 C 79.619995 79.48 76.02 81.856 76.02 84.232 Z" fill="#404040" stroke="none" stroke-width="1.0" />
<path d="M 74.5 155.25 L 82.5 155.25 L 82.5 162.75 L 74.5 162.75 L 74.5 155.25 Z" fill="#ffffff" stroke="none" stroke-width="1.0" />
<text x='74.5' y='162.75' font-family="Default" font-size="10.0" fill="#404040" >0/0</text>
<path d="M 84.68 82.04 L 85.68 82.04 L 85.68 51.0 L 84.68 51.0 M 84.68 82.04 Z" fill="#404040" stroke="none" stroke-width="0.75" />
<path d="M 98.25 75.0 L 114.25 75.0 Z" fill="none" stroke="#d6d6d6" stroke-width="0.75" />
<path d="M 98.25 75.0 L 114.25 75.0 Z" fill="none" stroke="#d6d6d6" stroke-width="0.75" />
<path d="M 101.77 80.232 C 101.77 81.456 102.965195 82.68 104.145996 82.68 C 107.745995 82.68 111.34599 80.232 111.34599 77.856 C 111.34599 76.6752 110.121994 75.48 108.96999 75.48 C 105.369995 75.48 101.77 77.856 101.77 80.232 Z" fill="#404040" stroke="none" stroke-width="1.0" />
<path d="M 100.25 155.25 L 108.25 155.25 L 108.25 162.75 L 100.25 162.75 L 100.25 155.25 Z" fill="#ffffff" stroke="none" stroke-width="1.0" />
<text x='100.25' y='162.75' font-family="Default" font-size="10.0" fill="#404040" >2/2</text>
<path d="M 110.43 78.04 L 111.43 78.04 L 111.43 47.0 L 110.43 47.0 M 110.43 78.04 Z" fill="#404040" stroke="none" stroke-width="0.75" /></g>
<text x='766.25' y='20.0' font-family="Default" font-size="10.0" fill="#000000" >2------</text>
<text x='665.0' y='53.0' font-family="Default" font-size="10.0" fill="#ff0000" >5</text>
<path d="M 664.0 55.0 L 664.0 87.0 Z" fill="#000000" stroke="#000000" stroke-width="0.75" />
<path d="M 807.0 55.0 L 807.0 87.0 Z" fill="#000000" stroke="#000000" stroke-width="0.75" />
<path d="M 664.0 139.0 L 664.0 189.0 Z" fill="#000000" stroke="#000000" stroke-width="0.75" />
<path d="M 807.0 139.0 L 807.0 189.0 Z" fill="#000000" stroke="#000000" stroke-width="0.75" /><g transform="translate(807.0,20.0)">
<path d="M 0.0 0.0 L 143.0 0.0 L 143.0 190.0 L 0.0 190.0 L 0.0 0.0 Z" fill="#ffffff" stroke="none" stroke-width="1.0" />
<path d="M 0.0 35.0 L 143.0 35.0 M 0.0 43.0 L 143.0 43.0 M 0.0 51.0 L 143.0 51.0 M 0.0 59.0 L 143.0 59.0 M 0.0 67.0 L 143.0 67.0 Z" fill="none" stroke="#d6d6d6" stroke-width="0.75" />
<path d="M 0.0 119.0 L 143.0 119.0 M 0.0 129.0 L 143.0 129.0 M 0.0 139.0 L 143.0 139.0 M 0.0 149.0 L 143.0 149.0 M 0.0 159.0 L 143.0 159.0 M 0.0 169.0 L 143.0 169.0 Z" fill="none" stroke="#d6d6d6" stroke-width="0.75" />
<path d="M 21.0 75.0 L 37.0 75.0 Z" fill="none" stroke="#d6d6d6" stroke-width="0.75" />
<path d="M 21.0 75.0 L 37.0 75.0 Z" fill="none" stroke="#d6d6d6" stroke-width="0.75" />
<path d="M 24.52 76.232 C 24.52 77.456 25.7152 78.68 26.896 78.68 C 30.496 78.68 34.096 76.232 34.096 73.856 C 34.096 72.6752 32.872 71.48 31.720001 71.48 C 28.12 71.48 24.52 73.856 24.52 76.232 Z" fill="#404040" stroke="none" stroke-width="1.0" />
<path d="M 23.0 155.25 L 31.0 155.25 L 31.0 162.75 L 23.0 162.75 L 23.0 155.25 Z" fill="#ffffff" stroke="none" stroke-width="1.0" />
<text x='23.0' y='162.75' font-family="Default" font-size="10.0" fill="#404040" >3/3</text>
<path d="M 33.18 74.04 L 34.18 74.04 L 34.18 43.0 L 33.18 43.0 M 33.18 74.04 Z" fill="#404040" stroke="none" stroke-width="0.75" />
<path d="M 46.75 75.0 L 62.75 75.0 Z" fill="none" stroke="#d6d6d6" stroke-width="0.75" />
<path d="M 46.75 75.0 L 62.75 75.0 Z" fill="none" stroke="#d6d6d6" stroke-width="0.75" />
<path d="M 50.27 80.232 C 50.27 81.456 51.465202 82.68 52.646 82.68 C 56.246002 82.68 59.846 80.232 59.846 77.856 C 59.846 76.6752 58.622 75.48 57.47 75.48 C 53.87 75.48 50.27 77.856 50.27 80.232 Z" fill="#404040" stroke="none" stroke-width="1.0" />
<path d="M 48.75 155.25 L 56.75 155.25 L 56.75 162.75 L 48.75 162.75 L 48.75 155.25 Z" fill="#ffffff" stroke="none" stroke-width="1.0" />
<text x='48.75' y='162.75' font-family="Default" font-size="10.0" fill="#404040" >2/2</text>
<path d="M 58.93 78.04 L 59.93 78.04 L 59.93 47.0 L 58.93 47.0 M 58.93 78.04 Z" fill="#404040" stroke="none" stroke-width="0.75" />
<path d="M 72.5 75.0 L 88.5 75.0 Z" fill="none" stroke="#d6d6d6" stroke-width="0.75" />
<path d="M 72.5 75.0 L 88.5 75.0 Z" fill="none" stroke="#d6d6d6" stroke-width="0.75" />
<path d="M 76.02 76.232 C 76.02 77.456 77.215195 78.68 78.395996 78.68 C 81.995995 78.68 85.59599 76.232 85.59599 73.856 C 85.59599 72.6752 84.371994 71.48 83.21999 71.48 C 79.619995 71.48 76.02 73.856 76.02 76.232 Z" fill="#404040" stroke="none" stroke-width="1.0" />
<path d="M 74.5 155.25 L 82.5 155.25 L 82.5 162.75 L 74.5 162.75 L 74.5 155.25 Z" fill="#ffffff" stroke="none" stroke-width="1.0" />
<text x='74.5' y='162.75' font-family="Default" font-size="10.0" fill="#404040" >3/3</text>
<path d="M 84.68 74.04 L 85.68 74.04 L 85.68 43.0 L 84.68 43.0 M 84.68 74.04 Z" fill="#404040" stroke="none" stroke-width="0.75" />
<path d="M 98.25 75.0 L 114.25 75.0 Z" fill="none" stroke="#d6d6d6" stroke-width="0.75" />
<path d="M 98.25 75.0 L 114.25 75.0 Z" fill="none" stroke="#d6d6d6" stroke-width="0.75" />
<path d="M 101.77 80.232 C 101.77 81.456 102.965195 82.68 104.145996 82.68 C 107.745995 82.68 111.34599 80.232 111.34599 77.856 C 111.34599 76.6752 110.121994 75.48 108.96999 75.48 C 105.369995 75.48 101.77 77.856 101.77 80.232 Z" fill="#404040" stroke="none" stroke-width="1.0" />
<path d="M 100.25 155.25 L 108.25 155.25 L 108.25 162.75 L 100.25 162.75 L 100.25 155.25 Z" fill="#ffffff" stroke="none" stroke-width="1.0" />
<text x='100.25' y='162.75' font-family="Default" font-size="10.0" fill="#404040" >2/2</text>
<path d="M 110.43 78.04 L 111.43 78.04 L 111.43 47.0 L 110.43 47.0 M 110.43 78.04 Z" fill="#404040" stroke="none" stroke-width="0.75" /></g>
<text x='832.0' y='20.0' font-family="Default" font-size="10.0" fill="#000000" >2-----------------------</text>
<text x='808.0' y='53.0' font-family="Default" font-size="10.0" fill="#ff0000" >6</text>
<path d="M 807.0 55.0 L 807.0 87.0 Z" fill="#000000" stroke="#000000" stroke-width="0.75" />
<path d="M 950.0 55.0 L 950.0 87.0 Z" fill="#000000" stroke="#000000" stroke-width="0.75" />
<path d="M 807.0 139.0 L 807.0 189.0 Z" fill="#000000" stroke="#000000" stroke-width="0.75" />
<path d="M 950.0 139.0 L 950.0 189.0 Z" fill="#000000" stroke="#000000" stroke-width="0.75" /><g transform="translate(20.0,221.0)">
<path d="M 0.0 0.0 L 133.0 0.0 L 133.0 197.0 L 0.0 197.0 L 0.0 0.0 Z" fill="#ffffff" stroke="none" stroke-width="1.0" />
<path d="M 0.0 41.0 L 133.0 41.0 M 0.0 49.0 L 133.0 49.0 M 0.0 57.0 L 133.0 57.0 M 0.0 65.0 L 133.0 65.0 M 0.0 73.0 L 133.0 73.0 Z" fill="none" stroke="#d6d6d6" stroke-width="0.75" />
<path d="M 0.0 126.0 L 133.0 126.0 M 0.0 136.0 L 133.0 136.0 M 0.0 146.0 L 133.0 146.0 M 0.0 156.0 L 133.0 156.0 M 0.0 166.0 L 133.0 166.0 M 0.0 176.0 L 133.0 176.0 Z" fill="none" stroke="#d6d6d6" stroke-width="0.75" />
<path d="M 21.0 81.0 L 37.0 81.0 Z" fill="none" stroke="#d6d6d6" stroke-width="0.75" />
<path d="M 21.0 89.0 L 37.0 89.0 Z" fill="none" stroke="#d6d6d6" stroke-width="0.75" />
<path d="M 21.0 81.0 L 37.0 81.0 Z" fill="none" stroke="#d6d6d6" stroke-width="0.75" />
<path d="M 21.0 89.0 L 37.0 89.0 Z" fill="none" stroke="#d6d6d6" stroke-width="0.75" />
<path d="M 24.52 90.232 C 24.52 91.456 25.7152 92.68 26.896 92.68 C 30.496 92.68 34.096 90.232 34.096 87.856 C 34.096 86.6752 32.872 85.48 31.720001 85.48 C 28.12 85.48 24.52 87.856 24.52 90.232 Z" fill="#404040" stroke="none" stroke-width="1.0" />
<path d="M 23.0 162.25 L 31.0 162.25 L 31.0 169.75 L 23.0 169.75 L 23.0 162.25 Z" fill="#ffffff" stroke="none" stroke-width="1.0" />
<text x='23.0' y='169.75' font-family="Default" font-size="10.0" fill="#404040" >0/0</text>
<path d="M 33.18 88.04 L 34.18 88.04 L 34.18 57.0 L 33.18 57.0 M 33.18 88.04 Z" fill="#404040" stroke="none" stroke-width="0.75" />
<path d="M 44.25 81.0 L 60.25 81.0 Z" fill="none" stroke="#d6d6d6" stroke-width="0.75" />
<path d="M 44.25 81.0 L 60.25 81.0 Z" fill="none" stroke="#d6d6d6" stroke-width="0.75" />
<path d="M 47.77 82.232 C 47.77 83.456 48.965202 84.68 50.146 84.68 C 53.746002 84.68 57.346 82.232 57.346 79.856 C 57.346 78.6752 56.122 77.48 54.97 77.48 C 51.37 77.48 47.77 79.856 47.77 82.232 Z" fill="#404040" stroke="none" stroke-width="1.0" />
<path d="M 46.25 162.25 L 54.25 162.25 L 54.25 169.75 L 46.25 169.75 L 46.25 162.25 Z" fill="#ffffff" stroke="none" stroke-width="1.0" />
<text x='46.25' y='169.75' font-family="Default" font-size="10.0" fill="#404040" >3/3</text>
<path d="M 56.43 80.04 L 57.43 80.04 L 57.43 49.0 L 56.43 49.0 M 56.43 80.04 Z" fill="#404040" stroke="none" stroke-width="0.75" />
<path d="M 67.5 81.0 L 83.5 81.0 Z" fill="none" stroke="#d6d6d6" stroke-width="0.75" />
<path d="M 67.5 81.0 L 83.5 81.0 Z" fill="none" stroke="#d6d6d6" stroke-width="0.75" />
<path d="M 71.02 86.232 C 71.02 87.456 72.215195 88.68 73.395996 88.68 C 76.995995 88.68 80.59599 86.232 80.59599 83.856 C 80.59599 82.6752 79.371994 81.48 78.21999 81.48 C 74.619995 81.48 71.02 83.856 71.02 86.232 Z" fill="#404040" stroke="none" stroke-width="1.0" />
<path d="M 69.5 162.25 L 77.5 162.25 L 77.5 169.75 L 69.5 169.75 L 69.5 162.25 Z" fill="#ffffff" stroke="none" stroke-width="1.0" />
<text x='69.5' y='169.75' font-family="Default" font-size="10.0" fill="#404040" >2/2</text>
<path d="M 79.68 84.04 L 80.68 84.04 L 80.68 53.0 L 79.68 53.0 M 79.68 84.04 Z" fill="#404040" stroke="none" stroke-width="0.75" />
<path d="M 90.75 81.0 L 106.75 81.0 Z" fill="none" stroke="#d6d6d6" stroke-width="0.75" />
<path d="M 90.75 89.0 L 106.75 89.0 Z" fill="none" stroke="#d6d6d6" stroke-width="0.75" />
<path d="M 90.75 81.0 L 106.75 81.0 Z" fill="none" stroke="#d6d6d6" stroke-width="0.75" />
<path d="M 90.75 89.0 L 106.75 89.0 Z" fill="none" stroke="#d6d6d6" stroke-width="0.75" />
<path d="M 94.27 90.232 C 94.27 91.456 95.465195 92.68 96.645996 92.68 C 100.245995 92.68 103.84599 90.232 103.84599 87.856 C 103.84599 86.6752 102.621994 85.48 101.46999 85.48 C 97.869995 85.48 94.27 87.856 94.27 90.232 Z" fill="#404040" stroke="none" stroke-width="1.0" />
<path d="M 92.75 162.25 L 100.75 162.25 L 100.75 169.75 L 92.75 169.75 L 92.75 162.25 Z" fill="#ffffff" stroke="none" stroke-width="1.0" />
<text x='92.75' y='169.75' font-family="Default" font-size="10.0" fill="#404040" >0/0</text>
<path d="M 102.93 88.04 L 103.93 88.04 L 103.93 57.0 L 102.93 57.0 M 102.93 88.04 Z" fill="#404040" stroke="none" stroke-width="0.75" /></g>
<text x='21.0' y='260.0' font-family="Default" font-size="10.0" fill="#ff0000" >7</text>
<path d="M 20.0 262.0 L 20.0 347.0 Z" fill="#000000" stroke="#000000" stroke-width="0.75" />
<path d="M 153.0 262.0 L 153.0 294.0 Z" fill="#000000" stroke="#000000" stroke-width="0.75" />
<path d="M 20.0 347.0 L 20.0 397.0 Z" fill="#000000" stroke="#000000" stroke-width="0.75" />
<path d="M 153.0 347.0 L 153.0 397.0 Z" fill="#000000" stroke="#000000" stroke-width="0.75" /><g transform="translate(153.0,221.0)">
<path d="M 0.0 0.0 L 133.0 0.0 L 133.0 197.0 L 0.0 197.0 L 0.0 0.0 Z" fill="#ffffff" stroke="none" stroke-width="1.0" />
<path d="M 0.0 41.0 L 133.0 41.0 M 0.0 49.0 L 133.0 49.0 M 0.0 57.0 L 133.0 57.0 M 0.0 65.0 L 133.0 65.0 M 0.0 73.0 L 133.0 73.0 Z" fill="none" stroke="#d6d6d6" stroke-width="0.75" />
<path d="M 0.0 126.0 L 133.0 126.0 M 0.0 136.0 L 133.0 136.0 M 0.0 146.0 L 133.0 146.0 M 0.0 156.0 L 133.0 156.0 M 0.0 166.0 L 133.0 166.0 M 0.0 176.0 L 133.0 176.0 Z" fill="none" stroke="#d6d6d6" stroke-width="0.75" />
<path d="M 21.0 81.0 L 37.0 81.0 Z" fill="none" stroke="#d6d6d6" stroke-width="0.75" />
<path d="M 21.0 81.0 L 37.0 81.0 Z" fill="none" stroke="#d6d6d6" stroke-width="0.75" />
<path d="M 24.52 86.232 C 24.52 87.456 25.7152 88.68 26.896 88.68 C 30.496 88.68 34.096 86.232 34.096 83.856 C 34.096 82.6752 32.872 81.48 31.720001 81.48 C 28.12 81.48 24.52 83.856 24.52 86.232 Z" fill="#404040" stroke="none" stroke-width="1.0" />
<path d="M 23.0 162.25 L 31.0 162.25 L 31.0 169.75 L 23.0 169.75 L 23.0 162.25 Z" fill="#ffffff" stroke="none" stroke-width="1.0" />
<text x='23.0' y='169.75' font-family="Default" font-size="10.0" fill="#404040" >2/2</text>
<path d="M 33.18 84.04 L 34.18 84.04 L 34.18 53.0 L 33.18 53.0 M 33.18 84.04 Z" fill="#404040" stroke="none" stroke-width="0.75" />
<path d="M 44.25 81.0 L 60.25 81.0 Z" fill="none" stroke="#d6d6d6" stroke-width="0.75" />
<path d="M 44.25 89.0 L 60.25 89.0 Z" fill="none" stroke="#d6d6d6" stroke-width="0.75" />
<path d="M 44.25 81.0 L 60.25 81.0 Z" fill="none" stroke="#d6d6d6" stroke-width="0.75" />
<path d="M 44.25 89.0 L 60.25 89.0 Z" fill="none" stroke="#d6d6d6" stroke-width="0.75" />
<path d="M 47.77 90.232 C 47.77 91.456 48.965202 92.68 50.146 92.68 C 53.746002 92.68 57.346 90.232 57.346 87.856 C 57.346 86.6752 56.122 85.48 54.97 85.48 C 51.37 85.48 47.77 87.856 47.77 90.232 Z" fill="#404040" stroke="none" stroke-width="1.0" />
<path d="M 46.25 162.25 L 54.25 162.25 L 54.25 169.75 L 46.25 169.75 L 46.25 162.25 Z" fill="#ffffff" stroke="none" stroke-width="1.0" />
<text x='46.25' y='169.75' font-family="Default" font-size="10.0" fill="#404040" >0/0</text>
<path d="M 56.43 88.04 L 57.43 88.04 L 57.43 57.0 L 56.43 57.0 M 56.43 88.04 Z" fill="#404040" stroke="none" stroke-width="0.75" />
<path d="M 67.5 81.0 L 83.5 81.0 Z" fill="none" stroke="#d6d6d6" stroke-width="0.75" />
<path d="M 67.5 81.0 L 83.5 81.0 Z" fill="none" stroke="#d6d6d6" stroke-width="0.75" />
<path d="M 71.02 86.232 C 71.02 87.456 72.215195 88.68 73.395996 88.68 C 76.995995 88.68 80.59599 86.232 80.59599 83.856 C 80.59599 82.6752 79.371994 81.48 78.21999 81.48 C 74.619995 81.48 71.02 83.856 71.02 86.232 Z" fill="#404040" stroke="none" stroke-width="1.0" />
<path d="M 69.5 162.25 L 77.5 162.25 L 77.5 169.75 L 69.5 169.75 L 69.5 162.25 Z" fill="#ffffff" stroke="none" stroke-width="1.0" />
<text x='69.5' y='169.75' font-family="Default" font-size="10.0" fill="#404040" >2/2</text>
<path d="M 79.68 84.04 L 80.68 84.04 L 80.68 53.0 L 79.68 53.0 M 79.68 84.04 Z" fill="#404040" stroke="none" stroke-width="0.75" />
<path d="M 90.75 81.0 L 106.75 81.0 Z" fill="none" stroke="#d6d6d6" stroke-width="0.75" />
<path d="M 90.75 81.0 L 106.75 81.0 Z" fill="none" stroke="#d6d6d6" stroke-width="0.75" />
<path d="M 92.21439 74.63119 C 92.34136 74.55864 92.54088 74.61305 92.613434 74.7763 C 92.64971 74.84885 92.64971 74.90327 92.64971 76.172935 C 92.64971 76.9166 92.64971 77.51516 92.66785 77.51516 C 92.66785 77.51516 92.83109 77.44261 93.03061 77.370056 C 93.44779 77.20681 93.502205 77.188675 93.61103 77.279366 C 93.738 77.370056 93.738 77.38819 93.738 78.11372 C 93.738 78.73042 93.738 78.784836 93.70172 78.83925 C 93.683586 78.87553 93.64731 78.911804 93.62917 78.92994 C 93.592896 78.94808 93.37524 79.05691 93.1213 79.1476 L 92.66785 79.34712 L 92.64971 80.816315 C 92.64971 81.614395 92.64971 82.28551 92.66785 82.28551 C 92.66785 82.28551 92.83109 82.21295 93.03061 82.140396 C 93.44779 81.97716 93.502205 81.959015 93.61103 82.049706 C 93.738 82.140396 93.738 82.15854 93.738 82.88406 C 93.738 83.50076 93.738 83.555176 93.70172 83.60959 C 93.683586 83.64587 93.64731 83.682144 93.62917 83.70028 C 93.592896 83.71842 93.37524 83.82725 93.1213 83.91794 L 92.66785 84.11746 L 92.64971 85.64107 C 92.64971 87.01957 92.63157 87.182816 92.613434 87.23723 C 92.486465 87.45489 92.178116 87.45489 92.05115 87.23723 C 92.03301 87.182816 92.01487 87.037704 92.01487 85.768036 L 92.01487 84.3714 L 91.23493 84.67974 L 90.47313 84.98809 L 90.47313 86.45728 C 90.47313 88.01717 90.47313 87.980896 90.38244 88.07159 C 90.34616 88.126 90.21919 88.18041 90.16478 88.18041 C 90.092224 88.18041 89.965256 88.126 89.928986 88.07159 C 89.83829 87.980896 89.83829 88.01717 89.83829 86.602394 C 89.83829 85.85873 89.83829 85.26017 89.82015 85.26017 C 89.82015 85.26017 89.656906 85.33272 89.45739 85.40527 C 89.040215 85.56851 88.985794 85.586655 88.87697 85.495964 C 88.75 85.40527 88.75 85.38713 88.75 84.661606 C 88.75 84.04491 88.75 83.99049 88.78628 83.93608 C 88.80441 83.8998 88.84069 83.863525 88.858826 83.84539 C 88.8951 83.82725 89.11276 83.71842 89.3667 83.62773 L 89.83829 83.42821 L 89.83829 81.959015 C 89.83829 81.160934 89.83829 80.48982 89.82015 80.48982 C 89.82015 80.48982 89.656906 80.56238 89.45739 80.63493 C 89.040215 80.79817 88.985794 80.816315 88.87697 80.725624 C 88.75 80.63493 88.75 80.61679 88.75 79.891266 C 88.75 79.27457 88.75 79.22015 88.78628 79.16573 C 88.80441 79.12946 88.84069 79.093185 88.858826 79.07504 C 88.8951 79.05691 89.11276 78.94808 89.3667 78.85739 L 89.83829 78.65787 L 89.83829 77.13426 C 89.83829 75.75576 89.85643 75.592514 89.874565 75.5381 C 90.00153 75.32044 90.30988 75.32044 90.43685 75.5381 C 90.45499 75.592514 90.47313 75.73762 90.47313 77.00729 L 90.491264 78.40393 L 91.25307 78.09558 L 92.01487 77.78723 L 92.01487 76.31804 C 92.01487 74.93954 92.01487 74.84885 92.05115 74.7763 C 92.087425 74.70374 92.1237 74.667465 92.21439 74.63119 M 92.01487 81.070244 L 92.01487 79.60105 L 91.23493 79.9094 L 90.47313 80.21775 L 90.47313 81.705086 L 90.47313 83.17428 L 90.52754 83.156136 C 90.56382 83.138 90.90845 82.9929 91.30749 82.847786 L 92.01487 82.55758 L 92.01487 81.070244 Z" fill="#404040" stroke="none" stroke-width="0.75" />
<path d="M 94.27 82.232 C 94.27 83.456 95.465195 84.68 96.645996 84.68 C 100.245995 84.68 103.84599 82.232 103.84599 79.856 C 103.84599 78.6752 102.621994 77.48 101.46999 77.48 C 97.869995 77.48 94.27 79.856 94.27 82.232 Z" fill="#404040" stroke="none" stroke-width="1.0" />
<path d="M 92.75 162.25 L 100.75 162.25 L 100.75 169.75 L 92.75 169.75 L 92.75 162.25 Z" fill="#ffffff" stroke="none" stroke-width="1.0" />
<text x='92.75' y='169.75' font-family="Default" font-size="10.0" fill="#404040" >4/4</text>
<path d="M 102.93 80.04 L 103.93 80.04 L 103.93 49.0 L 102.93 49.0 M 102.93 80.04 Z" fill="#404040" stroke="none" stroke-width="0.75" /></g>
<text x='224.5' y='221.0' font-family="Default" font-size="10.0" fill="#000000" >2-------------</text>
<text x='154.0' y='260.0' font-family="Default" font-size="10.0" fill="#ff0000" >8</text>
<path d="M 153.0 262.0 L 153.0 294.0 Z" fill="#000000" stroke="#000000" stroke-width="0.75" />
<path d="M 286.0 262.0 L 286.0 294.0 Z" fill="#000000" stroke="#000000" stroke-width="0.75" />
<path d="M 153.0 347.0 L 153.0 397.0 Z" fill="#000000" stroke="#000000" stroke-width="0.75" />
<path d="M 286.0 347.0 L 286.0 397.0 Z" fill="#000000" stroke="#000000" stroke-width="0.75" /><g transform="translate(286.0,221.0)">
<path d="M 0.0 0.0 L 133.0 0.0 L 133.0 197.0 L 0.0 197.0 L 0.0 0.0 Z" fill="#ffffff" stroke="none" stroke-width="1.0" />
<path d="M 0.0 41.0 L 133.0 41.0 M 0.0 49.0 L 133.0 49.0 M 0.0 57.0 L 133.0 57.0 M 0.0 65.0 L 133.0 65.0 M 0.0 73.0 L 133.0 73.0 Z" fill="none" stroke="#d6d6d6" stroke-width="0.75" />
<path d="M 0.0 126.0 L 133.0 126.0 M 0.0 136.0 L 133.0 136.0 M 0.0 146.0 L 133.0 146.0 M 0.0 156.0 L 133.0 156.0 M 0.0 166.0 L 133.0 166.0 M 0.0 176.0 L 133.0 176.0 Z" fill="none" stroke="#d6d6d6" stroke-width="0.75" />
<path d="M 24.52 78.232 C 24.52 79.456 25.7152 80.68 26.896 80.68 C 30.496 80.68 34.096 78.232 34.096 75.856 C 34.096 74.6752 32.872 73.48 31.720001 73.48 C 28.12 73.48 24.52 75.856 24.52 78.232 Z" fill="#404040" stroke="none" stroke-width="1.0" />
<path d="M 23.0 152.25 L 31.0 152.25 L 31.0 159.75 L 23.0 159.75 L 23.0 152.25 Z" fill="#ffffff" stroke="none" stroke-width="1.0" />
<text x='23.0' y='159.75' font-family="Default" font-size="10.0" fill="#404040" >0/0</text>
<path d="M 33.18 76.04 L 34.18 76.04 L 34.18 45.0 L 33.18 45.0 M 33.18 76.04 Z" fill="#404040" stroke="none" stroke-width="0.75" />
<path d="M 47.77 74.232 C 47.77 75.456 48.965202 76.68 50.146 76.68 C 53.746002 76.68 57.346 74.232 57.346 71.856 C 57.346 70.6752 56.122 69.48 54.97 69.48 C 51.37 69.48 47.77 71.856 47.77 74.232 Z" fill="#404040" stroke="none" stroke-width="1.0" />
<path d="M 46.25 152.25 L 54.25 152.25 L 54.25 159.75 L 46.25 159.75 L 46.25 152.25 Z" fill="#ffffff" stroke="none" stroke-width="1.0" />
<text x='46.25' y='159.75' font-family="Default" font-size="10.0" fill="#404040" >2/2</text>
<path d="M 56.43 72.04 L 57.43 72.04 L 57.43 41.0 L 56.43 41.0 M 56.43 72.04 Z" fill="#404040" stroke="none" stroke-width="0.75" />
<path d="M 71.02 78.232 C 71.02 79.456 72.215195 80.68 73.395996 80.68 C 76.995995 80.68 80.59599 78.232 80.59599 75.856 C 80.59599 74.6752 79.371994 73.48 78.21999 73.48 C 74.619995 73.48 71.02 75.856 71.02 78.232 Z" fill="#404040" stroke="none" stroke-width="1.0" />
<path d="M 69.5 152.25 L 77.5 152.25 L 77.5 159.75 L 69.5 159.75 L 69.5 152.25 Z" fill="#ffffff" stroke="none" stroke-width="1.0" />
<text x='69.5' y='159.75' font-family="Default" font-size="10.0" fill="#404040" >0/0</text>
<path d="M 79.68 76.04 L 80.68 76.04 L 80.68 45.0 L 79.68 45.0 M 79.68 76.04 Z" fill="#404040" stroke="none" stroke-width="0.75" />
<path d="M 94.27 74.232 C 94.27 75.456 95.465195 76.68 96.645996 76.68 C 100.245995 76.68 103.84599 74.232 103.84599 71.856 C 103.84599 70.6752 102.621994 69.48 101.46999 69.48 C 97.869995 69.48 94.27 71.856 94.27 74.232 Z" fill="#404040" stroke="none" stroke-width="1.0" />
<path d="M 92.75 152.25 L 100.75 152.25 L 100.75 159.75 L 92.75 159.75 L 92.75 152.25 Z" fill="#ffffff" stroke="none" stroke-width="1.0" />
<text x='92.75' y='159.75' font-family="Default" font-size="10.0" fill="#404040" >2/2</text>
<path d="M 102.93 72.04 L 103.93 72.04 L 103.93 41.0 L 102.93 41.0 M 102.93 72.04 Z" fill="#404040" stroke="none" stroke-width="0.75" /></g>
<text x='287.0' y='260.0' font-family="Default" font-size="10.0" fill="#ff0000" >9</text>
<path d="M 286.0 262.0 L 286.0 294.0 Z" fill="#000000" stroke="#000000" stroke-width="0.75" />
<path d="M 419.0 262.0 L 419.0 294.0 Z" fill="#000000" stroke="#000000" stroke-width="0.75" />
<path d="M 286.0 347.0 L 286.0 397.0 Z" fill="#000000" stroke="#000000" stroke-width="0.75" />
<path d="M 419.0 347.0 L 419.0 397.0 Z" fill="#000000" stroke="#000000" stroke-width="0.75" /><g transform="translate(419.0,221.0)">
<path d="M 0.0 0.0 L 132.0 0.0 L 132.0 197.0 L 0.0 197.0 L 0.0 0.0 Z" fill="#ffffff" stroke="none" stroke-width="1.0" />
<path d="M 0.0 41.0 L 132.0 41.0 M 0.0 49.0 L 132.0 49.0 M 0.0 57.0 L 132.0 57.0 M 0.0 65.0 L 132.0 65.0 M 0.0 73.0 L 132.0 73.0 Z" fill="none" stroke="#d6d6d6" stroke-width="0.75" />
<path d="M 0.0 126.0 L 132.0 126.0 M 0.0 136.0 L 132.0 136.0 M 0.0 146.0 L 132.0 146.0 M 0.0 156.0 L 132.0 156.0 M 0.0 166.0 L 132.0 166.0 M 0.0 176.0 L 132.0 176.0 Z" fill="none" stroke="#d6d6d6" stroke-width="0.75" />
<path d="M 24.52 70.232 C 24.52 71.456 25.7152 72.68 26.896 72.68 C 30.496 72.68 34.096 70.232 34.096 67.856 C 34.096 66.6752 32.872 65.48 31.720001 65.48 C 28.12 65.48 24.52 67.856 24.52 70.232 Z" fill="#404040" stroke="none" stroke-width="1.0" />
<path d="M 23.0 152.25 L 31.0 152.25 L 31.0 159.75 L 23.0 159.75 L 23.0 152.25 Z" fill="#ffffff" stroke="none" stroke-width="1.0" />
<text x='23.0' y='159.75' font-family="Default" font-size="10.0" fill="#404040" >3/3</text>
<path d="M 33.18 68.04 L 34.18 68.04 L 34.18 37.0 L 33.18 37.0 M 33.18 68.04 Z" fill="#404040" stroke="none" stroke-width="0.75" />
<path d="M 47.52 74.232 C 47.52 75.456 48.715202 76.68 49.896 76.68 C 53.496002 76.68 57.096 74.232 57.096 71.856 C 57.096 70.6752 55.872 69.48 54.72 69.48 C 51.12 69.48 47.52 71.856 47.52 74.232 Z" fill="#404040" stroke="none" stroke-width="1.0" />
<path d="M 46.0 152.25 L 54.0 152.25 L 54.0 159.75 L 46.0 159.75 L 46.0 152.25 Z" fill="#ffffff" stroke="none" stroke-width="1.0" />
<text x='46.0' y='159.75' font-family="Default" font-size="10.0" fill="#404040" >2/2</text>
<path d="M 56.18 72.04 L 57.18 72.04 L 57.18 41.0 L 56.18 41.0 M 56.18 72.04 Z" fill="#404040" stroke="none" stroke-width="0.75" />
<path d="M 70.52 70.232 C 70.52 71.456 71.715195 72.68 72.895996 72.68 C 76.495995 72.68 80.09599 70.232 80.09599 67.856 C 80.09599 66.6752 78.871994 65.48 77.71999 65.48 C 74.119995 65.48 70.52 67.856 70.52 70.232 Z" fill="#404040" stroke="none" stroke-width="1.0" />
<path d="M 69.0 152.25 L 77.0 152.25 L 77.0 159.75 L 69.0 159.75 L 69.0 152.25 Z" fill="#ffffff" stroke="none" stroke-width="1.0" />
<text x='69.0' y='159.75' font-family="Default" font-size="10.0" fill="#404040" >3/3</text>
<path d="M 79.18 68.04 L 80.18 68.04 L 80.18 37.0 L 79.18 37.0 M 79.18 68.04 Z" fill="#404040" stroke="none" stroke-width="0.75" />
<path d="M 93.52 74.232 C 93.52 75.456 94.715195 76.68 95.895996 76.68 C 99.495995 76.68 103.09599 74.232 103.09599 71.856 C 103.09599 70.6752 101.871994 69.48 100.71999 69.48 C 97.119995 69.48 93.52 71.856 93.52 74.232 Z" fill="#404040" stroke="none" stroke-width="1.0" />
<path d="M 92.0 152.25 L 100.0 152.25 L 100.0 159.75 L 92.0 159.75 L 92.0 152.25 Z" fill="#ffffff" stroke="none" stroke-width="1.0" />
<text x='92.0' y='159.75' font-family="Default" font-size="10.0" fill="#404040" >2/2</text>
<path d="M 102.18 72.04 L 103.18 72.04 L 103.18 41.0 L 102.18 41.0 M 102.18 72.04 Z" fill="#404040" stroke="none" stroke-width="0.75" /></g>
<text x='420.0' y='260.0' font-family="Default" font-size="10.0" fill="#ff0000" >10</text>
<path d="M 419.0 262.0 L 419.0 294.0 Z" fill="#000000" stroke="#000000" stroke-width="0.75" />
<path d="M 551.0 262.0 L 551.0 294.0 Z" fill="#000000" stroke="#000000" stroke-width="0.75" />
<path d="M 419.0 347.0 L 419.0 397.0 Z" fill="#000000" stroke="#000000" stroke-width="0.75" />
<path d="M 551.0 347.0 L 551.0 397.0 Z" fill="#000000" stroke="#000000" stroke-width="0.75" /><g transform="translate(551.0,221.0)">
<path d="M 0.0 0.0 L 133.0 0.0 L 133.0 197.0 L 0.0 197.0 L 0.0 0.0 Z" fill="#ffffff" stroke="none" stroke-width="1.0" />
<path d="M 0.0 41.0 L 133.0 41.0 M 0.0 49.0 L 133.0 49.0 M 0.0 57.0 L 133.0 57.0 M 0.0 65.0 L 133.0 65.0 M 0.0 73.0 L 133.0 73.0 Z" fill="none" stroke="#d6d6d6" stroke-width="0.75" />
<path d="M 0.0 126.0 L 133.0 126.0 M 0.0 136.0 L 133.0 136.0 M 0.0 146.0 L 133.0 146.0 M 0.0 156.0 L 133.0 156.0 M 0.0 166.0 L 133.0 166.0 M 0.0 176.0 L 133.0 176.0 Z" fill="none" stroke="#d6d6d6" stroke-width="0.75" />
<path d="M 24.52 78.232 C 24.52 79.456 25.7152 80.68 26.896 80.68 C 30.496 80.68 34.096 78.232 34.096 75.856 C 34.096 74.6752 32.872 73.48 31.720001 73.48 C 28.12 73.48 24.52 75.856 24.52 78.232 Z" fill="#404040" stroke="none" stroke-width="1.0" />
<path d="M 23.0 152.25 L 31.0 152.25 L 31.0 159.75 L 23.0 159.75 L 23.0 152.25 Z" fill="#ffffff" stroke="none" stroke-width="1.0" />
<text x='23.0' y='159.75' font-family="Default" font-size="10.0" fill="#404040" >0/0</text>
<path d="M 33.18 76.04 L 34.18 76.04 L 34.18 45.0 L 33.18 45.0 M 33.18 76.04 Z" fill="#404040" stroke="none" stroke-width="0.75" />
<path d="M 47.77 74.232 C 47.77 75.456 48.965202 76.68 50.146 76.68 C 53.746002 76.68 57.346 74.232 57.346 71.856 C 57.346 70.6752 56.122 69.48 54.97 69.48 C 51.37 69.48 47.77 71.856 47.77 74.232 Z" fill="#404040" stroke="none" stroke-width="1.0" />
<path d="M 46.25 152.25 L 54.25 152.25 L 54.25 159.75 L 46.25 159.75 L 46.25 152.25 Z" fill="#ffffff" stroke="none" stroke-width="1.0" />
<text x='46.25' y='159.75' font-family="Default" font-size="10.0" fill="#404040" >2/2</text>
<path d="M 56.43 72.04 L 57.43 72.04 L 57.43 41.0 L 56.43 41.0 M 56.43 72.04 Z" fill="#404040" stroke="none" stroke-width="0.75" />
<path d="M 71.02 70.232 C 71.02 71.456 72.215195 72.68 73.395996 72.68 C 76.995995 72.68 80.59599 70.232 80.59599 67.856 C 80.59599 66.6752 79.371994 65.48 78.21999 65.48 C 74.619995 65.48 71.02 67.856 71.02 70.232 Z" fill="#404040" stroke="none" stroke-width="1.0" />
<path d="M 69.5 152.25 L 77.5 152.25 L 77.5 159.75 L 69.5 159.75 L 69.5 152.25 Z" fill="#ffffff" stroke="none" stroke-width="1.0" />
<text x='69.5' y='159.75' font-family="Default" font-size="10.0" fill="#404040" >3/3</text>
<path d="M 79.68 68.04 L 80.68 68.04 L 80.68 37.0 L 79.68 37.0 M 79.68 68.04 Z" fill="#404040" stroke="none" stroke-width="0.75" />
<path d="M 94.27 66.232 C 94.27 67.456 95.465195 68.68 96.645996 68.68 C 100.245995 68.68 103.84599 66.232 103.84599 63.856 C 103.84599 62.6752 102.621994 61.48 101.46999 61.48 C 97.869995 61.48 94.27 63.856 94.27 66.232 Z" fill="#404040" stroke="none" stroke-width="1.0" />
<path d="M 92.75 142.25 L 100.75 142.25 L 100.75 149.75 L 92.75 149.75 L 92.75 142.25 Z" fill="#ffffff" stroke="none" stroke-width="1.0" />
<text x='92.75' y='149.75' font-family="Default" font-size="10.0" fill="#404040" >0/0</text>
<path d="M 94.25 65.96 L 95.25 65.96 L 95.25 96.0 L 94.25 96.0 M 94.25 65.96 Z" fill="#404040" stroke="none" stroke-width="0.75" /></g>
<text x='599.25' y='221.0' font-family="Default" font-size="10.0" fill="#000000" >2---------</text>
<text x='552.0' y='260.0' font-family="Default" font-size="10.0" fill="#ff0000" >11</text>
<path d="M 551.0 262.0 L 551.0 294.0 Z" fill="#000000" stroke="#000000" stroke-width="0.75" />
<path d="M 684.0 262.0 L 684.0 294.0 Z" fill="#000000" stroke="#000000" stroke-width="0.75" />
<path d="M 551.0 347.0 L 551.0 397.0 Z" fill="#000000" stroke="#000000" stroke-width="0.75" />
<path d="M 684.0 347.0 L 684.0 397.0 Z" fill="#000000" stroke="#000000" stroke-width="0.75" /><g transform="translate(684.0,221.0)">
<path d="M 0.0 0.0 L 133.0 0.0 L 133.0 197.0 L 0.0 197.0 L 0.0 0.0 Z" fill="#ffffff" stroke="none" stroke-width="1.0" />
<path d="M 0.0 41.0 L 133.0 41.0 M 0.0 49.0 L 133.0 49.0 M 0.0 57.0 L 133.0 57.0 M 0.0 65.0 L 133.0 65.0 M 0.0 73.0 L 133.0 73.0 Z" fill="none" stroke="#d6d6d6" stroke-width="0.75" />
<path d="M 0.0 126.0 L 133.0 126.0 M 0.0 136.0 L 133.0 136.0 M 0.0 146.0 L 133.0 146.0 M 0.0 156.0 L 133.0 156.0 M 0.0 166.0 L 133.0 166.0 M 0.0 176.0 L 133.0 176.0 Z" fill="none" stroke="#d6d6d6" stroke-width="0.75" />
<path d="M 24.52 62.232 C 24.52 63.456 25.7152 64.68 26.896 64.68 C 30.496 64.68 34.096 62.232 34.096 59.856 C 34.096 58.6752 32.872 57.48 31.720001 57.48 C 28.12 57.48 24.52 59.856 24.52 62.232 Z" fill="#404040" stroke="none" stroke-width="1.0" />
<path d="M 23.0 142.25 L 31.0 142.25 L 31.0 149.75 L 23.0 149.75 L 23.0 142.25 Z" fill="#ffffff" stroke="none" stroke-width="1.0" />
<text x='23.0' y='149.75' font-family="Default" font-size="10.0" fill="#404040" >2/2</text>
<path d="M 24.5 61.96 L 25.5 61.96 L 25.5 92.0 L 24.5 92.0 M 24.5 61.96 Z" fill="#404040" stroke="none" stroke-width="0.75" />
<path d="M 47.77 66.232 C 47.77 67.456 48.965202 68.68 50.146 68.68 C 53.746002 68.68 57.346 66.232 57.346 63.856 C 57.346 62.6752 56.122 61.48 54.97 61.48 C 51.37 61.48 47.77 63.856 47.77 66.232 Z" fill="#404040" stroke="none" stroke-width="1.0" />
<path d="M 46.25 142.25 L 54.25 142.25 L 54.25 149.75 L 46.25 149.75 L 46.25 142.25 Z" fill="#ffffff" stroke="none" stroke-width="1.0" />
<text x='46.25' y='149.75' font-family="Default" font-size="10.0" fill="#404040" >0/0</text>
<path d="M 47.75 65.96 L 48.75 65.96 L 48.75 96.0 L 47.75 96.0 M 47.75 65.96 Z" fill="#404040" stroke="none" stroke-width="0.75" />
<path d="M 71.02 70.232 C 71.02 71.456 72.215195 72.68 73.395996 72.68 C 76.995995 72.68 80.59599 70.232 80.59599 67.856 C 80.59599 66.6752 79.371994 65.48 78.21999 65.48 C 74.619995 65.48 71.02 67.856 71.02 70.232 Z" fill="#404040" stroke="none" stroke-width="1.0" />
<path d="M 69.5 152.25 L 77.5 152.25 L 77.5 159.75 L 69.5 159.75 L 69.5 152.25 Z" fill="#ffffff" stroke="none" stroke-width="1.0" />
<text x='69.5' y='159.75' font-family="Default" font-size="10.0" fill="#404040" >3/3</text>
<path d="M 79.68 68.04 L 80.68 68.04 L 80.68 37.0 L 79.68 37.0 M 79.68 68.04 Z" fill="#404040" stroke="none" stroke-width="0.75" />
<path d="M 94.27 74.232 C 94.27 75.456 95.465195 76.68 96.645996 76.68 C 100.245995 76.68 103.84599 74.232 103.84599 71.856 C 103.84599 70.6752 102.621994 69.48 101.46999 69.48 C 97.869995 69.48 94.27 71.856 94.27 74.232 Z" fill="#404040" stroke="none" stroke-width="1.0" />
<path d="M 92.75 152.25 L 100.75 152.25 L 100.75 159.75 L 92.75 159.75 L 92.75 152.25 Z" fill="#ffffff" stroke="none" stroke-width="1.0" />
<text x='92.75' y='159.75' font-family="Default" font-size="10.0" fill="#404040" >2/2</text>
<path d="M 102.93 72.04 L 103.93 72.04 L 103.93 41.0 L 102.93 41.0 M 102.93 72.04 Z" fill="#404040" stroke="none" stroke-width="0.75" /></g>
<text x='685.0' y='260.0' font-family="Default" font-size="10.0" fill="#ff0000" >12</text>
<path d="M 684.0 262.0 L 684.0 294.0 Z" fill="#000000" stroke="#000000" stroke-width="0.75" />
<path d="M 817.0 262.0 L 817.0 294.0 Z" fill="#000000" stroke="#000000" stroke-width="0.75" />
<path d="M 684.0 347.0 L 684.0 397.0 Z" fill="#000000" stroke="#000000" stroke-width="0.75" />
<path d="M 817.0 347.0 L 817.0 397.0 Z" fill="#000000" stroke="#000000" stroke-width="0.75" /><g transform="translate(817.0,221.0)">
<path d="M 0.0 0.0 L 133.0 0.0 L 133.0 197.0 L 0.0 197.0 L 0.0 0.0 Z" fill="#ffffff" stroke="none" stroke-width="1.0" />
<path d="M 0.0 41.0 L 133.0 41.0 M 0.0 49.0 L 133.0 49.0 M 0.0 57.0 L 133.0 57.0 M 0.0 65.0 L 133.0 65.0 M 0.0 73.0 L 133.0 73.0 Z" fill="none" stroke="#d6d6d6" stroke-width="0.75" />
<path d="M 0.0 126.0 L 133.0 126.0 M 0.0 136.0 L 133.0 136.0 M 0.0 146.0 L 133.0 146.0 M 0.0 156.0 L 133.0 156.0 M 0.0 166.0 L 133.0 166.0 M 0.0 176.0 L 133.0 176.0 Z" fill="none" stroke="#d6d6d6" stroke-width="0.75" />
<path d="M 24.52 78.232 C 24.52 79.456 25.7152 80.68 26.896 80.68 C 30.496 80.68 34.096 78.232 34.096 75.856 C 34.096 74.6752 32.872 73.48 31.720001 73.48 C 28.12 73.48 24.52 75.856 24.52 78.232 Z" fill="#404040" stroke="none" stroke-width="1.0" />
<path d="M 23.0 152.25 L 31.0 152.25 L 31.0 159.75 L 23.0 159.75 L 23.0 152.25 Z" fill="#ffffff" stroke="none" stroke-width="1.0" />
<text x='23.0' y='159.75' font-family="Default" font-size="10.0" fill="#404040" >0/0</text>
<path d="M 33.18 76.04 L 34.18 76.04 L 34.18 45.0 L 33.18 45.0 M 33.18 76.04 Z" fill="#404040" stroke="none" stroke-width="0.75" />
<path d="M 47.77 74.232 C 47.77 75.456 48.965202 76.68 50.146 76.68 C 53.746002 76.68 57.346 74.232 57.346 71.856 C 57.346 70.6752 56.122 69.48 54.97 69.48 C 51.37 69.48 47.77 71.856 47.77 74.232 Z" fill="#404040" stroke="none" stroke-width="1.0" />
<path d="M 46.25 152.25 L 54.25 152.25 L 54.25 159.75 L 46.25 159.75 L 46.25 152.25 Z" fill="#ffffff" stroke="none" stroke-width="1.0" />
<text x='46.25' y='159.75' font-family="Default" font-size="10.0" fill="#404040" >2/2</text>
<path d="M 56.43 72.04 L 57.43 72.04 L 57.43 41.0 L 56.43 41.0 M 56.43 72.04 Z" fill="#404040" stroke="none" stroke-width="0.75" />
<path d="M 71.02 78.232 C 71.02 79.456 72.215195 80.68 73.395996 80.68 C 76.995995 80.68 80.59599 78.232 80.59599 75.856 C 80.59599 74.6752 79.371994 73.48 78.21999 73.48 C 74.619995 73.48 71.02 75.856 71.02 78.232 Z" fill="#404040" stroke="none" stroke-width="1.0" />
<path d="M 69.5 152.25 L 77.5 152.25 L 77.5 159.75 L 69.5 159.75 L 69.5 152.25 Z" fill="#ffffff" stroke="none" stroke-width="1.0" />
<text x='69.5' y='159.75' font-family="Default" font-size="10.0" fill="#404040" >0/0</text>
<path d="M 79.68 76.04 L 80.68 76.04 L 80.68 45.0 L 79.68 45.0 M 79.68 76.04 Z" fill="#404040" stroke="none" stroke-width="0.75" />
<path d="M 90.75 81.0 L 106.75 81.0 Z" fill="none" stroke="#d6d6d6" stroke-width="0.75" />
<path d="M 90.75 81.0 L 106.75 81.0 Z" fill="none" stroke="#d6d6d6" stroke-width="0.75" />
<path d="M 94.27 82.232 C 94.27 83.456 95.465195 84.68 96.645996 84.68 C 100.245995 84.68 103.84599 82.232 103.84599 79.856 C 103.84599 78.6752 102.621994 77.48 101.46999 77.48 C 97.869995 77.48 94.27 79.856 94.27 82.232 Z" fill="#404040" stroke="none" stroke-width="1.0" />
<path d="M 92.75 162.25 L 100.75 162.25 L 100.75 169.75 L 92.75 169.75 L 92.75 162.25 Z" fill="#ffffff" stroke="none" stroke-width="1.0" />
<text x='92.75' y='169.75' font-family="Default" font-size="10.0" fill="#404040" >3/3</text>
<path d="M 102.93 80.04 L 103.93 80.04 L 103.93 49.0 L 102.93 49.0 M 102.93 80.04 Z" fill="#404040" stroke="none" stroke-width="0.75" /></g>
<text x='818.0' y='260.0' font-family="Default" font-size="10.0" fill="#ff0000" >13</text>
<path d="M 817.0 262.0 L 817.0 294.0 Z" fill="#000000" stroke="#000000" stroke-width="0.75" />
<path d="M 950.0 262.0 L 950.0 294.0 Z" fill="#000000" stroke="#000000" stroke-width="0.75" />
<path d="M 817.0 347.0 L 817.0 397.0 Z" fill="#000000" stroke="#000000" stroke-width="0.75" />
<path d="M 950.0 347.0 L 950.0 397.0 Z" fill="#000000" stroke="#000000" stroke-width="0.75" /><g transform="translate(20.0,429.0)">
<path d="M 0.0 0.0 L 124.0 0.0 L 124.0 190.0 L 0.0 190.0 L 0.0 0.0 Z" fill="#ffffff" stroke="none" stroke-width="1.0" />
<path d="M 0.0 35.0 L 124.0 35.0 M 0.0 43.0 L 124.0 43.0 M 0.0 51.0 L 124.0 51.0 M 0.0 59.0 L 124.0 59.0 M 0.0 67.0 L 124.0 67.0 Z" fill="none" stroke="#d6d6d6" stroke-width="0.75" />
<path d="M 0.0 119.0 L 124.0 119.0 M 0.0 129.0 L 124.0 129.0 M 0.0 139.0 L 124.0 139.0 M 0.0 149.0 L 124.0 149.0 M 0.0 159.0 L 124.0 159.0 M 0.0 169.0 L 124.0 169.0 Z" fill="none" stroke="#d6d6d6" stroke-width="0.75" />
<path d="M 21.0 75.0 L 37.0 75.0 Z" fill="none" stroke="#d6d6d6" stroke-width="0.75" />
<path d="M 21.0 75.0 L 37.0 75.0 Z" fill="none" stroke="#d6d6d6" stroke-width="0.75" />
<path d="M 24.52 80.232 C 24.52 81.456 25.7152 82.68 26.896 82.68 C 30.496 82.68 34.096 80.232 34.096 77.856 C 34.096 76.6752 32.872 75.48 31.720001 75.48 C 28.12 75.48 24.52 77.856 24.52 80.232 Z" fill="#404040" stroke="none" stroke-width="1.0" />
<path d="M 23.0 155.25 L 31.0 155.25 L 31.0 162.75 L 23.0 162.75 L 23.0 155.25 Z" fill="#ffffff" stroke="none" stroke-width="1.0" />
<text x='23.0' y='162.75' font-family="Default" font-size="10.0" fill="#404040" >2/2</text>
<path d="M 33.18 78.04 L 34.18 78.04 L 34.18 47.0 L 33.18 47.0 M 33.18 78.04 Z" fill="#404040" stroke="none" stroke-width="0.75" />
<path d="M 42.0 75.0 L 58.0 75.0 Z" fill="none" stroke="#d6d6d6" stroke-width="0.75" />
<path d="M 42.0 83.0 L 58.0 83.0 Z" fill="none" stroke="#d6d6d6" stroke-width="0.75" />
<path d="M 42.0 75.0 L 58.0 75.0 Z" fill="none" stroke="#d6d6d6" stroke-width="0.75" />
<path d="M 42.0 83.0 L 58.0 83.0 Z" fill="none" stroke="#d6d6d6" stroke-width="0.75" />
<path d="M 45.52 84.232 C 45.52 85.456 46.715202 86.68 47.896 86.68 C 51.496002 86.68 55.096 84.232 55.096 81.856 C 55.096 80.6752 53.872 79.48 52.72 79.48 C 49.12 79.48 45.52 81.856 45.52 84.232 Z" fill="#404040" stroke="none" stroke-width="1.0" />
<path d="M 44.0 155.25 L 52.0 155.25 L 52.0 162.75 L 44.0 162.75 L 44.0 155.25 Z" fill="#ffffff" stroke="none" stroke-width="1.0" />
<text x='44.0' y='162.75' font-family="Default" font-size="10.0" fill="#404040" >0/0</text>
<path d="M 54.18 82.04 L 55.18 82.04 L 55.18 51.0 L 54.18 51.0 M 54.18 82.04 Z" fill="#404040" stroke="none" stroke-width="0.75" />
<path d="M 63.0 75.0 L 79.0 75.0 Z" fill="none" stroke="#d6d6d6" stroke-width="0.75" />
<path d="M 63.0 83.0 L 79.0 83.0 Z" fill="none" stroke="#d6d6d6" stroke-width="0.75" />
<path d="M 63.0 75.0 L 79.0 75.0 Z" fill="none" stroke="#d6d6d6" stroke-width="0.75" />
<path d="M 63.0 83.0 L 79.0 83.0 Z" fill="none" stroke="#d6d6d6" stroke-width="0.75" />
<path d="M 66.52 88.232 C 66.52 89.456 67.715195 90.68 68.895996 90.68 C 72.495995 90.68 76.09599 88.232 76.09599 85.856 C 76.09599 84.6752 74.871994 83.48 73.71999 83.48 C 70.119995 83.48 66.52 85.856 66.52 88.232 Z" fill="#404040" stroke="none" stroke-width="1.0" />
<path d="M 65.0 165.25 L 73.0 165.25 L 73.0 172.75 L 65.0 172.75 L 65.0 165.25 Z" fill="#ffffff" stroke="none" stroke-width="1.0" />
<text x='65.0' y='172.75' font-family="Default" font-size="10.0" fill="#404040" >3/3</text>
<path d="M 75.18 86.04 L 76.18 86.04 L 76.18 55.0 L 75.18 55.0 M 75.18 86.04 Z" fill="#404040" stroke="none" stroke-width="0.75" />
<path d="M 84.0 75.0 L 100.0 75.0 Z" fill="none" stroke="#d6d6d6" stroke-width="0.75" />
<path d="M 84.0 83.0 L 100.0 83.0 Z" fill="none" stroke="#d6d6d6" stroke-width="0.75" />
<path d="M 84.0 91.0 L 100.0 91.0 Z" fill="none" stroke="#d6d6d6" stroke-width="0.75" />
<path d="M 84.0 75.0 L 100.0 75.0 Z" fill="none" stroke="#d6d6d6" stroke-width="0.75" />
<path d="M 84.0 83.0 L 100.0 83.0 Z" fill="none" stroke="#d6d6d6" stroke-width="0.75" />
<path d="M 84.0 91.0 L 100.0 91.0 Z" fill="none" stroke="#d6d6d6" stroke-width="0.75" />
<path d="M 87.52 92.232 C 87.52 93.456 88.715195 94.68 89.895996 94.68 C 93.495995 94.68 97.09599 92.232 97.09599 89.856 C 97.09599 88.6752 95.871994 87.48 94.71999 87.48 C 91.119995 87.48 87.52 89.856 87.52 92.232 Z" fill="#404040" stroke="none" stroke-width="1.0" />
<path d="M 86.0 165.25 L 94.0 165.25 L 94.0 172.75 L 86.0 172.75 L 86.0 165.25 Z" fill="#ffffff" stroke="none" stroke-width="1.0" />
<text x='86.0' y='172.75' font-family="Default" font-size="10.0" fill="#404040" >1/1</text>
<path d="M 96.18 90.04 L 97.18 90.04 L 97.18 59.0 L 96.18 59.0 M 96.18 90.04 Z" fill="#404040" stroke="none" stroke-width="0.75" /></g>
<text x='21.0' y='462.0' font-family="Default" font-size="10.0" fill="#ff0000" >14</text>
<path d="M 20.0 464.0 L 20.0 548.0 Z" fill="#000000" stroke="#000000" stroke-width="0.75" />
<path d="M 144.0 464.0 L 144.0 496.0 Z" fill="#000000" stroke="#000000" stroke-width="0.75" />
<path d="M 20.0 548.0 L 20.0 598.0 Z" fill="#000000" stroke="#000000" stroke-width="0.75" />
<path d="M 144.0 548.0 L 144.0 598.0 Z" fill="#000000" stroke="#000000" stroke-width="0.75" /><g transform="translate(144.0,429.0)">
<path d="M 0.0 0.0 L 124.0 0.0 L 124.0 190.0 L 0.0 190.0 L 0.0 0.0 Z" fill="#ffffff" stroke="none" stroke-width="1.0" />
<path d="M 0.0 35.0 L 124.0 35.0 M 0.0 43.0 L 124.0 43.0 M 0.0 51.0 L 124.0 51.0 M 0.0 59.0 L 124.0 59.0 M 0.0 67.0 L 124.0 67.0 Z" fill="none" stroke="#d6d6d6" stroke-width="0.75" />
<path d="M 0.0 119.0 L 124.0 119.0 M 0.0 129.0 L 124.0 129.0 M 0.0 139.0 L 124.0 139.0 M 0.0 149.0 L 124.0 149.0 M 0.0 159.0 L 124.0 159.0 M 0.0 169.0 L 124.0 169.0 Z" fill="none" stroke="#d6d6d6" stroke-width="0.75" />
<path d="M 21.0 75.0 L 37.0 75.0 Z" fill="none" stroke="#d6d6d6" stroke-width="0.75" />
<path d="M 21.0 83.0 L 37.0 83.0 Z" fill="none" stroke="#d6d6d6" stroke-width="0.75" />
<path d="M 21.0 91.0 L 37.0 91.0 Z" fill="none" stroke="#d6d6d6" stroke-width="0.75" />
<path d="M 21.0 75.0 L 37.0 75.0 Z" fill="none" stroke="#d6d6d6" stroke-width="0.75" />
<path d="M 21.0 83.0 L 37.0 83.0 Z" fill="none" stroke="#d6d6d6" stroke-width="0.75" />
<path d="M 21.0 91.0 L 37.0 91.0 Z" fill="none" stroke="#d6d6d6" stroke-width="0.75" />
<path d="M 24.52 96.232 C 24.52 97.456 25.7152 98.68 26.896 98.68 C 30.496 98.68 34.096 96.232 34.096 93.856 C 34.096 92.6752 32.872 91.48 31.720001 91.48 C 28.12 91.48 24.52 93.856 24.52 96.232 Z" fill="#404040" stroke="none" stroke-width="1.0" />
<path d="M 23.0 165.25 L 31.0 165.25 L 31.0 172.75 L 23.0 172.75 L 23.0 165.25 Z" fill="#ffffff" stroke="none" stroke-width="1.0" />
<text x='23.0' y='172.75' font-family="Default" font-size="10.0" fill="#404040" >0/0</text>
<path d="M 33.18 94.04 L 34.18 94.04 L 34.18 63.0 L 33.18 63.0 M 33.18 94.04 Z" fill="#404040" stroke="none" stroke-width="0.75" />
<path d="M 42.0 75.0 L 58.0 75.0 Z" fill="none" stroke="#d6d6d6" stroke-width="0.75" />
<path d="M 42.0 75.0 L 58.0 75.0 Z" fill="none" stroke="#d6d6d6" stroke-width="0.75" />
<path d="M 45.52 80.232 C 45.52 81.456 46.715202 82.68 47.896 82.68 C 51.496002 82.68 55.096 80.232 55.096 77.856 C 55.096 76.6752 53.872 75.48 52.72 75.48 C 49.12 75.48 45.52 77.856 45.52 80.232 Z" fill="#404040" stroke="none" stroke-width="1.0" />
<path d="M 44.0 155.25 L 52.0 155.25 L 52.0 162.75 L 44.0 162.75 L 44.0 155.25 Z" fill="#ffffff" stroke="none" stroke-width="1.0" />
<text x='44.0' y='162.75' font-family="Default" font-size="10.0" fill="#404040" >2/2</text>
<path d="M 54.18 78.04 L 55.18 78.04 L 55.18 47.0 L 54.18 47.0 M 54.18 78.04 Z" fill="#404040" stroke="none" stroke-width="0.75" />
<path d="M 66.52 68.232 C 66.52 69.456 67.715195 70.68 68.895996 70.68 C 72.495995 70.68 76.09599 68.232 76.09599 65.856 C 76.09599 64.6752 74.871994 63.48 73.71999 63.48 C 70.119995 63.48 66.52 65.856 66.52 68.232 Z" fill="#404040" stroke="none" stroke-width="1.0" />
<path d="M 65.0 145.25 L 73.0 145.25 L 73.0 152.75 L 65.0 152.75 L 65.0 145.25 Z" fill="#ffffff" stroke="none" stroke-width="1.0" />
<text x='65.0' y='152.75' font-family="Default" font-size="10.0" fill="#404040" >2/3</text>
<path d="M 75.18 66.04 L 76.18 66.04 L 76.18 35.0 L 75.18 35.0 M 75.18 66.04 Z" fill="#404040" stroke="none" stroke-width="0.75" />
<path d="M 84.0 75.0 L 100.0 75.0 Z" fill="none" stroke="#d6d6d6" stroke-width="0.75" />
<path d="M 84.0 75.0 L 100.0 75.0 Z" fill="none" stroke="#d6d6d6" stroke-width="0.75" />
<path d="M 87.52 80.232 C 87.52 81.456 88.715195 82.68 89.895996 82.68 C 93.495995 82.68 97.09599 80.232 97.09599 77.856 C 97.09599 76.6752 95.871994 75.48 94.71999 75.48 C 91.119995 75.48 87.52 77.856 87.52 80.232 Z" fill="#404040" stroke="none" stroke-width="1.0" />
<path d="M 86.0 155.25 L 94.0 155.25 L 94.0 162.75 L 86.0 162.75 L 86.0 155.25 Z" fill="#ffffff" stroke="none" stroke-width="1.0" />
<text x='86.0' y='162.75' font-family="Default" font-size="10.0" fill="#404040" >2/2</text>
<path d="M 96.18 78.04 L 97.18 78.04 L 97.18 47.0 L 96.18 47.0 M 96.18 78.04 Z" fill="#404040" stroke="none" stroke-width="0.75" /></g>
<text x='190.0' y='429.0' font-family="Default" font-size="10.0" fill="#000000" >2----------------</text>
<text x='145.0' y='462.0' font-family="Default" font-size="10.0" fill="#ff0000" >15</text>
<path d="M 144.0 464.0 L 144.0 496.0 Z" fill="#000000" stroke="#000000" stroke-width="0.75" />
<path d="M 268.0 464.0 L 268.0 496.0 Z" fill="#000000" stroke="#000000" stroke-width="0.75" />
<path d="M 144.0 548.0 L 144.0 598.0 Z" fill="#000000" stroke="#000000" stroke-width="0.75" />
<path d="M 268.0 548.0 L 268.0 598.0 Z" fill="#000000" stroke="#000000" stroke-width="0.75" /><g transform="translate(268.0,429.0)">
<path d="M 0.0 0.0 L 70.0 0.0 L 70.0 190.0 L 0.0 190.0 L 0.0 0.0 Z" fill="#ffffff" stroke="none" stroke-width="1.0" />
<path d="M 0.0 35.0 L 70.0 35.0 M 0.0 43.0 L 70.0 43.0 M 0.0 51.0 L 70.0 51.0 M 0.0 59.0 L 70.0 59.0 M 0.0 67.0 L 70.0 67.0 Z" fill="none" stroke="#d6d6d6" stroke-width="0.75" />
<path d="M 0.0 119.0 L 70.0 119.0 M 0.0 129.0 L 70.0 129.0 M 0.0 139.0 L 70.0 139.0 M 0.0 149.0 L 70.0 149.0 M 0.0 159.0 L 70.0 159.0 M 0.0 169.0 L 70.0 169.0 Z" fill="none" stroke="#d6d6d6" stroke-width="0.75" />
<path d="M 21.0 75.0 L 37.0 75.0 Z" fill="none" stroke="#d6d6d6" stroke-width="0.75" />
<path d="M 21.0 83.0 L 37.0 83.0 Z" fill="none" stroke="#d6d6d6" stroke-width="0.75" />
<path d="M 21.0 91.0 L 37.0 91.0 Z" fill="none" stroke="#d6d6d6" stroke-width="0.75" />
<path d="M 21.0 75.0 L 37.0 75.0 Z" fill="none" stroke="#d6d6d6" stroke-width="0.75" />
<path d="M 21.0 83.0 L 37.0 83.0 Z" fill="none" stroke="#d6d6d6" stroke-width="0.75" />
<path d="M 21.0 91.0 L 37.0 91.0 Z" fill="none" stroke="#d6d6d6" stroke-width="0.75" />
<path d="M 25.0 96.024 C 25.0 97.112 26.0624 98.200005 27.112 98.200005 C 30.312 98.200005 33.512 96.024 33.512 93.912 C 33.512 92.862404 32.424 91.8 31.4 91.8 C 28.2 91.8 25.0 93.912 25.0 96.024 Z" fill="none" stroke="#404040" stroke-width="1.0" />
<path d="M 23.0 165.25 L 31.0 165.25 L 31.0 172.75 L 23.0 172.75 L 23.0 165.25 Z" fill="#ffffff" stroke="none" stroke-width="1.0" />
<text x='23.0' y='172.75' font-family="Default" font-size="10.0" fill="#404040" >0/0</text></g>
<text x='269.0' y='462.0' font-family="Default" font-size="10.0" fill="#ff0000" >16</text>
<path d="M 268.0 464.0 L 268.0 496.0 Z" fill="#000000" stroke="#000000" stroke-width="0.75" />
<path d="M 332.0 464.0 L 333.0 464.0 L 333.0 496.0 L 332.0 496.0 L 332.0 464.0 Z" fill="#000000" stroke="#000000" stroke-width="0.75" />
<path d="M 335.0 464.0 L 338.0 464.0 L 338.0 496.0 L 335.0 496.0 L 335.0 464.0 Z" fill="#000000" stroke="#000000" stroke-width="0.75" />
<path d="M 268.0 548.0 L 268.0 598.0 Z" fill="#000000" stroke="#000000" stroke-width="0.75" />
<path d="M 332.0 548.0 L 333.0 548.0 L 333.0 598.0 L 332.0 598.0 L 332.0 548.0 Z" fill="#000000" stroke="#000000" stroke-width="0.75" />
<path d="M 335.0 548.0 L 338.0 548.0 L 338.0 598.0 L 335.0 598.0 L 335.0 548.0 Z" fill="#000000" stroke="#000000" stroke-width="0.75" />

</svg>